%TF.GenerationSoftware,KiCad,Pcbnew,9.0.1*%
%TF.CreationDate,2025-07-01T00:30:54-05:00*%
%TF.ProjectId,CAN-Sensor-Hub-v1,43414e2d-5365-46e7-936f-722d4875622d,rev?*%
%TF.SameCoordinates,Original*%
%TF.FileFunction,Copper,L3,Inr*%
%TF.FilePolarity,Positive*%
%FSLAX46Y46*%
G04 Gerber Fmt 4.6, Leading zero omitted, Abs format (unit mm)*
G04 Created by KiCad (PCBNEW 9.0.1) date 2025-07-01 00:30:54*
%MOMM*%
%LPD*%
G01*
G04 APERTURE LIST*
G04 Aperture macros list*
%AMRoundRect*
0 Rectangle with rounded corners*
0 $1 Rounding radius*
0 $2 $3 $4 $5 $6 $7 $8 $9 X,Y pos of 4 corners*
0 Add a 4 corners polygon primitive as box body*
4,1,4,$2,$3,$4,$5,$6,$7,$8,$9,$2,$3,0*
0 Add four circle primitives for the rounded corners*
1,1,$1+$1,$2,$3*
1,1,$1+$1,$4,$5*
1,1,$1+$1,$6,$7*
1,1,$1+$1,$8,$9*
0 Add four rect primitives between the rounded corners*
20,1,$1+$1,$2,$3,$4,$5,0*
20,1,$1+$1,$4,$5,$6,$7,0*
20,1,$1+$1,$6,$7,$8,$9,0*
20,1,$1+$1,$8,$9,$2,$3,0*%
G04 Aperture macros list end*
%TA.AperFunction,ComponentPad*%
%ADD10C,1.700000*%
%TD*%
%TA.AperFunction,ComponentPad*%
%ADD11R,1.700000X1.700000*%
%TD*%
%TA.AperFunction,ComponentPad*%
%ADD12C,0.600000*%
%TD*%
%TA.AperFunction,ComponentPad*%
%ADD13R,1.500000X2.300000*%
%TD*%
%TA.AperFunction,ComponentPad*%
%ADD14RoundRect,0.250001X-0.499999X-0.899999X0.499999X-0.899999X0.499999X0.899999X-0.499999X0.899999X0*%
%TD*%
%TA.AperFunction,ComponentPad*%
%ADD15O,1.500000X2.300000*%
%TD*%
%TA.AperFunction,ViaPad*%
%ADD16C,0.600000*%
%TD*%
%TA.AperFunction,Conductor*%
%ADD17C,0.381000*%
%TD*%
G04 APERTURE END LIST*
D10*
%TO.N,GNDREF*%
%TO.C,J11*%
X147500000Y-70420000D03*
%TO.N,USART2_TX*%
X147500000Y-72960000D03*
D11*
%TO.N,USART2_RX*%
X147500000Y-75500000D03*
%TD*%
%TO.N,GNDREF*%
%TO.C,J6*%
X165025000Y-80250000D03*
D10*
%TO.N,Net-(J6-Pin_2)*%
X167565000Y-80250000D03*
%TD*%
D12*
%TO.N,GNDREF*%
%TO.C,U1*%
X135200000Y-90000000D03*
X134000000Y-90000000D03*
X132700000Y-90000000D03*
X131600000Y-90000000D03*
X135200000Y-91200000D03*
X134000000Y-91200000D03*
X132700000Y-91200000D03*
X131600000Y-91200000D03*
%TD*%
D13*
%TO.N,VBAT_12V*%
%TO.C,J12*%
X128100000Y-102700000D03*
D14*
X128100000Y-107700000D03*
D15*
%TO.N,GNDREF*%
X131600000Y-102700000D03*
X131600000Y-107700000D03*
%TO.N,CAN_H*%
X135100000Y-102700000D03*
X135100000Y-107700000D03*
%TO.N,CAN_L*%
X138600000Y-102700000D03*
X138600000Y-107700000D03*
%TO.N,CAN_H*%
X142100000Y-102700000D03*
X142100000Y-107700000D03*
%TO.N,CAN_L*%
X145600000Y-102700000D03*
X145600000Y-107700000D03*
%TO.N,CAN_H*%
X149100000Y-102700000D03*
X149100000Y-107700000D03*
%TO.N,CAN_L*%
X152600000Y-102700000D03*
X152600000Y-107700000D03*
%TO.N,CAN_H*%
X156100000Y-102700000D03*
X156100000Y-107700000D03*
%TO.N,CAN_L*%
X159600000Y-102700000D03*
X159600000Y-107700000D03*
%TO.N,VBAT_12V*%
X163100000Y-102700000D03*
X163100000Y-107700000D03*
%TO.N,GNDREF*%
X166600000Y-102700000D03*
X166600000Y-107700000D03*
%TD*%
D11*
%TO.N,DIO_0_5V*%
%TO.C,J10*%
X164915000Y-62660000D03*
D10*
%TO.N,VDD_5V*%
X164915000Y-65200000D03*
%TO.N,GNDREF*%
X164915000Y-67740000D03*
%TD*%
D11*
%TO.N,DIO_1_5V*%
%TO.C,J9*%
X164915000Y-71560000D03*
D10*
%TO.N,VDD_5V*%
X164915000Y-74100000D03*
%TO.N,GNDREF*%
X164915000Y-76640000D03*
%TD*%
D16*
%TO.N,CAN_TX*%
X143055000Y-93255000D03*
%TO.N,NRST*%
X146500000Y-79850000D03*
%TO.N,GNDREF*%
X149300000Y-76450000D03*
X155500000Y-66500000D03*
%TO.N,VDD_3V3*%
X126250000Y-73750000D03*
X158300000Y-72450000D03*
X158100000Y-76200000D03*
%TO.N,GNDREF*%
X163350000Y-84750000D03*
X143950000Y-93400000D03*
X137350000Y-97350000D03*
X142110000Y-93420000D03*
%TO.N,VDD_3V3*%
X145200000Y-95050000D03*
%TO.N,CAN_RX*%
X145200000Y-91100000D03*
%TO.N,GNDREF*%
X166000000Y-82500000D03*
X155300000Y-92050000D03*
X139700000Y-69950000D03*
X155900000Y-69200000D03*
X155850000Y-71500000D03*
%TO.N,Net-(J6-Pin_2)*%
X156906493Y-94098268D03*
X156900000Y-92050000D03*
X158550000Y-91450000D03*
%TO.N,GNDREF*%
X145150000Y-75700000D03*
X143400000Y-68500000D03*
%TO.N,NRST*%
X159036500Y-87400000D03*
X156900000Y-86950000D03*
%TO.N,USART2_TX*%
X152800000Y-77800000D03*
%TO.N,USART2_RX*%
X153250000Y-78600000D03*
%TO.N,CAN_L*%
X141500000Y-94900000D03*
%TO.N,CAN_H*%
X142900000Y-94900000D03*
%TO.N,IO_LED3*%
X154636500Y-81800000D03*
%TO.N,IO_LED2*%
X153836497Y-81800000D03*
%TO.N,IO_LED3*%
X151000000Y-74100000D03*
%TO.N,IO_LED2*%
X151000000Y-71100000D03*
%TO.N,Net-(J5-SWDIO{slash}TMS)*%
X153700000Y-97300000D03*
%TO.N,NRST*%
X160600000Y-87400000D03*
X164300000Y-96400000D03*
%TO.N,Net-(J5-~{RESET})*%
X162400000Y-97300000D03*
%TO.N,Net-(J5-SWCLK{slash}TCK)*%
X147100000Y-96900000D03*
%TO.N,SWDIO{slash}TMS*%
X147800000Y-92500000D03*
X150400000Y-97300000D03*
%TO.N,VDD_3V3*%
X152200000Y-88700000D03*
%TO.N,DIO_0_3V3*%
X160900000Y-80500000D03*
%TO.N,DIO_1_3V3*%
X161646398Y-80846398D03*
%TO.N,GNDREF*%
X159500000Y-77100000D03*
X138200000Y-69900000D03*
%TO.N,VDD_3V3*%
X134600000Y-72200000D03*
X134600000Y-73000000D03*
X133800000Y-73000000D03*
X133000000Y-73800000D03*
X133800000Y-73800000D03*
X134600000Y-73800000D03*
X135400000Y-73800000D03*
X135400000Y-74600000D03*
X134600000Y-74600000D03*
X133800000Y-74600000D03*
X133000000Y-74600000D03*
%TO.N,GNDREF*%
X159700000Y-94200000D03*
%TO.N,QSPI_NCS*%
X156106493Y-94100347D03*
%TO.N,QSPI_CLK*%
X150250000Y-86550000D03*
%TO.N,QSPI_NCS*%
X143087398Y-81553988D03*
%TO.N,QSPI_CLK*%
X142097889Y-89040000D03*
%TO.N,QSPI_IO0*%
X147800000Y-85400000D03*
%TO.N,QSPI_IO1*%
X149100000Y-85600000D03*
%TO.N,QSPI_IO2*%
X150700000Y-81600000D03*
%TO.N,QSPI_IO3*%
X148400000Y-86700000D03*
%TO.N,QSPI_IO0*%
X140500000Y-89100000D03*
%TO.N,CAN_RX*%
X140295000Y-89905000D03*
%TO.N,QSPI_IO1*%
X142260000Y-81730000D03*
%TO.N,QSPI_IO2*%
X141444955Y-81745000D03*
%TO.N,GNDREF*%
X140200000Y-81720000D03*
%TO.N,OTG_HS_DP*%
X131550000Y-66930000D03*
%TO.N,OTG_HS_DM*%
X133050000Y-66950000D03*
%TO.N,I2C1_SDA*%
X158500000Y-67700000D03*
%TO.N,I2C1_SCL*%
X157400000Y-67700000D03*
%TO.N,I2C1_SDA*%
X158506443Y-94111014D03*
%TO.N,I2C1_SCL*%
X157706477Y-94103387D03*
%TO.N,DIO_1_3V3*%
X162600000Y-75550000D03*
%TO.N,DIO_0_3V3*%
X161800000Y-71800000D03*
%TO.N,VBUS_5V*%
X130300000Y-78900000D03*
X134500000Y-70800000D03*
X134950000Y-69050000D03*
X129900000Y-69000000D03*
%TO.N,VDD_5V*%
X154263455Y-74066545D03*
X155080000Y-74070000D03*
X155890000Y-74100000D03*
X141100000Y-93400000D03*
X126600000Y-80500000D03*
X127400000Y-80500000D03*
X126200000Y-77600000D03*
X127600000Y-77600000D03*
X126900000Y-77600000D03*
X126900000Y-76900000D03*
X127600000Y-76900000D03*
X133200000Y-77800000D03*
X134000000Y-77800000D03*
X134800000Y-77800000D03*
X134800000Y-77000000D03*
X134000000Y-77000000D03*
X134000000Y-76200000D03*
X133200000Y-77000000D03*
X133200000Y-76200000D03*
%TO.N,VDD_3V3*%
X162200000Y-95900000D03*
X160900000Y-97300000D03*
%TO.N,GNDREF*%
X164100000Y-94900000D03*
%TO.N,VDD_3V3*%
X144200000Y-89400000D03*
%TO.N,OTG_HS_DM*%
X148440000Y-82900000D03*
%TO.N,OTG_HS_DP*%
X147860000Y-83463500D03*
%TO.N,VDD_3V3*%
X138500000Y-95500000D03*
%TO.N,GNDREF*%
X146200000Y-96700000D03*
%TO.N,VDD_3V3*%
X144200000Y-79800000D03*
%TO.N,GNDREF*%
X149300000Y-82000000D03*
%TO.N,VDD_3V3*%
X148200000Y-82000000D03*
%TO.N,GNDREF*%
X160200000Y-79000000D03*
%TO.N,VDD_3V3*%
X159700000Y-81500000D03*
X160600000Y-83900000D03*
%TO.N,GNDREF*%
X127500000Y-73000000D03*
X127500000Y-73700000D03*
X127500000Y-74400000D03*
X127190000Y-65100000D03*
X127190000Y-65900000D03*
X137410000Y-65900000D03*
X137410000Y-65100000D03*
%TO.N,VDD_3V3*%
X159500000Y-64050000D03*
X143600000Y-64000000D03*
X151650000Y-63950000D03*
%TO.N,GNDREF*%
X144600000Y-64000000D03*
X152600000Y-63950000D03*
X160500000Y-64050000D03*
X130400000Y-90300000D03*
X168800000Y-85200000D03*
X164100000Y-89000000D03*
X168000000Y-88000000D03*
X168000000Y-93400000D03*
X168800000Y-86300000D03*
X168100000Y-90700000D03*
X129600000Y-90300000D03*
X164100000Y-88100000D03*
X163950000Y-83550000D03*
X131100000Y-94900000D03*
X167500000Y-83500000D03*
X131100000Y-96300000D03*
X164100000Y-93400000D03*
X168000000Y-89000000D03*
X131100000Y-97100000D03*
X128800000Y-90300000D03*
X131100000Y-95600000D03*
X168100000Y-91700000D03*
%TO.N,QSPI_IO3*%
X143120000Y-89060000D03*
%TD*%
D17*
%TO.N,VDD_5V*%
X154263455Y-74066545D02*
X155076545Y-74066545D01*
X149600000Y-77800000D02*
X138600000Y-77800000D01*
X153333455Y-74066545D02*
X149600000Y-77800000D01*
X154263455Y-74066545D02*
X153333455Y-74066545D01*
X155076545Y-74066545D02*
X155080000Y-74070000D01*
X155860000Y-74070000D02*
X155080000Y-74070000D01*
X155890000Y-74100000D02*
X155860000Y-74070000D01*
%TO.N,VBUS_5V*%
X134600000Y-69300000D02*
X134900000Y-69000000D01*
X129900000Y-69000000D02*
X130200000Y-69300000D01*
X130200000Y-69300000D02*
X134600000Y-69300000D01*
%TO.N,VDD_5V*%
X141100000Y-93400000D02*
X139800000Y-93400000D01*
X139050000Y-92650000D02*
X139050000Y-77950000D01*
X139800000Y-93400000D02*
X139050000Y-92650000D01*
X138900000Y-77800000D02*
X138600000Y-77800000D01*
X139050000Y-77950000D02*
X138900000Y-77800000D01*
X135600000Y-77600000D02*
X135800000Y-77800000D01*
X135800000Y-77800000D02*
X136600000Y-77800000D01*
X136600000Y-77800000D02*
X138600000Y-77800000D01*
%TD*%
%TA.AperFunction,Conductor*%
%TO.N,VDD_3V3*%
G36*
X168917539Y-61220185D02*
G01*
X168963294Y-61272989D01*
X168974500Y-61324500D01*
X168974500Y-78934108D01*
X168974500Y-79065892D01*
X168986985Y-79112488D01*
X169008608Y-79193187D01*
X169034488Y-79238011D01*
X169074500Y-79307314D01*
X169167686Y-79400500D01*
X169281814Y-79466392D01*
X169409108Y-79500500D01*
X172634108Y-79500500D01*
X172696249Y-79500500D01*
X172703736Y-79500726D01*
X172999822Y-79518636D01*
X173014686Y-79520441D01*
X173302763Y-79573233D01*
X173317300Y-79576816D01*
X173596902Y-79663944D01*
X173610893Y-79669249D01*
X173877979Y-79789454D01*
X173891225Y-79796407D01*
X174141868Y-79947926D01*
X174154179Y-79956424D01*
X174289560Y-80062488D01*
X174384729Y-80137048D01*
X174395937Y-80146978D01*
X174603021Y-80354062D01*
X174612951Y-80365270D01*
X174775283Y-80572472D01*
X174793571Y-80595814D01*
X174802075Y-80608134D01*
X174905489Y-80779201D01*
X174953589Y-80858768D01*
X174960548Y-80872027D01*
X175080748Y-81139101D01*
X175086057Y-81153102D01*
X175173182Y-81432698D01*
X175176766Y-81447236D01*
X175229558Y-81735313D01*
X175231363Y-81750178D01*
X175249047Y-82042513D01*
X175249047Y-82057487D01*
X175231363Y-82349821D01*
X175229558Y-82364686D01*
X175176766Y-82652763D01*
X175173182Y-82667301D01*
X175086057Y-82946897D01*
X175080748Y-82960898D01*
X174960548Y-83227972D01*
X174953589Y-83241231D01*
X174802077Y-83491862D01*
X174793571Y-83504185D01*
X174612951Y-83734729D01*
X174603021Y-83745937D01*
X174395937Y-83953021D01*
X174384729Y-83962951D01*
X174154185Y-84143571D01*
X174141862Y-84152077D01*
X173891231Y-84303589D01*
X173877972Y-84310548D01*
X173610898Y-84430748D01*
X173596897Y-84436057D01*
X173317301Y-84523182D01*
X173302763Y-84526766D01*
X173014686Y-84579558D01*
X172999821Y-84581363D01*
X172703736Y-84599274D01*
X172696249Y-84599500D01*
X169684108Y-84599500D01*
X169556812Y-84633608D01*
X169442686Y-84699500D01*
X169442683Y-84699502D01*
X169348036Y-84794150D01*
X169286713Y-84827635D01*
X169217021Y-84822651D01*
X169172674Y-84794150D01*
X169138017Y-84759493D01*
X169138011Y-84759488D01*
X169012488Y-84687017D01*
X169012489Y-84687017D01*
X169001006Y-84683940D01*
X168872475Y-84649500D01*
X168727525Y-84649500D01*
X168598993Y-84683940D01*
X168587511Y-84687017D01*
X168461988Y-84759488D01*
X168461982Y-84759493D01*
X168359493Y-84861982D01*
X168359488Y-84861988D01*
X168287017Y-84987511D01*
X168287016Y-84987515D01*
X168249500Y-85127525D01*
X168249500Y-85272475D01*
X168281159Y-85390626D01*
X168287017Y-85412488D01*
X168359488Y-85538011D01*
X168359490Y-85538013D01*
X168359491Y-85538015D01*
X168461985Y-85640509D01*
X168461988Y-85640510D01*
X168461991Y-85640513D01*
X168465630Y-85642614D01*
X168468086Y-85645190D01*
X168468434Y-85645457D01*
X168468392Y-85645511D01*
X168513845Y-85693181D01*
X168527067Y-85761788D01*
X168501099Y-85826653D01*
X168465630Y-85857386D01*
X168461991Y-85859486D01*
X168461982Y-85859493D01*
X168359493Y-85961982D01*
X168359488Y-85961988D01*
X168287017Y-86087511D01*
X168287016Y-86087515D01*
X168249500Y-86227525D01*
X168249500Y-86372475D01*
X168284070Y-86501490D01*
X168287017Y-86512488D01*
X168359488Y-86638011D01*
X168359490Y-86638013D01*
X168359491Y-86638015D01*
X168461985Y-86740509D01*
X168461986Y-86740510D01*
X168461988Y-86740511D01*
X168587511Y-86812982D01*
X168587512Y-86812982D01*
X168587515Y-86812984D01*
X168727525Y-86850500D01*
X168727528Y-86850500D01*
X168872472Y-86850500D01*
X168872475Y-86850500D01*
X169012485Y-86812984D01*
X169063499Y-86783530D01*
X169131398Y-86767057D01*
X169197426Y-86789909D01*
X169240617Y-86844829D01*
X169249500Y-86890917D01*
X169249500Y-107265891D01*
X169283608Y-107393187D01*
X169309910Y-107438742D01*
X169349500Y-107507314D01*
X169442686Y-107600500D01*
X169556814Y-107666392D01*
X169684108Y-107700500D01*
X169815892Y-107700500D01*
X172609108Y-107700500D01*
X172671249Y-107700500D01*
X172678736Y-107700726D01*
X172974822Y-107718636D01*
X172989686Y-107720441D01*
X173277763Y-107773233D01*
X173292300Y-107776816D01*
X173571902Y-107863944D01*
X173585893Y-107869249D01*
X173852979Y-107989454D01*
X173866225Y-107996407D01*
X174116868Y-108147926D01*
X174129179Y-108156424D01*
X174209187Y-108219106D01*
X174359729Y-108337048D01*
X174370937Y-108346978D01*
X174578021Y-108554062D01*
X174587951Y-108565270D01*
X174745808Y-108766760D01*
X174768571Y-108795814D01*
X174777075Y-108808134D01*
X174910719Y-109029207D01*
X174928589Y-109058768D01*
X174935548Y-109072027D01*
X175055748Y-109339101D01*
X175061057Y-109353102D01*
X175148182Y-109632698D01*
X175151766Y-109647236D01*
X175204558Y-109935313D01*
X175206363Y-109950178D01*
X175224047Y-110242513D01*
X175224047Y-110257487D01*
X175206363Y-110549821D01*
X175204558Y-110564686D01*
X175151766Y-110852763D01*
X175148182Y-110867301D01*
X175061057Y-111146897D01*
X175055748Y-111160898D01*
X174935548Y-111427972D01*
X174928589Y-111441231D01*
X174777077Y-111691862D01*
X174768571Y-111704185D01*
X174587951Y-111934729D01*
X174578021Y-111945937D01*
X174370937Y-112153021D01*
X174359729Y-112162951D01*
X174129185Y-112343571D01*
X174116862Y-112352077D01*
X173866231Y-112503589D01*
X173852972Y-112510548D01*
X173585898Y-112630748D01*
X173571897Y-112636057D01*
X173292301Y-112723182D01*
X173277763Y-112726766D01*
X172989686Y-112779558D01*
X172974821Y-112781363D01*
X172678736Y-112799274D01*
X172671249Y-112799500D01*
X122053751Y-112799500D01*
X122046264Y-112799274D01*
X121750178Y-112781363D01*
X121735313Y-112779558D01*
X121447236Y-112726766D01*
X121432698Y-112723182D01*
X121153102Y-112636057D01*
X121139101Y-112630748D01*
X120872027Y-112510548D01*
X120858768Y-112503589D01*
X120608137Y-112352077D01*
X120595814Y-112343571D01*
X120365270Y-112162951D01*
X120354062Y-112153021D01*
X120146978Y-111945937D01*
X120137048Y-111934729D01*
X119979192Y-111733241D01*
X119956424Y-111704179D01*
X119947926Y-111691868D01*
X119796407Y-111441225D01*
X119789454Y-111427979D01*
X119669249Y-111160893D01*
X119663942Y-111146897D01*
X119645853Y-111088848D01*
X119576816Y-110867300D01*
X119573233Y-110852763D01*
X119520441Y-110564686D01*
X119518636Y-110549821D01*
X119508119Y-110375961D01*
X119500952Y-110257472D01*
X119500952Y-110242527D01*
X119508119Y-110124038D01*
X120499500Y-110124038D01*
X120499500Y-110375961D01*
X120538910Y-110624785D01*
X120616760Y-110864383D01*
X120731132Y-111088848D01*
X120879201Y-111292649D01*
X120879205Y-111292654D01*
X121057345Y-111470794D01*
X121057350Y-111470798D01*
X121235117Y-111599952D01*
X121261155Y-111618870D01*
X121404184Y-111691747D01*
X121485616Y-111733239D01*
X121485618Y-111733239D01*
X121485621Y-111733241D01*
X121725215Y-111811090D01*
X121974038Y-111850500D01*
X121974039Y-111850500D01*
X122225961Y-111850500D01*
X122225962Y-111850500D01*
X122474785Y-111811090D01*
X122714379Y-111733241D01*
X122938845Y-111618870D01*
X123142656Y-111470793D01*
X123320793Y-111292656D01*
X123468870Y-111088845D01*
X123583241Y-110864379D01*
X123661090Y-110624785D01*
X123700500Y-110375962D01*
X123700500Y-110124038D01*
X171074500Y-110124038D01*
X171074500Y-110375961D01*
X171113910Y-110624785D01*
X171191760Y-110864383D01*
X171306132Y-111088848D01*
X171454201Y-111292649D01*
X171454205Y-111292654D01*
X171632345Y-111470794D01*
X171632350Y-111470798D01*
X171810117Y-111599952D01*
X171836155Y-111618870D01*
X171979184Y-111691747D01*
X172060616Y-111733239D01*
X172060618Y-111733239D01*
X172060621Y-111733241D01*
X172300215Y-111811090D01*
X172549038Y-111850500D01*
X172549039Y-111850500D01*
X172800961Y-111850500D01*
X172800962Y-111850500D01*
X173049785Y-111811090D01*
X173289379Y-111733241D01*
X173513845Y-111618870D01*
X173717656Y-111470793D01*
X173895793Y-111292656D01*
X174043870Y-111088845D01*
X174158241Y-110864379D01*
X174236090Y-110624785D01*
X174275500Y-110375962D01*
X174275500Y-110124038D01*
X174236090Y-109875215D01*
X174158241Y-109635621D01*
X174158239Y-109635618D01*
X174158239Y-109635616D01*
X174116747Y-109554184D01*
X174043870Y-109411155D01*
X173991520Y-109339101D01*
X173895798Y-109207350D01*
X173895794Y-109207345D01*
X173717654Y-109029205D01*
X173717649Y-109029201D01*
X173513848Y-108881132D01*
X173513847Y-108881131D01*
X173513845Y-108881130D01*
X173437690Y-108842327D01*
X173289383Y-108766760D01*
X173049785Y-108688910D01*
X172800962Y-108649500D01*
X172549038Y-108649500D01*
X172424626Y-108669205D01*
X172300214Y-108688910D01*
X172060616Y-108766760D01*
X171836151Y-108881132D01*
X171632350Y-109029201D01*
X171632345Y-109029205D01*
X171454205Y-109207345D01*
X171454201Y-109207350D01*
X171306132Y-109411151D01*
X171191760Y-109635616D01*
X171113910Y-109875214D01*
X171074500Y-110124038D01*
X123700500Y-110124038D01*
X123661090Y-109875215D01*
X123583241Y-109635621D01*
X123583239Y-109635618D01*
X123583239Y-109635616D01*
X123541747Y-109554184D01*
X123468870Y-109411155D01*
X123416520Y-109339101D01*
X123320798Y-109207350D01*
X123320794Y-109207345D01*
X123142654Y-109029205D01*
X123142649Y-109029201D01*
X122938848Y-108881132D01*
X122938847Y-108881131D01*
X122938845Y-108881130D01*
X122862690Y-108842327D01*
X122714383Y-108766760D01*
X122474785Y-108688910D01*
X122225962Y-108649500D01*
X121974038Y-108649500D01*
X121849626Y-108669205D01*
X121725214Y-108688910D01*
X121485616Y-108766760D01*
X121261151Y-108881132D01*
X121057350Y-109029201D01*
X121057345Y-109029205D01*
X120879205Y-109207345D01*
X120879201Y-109207350D01*
X120731132Y-109411151D01*
X120616760Y-109635616D01*
X120538910Y-109875214D01*
X120499500Y-110124038D01*
X119508119Y-110124038D01*
X119518636Y-109950173D01*
X119520441Y-109935313D01*
X119531455Y-109875215D01*
X119573233Y-109647232D01*
X119576817Y-109632698D01*
X119607457Y-109534371D01*
X119663945Y-109353091D01*
X119669247Y-109339111D01*
X119789458Y-109072013D01*
X119796403Y-109058781D01*
X119947931Y-108808123D01*
X119956418Y-108795827D01*
X120137055Y-108565261D01*
X120146970Y-108554070D01*
X120354070Y-108346970D01*
X120365261Y-108337055D01*
X120595827Y-108156418D01*
X120608123Y-108147931D01*
X120858781Y-107996403D01*
X120872013Y-107989458D01*
X121139111Y-107869247D01*
X121153091Y-107863945D01*
X121432702Y-107776815D01*
X121447232Y-107773233D01*
X121735317Y-107720440D01*
X121750175Y-107718636D01*
X122046264Y-107700726D01*
X122053751Y-107700500D01*
X125065890Y-107700500D01*
X125065892Y-107700500D01*
X125193186Y-107666392D01*
X125307314Y-107600500D01*
X125400500Y-107507314D01*
X125466392Y-107393186D01*
X125500500Y-107265892D01*
X125500500Y-106752136D01*
X127099500Y-106752136D01*
X127099500Y-108647863D01*
X127099501Y-108647882D01*
X127105908Y-108707481D01*
X127156202Y-108842327D01*
X127156203Y-108842328D01*
X127156204Y-108842330D01*
X127242454Y-108957546D01*
X127357670Y-109043796D01*
X127357671Y-109043796D01*
X127357672Y-109043797D01*
X127492518Y-109094091D01*
X127492517Y-109094091D01*
X127499445Y-109094835D01*
X127552128Y-109100500D01*
X127552137Y-109100500D01*
X128647863Y-109100500D01*
X128647872Y-109100500D01*
X128707482Y-109094091D01*
X128842330Y-109043796D01*
X128957546Y-108957546D01*
X129043796Y-108842330D01*
X129094091Y-108707482D01*
X129100500Y-108647872D01*
X129100500Y-108198543D01*
X130599499Y-108198543D01*
X130637947Y-108391829D01*
X130637950Y-108391839D01*
X130713364Y-108573907D01*
X130713371Y-108573920D01*
X130822860Y-108737781D01*
X130822863Y-108737785D01*
X130962214Y-108877136D01*
X130962218Y-108877139D01*
X131126079Y-108986628D01*
X131126092Y-108986635D01*
X131300239Y-109058768D01*
X131308165Y-109062051D01*
X131308169Y-109062051D01*
X131308170Y-109062052D01*
X131501456Y-109100500D01*
X131501459Y-109100500D01*
X131698543Y-109100500D01*
X131876064Y-109065188D01*
X131891835Y-109062051D01*
X132073914Y-108986632D01*
X132237782Y-108877139D01*
X132377139Y-108737782D01*
X132486632Y-108573914D01*
X132490213Y-108565270D01*
X132562049Y-108391839D01*
X132562051Y-108391835D01*
X132574632Y-108328582D01*
X132600500Y-108198543D01*
X134099499Y-108198543D01*
X134137947Y-108391829D01*
X134137950Y-108391839D01*
X134213364Y-108573907D01*
X134213371Y-108573920D01*
X134322860Y-108737781D01*
X134322863Y-108737785D01*
X134462214Y-108877136D01*
X134462218Y-108877139D01*
X134626079Y-108986628D01*
X134626092Y-108986635D01*
X134800239Y-109058768D01*
X134808165Y-109062051D01*
X134808169Y-109062051D01*
X134808170Y-109062052D01*
X135001456Y-109100500D01*
X135001459Y-109100500D01*
X135198543Y-109100500D01*
X135376064Y-109065188D01*
X135391835Y-109062051D01*
X135573914Y-108986632D01*
X135737782Y-108877139D01*
X135877139Y-108737782D01*
X135986632Y-108573914D01*
X135990213Y-108565270D01*
X136062049Y-108391839D01*
X136062051Y-108391835D01*
X136074632Y-108328582D01*
X136100500Y-108198543D01*
X137599499Y-108198543D01*
X137637947Y-108391829D01*
X137637950Y-108391839D01*
X137713364Y-108573907D01*
X137713371Y-108573920D01*
X137822860Y-108737781D01*
X137822863Y-108737785D01*
X137962214Y-108877136D01*
X137962218Y-108877139D01*
X138126079Y-108986628D01*
X138126092Y-108986635D01*
X138300239Y-109058768D01*
X138308165Y-109062051D01*
X138308169Y-109062051D01*
X138308170Y-109062052D01*
X138501456Y-109100500D01*
X138501459Y-109100500D01*
X138698543Y-109100500D01*
X138876064Y-109065188D01*
X138891835Y-109062051D01*
X139073914Y-108986632D01*
X139237782Y-108877139D01*
X139377139Y-108737782D01*
X139486632Y-108573914D01*
X139490213Y-108565270D01*
X139562049Y-108391839D01*
X139562051Y-108391835D01*
X139574632Y-108328582D01*
X139600500Y-108198543D01*
X141099499Y-108198543D01*
X141137947Y-108391829D01*
X141137950Y-108391839D01*
X141213364Y-108573907D01*
X141213371Y-108573920D01*
X141322860Y-108737781D01*
X141322863Y-108737785D01*
X141462214Y-108877136D01*
X141462218Y-108877139D01*
X141626079Y-108986628D01*
X141626092Y-108986635D01*
X141800239Y-109058768D01*
X141808165Y-109062051D01*
X141808169Y-109062051D01*
X141808170Y-109062052D01*
X142001456Y-109100500D01*
X142001459Y-109100500D01*
X142198543Y-109100500D01*
X142376064Y-109065188D01*
X142391835Y-109062051D01*
X142573914Y-108986632D01*
X142737782Y-108877139D01*
X142877139Y-108737782D01*
X142986632Y-108573914D01*
X142990213Y-108565270D01*
X143062049Y-108391839D01*
X143062051Y-108391835D01*
X143074632Y-108328582D01*
X143100500Y-108198543D01*
X144599499Y-108198543D01*
X144637947Y-108391829D01*
X144637950Y-108391839D01*
X144713364Y-108573907D01*
X144713371Y-108573920D01*
X144822860Y-108737781D01*
X144822863Y-108737785D01*
X144962214Y-108877136D01*
X144962218Y-108877139D01*
X145126079Y-108986628D01*
X145126092Y-108986635D01*
X145300239Y-109058768D01*
X145308165Y-109062051D01*
X145308169Y-109062051D01*
X145308170Y-109062052D01*
X145501456Y-109100500D01*
X145501459Y-109100500D01*
X145698543Y-109100500D01*
X145876064Y-109065188D01*
X145891835Y-109062051D01*
X146073914Y-108986632D01*
X146237782Y-108877139D01*
X146377139Y-108737782D01*
X146486632Y-108573914D01*
X146490213Y-108565270D01*
X146562049Y-108391839D01*
X146562051Y-108391835D01*
X146574632Y-108328582D01*
X146600500Y-108198543D01*
X148099499Y-108198543D01*
X148137947Y-108391829D01*
X148137950Y-108391839D01*
X148213364Y-108573907D01*
X148213371Y-108573920D01*
X148322860Y-108737781D01*
X148322863Y-108737785D01*
X148462214Y-108877136D01*
X148462218Y-108877139D01*
X148626079Y-108986628D01*
X148626092Y-108986635D01*
X148800239Y-109058768D01*
X148808165Y-109062051D01*
X148808169Y-109062051D01*
X148808170Y-109062052D01*
X149001456Y-109100500D01*
X149001459Y-109100500D01*
X149198543Y-109100500D01*
X149376064Y-109065188D01*
X149391835Y-109062051D01*
X149573914Y-108986632D01*
X149737782Y-108877139D01*
X149877139Y-108737782D01*
X149986632Y-108573914D01*
X149990213Y-108565270D01*
X150062049Y-108391839D01*
X150062051Y-108391835D01*
X150074632Y-108328582D01*
X150100500Y-108198543D01*
X151599499Y-108198543D01*
X151637947Y-108391829D01*
X151637950Y-108391839D01*
X151713364Y-108573907D01*
X151713371Y-108573920D01*
X151822860Y-108737781D01*
X151822863Y-108737785D01*
X151962214Y-108877136D01*
X151962218Y-108877139D01*
X152126079Y-108986628D01*
X152126092Y-108986635D01*
X152300239Y-109058768D01*
X152308165Y-109062051D01*
X152308169Y-109062051D01*
X152308170Y-109062052D01*
X152501456Y-109100500D01*
X152501459Y-109100500D01*
X152698543Y-109100500D01*
X152876064Y-109065188D01*
X152891835Y-109062051D01*
X153073914Y-108986632D01*
X153237782Y-108877139D01*
X153377139Y-108737782D01*
X153486632Y-108573914D01*
X153490213Y-108565270D01*
X153562049Y-108391839D01*
X153562051Y-108391835D01*
X153574632Y-108328582D01*
X153600500Y-108198543D01*
X155099499Y-108198543D01*
X155137947Y-108391829D01*
X155137950Y-108391839D01*
X155213364Y-108573907D01*
X155213371Y-108573920D01*
X155322860Y-108737781D01*
X155322863Y-108737785D01*
X155462214Y-108877136D01*
X155462218Y-108877139D01*
X155626079Y-108986628D01*
X155626092Y-108986635D01*
X155800239Y-109058768D01*
X155808165Y-109062051D01*
X155808169Y-109062051D01*
X155808170Y-109062052D01*
X156001456Y-109100500D01*
X156001459Y-109100500D01*
X156198543Y-109100500D01*
X156376064Y-109065188D01*
X156391835Y-109062051D01*
X156573914Y-108986632D01*
X156737782Y-108877139D01*
X156877139Y-108737782D01*
X156986632Y-108573914D01*
X156990213Y-108565270D01*
X157062049Y-108391839D01*
X157062051Y-108391835D01*
X157074632Y-108328582D01*
X157100500Y-108198543D01*
X158599499Y-108198543D01*
X158637947Y-108391829D01*
X158637950Y-108391839D01*
X158713364Y-108573907D01*
X158713371Y-108573920D01*
X158822860Y-108737781D01*
X158822863Y-108737785D01*
X158962214Y-108877136D01*
X158962218Y-108877139D01*
X159126079Y-108986628D01*
X159126092Y-108986635D01*
X159300239Y-109058768D01*
X159308165Y-109062051D01*
X159308169Y-109062051D01*
X159308170Y-109062052D01*
X159501456Y-109100500D01*
X159501459Y-109100500D01*
X159698543Y-109100500D01*
X159876064Y-109065188D01*
X159891835Y-109062051D01*
X160073914Y-108986632D01*
X160237782Y-108877139D01*
X160377139Y-108737782D01*
X160486632Y-108573914D01*
X160490213Y-108565270D01*
X160562049Y-108391839D01*
X160562051Y-108391835D01*
X160574632Y-108328582D01*
X160600500Y-108198543D01*
X162099499Y-108198543D01*
X162137947Y-108391829D01*
X162137950Y-108391839D01*
X162213364Y-108573907D01*
X162213371Y-108573920D01*
X162322860Y-108737781D01*
X162322863Y-108737785D01*
X162462214Y-108877136D01*
X162462218Y-108877139D01*
X162626079Y-108986628D01*
X162626092Y-108986635D01*
X162800239Y-109058768D01*
X162808165Y-109062051D01*
X162808169Y-109062051D01*
X162808170Y-109062052D01*
X163001456Y-109100500D01*
X163001459Y-109100500D01*
X163198543Y-109100500D01*
X163376064Y-109065188D01*
X163391835Y-109062051D01*
X163573914Y-108986632D01*
X163737782Y-108877139D01*
X163877139Y-108737782D01*
X163986632Y-108573914D01*
X163990213Y-108565270D01*
X164062049Y-108391839D01*
X164062051Y-108391835D01*
X164074632Y-108328582D01*
X164100500Y-108198543D01*
X165599499Y-108198543D01*
X165637947Y-108391829D01*
X165637950Y-108391839D01*
X165713364Y-108573907D01*
X165713371Y-108573920D01*
X165822860Y-108737781D01*
X165822863Y-108737785D01*
X165962214Y-108877136D01*
X165962218Y-108877139D01*
X166126079Y-108986628D01*
X166126092Y-108986635D01*
X166300239Y-109058768D01*
X166308165Y-109062051D01*
X166308169Y-109062051D01*
X166308170Y-109062052D01*
X166501456Y-109100500D01*
X166501459Y-109100500D01*
X166698543Y-109100500D01*
X166876064Y-109065188D01*
X166891835Y-109062051D01*
X167073914Y-108986632D01*
X167237782Y-108877139D01*
X167377139Y-108737782D01*
X167486632Y-108573914D01*
X167490213Y-108565270D01*
X167562049Y-108391839D01*
X167562051Y-108391835D01*
X167574632Y-108328582D01*
X167600500Y-108198543D01*
X167600500Y-107201456D01*
X167562052Y-107008170D01*
X167562051Y-107008169D01*
X167562051Y-107008165D01*
X167562049Y-107008160D01*
X167486635Y-106826092D01*
X167486628Y-106826079D01*
X167377139Y-106662218D01*
X167377136Y-106662214D01*
X167237785Y-106522863D01*
X167237781Y-106522860D01*
X167073920Y-106413371D01*
X167073907Y-106413364D01*
X166891839Y-106337950D01*
X166891829Y-106337947D01*
X166698543Y-106299500D01*
X166698541Y-106299500D01*
X166501459Y-106299500D01*
X166501457Y-106299500D01*
X166308170Y-106337947D01*
X166308160Y-106337950D01*
X166126092Y-106413364D01*
X166126079Y-106413371D01*
X165962218Y-106522860D01*
X165962214Y-106522863D01*
X165822863Y-106662214D01*
X165822860Y-106662218D01*
X165713371Y-106826079D01*
X165713364Y-106826092D01*
X165637950Y-107008160D01*
X165637947Y-107008170D01*
X165599500Y-107201456D01*
X165599500Y-107201459D01*
X165599500Y-108198541D01*
X165599500Y-108198543D01*
X165599499Y-108198543D01*
X164100500Y-108198543D01*
X164100500Y-107201456D01*
X164062052Y-107008170D01*
X164062051Y-107008169D01*
X164062051Y-107008165D01*
X164062049Y-107008160D01*
X163986635Y-106826092D01*
X163986628Y-106826079D01*
X163877139Y-106662218D01*
X163877136Y-106662214D01*
X163737785Y-106522863D01*
X163737781Y-106522860D01*
X163573920Y-106413371D01*
X163573907Y-106413364D01*
X163391839Y-106337950D01*
X163391829Y-106337947D01*
X163198543Y-106299500D01*
X163198541Y-106299500D01*
X163001459Y-106299500D01*
X163001457Y-106299500D01*
X162808170Y-106337947D01*
X162808160Y-106337950D01*
X162626092Y-106413364D01*
X162626079Y-106413371D01*
X162462218Y-106522860D01*
X162462214Y-106522863D01*
X162322863Y-106662214D01*
X162322860Y-106662218D01*
X162213371Y-106826079D01*
X162213364Y-106826092D01*
X162137950Y-107008160D01*
X162137947Y-107008170D01*
X162099500Y-107201456D01*
X162099500Y-107201459D01*
X162099500Y-108198541D01*
X162099500Y-108198543D01*
X162099499Y-108198543D01*
X160600500Y-108198543D01*
X160600500Y-107201456D01*
X160562052Y-107008170D01*
X160562051Y-107008169D01*
X160562051Y-107008165D01*
X160562049Y-107008160D01*
X160486635Y-106826092D01*
X160486628Y-106826079D01*
X160377139Y-106662218D01*
X160377136Y-106662214D01*
X160237785Y-106522863D01*
X160237781Y-106522860D01*
X160073920Y-106413371D01*
X160073907Y-106413364D01*
X159891839Y-106337950D01*
X159891829Y-106337947D01*
X159698543Y-106299500D01*
X159698541Y-106299500D01*
X159501459Y-106299500D01*
X159501457Y-106299500D01*
X159308170Y-106337947D01*
X159308160Y-106337950D01*
X159126092Y-106413364D01*
X159126079Y-106413371D01*
X158962218Y-106522860D01*
X158962214Y-106522863D01*
X158822863Y-106662214D01*
X158822860Y-106662218D01*
X158713371Y-106826079D01*
X158713364Y-106826092D01*
X158637950Y-107008160D01*
X158637947Y-107008170D01*
X158599500Y-107201456D01*
X158599500Y-107201459D01*
X158599500Y-108198541D01*
X158599500Y-108198543D01*
X158599499Y-108198543D01*
X157100500Y-108198543D01*
X157100500Y-107201456D01*
X157062052Y-107008170D01*
X157062051Y-107008169D01*
X157062051Y-107008165D01*
X157062049Y-107008160D01*
X156986635Y-106826092D01*
X156986628Y-106826079D01*
X156877139Y-106662218D01*
X156877136Y-106662214D01*
X156737785Y-106522863D01*
X156737781Y-106522860D01*
X156573920Y-106413371D01*
X156573907Y-106413364D01*
X156391839Y-106337950D01*
X156391829Y-106337947D01*
X156198543Y-106299500D01*
X156198541Y-106299500D01*
X156001459Y-106299500D01*
X156001457Y-106299500D01*
X155808170Y-106337947D01*
X155808160Y-106337950D01*
X155626092Y-106413364D01*
X155626079Y-106413371D01*
X155462218Y-106522860D01*
X155462214Y-106522863D01*
X155322863Y-106662214D01*
X155322860Y-106662218D01*
X155213371Y-106826079D01*
X155213364Y-106826092D01*
X155137950Y-107008160D01*
X155137947Y-107008170D01*
X155099500Y-107201456D01*
X155099500Y-107201459D01*
X155099500Y-108198541D01*
X155099500Y-108198543D01*
X155099499Y-108198543D01*
X153600500Y-108198543D01*
X153600500Y-107201456D01*
X153562052Y-107008170D01*
X153562051Y-107008169D01*
X153562051Y-107008165D01*
X153562049Y-107008160D01*
X153486635Y-106826092D01*
X153486628Y-106826079D01*
X153377139Y-106662218D01*
X153377136Y-106662214D01*
X153237785Y-106522863D01*
X153237781Y-106522860D01*
X153073920Y-106413371D01*
X153073907Y-106413364D01*
X152891839Y-106337950D01*
X152891829Y-106337947D01*
X152698543Y-106299500D01*
X152698541Y-106299500D01*
X152501459Y-106299500D01*
X152501457Y-106299500D01*
X152308170Y-106337947D01*
X152308160Y-106337950D01*
X152126092Y-106413364D01*
X152126079Y-106413371D01*
X151962218Y-106522860D01*
X151962214Y-106522863D01*
X151822863Y-106662214D01*
X151822860Y-106662218D01*
X151713371Y-106826079D01*
X151713364Y-106826092D01*
X151637950Y-107008160D01*
X151637947Y-107008170D01*
X151599500Y-107201456D01*
X151599500Y-107201459D01*
X151599500Y-108198541D01*
X151599500Y-108198543D01*
X151599499Y-108198543D01*
X150100500Y-108198543D01*
X150100500Y-107201456D01*
X150062052Y-107008170D01*
X150062051Y-107008169D01*
X150062051Y-107008165D01*
X150062049Y-107008160D01*
X149986635Y-106826092D01*
X149986628Y-106826079D01*
X149877139Y-106662218D01*
X149877136Y-106662214D01*
X149737785Y-106522863D01*
X149737781Y-106522860D01*
X149573920Y-106413371D01*
X149573907Y-106413364D01*
X149391839Y-106337950D01*
X149391829Y-106337947D01*
X149198543Y-106299500D01*
X149198541Y-106299500D01*
X149001459Y-106299500D01*
X149001457Y-106299500D01*
X148808170Y-106337947D01*
X148808160Y-106337950D01*
X148626092Y-106413364D01*
X148626079Y-106413371D01*
X148462218Y-106522860D01*
X148462214Y-106522863D01*
X148322863Y-106662214D01*
X148322860Y-106662218D01*
X148213371Y-106826079D01*
X148213364Y-106826092D01*
X148137950Y-107008160D01*
X148137947Y-107008170D01*
X148099500Y-107201456D01*
X148099500Y-107201459D01*
X148099500Y-108198541D01*
X148099500Y-108198543D01*
X148099499Y-108198543D01*
X146600500Y-108198543D01*
X146600500Y-107201456D01*
X146562052Y-107008170D01*
X146562051Y-107008169D01*
X146562051Y-107008165D01*
X146562049Y-107008160D01*
X146486635Y-106826092D01*
X146486628Y-106826079D01*
X146377139Y-106662218D01*
X146377136Y-106662214D01*
X146237785Y-106522863D01*
X146237781Y-106522860D01*
X146073920Y-106413371D01*
X146073907Y-106413364D01*
X145891839Y-106337950D01*
X145891829Y-106337947D01*
X145698543Y-106299500D01*
X145698541Y-106299500D01*
X145501459Y-106299500D01*
X145501457Y-106299500D01*
X145308170Y-106337947D01*
X145308160Y-106337950D01*
X145126092Y-106413364D01*
X145126079Y-106413371D01*
X144962218Y-106522860D01*
X144962214Y-106522863D01*
X144822863Y-106662214D01*
X144822860Y-106662218D01*
X144713371Y-106826079D01*
X144713364Y-106826092D01*
X144637950Y-107008160D01*
X144637947Y-107008170D01*
X144599500Y-107201456D01*
X144599500Y-107201459D01*
X144599500Y-108198541D01*
X144599500Y-108198543D01*
X144599499Y-108198543D01*
X143100500Y-108198543D01*
X143100500Y-107201456D01*
X143062052Y-107008170D01*
X143062051Y-107008169D01*
X143062051Y-107008165D01*
X143062049Y-107008160D01*
X142986635Y-106826092D01*
X142986628Y-106826079D01*
X142877139Y-106662218D01*
X142877136Y-106662214D01*
X142737785Y-106522863D01*
X142737781Y-106522860D01*
X142573920Y-106413371D01*
X142573907Y-106413364D01*
X142391839Y-106337950D01*
X142391829Y-106337947D01*
X142198543Y-106299500D01*
X142198541Y-106299500D01*
X142001459Y-106299500D01*
X142001457Y-106299500D01*
X141808170Y-106337947D01*
X141808160Y-106337950D01*
X141626092Y-106413364D01*
X141626079Y-106413371D01*
X141462218Y-106522860D01*
X141462214Y-106522863D01*
X141322863Y-106662214D01*
X141322860Y-106662218D01*
X141213371Y-106826079D01*
X141213364Y-106826092D01*
X141137950Y-107008160D01*
X141137947Y-107008170D01*
X141099500Y-107201456D01*
X141099500Y-107201459D01*
X141099500Y-108198541D01*
X141099500Y-108198543D01*
X141099499Y-108198543D01*
X139600500Y-108198543D01*
X139600500Y-107201456D01*
X139562052Y-107008170D01*
X139562051Y-107008169D01*
X139562051Y-107008165D01*
X139562049Y-107008160D01*
X139486635Y-106826092D01*
X139486628Y-106826079D01*
X139377139Y-106662218D01*
X139377136Y-106662214D01*
X139237785Y-106522863D01*
X139237781Y-106522860D01*
X139073920Y-106413371D01*
X139073907Y-106413364D01*
X138891839Y-106337950D01*
X138891829Y-106337947D01*
X138698543Y-106299500D01*
X138698541Y-106299500D01*
X138501459Y-106299500D01*
X138501457Y-106299500D01*
X138308170Y-106337947D01*
X138308160Y-106337950D01*
X138126092Y-106413364D01*
X138126079Y-106413371D01*
X137962218Y-106522860D01*
X137962214Y-106522863D01*
X137822863Y-106662214D01*
X137822860Y-106662218D01*
X137713371Y-106826079D01*
X137713364Y-106826092D01*
X137637950Y-107008160D01*
X137637947Y-107008170D01*
X137599500Y-107201456D01*
X137599500Y-107201459D01*
X137599500Y-108198541D01*
X137599500Y-108198543D01*
X137599499Y-108198543D01*
X136100500Y-108198543D01*
X136100500Y-107201456D01*
X136062052Y-107008170D01*
X136062051Y-107008169D01*
X136062051Y-107008165D01*
X136062049Y-107008160D01*
X135986635Y-106826092D01*
X135986628Y-106826079D01*
X135877139Y-106662218D01*
X135877136Y-106662214D01*
X135737785Y-106522863D01*
X135737781Y-106522860D01*
X135573920Y-106413371D01*
X135573907Y-106413364D01*
X135391839Y-106337950D01*
X135391829Y-106337947D01*
X135198543Y-106299500D01*
X135198541Y-106299500D01*
X135001459Y-106299500D01*
X135001457Y-106299500D01*
X134808170Y-106337947D01*
X134808160Y-106337950D01*
X134626092Y-106413364D01*
X134626079Y-106413371D01*
X134462218Y-106522860D01*
X134462214Y-106522863D01*
X134322863Y-106662214D01*
X134322860Y-106662218D01*
X134213371Y-106826079D01*
X134213364Y-106826092D01*
X134137950Y-107008160D01*
X134137947Y-107008170D01*
X134099500Y-107201456D01*
X134099500Y-107201459D01*
X134099500Y-108198541D01*
X134099500Y-108198543D01*
X134099499Y-108198543D01*
X132600500Y-108198543D01*
X132600500Y-107201456D01*
X132562052Y-107008170D01*
X132562051Y-107008169D01*
X132562051Y-107008165D01*
X132562049Y-107008160D01*
X132486635Y-106826092D01*
X132486628Y-106826079D01*
X132377139Y-106662218D01*
X132377136Y-106662214D01*
X132237785Y-106522863D01*
X132237781Y-106522860D01*
X132073920Y-106413371D01*
X132073907Y-106413364D01*
X131891839Y-106337950D01*
X131891829Y-106337947D01*
X131698543Y-106299500D01*
X131698541Y-106299500D01*
X131501459Y-106299500D01*
X131501457Y-106299500D01*
X131308170Y-106337947D01*
X131308160Y-106337950D01*
X131126092Y-106413364D01*
X131126079Y-106413371D01*
X130962218Y-106522860D01*
X130962214Y-106522863D01*
X130822863Y-106662214D01*
X130822860Y-106662218D01*
X130713371Y-106826079D01*
X130713364Y-106826092D01*
X130637950Y-107008160D01*
X130637947Y-107008170D01*
X130599500Y-107201456D01*
X130599500Y-107201459D01*
X130599500Y-108198541D01*
X130599500Y-108198543D01*
X130599499Y-108198543D01*
X129100500Y-108198543D01*
X129100500Y-106752128D01*
X129094091Y-106692518D01*
X129043796Y-106557670D01*
X128957546Y-106442454D01*
X128842330Y-106356204D01*
X128842328Y-106356203D01*
X128842327Y-106356202D01*
X128707481Y-106305908D01*
X128707482Y-106305908D01*
X128647882Y-106299501D01*
X128647880Y-106299500D01*
X128647872Y-106299500D01*
X127552128Y-106299500D01*
X127552120Y-106299500D01*
X127552117Y-106299501D01*
X127492518Y-106305908D01*
X127357672Y-106356202D01*
X127357670Y-106356204D01*
X127242454Y-106442454D01*
X127156204Y-106557670D01*
X127156202Y-106557672D01*
X127105908Y-106692518D01*
X127099501Y-106752117D01*
X127099500Y-106752136D01*
X125500500Y-106752136D01*
X125500500Y-101525321D01*
X127099500Y-101525321D01*
X127099500Y-103874678D01*
X127114032Y-103947735D01*
X127114033Y-103947739D01*
X127114034Y-103947740D01*
X127169399Y-104030601D01*
X127216470Y-104062052D01*
X127252260Y-104085966D01*
X127252264Y-104085967D01*
X127325321Y-104100499D01*
X127325324Y-104100500D01*
X127325326Y-104100500D01*
X128874676Y-104100500D01*
X128874677Y-104100499D01*
X128947740Y-104085966D01*
X129030601Y-104030601D01*
X129085966Y-103947740D01*
X129100500Y-103874674D01*
X129100500Y-103198543D01*
X130599499Y-103198543D01*
X130637947Y-103391829D01*
X130637950Y-103391839D01*
X130713364Y-103573907D01*
X130713371Y-103573920D01*
X130822860Y-103737781D01*
X130822863Y-103737785D01*
X130962214Y-103877136D01*
X130962218Y-103877139D01*
X131126079Y-103986628D01*
X131126092Y-103986635D01*
X131232237Y-104030601D01*
X131308165Y-104062051D01*
X131308169Y-104062051D01*
X131308170Y-104062052D01*
X131501456Y-104100500D01*
X131501459Y-104100500D01*
X131698543Y-104100500D01*
X131828582Y-104074632D01*
X131891835Y-104062051D01*
X132073914Y-103986632D01*
X132237782Y-103877139D01*
X132377139Y-103737782D01*
X132486632Y-103573914D01*
X132562051Y-103391835D01*
X132600500Y-103198543D01*
X134099499Y-103198543D01*
X134137947Y-103391829D01*
X134137950Y-103391839D01*
X134213364Y-103573907D01*
X134213371Y-103573920D01*
X134322860Y-103737781D01*
X134322863Y-103737785D01*
X134462214Y-103877136D01*
X134462218Y-103877139D01*
X134626079Y-103986628D01*
X134626092Y-103986635D01*
X134732237Y-104030601D01*
X134808165Y-104062051D01*
X134808169Y-104062051D01*
X134808170Y-104062052D01*
X135001456Y-104100500D01*
X135001459Y-104100500D01*
X135198543Y-104100500D01*
X135328582Y-104074632D01*
X135391835Y-104062051D01*
X135573914Y-103986632D01*
X135737782Y-103877139D01*
X135877139Y-103737782D01*
X135986632Y-103573914D01*
X136062051Y-103391835D01*
X136100500Y-103198543D01*
X137599499Y-103198543D01*
X137637947Y-103391829D01*
X137637950Y-103391839D01*
X137713364Y-103573907D01*
X137713371Y-103573920D01*
X137822860Y-103737781D01*
X137822863Y-103737785D01*
X137962214Y-103877136D01*
X137962218Y-103877139D01*
X138126079Y-103986628D01*
X138126092Y-103986635D01*
X138232237Y-104030601D01*
X138308165Y-104062051D01*
X138308169Y-104062051D01*
X138308170Y-104062052D01*
X138501456Y-104100500D01*
X138501459Y-104100500D01*
X138698543Y-104100500D01*
X138828582Y-104074632D01*
X138891835Y-104062051D01*
X139073914Y-103986632D01*
X139237782Y-103877139D01*
X139377139Y-103737782D01*
X139486632Y-103573914D01*
X139562051Y-103391835D01*
X139600500Y-103198543D01*
X141099499Y-103198543D01*
X141137947Y-103391829D01*
X141137950Y-103391839D01*
X141213364Y-103573907D01*
X141213371Y-103573920D01*
X141322860Y-103737781D01*
X141322863Y-103737785D01*
X141462214Y-103877136D01*
X141462218Y-103877139D01*
X141626079Y-103986628D01*
X141626092Y-103986635D01*
X141732237Y-104030601D01*
X141808165Y-104062051D01*
X141808169Y-104062051D01*
X141808170Y-104062052D01*
X142001456Y-104100500D01*
X142001459Y-104100500D01*
X142198543Y-104100500D01*
X142328582Y-104074632D01*
X142391835Y-104062051D01*
X142573914Y-103986632D01*
X142737782Y-103877139D01*
X142877139Y-103737782D01*
X142986632Y-103573914D01*
X143062051Y-103391835D01*
X143100500Y-103198543D01*
X144599499Y-103198543D01*
X144637947Y-103391829D01*
X144637950Y-103391839D01*
X144713364Y-103573907D01*
X144713371Y-103573920D01*
X144822860Y-103737781D01*
X144822863Y-103737785D01*
X144962214Y-103877136D01*
X144962218Y-103877139D01*
X145126079Y-103986628D01*
X145126092Y-103986635D01*
X145232237Y-104030601D01*
X145308165Y-104062051D01*
X145308169Y-104062051D01*
X145308170Y-104062052D01*
X145501456Y-104100500D01*
X145501459Y-104100500D01*
X145698543Y-104100500D01*
X145828582Y-104074632D01*
X145891835Y-104062051D01*
X146073914Y-103986632D01*
X146237782Y-103877139D01*
X146377139Y-103737782D01*
X146486632Y-103573914D01*
X146562051Y-103391835D01*
X146600500Y-103198543D01*
X148099499Y-103198543D01*
X148137947Y-103391829D01*
X148137950Y-103391839D01*
X148213364Y-103573907D01*
X148213371Y-103573920D01*
X148322860Y-103737781D01*
X148322863Y-103737785D01*
X148462214Y-103877136D01*
X148462218Y-103877139D01*
X148626079Y-103986628D01*
X148626092Y-103986635D01*
X148732237Y-104030601D01*
X148808165Y-104062051D01*
X148808169Y-104062051D01*
X148808170Y-104062052D01*
X149001456Y-104100500D01*
X149001459Y-104100500D01*
X149198543Y-104100500D01*
X149328582Y-104074632D01*
X149391835Y-104062051D01*
X149573914Y-103986632D01*
X149737782Y-103877139D01*
X149877139Y-103737782D01*
X149986632Y-103573914D01*
X150062051Y-103391835D01*
X150100500Y-103198543D01*
X151599499Y-103198543D01*
X151637947Y-103391829D01*
X151637950Y-103391839D01*
X151713364Y-103573907D01*
X151713371Y-103573920D01*
X151822860Y-103737781D01*
X151822863Y-103737785D01*
X151962214Y-103877136D01*
X151962218Y-103877139D01*
X152126079Y-103986628D01*
X152126092Y-103986635D01*
X152232237Y-104030601D01*
X152308165Y-104062051D01*
X152308169Y-104062051D01*
X152308170Y-104062052D01*
X152501456Y-104100500D01*
X152501459Y-104100500D01*
X152698543Y-104100500D01*
X152828582Y-104074632D01*
X152891835Y-104062051D01*
X153073914Y-103986632D01*
X153237782Y-103877139D01*
X153377139Y-103737782D01*
X153486632Y-103573914D01*
X153562051Y-103391835D01*
X153600500Y-103198543D01*
X155099499Y-103198543D01*
X155137947Y-103391829D01*
X155137950Y-103391839D01*
X155213364Y-103573907D01*
X155213371Y-103573920D01*
X155322860Y-103737781D01*
X155322863Y-103737785D01*
X155462214Y-103877136D01*
X155462218Y-103877139D01*
X155626079Y-103986628D01*
X155626092Y-103986635D01*
X155732237Y-104030601D01*
X155808165Y-104062051D01*
X155808169Y-104062051D01*
X155808170Y-104062052D01*
X156001456Y-104100500D01*
X156001459Y-104100500D01*
X156198543Y-104100500D01*
X156328582Y-104074632D01*
X156391835Y-104062051D01*
X156573914Y-103986632D01*
X156737782Y-103877139D01*
X156877139Y-103737782D01*
X156986632Y-103573914D01*
X157062051Y-103391835D01*
X157100500Y-103198543D01*
X158599499Y-103198543D01*
X158637947Y-103391829D01*
X158637950Y-103391839D01*
X158713364Y-103573907D01*
X158713371Y-103573920D01*
X158822860Y-103737781D01*
X158822863Y-103737785D01*
X158962214Y-103877136D01*
X158962218Y-103877139D01*
X159126079Y-103986628D01*
X159126092Y-103986635D01*
X159232237Y-104030601D01*
X159308165Y-104062051D01*
X159308169Y-104062051D01*
X159308170Y-104062052D01*
X159501456Y-104100500D01*
X159501459Y-104100500D01*
X159698543Y-104100500D01*
X159828582Y-104074632D01*
X159891835Y-104062051D01*
X160073914Y-103986632D01*
X160237782Y-103877139D01*
X160377139Y-103737782D01*
X160486632Y-103573914D01*
X160562051Y-103391835D01*
X160600500Y-103198543D01*
X162099499Y-103198543D01*
X162137947Y-103391829D01*
X162137950Y-103391839D01*
X162213364Y-103573907D01*
X162213371Y-103573920D01*
X162322860Y-103737781D01*
X162322863Y-103737785D01*
X162462214Y-103877136D01*
X162462218Y-103877139D01*
X162626079Y-103986628D01*
X162626092Y-103986635D01*
X162732237Y-104030601D01*
X162808165Y-104062051D01*
X162808169Y-104062051D01*
X162808170Y-104062052D01*
X163001456Y-104100500D01*
X163001459Y-104100500D01*
X163198543Y-104100500D01*
X163328582Y-104074632D01*
X163391835Y-104062051D01*
X163573914Y-103986632D01*
X163737782Y-103877139D01*
X163877139Y-103737782D01*
X163986632Y-103573914D01*
X164062051Y-103391835D01*
X164100500Y-103198543D01*
X165599499Y-103198543D01*
X165637947Y-103391829D01*
X165637950Y-103391839D01*
X165713364Y-103573907D01*
X165713371Y-103573920D01*
X165822860Y-103737781D01*
X165822863Y-103737785D01*
X165962214Y-103877136D01*
X165962218Y-103877139D01*
X166126079Y-103986628D01*
X166126092Y-103986635D01*
X166232237Y-104030601D01*
X166308165Y-104062051D01*
X166308169Y-104062051D01*
X166308170Y-104062052D01*
X166501456Y-104100500D01*
X166501459Y-104100500D01*
X166698543Y-104100500D01*
X166828582Y-104074632D01*
X166891835Y-104062051D01*
X167073914Y-103986632D01*
X167237782Y-103877139D01*
X167377139Y-103737782D01*
X167486632Y-103573914D01*
X167562051Y-103391835D01*
X167600500Y-103198541D01*
X167600500Y-102201459D01*
X167600500Y-102201456D01*
X167562052Y-102008170D01*
X167562051Y-102008169D01*
X167562051Y-102008165D01*
X167562049Y-102008160D01*
X167486635Y-101826092D01*
X167486628Y-101826079D01*
X167377139Y-101662218D01*
X167377136Y-101662214D01*
X167237785Y-101522863D01*
X167237781Y-101522860D01*
X167073920Y-101413371D01*
X167073907Y-101413364D01*
X166891839Y-101337950D01*
X166891829Y-101337947D01*
X166698543Y-101299500D01*
X166698541Y-101299500D01*
X166501459Y-101299500D01*
X166501457Y-101299500D01*
X166308170Y-101337947D01*
X166308160Y-101337950D01*
X166126092Y-101413364D01*
X166126079Y-101413371D01*
X165962218Y-101522860D01*
X165962214Y-101522863D01*
X165822863Y-101662214D01*
X165822860Y-101662218D01*
X165713371Y-101826079D01*
X165713364Y-101826092D01*
X165637950Y-102008160D01*
X165637947Y-102008170D01*
X165599500Y-102201456D01*
X165599500Y-102201459D01*
X165599500Y-103198541D01*
X165599500Y-103198543D01*
X165599499Y-103198543D01*
X164100500Y-103198543D01*
X164100500Y-103198541D01*
X164100500Y-102201459D01*
X164100500Y-102201456D01*
X164062052Y-102008170D01*
X164062051Y-102008169D01*
X164062051Y-102008165D01*
X164062049Y-102008160D01*
X163986635Y-101826092D01*
X163986628Y-101826079D01*
X163877139Y-101662218D01*
X163877136Y-101662214D01*
X163737785Y-101522863D01*
X163737781Y-101522860D01*
X163573920Y-101413371D01*
X163573907Y-101413364D01*
X163391839Y-101337950D01*
X163391829Y-101337947D01*
X163198543Y-101299500D01*
X163198541Y-101299500D01*
X163001459Y-101299500D01*
X163001457Y-101299500D01*
X162808170Y-101337947D01*
X162808160Y-101337950D01*
X162626092Y-101413364D01*
X162626079Y-101413371D01*
X162462218Y-101522860D01*
X162462214Y-101522863D01*
X162322863Y-101662214D01*
X162322860Y-101662218D01*
X162213371Y-101826079D01*
X162213364Y-101826092D01*
X162137950Y-102008160D01*
X162137947Y-102008170D01*
X162099500Y-102201456D01*
X162099500Y-102201459D01*
X162099500Y-103198541D01*
X162099500Y-103198543D01*
X162099499Y-103198543D01*
X160600500Y-103198543D01*
X160600500Y-103198541D01*
X160600500Y-102201459D01*
X160600500Y-102201456D01*
X160562052Y-102008170D01*
X160562051Y-102008169D01*
X160562051Y-102008165D01*
X160562049Y-102008160D01*
X160486635Y-101826092D01*
X160486628Y-101826079D01*
X160377139Y-101662218D01*
X160377136Y-101662214D01*
X160237785Y-101522863D01*
X160237781Y-101522860D01*
X160073920Y-101413371D01*
X160073907Y-101413364D01*
X159891839Y-101337950D01*
X159891829Y-101337947D01*
X159698543Y-101299500D01*
X159698541Y-101299500D01*
X159501459Y-101299500D01*
X159501457Y-101299500D01*
X159308170Y-101337947D01*
X159308160Y-101337950D01*
X159126092Y-101413364D01*
X159126079Y-101413371D01*
X158962218Y-101522860D01*
X158962214Y-101522863D01*
X158822863Y-101662214D01*
X158822860Y-101662218D01*
X158713371Y-101826079D01*
X158713364Y-101826092D01*
X158637950Y-102008160D01*
X158637947Y-102008170D01*
X158599500Y-102201456D01*
X158599500Y-102201459D01*
X158599500Y-103198541D01*
X158599500Y-103198543D01*
X158599499Y-103198543D01*
X157100500Y-103198543D01*
X157100500Y-103198541D01*
X157100500Y-102201459D01*
X157100500Y-102201456D01*
X157062052Y-102008170D01*
X157062051Y-102008169D01*
X157062051Y-102008165D01*
X157062049Y-102008160D01*
X156986635Y-101826092D01*
X156986628Y-101826079D01*
X156877139Y-101662218D01*
X156877136Y-101662214D01*
X156737785Y-101522863D01*
X156737781Y-101522860D01*
X156573920Y-101413371D01*
X156573907Y-101413364D01*
X156391839Y-101337950D01*
X156391829Y-101337947D01*
X156198543Y-101299500D01*
X156198541Y-101299500D01*
X156001459Y-101299500D01*
X156001457Y-101299500D01*
X155808170Y-101337947D01*
X155808160Y-101337950D01*
X155626092Y-101413364D01*
X155626079Y-101413371D01*
X155462218Y-101522860D01*
X155462214Y-101522863D01*
X155322863Y-101662214D01*
X155322860Y-101662218D01*
X155213371Y-101826079D01*
X155213364Y-101826092D01*
X155137950Y-102008160D01*
X155137947Y-102008170D01*
X155099500Y-102201456D01*
X155099500Y-102201459D01*
X155099500Y-103198541D01*
X155099500Y-103198543D01*
X155099499Y-103198543D01*
X153600500Y-103198543D01*
X153600500Y-103198541D01*
X153600500Y-102201459D01*
X153600500Y-102201456D01*
X153562052Y-102008170D01*
X153562051Y-102008169D01*
X153562051Y-102008165D01*
X153562049Y-102008160D01*
X153486635Y-101826092D01*
X153486628Y-101826079D01*
X153377139Y-101662218D01*
X153377136Y-101662214D01*
X153237785Y-101522863D01*
X153237781Y-101522860D01*
X153073920Y-101413371D01*
X153073907Y-101413364D01*
X152891839Y-101337950D01*
X152891829Y-101337947D01*
X152698543Y-101299500D01*
X152698541Y-101299500D01*
X152501459Y-101299500D01*
X152501457Y-101299500D01*
X152308170Y-101337947D01*
X152308160Y-101337950D01*
X152126092Y-101413364D01*
X152126079Y-101413371D01*
X151962218Y-101522860D01*
X151962214Y-101522863D01*
X151822863Y-101662214D01*
X151822860Y-101662218D01*
X151713371Y-101826079D01*
X151713364Y-101826092D01*
X151637950Y-102008160D01*
X151637947Y-102008170D01*
X151599500Y-102201456D01*
X151599500Y-102201459D01*
X151599500Y-103198541D01*
X151599500Y-103198543D01*
X151599499Y-103198543D01*
X150100500Y-103198543D01*
X150100500Y-103198541D01*
X150100500Y-102201459D01*
X150100500Y-102201456D01*
X150062052Y-102008170D01*
X150062051Y-102008169D01*
X150062051Y-102008165D01*
X150062049Y-102008160D01*
X149986635Y-101826092D01*
X149986628Y-101826079D01*
X149877139Y-101662218D01*
X149877136Y-101662214D01*
X149737785Y-101522863D01*
X149737781Y-101522860D01*
X149573920Y-101413371D01*
X149573907Y-101413364D01*
X149391839Y-101337950D01*
X149391829Y-101337947D01*
X149198543Y-101299500D01*
X149198541Y-101299500D01*
X149001459Y-101299500D01*
X149001457Y-101299500D01*
X148808170Y-101337947D01*
X148808160Y-101337950D01*
X148626092Y-101413364D01*
X148626079Y-101413371D01*
X148462218Y-101522860D01*
X148462214Y-101522863D01*
X148322863Y-101662214D01*
X148322860Y-101662218D01*
X148213371Y-101826079D01*
X148213364Y-101826092D01*
X148137950Y-102008160D01*
X148137947Y-102008170D01*
X148099500Y-102201456D01*
X148099500Y-102201459D01*
X148099500Y-103198541D01*
X148099500Y-103198543D01*
X148099499Y-103198543D01*
X146600500Y-103198543D01*
X146600500Y-103198541D01*
X146600500Y-102201459D01*
X146600500Y-102201456D01*
X146562052Y-102008170D01*
X146562051Y-102008169D01*
X146562051Y-102008165D01*
X146562049Y-102008160D01*
X146486635Y-101826092D01*
X146486628Y-101826079D01*
X146377139Y-101662218D01*
X146377136Y-101662214D01*
X146237785Y-101522863D01*
X146237781Y-101522860D01*
X146073920Y-101413371D01*
X146073907Y-101413364D01*
X145891839Y-101337950D01*
X145891829Y-101337947D01*
X145698543Y-101299500D01*
X145698541Y-101299500D01*
X145501459Y-101299500D01*
X145501457Y-101299500D01*
X145308170Y-101337947D01*
X145308160Y-101337950D01*
X145126092Y-101413364D01*
X145126079Y-101413371D01*
X144962218Y-101522860D01*
X144962214Y-101522863D01*
X144822863Y-101662214D01*
X144822860Y-101662218D01*
X144713371Y-101826079D01*
X144713364Y-101826092D01*
X144637950Y-102008160D01*
X144637947Y-102008170D01*
X144599500Y-102201456D01*
X144599500Y-102201459D01*
X144599500Y-103198541D01*
X144599500Y-103198543D01*
X144599499Y-103198543D01*
X143100500Y-103198543D01*
X143100500Y-103198541D01*
X143100500Y-102201459D01*
X143100500Y-102201456D01*
X143062052Y-102008170D01*
X143062051Y-102008169D01*
X143062051Y-102008165D01*
X143062049Y-102008160D01*
X142986635Y-101826092D01*
X142986628Y-101826079D01*
X142877139Y-101662218D01*
X142877136Y-101662214D01*
X142737785Y-101522863D01*
X142737781Y-101522860D01*
X142573920Y-101413371D01*
X142573907Y-101413364D01*
X142391839Y-101337950D01*
X142391829Y-101337947D01*
X142198543Y-101299500D01*
X142198541Y-101299500D01*
X142001459Y-101299500D01*
X142001457Y-101299500D01*
X141808170Y-101337947D01*
X141808160Y-101337950D01*
X141626092Y-101413364D01*
X141626079Y-101413371D01*
X141462218Y-101522860D01*
X141462214Y-101522863D01*
X141322863Y-101662214D01*
X141322860Y-101662218D01*
X141213371Y-101826079D01*
X141213364Y-101826092D01*
X141137950Y-102008160D01*
X141137947Y-102008170D01*
X141099500Y-102201456D01*
X141099500Y-102201459D01*
X141099500Y-103198541D01*
X141099500Y-103198543D01*
X141099499Y-103198543D01*
X139600500Y-103198543D01*
X139600500Y-103198541D01*
X139600500Y-102201459D01*
X139600500Y-102201456D01*
X139562052Y-102008170D01*
X139562051Y-102008169D01*
X139562051Y-102008165D01*
X139562049Y-102008160D01*
X139486635Y-101826092D01*
X139486628Y-101826079D01*
X139377139Y-101662218D01*
X139377136Y-101662214D01*
X139237785Y-101522863D01*
X139237781Y-101522860D01*
X139073920Y-101413371D01*
X139073907Y-101413364D01*
X138891839Y-101337950D01*
X138891829Y-101337947D01*
X138698543Y-101299500D01*
X138698541Y-101299500D01*
X138501459Y-101299500D01*
X138501457Y-101299500D01*
X138308170Y-101337947D01*
X138308160Y-101337950D01*
X138126092Y-101413364D01*
X138126079Y-101413371D01*
X137962218Y-101522860D01*
X137962214Y-101522863D01*
X137822863Y-101662214D01*
X137822860Y-101662218D01*
X137713371Y-101826079D01*
X137713364Y-101826092D01*
X137637950Y-102008160D01*
X137637947Y-102008170D01*
X137599500Y-102201456D01*
X137599500Y-102201459D01*
X137599500Y-103198541D01*
X137599500Y-103198543D01*
X137599499Y-103198543D01*
X136100500Y-103198543D01*
X136100500Y-103198541D01*
X136100500Y-102201459D01*
X136100500Y-102201456D01*
X136062052Y-102008170D01*
X136062051Y-102008169D01*
X136062051Y-102008165D01*
X136062049Y-102008160D01*
X135986635Y-101826092D01*
X135986628Y-101826079D01*
X135877139Y-101662218D01*
X135877136Y-101662214D01*
X135737785Y-101522863D01*
X135737781Y-101522860D01*
X135573920Y-101413371D01*
X135573907Y-101413364D01*
X135391839Y-101337950D01*
X135391829Y-101337947D01*
X135198543Y-101299500D01*
X135198541Y-101299500D01*
X135001459Y-101299500D01*
X135001457Y-101299500D01*
X134808170Y-101337947D01*
X134808160Y-101337950D01*
X134626092Y-101413364D01*
X134626079Y-101413371D01*
X134462218Y-101522860D01*
X134462214Y-101522863D01*
X134322863Y-101662214D01*
X134322860Y-101662218D01*
X134213371Y-101826079D01*
X134213364Y-101826092D01*
X134137950Y-102008160D01*
X134137947Y-102008170D01*
X134099500Y-102201456D01*
X134099500Y-102201459D01*
X134099500Y-103198541D01*
X134099500Y-103198543D01*
X134099499Y-103198543D01*
X132600500Y-103198543D01*
X132600500Y-103198541D01*
X132600500Y-102201459D01*
X132600500Y-102201456D01*
X132562052Y-102008170D01*
X132562051Y-102008169D01*
X132562051Y-102008165D01*
X132562049Y-102008160D01*
X132486635Y-101826092D01*
X132486628Y-101826079D01*
X132377139Y-101662218D01*
X132377136Y-101662214D01*
X132237785Y-101522863D01*
X132237781Y-101522860D01*
X132073920Y-101413371D01*
X132073907Y-101413364D01*
X131891839Y-101337950D01*
X131891829Y-101337947D01*
X131698543Y-101299500D01*
X131698541Y-101299500D01*
X131501459Y-101299500D01*
X131501457Y-101299500D01*
X131308170Y-101337947D01*
X131308160Y-101337950D01*
X131126092Y-101413364D01*
X131126079Y-101413371D01*
X130962218Y-101522860D01*
X130962214Y-101522863D01*
X130822863Y-101662214D01*
X130822860Y-101662218D01*
X130713371Y-101826079D01*
X130713364Y-101826092D01*
X130637950Y-102008160D01*
X130637947Y-102008170D01*
X130599500Y-102201456D01*
X130599500Y-102201459D01*
X130599500Y-103198541D01*
X130599500Y-103198543D01*
X130599499Y-103198543D01*
X129100500Y-103198543D01*
X129100500Y-101525326D01*
X129100500Y-101525323D01*
X129100499Y-101525321D01*
X129085967Y-101452264D01*
X129085966Y-101452260D01*
X129030601Y-101369399D01*
X128947740Y-101314034D01*
X128947739Y-101314033D01*
X128947735Y-101314032D01*
X128874677Y-101299500D01*
X128874674Y-101299500D01*
X127325326Y-101299500D01*
X127325323Y-101299500D01*
X127252264Y-101314032D01*
X127252260Y-101314033D01*
X127169399Y-101369399D01*
X127114033Y-101452260D01*
X127114032Y-101452264D01*
X127099500Y-101525321D01*
X125500500Y-101525321D01*
X125500500Y-94827525D01*
X130549500Y-94827525D01*
X130549500Y-94972475D01*
X130587016Y-95112485D01*
X130587017Y-95112488D01*
X130630614Y-95188000D01*
X130647087Y-95255900D01*
X130630614Y-95312000D01*
X130587017Y-95387511D01*
X130587016Y-95387515D01*
X130549500Y-95527525D01*
X130549500Y-95672475D01*
X130587016Y-95812485D01*
X130587017Y-95812488D01*
X130630614Y-95888000D01*
X130647087Y-95955900D01*
X130630614Y-96012000D01*
X130587017Y-96087511D01*
X130587016Y-96087515D01*
X130549500Y-96227525D01*
X130549500Y-96372475D01*
X130584758Y-96504058D01*
X130587017Y-96512488D01*
X130659482Y-96638000D01*
X130675955Y-96705900D01*
X130659482Y-96762000D01*
X130587017Y-96887511D01*
X130587016Y-96887515D01*
X130549500Y-97027525D01*
X130549500Y-97172475D01*
X130577649Y-97277527D01*
X130587017Y-97312488D01*
X130659488Y-97438011D01*
X130659490Y-97438013D01*
X130659491Y-97438015D01*
X130761985Y-97540509D01*
X130761986Y-97540510D01*
X130761988Y-97540511D01*
X130887511Y-97612982D01*
X130887512Y-97612982D01*
X130887515Y-97612984D01*
X131027525Y-97650500D01*
X131027528Y-97650500D01*
X131172472Y-97650500D01*
X131172475Y-97650500D01*
X131312485Y-97612984D01*
X131438015Y-97540509D01*
X131540509Y-97438015D01*
X131612984Y-97312485D01*
X131622352Y-97277525D01*
X136799500Y-97277525D01*
X136799500Y-97422475D01*
X136831128Y-97540511D01*
X136837017Y-97562488D01*
X136909488Y-97688011D01*
X136909490Y-97688013D01*
X136909491Y-97688015D01*
X137011985Y-97790509D01*
X137011986Y-97790510D01*
X137011988Y-97790511D01*
X137137511Y-97862982D01*
X137137512Y-97862982D01*
X137137515Y-97862984D01*
X137277525Y-97900500D01*
X137277528Y-97900500D01*
X137422472Y-97900500D01*
X137422475Y-97900500D01*
X137562485Y-97862984D01*
X137688015Y-97790509D01*
X137790509Y-97688015D01*
X137862984Y-97562485D01*
X137900500Y-97422475D01*
X137900500Y-97277525D01*
X137862984Y-97137515D01*
X137834116Y-97087515D01*
X137790511Y-97011988D01*
X137790506Y-97011982D01*
X137688017Y-96909493D01*
X137688011Y-96909488D01*
X137562488Y-96837017D01*
X137562489Y-96837017D01*
X137551006Y-96833940D01*
X137422475Y-96799500D01*
X137277525Y-96799500D01*
X137148993Y-96833940D01*
X137137511Y-96837017D01*
X137011988Y-96909488D01*
X137011982Y-96909493D01*
X136909493Y-97011982D01*
X136909488Y-97011988D01*
X136837017Y-97137511D01*
X136836214Y-97140509D01*
X136799500Y-97277525D01*
X131622352Y-97277525D01*
X131650500Y-97172475D01*
X131650500Y-97027525D01*
X131612984Y-96887515D01*
X131540516Y-96761997D01*
X131537686Y-96750333D01*
X131530724Y-96740556D01*
X131529602Y-96717011D01*
X131524044Y-96694101D01*
X131527887Y-96681012D01*
X131527399Y-96670765D01*
X131540515Y-96638003D01*
X131546565Y-96627525D01*
X145649500Y-96627525D01*
X145649500Y-96772475D01*
X145686213Y-96909488D01*
X145687017Y-96912488D01*
X145759488Y-97038011D01*
X145759490Y-97038013D01*
X145759491Y-97038015D01*
X145861985Y-97140509D01*
X145861986Y-97140510D01*
X145861988Y-97140511D01*
X145987511Y-97212982D01*
X145987512Y-97212982D01*
X145987515Y-97212984D01*
X146127525Y-97250500D01*
X146127528Y-97250500D01*
X146272472Y-97250500D01*
X146272475Y-97250500D01*
X146412485Y-97212984D01*
X146479514Y-97174284D01*
X146547412Y-97157812D01*
X146613439Y-97180664D01*
X146648899Y-97219670D01*
X146659488Y-97238011D01*
X146659490Y-97238013D01*
X146659491Y-97238015D01*
X146761985Y-97340509D01*
X146761986Y-97340510D01*
X146761988Y-97340511D01*
X146887511Y-97412982D01*
X146887512Y-97412982D01*
X146887515Y-97412984D01*
X147027525Y-97450500D01*
X147027528Y-97450500D01*
X147172472Y-97450500D01*
X147172475Y-97450500D01*
X147312485Y-97412984D01*
X147438015Y-97340509D01*
X147540509Y-97238015D01*
X147546565Y-97227525D01*
X149849500Y-97227525D01*
X149849500Y-97372475D01*
X149870407Y-97450500D01*
X149887017Y-97512488D01*
X149959488Y-97638011D01*
X149959490Y-97638013D01*
X149959491Y-97638015D01*
X150061985Y-97740509D01*
X150061986Y-97740510D01*
X150061988Y-97740511D01*
X150187511Y-97812982D01*
X150187512Y-97812982D01*
X150187515Y-97812984D01*
X150327525Y-97850500D01*
X150327528Y-97850500D01*
X150472472Y-97850500D01*
X150472475Y-97850500D01*
X150612485Y-97812984D01*
X150738015Y-97740509D01*
X150840509Y-97638015D01*
X150912984Y-97512485D01*
X150950500Y-97372475D01*
X150950500Y-97227525D01*
X153149500Y-97227525D01*
X153149500Y-97372475D01*
X153170407Y-97450500D01*
X153187017Y-97512488D01*
X153259488Y-97638011D01*
X153259490Y-97638013D01*
X153259491Y-97638015D01*
X153361985Y-97740509D01*
X153361986Y-97740510D01*
X153361988Y-97740511D01*
X153487511Y-97812982D01*
X153487512Y-97812982D01*
X153487515Y-97812984D01*
X153627525Y-97850500D01*
X153627528Y-97850500D01*
X153772472Y-97850500D01*
X153772475Y-97850500D01*
X153912485Y-97812984D01*
X154038015Y-97740509D01*
X154140509Y-97638015D01*
X154212984Y-97512485D01*
X154250500Y-97372475D01*
X154250500Y-97227525D01*
X161849500Y-97227525D01*
X161849500Y-97372475D01*
X161870407Y-97450500D01*
X161887017Y-97512488D01*
X161959488Y-97638011D01*
X161959490Y-97638013D01*
X161959491Y-97638015D01*
X162061985Y-97740509D01*
X162061986Y-97740510D01*
X162061988Y-97740511D01*
X162187511Y-97812982D01*
X162187512Y-97812982D01*
X162187515Y-97812984D01*
X162327525Y-97850500D01*
X162327528Y-97850500D01*
X162472472Y-97850500D01*
X162472475Y-97850500D01*
X162612485Y-97812984D01*
X162738015Y-97740509D01*
X162840509Y-97638015D01*
X162912984Y-97512485D01*
X162950500Y-97372475D01*
X162950500Y-97227525D01*
X162912984Y-97087515D01*
X162884406Y-97038017D01*
X162840511Y-96961988D01*
X162840506Y-96961982D01*
X162738017Y-96859493D01*
X162738011Y-96859488D01*
X162612488Y-96787017D01*
X162612489Y-96787017D01*
X162601006Y-96783940D01*
X162472475Y-96749500D01*
X162327525Y-96749500D01*
X162198993Y-96783940D01*
X162187511Y-96787017D01*
X162061988Y-96859488D01*
X162061982Y-96859493D01*
X161959493Y-96961982D01*
X161959488Y-96961988D01*
X161887017Y-97087511D01*
X161887016Y-97087515D01*
X161849500Y-97227525D01*
X154250500Y-97227525D01*
X154212984Y-97087515D01*
X154184406Y-97038017D01*
X154140511Y-96961988D01*
X154140506Y-96961982D01*
X154038017Y-96859493D01*
X154038011Y-96859488D01*
X153912488Y-96787017D01*
X153912489Y-96787017D01*
X153901006Y-96783940D01*
X153772475Y-96749500D01*
X153627525Y-96749500D01*
X153498993Y-96783940D01*
X153487511Y-96787017D01*
X153361988Y-96859488D01*
X153361982Y-96859493D01*
X153259493Y-96961982D01*
X153259488Y-96961988D01*
X153187017Y-97087511D01*
X153187016Y-97087515D01*
X153149500Y-97227525D01*
X150950500Y-97227525D01*
X150912984Y-97087515D01*
X150884406Y-97038017D01*
X150840511Y-96961988D01*
X150840506Y-96961982D01*
X150738017Y-96859493D01*
X150738011Y-96859488D01*
X150612488Y-96787017D01*
X150612489Y-96787017D01*
X150601006Y-96783940D01*
X150472475Y-96749500D01*
X150327525Y-96749500D01*
X150198993Y-96783940D01*
X150187511Y-96787017D01*
X150061988Y-96859488D01*
X150061982Y-96859493D01*
X149959493Y-96961982D01*
X149959488Y-96961988D01*
X149887017Y-97087511D01*
X149887016Y-97087515D01*
X149849500Y-97227525D01*
X147546565Y-97227525D01*
X147612984Y-97112485D01*
X147650500Y-96972475D01*
X147650500Y-96827525D01*
X147612984Y-96687515D01*
X147609229Y-96681012D01*
X147540511Y-96561988D01*
X147540506Y-96561982D01*
X147438017Y-96459493D01*
X147438015Y-96459491D01*
X147312485Y-96387016D01*
X147172475Y-96349500D01*
X147027525Y-96349500D01*
X146887515Y-96387016D01*
X146887514Y-96387016D01*
X146887512Y-96387017D01*
X146820485Y-96425715D01*
X146752585Y-96442187D01*
X146686558Y-96419334D01*
X146651099Y-96380328D01*
X146646565Y-96372475D01*
X146640509Y-96361985D01*
X146606049Y-96327525D01*
X163749500Y-96327525D01*
X163749500Y-96472475D01*
X163787016Y-96612485D01*
X163787017Y-96612488D01*
X163859488Y-96738011D01*
X163859490Y-96738013D01*
X163859491Y-96738015D01*
X163961985Y-96840509D01*
X163961986Y-96840510D01*
X163961988Y-96840511D01*
X164087511Y-96912982D01*
X164087512Y-96912982D01*
X164087515Y-96912984D01*
X164227525Y-96950500D01*
X164227528Y-96950500D01*
X164372472Y-96950500D01*
X164372475Y-96950500D01*
X164512485Y-96912984D01*
X164638015Y-96840509D01*
X164740509Y-96738015D01*
X164812984Y-96612485D01*
X164850500Y-96472475D01*
X164850500Y-96327525D01*
X164812984Y-96187515D01*
X164812696Y-96187017D01*
X164740511Y-96061988D01*
X164740506Y-96061982D01*
X164638017Y-95959493D01*
X164638011Y-95959488D01*
X164512488Y-95887017D01*
X164512489Y-95887017D01*
X164501006Y-95883940D01*
X164372475Y-95849500D01*
X164227525Y-95849500D01*
X164098993Y-95883940D01*
X164087511Y-95887017D01*
X163961988Y-95959488D01*
X163961982Y-95959493D01*
X163859493Y-96061982D01*
X163859488Y-96061988D01*
X163787017Y-96187511D01*
X163787016Y-96187515D01*
X163749500Y-96327525D01*
X146606049Y-96327525D01*
X146538015Y-96259491D01*
X146538013Y-96259490D01*
X146538011Y-96259488D01*
X146412488Y-96187017D01*
X146412489Y-96187017D01*
X146401006Y-96183940D01*
X146272475Y-96149500D01*
X146127525Y-96149500D01*
X145998993Y-96183940D01*
X145987511Y-96187017D01*
X145861988Y-96259488D01*
X145861982Y-96259493D01*
X145759493Y-96361982D01*
X145759488Y-96361988D01*
X145687017Y-96487511D01*
X145687016Y-96487515D01*
X145649500Y-96627525D01*
X131546565Y-96627525D01*
X131612984Y-96512485D01*
X131650500Y-96372475D01*
X131650500Y-96227525D01*
X131612984Y-96087515D01*
X131569384Y-96011998D01*
X131552912Y-95944101D01*
X131569385Y-95888000D01*
X131612984Y-95812485D01*
X131650500Y-95672475D01*
X131650500Y-95527525D01*
X131612984Y-95387515D01*
X131569384Y-95311998D01*
X131552912Y-95244101D01*
X131569385Y-95188000D01*
X131612984Y-95112485D01*
X131650500Y-94972475D01*
X131650500Y-94827525D01*
X140949500Y-94827525D01*
X140949500Y-94972475D01*
X140987016Y-95112485D01*
X140987017Y-95112488D01*
X141059488Y-95238011D01*
X141059490Y-95238013D01*
X141059491Y-95238015D01*
X141161985Y-95340509D01*
X141161986Y-95340510D01*
X141161988Y-95340511D01*
X141287511Y-95412982D01*
X141287512Y-95412982D01*
X141287515Y-95412984D01*
X141427525Y-95450500D01*
X141427528Y-95450500D01*
X141572472Y-95450500D01*
X141572475Y-95450500D01*
X141712485Y-95412984D01*
X141838015Y-95340509D01*
X141940509Y-95238015D01*
X142012984Y-95112485D01*
X142050500Y-94972475D01*
X142050500Y-94827525D01*
X142349500Y-94827525D01*
X142349500Y-94972475D01*
X142387016Y-95112485D01*
X142387017Y-95112488D01*
X142459488Y-95238011D01*
X142459490Y-95238013D01*
X142459491Y-95238015D01*
X142561985Y-95340509D01*
X142561986Y-95340510D01*
X142561988Y-95340511D01*
X142687511Y-95412982D01*
X142687512Y-95412982D01*
X142687515Y-95412984D01*
X142827525Y-95450500D01*
X142827528Y-95450500D01*
X142972472Y-95450500D01*
X142972475Y-95450500D01*
X143112485Y-95412984D01*
X143238015Y-95340509D01*
X143340509Y-95238015D01*
X143412984Y-95112485D01*
X143450500Y-94972475D01*
X143450500Y-94827525D01*
X163549500Y-94827525D01*
X163549500Y-94972475D01*
X163587016Y-95112485D01*
X163587017Y-95112488D01*
X163659488Y-95238011D01*
X163659490Y-95238013D01*
X163659491Y-95238015D01*
X163761985Y-95340509D01*
X163761986Y-95340510D01*
X163761988Y-95340511D01*
X163887511Y-95412982D01*
X163887512Y-95412982D01*
X163887515Y-95412984D01*
X164027525Y-95450500D01*
X164027528Y-95450500D01*
X164172472Y-95450500D01*
X164172475Y-95450500D01*
X164312485Y-95412984D01*
X164438015Y-95340509D01*
X164540509Y-95238015D01*
X164612984Y-95112485D01*
X164650500Y-94972475D01*
X164650500Y-94827525D01*
X164612984Y-94687515D01*
X164597972Y-94661514D01*
X164540511Y-94561988D01*
X164540506Y-94561982D01*
X164438017Y-94459493D01*
X164438011Y-94459488D01*
X164312488Y-94387017D01*
X164312489Y-94387017D01*
X164301006Y-94383940D01*
X164172475Y-94349500D01*
X164027525Y-94349500D01*
X163898993Y-94383940D01*
X163887511Y-94387017D01*
X163761988Y-94459488D01*
X163761982Y-94459493D01*
X163659493Y-94561982D01*
X163659488Y-94561988D01*
X163587017Y-94687511D01*
X163587016Y-94687515D01*
X163549500Y-94827525D01*
X143450500Y-94827525D01*
X143412984Y-94687515D01*
X143397972Y-94661514D01*
X143340511Y-94561988D01*
X143340506Y-94561982D01*
X143238017Y-94459493D01*
X143238011Y-94459488D01*
X143112488Y-94387017D01*
X143112489Y-94387017D01*
X143101006Y-94383940D01*
X142972475Y-94349500D01*
X142827525Y-94349500D01*
X142698993Y-94383940D01*
X142687511Y-94387017D01*
X142561988Y-94459488D01*
X142561982Y-94459493D01*
X142459493Y-94561982D01*
X142459488Y-94561988D01*
X142387017Y-94687511D01*
X142387016Y-94687515D01*
X142349500Y-94827525D01*
X142050500Y-94827525D01*
X142012984Y-94687515D01*
X141997972Y-94661514D01*
X141940511Y-94561988D01*
X141940506Y-94561982D01*
X141838017Y-94459493D01*
X141838011Y-94459488D01*
X141712488Y-94387017D01*
X141712489Y-94387017D01*
X141701006Y-94383940D01*
X141572475Y-94349500D01*
X141427525Y-94349500D01*
X141298993Y-94383940D01*
X141287511Y-94387017D01*
X141161988Y-94459488D01*
X141161982Y-94459493D01*
X141059493Y-94561982D01*
X141059488Y-94561988D01*
X140987017Y-94687511D01*
X140987016Y-94687515D01*
X140949500Y-94827525D01*
X131650500Y-94827525D01*
X131612984Y-94687515D01*
X131597972Y-94661514D01*
X131540511Y-94561988D01*
X131540506Y-94561982D01*
X131438017Y-94459493D01*
X131438011Y-94459488D01*
X131312488Y-94387017D01*
X131312489Y-94387017D01*
X131301006Y-94383940D01*
X131172475Y-94349500D01*
X131027525Y-94349500D01*
X130898993Y-94383940D01*
X130887511Y-94387017D01*
X130761988Y-94459488D01*
X130761982Y-94459493D01*
X130659493Y-94561982D01*
X130659488Y-94561988D01*
X130587017Y-94687511D01*
X130587016Y-94687515D01*
X130549500Y-94827525D01*
X125500500Y-94827525D01*
X125500500Y-94027872D01*
X155555993Y-94027872D01*
X155555993Y-94172822D01*
X155593509Y-94312832D01*
X155593510Y-94312835D01*
X155665981Y-94438358D01*
X155665983Y-94438360D01*
X155665984Y-94438362D01*
X155768478Y-94540856D01*
X155768479Y-94540857D01*
X155768481Y-94540858D01*
X155894004Y-94613329D01*
X155894005Y-94613329D01*
X155894008Y-94613331D01*
X156034018Y-94650847D01*
X156034021Y-94650847D01*
X156178965Y-94650847D01*
X156178968Y-94650847D01*
X156318978Y-94613331D01*
X156444508Y-94540856D01*
X156444510Y-94540853D01*
X156446292Y-94539825D01*
X156514192Y-94523352D01*
X156570293Y-94539825D01*
X156694004Y-94611250D01*
X156694005Y-94611250D01*
X156694008Y-94611252D01*
X156834018Y-94648768D01*
X156834021Y-94648768D01*
X156978965Y-94648768D01*
X156978968Y-94648768D01*
X157118978Y-94611252D01*
X157118980Y-94611250D01*
X157118982Y-94611250D01*
X157118983Y-94611249D01*
X157240052Y-94541349D01*
X157307950Y-94524876D01*
X157364052Y-94541349D01*
X157368459Y-94543893D01*
X157368462Y-94543896D01*
X157493992Y-94616371D01*
X157634002Y-94653887D01*
X157634005Y-94653887D01*
X157778949Y-94653887D01*
X157778952Y-94653887D01*
X157918962Y-94616371D01*
X157918964Y-94616369D01*
X157918966Y-94616369D01*
X157918967Y-94616368D01*
X157927828Y-94611252D01*
X158037856Y-94547727D01*
X158105752Y-94531254D01*
X158161855Y-94547727D01*
X158168425Y-94551520D01*
X158168428Y-94551523D01*
X158293958Y-94623998D01*
X158433968Y-94661514D01*
X158433971Y-94661514D01*
X158578915Y-94661514D01*
X158578918Y-94661514D01*
X158718928Y-94623998D01*
X158844458Y-94551523D01*
X158946952Y-94449029D01*
X158970147Y-94408853D01*
X159020712Y-94360640D01*
X159089319Y-94347416D01*
X159154184Y-94373384D01*
X159184920Y-94408855D01*
X159187016Y-94412485D01*
X159259491Y-94538015D01*
X159361985Y-94640509D01*
X159361986Y-94640510D01*
X159361988Y-94640511D01*
X159487511Y-94712982D01*
X159487512Y-94712982D01*
X159487515Y-94712984D01*
X159627525Y-94750500D01*
X159627528Y-94750500D01*
X159772472Y-94750500D01*
X159772475Y-94750500D01*
X159912485Y-94712984D01*
X159914170Y-94712011D01*
X159914171Y-94712011D01*
X159956605Y-94687511D01*
X160038015Y-94640509D01*
X160140509Y-94538015D01*
X160212984Y-94412485D01*
X160250500Y-94272475D01*
X160250500Y-94127525D01*
X160212984Y-93987515D01*
X160203160Y-93970500D01*
X160140511Y-93861988D01*
X160140506Y-93861982D01*
X160038017Y-93759493D01*
X160038011Y-93759488D01*
X159912488Y-93687017D01*
X159912489Y-93687017D01*
X159898038Y-93683145D01*
X159772475Y-93649500D01*
X159627525Y-93649500D01*
X159501962Y-93683145D01*
X159487511Y-93687017D01*
X159361988Y-93759488D01*
X159361982Y-93759493D01*
X159259493Y-93861982D01*
X159259489Y-93861988D01*
X159236295Y-93902160D01*
X159185727Y-93950375D01*
X159117120Y-93963596D01*
X159052256Y-93937627D01*
X159021522Y-93902158D01*
X158998328Y-93861985D01*
X158946952Y-93772999D01*
X158844458Y-93670505D01*
X158844456Y-93670504D01*
X158844454Y-93670502D01*
X158718931Y-93598031D01*
X158718932Y-93598031D01*
X158707449Y-93594954D01*
X158578918Y-93560514D01*
X158433968Y-93560514D01*
X158335551Y-93586884D01*
X158293953Y-93598031D01*
X158293950Y-93598032D01*
X158175063Y-93666672D01*
X158107163Y-93683145D01*
X158051064Y-93666672D01*
X157918965Y-93590404D01*
X157918966Y-93590404D01*
X157907483Y-93587327D01*
X157778952Y-93552887D01*
X157634002Y-93552887D01*
X157505470Y-93587327D01*
X157493988Y-93590404D01*
X157372917Y-93660305D01*
X157305017Y-93676778D01*
X157248916Y-93660305D01*
X157244510Y-93657761D01*
X157244508Y-93657759D01*
X157118978Y-93585284D01*
X156978968Y-93547768D01*
X156834018Y-93547768D01*
X156705486Y-93582208D01*
X156694004Y-93585285D01*
X156566692Y-93658789D01*
X156498792Y-93675262D01*
X156442692Y-93658789D01*
X156318981Y-93587364D01*
X156318982Y-93587364D01*
X156307499Y-93584287D01*
X156178968Y-93549847D01*
X156034018Y-93549847D01*
X155905486Y-93584287D01*
X155894004Y-93587364D01*
X155768481Y-93659835D01*
X155768475Y-93659840D01*
X155665986Y-93762329D01*
X155665981Y-93762335D01*
X155593510Y-93887858D01*
X155593509Y-93887862D01*
X155555993Y-94027872D01*
X125500500Y-94027872D01*
X125500500Y-90227525D01*
X128249500Y-90227525D01*
X128249500Y-90372475D01*
X128287016Y-90512485D01*
X128287017Y-90512488D01*
X128359488Y-90638011D01*
X128359490Y-90638013D01*
X128359491Y-90638015D01*
X128461985Y-90740509D01*
X128461986Y-90740510D01*
X128461988Y-90740511D01*
X128587511Y-90812982D01*
X128587512Y-90812982D01*
X128587515Y-90812984D01*
X128727525Y-90850500D01*
X128727528Y-90850500D01*
X128872472Y-90850500D01*
X128872475Y-90850500D01*
X129012485Y-90812984D01*
X129138002Y-90740516D01*
X129205899Y-90724044D01*
X129261996Y-90740515D01*
X129387515Y-90812984D01*
X129527525Y-90850500D01*
X129527528Y-90850500D01*
X129672472Y-90850500D01*
X129672475Y-90850500D01*
X129812485Y-90812984D01*
X129938002Y-90740516D01*
X130005899Y-90724044D01*
X130061996Y-90740515D01*
X130187515Y-90812984D01*
X130327525Y-90850500D01*
X130327528Y-90850500D01*
X130472472Y-90850500D01*
X130472475Y-90850500D01*
X130612485Y-90812984D01*
X130738015Y-90740509D01*
X130840509Y-90638015D01*
X130912984Y-90512485D01*
X130946360Y-90387923D01*
X130982724Y-90328266D01*
X131045571Y-90297737D01*
X131114947Y-90306032D01*
X131153815Y-90332339D01*
X131159490Y-90338014D01*
X131159491Y-90338015D01*
X131261985Y-90440509D01*
X131332000Y-90480932D01*
X131352231Y-90492613D01*
X131400446Y-90543181D01*
X131413668Y-90611788D01*
X131387700Y-90676653D01*
X131352231Y-90707387D01*
X131261985Y-90759491D01*
X131261982Y-90759493D01*
X131159493Y-90861982D01*
X131159488Y-90861988D01*
X131087017Y-90987511D01*
X131087016Y-90987515D01*
X131049500Y-91127525D01*
X131049500Y-91272475D01*
X131077649Y-91377527D01*
X131087017Y-91412488D01*
X131159488Y-91538011D01*
X131159490Y-91538013D01*
X131159491Y-91538015D01*
X131261985Y-91640509D01*
X131261986Y-91640510D01*
X131261988Y-91640511D01*
X131387511Y-91712982D01*
X131387512Y-91712982D01*
X131387515Y-91712984D01*
X131527525Y-91750500D01*
X131527528Y-91750500D01*
X131672472Y-91750500D01*
X131672475Y-91750500D01*
X131812485Y-91712984D01*
X131938015Y-91640509D01*
X132040509Y-91538015D01*
X132042612Y-91534371D01*
X132045190Y-91531913D01*
X132045457Y-91531566D01*
X132045511Y-91531607D01*
X132093177Y-91486156D01*
X132161783Y-91472931D01*
X132226649Y-91498897D01*
X132257386Y-91534370D01*
X132259491Y-91538015D01*
X132361985Y-91640509D01*
X132361986Y-91640510D01*
X132361988Y-91640511D01*
X132487511Y-91712982D01*
X132487512Y-91712982D01*
X132487515Y-91712984D01*
X132627525Y-91750500D01*
X132627528Y-91750500D01*
X132772472Y-91750500D01*
X132772475Y-91750500D01*
X132912485Y-91712984D01*
X133038015Y-91640509D01*
X133140509Y-91538015D01*
X133212984Y-91412485D01*
X133230226Y-91348137D01*
X133266590Y-91288479D01*
X133329437Y-91257950D01*
X133398813Y-91266245D01*
X133452691Y-91310730D01*
X133469773Y-91348135D01*
X133477649Y-91377527D01*
X133487017Y-91412488D01*
X133559488Y-91538011D01*
X133559490Y-91538013D01*
X133559491Y-91538015D01*
X133661985Y-91640509D01*
X133661986Y-91640510D01*
X133661988Y-91640511D01*
X133787511Y-91712982D01*
X133787512Y-91712982D01*
X133787515Y-91712984D01*
X133927525Y-91750500D01*
X133927528Y-91750500D01*
X134072472Y-91750500D01*
X134072475Y-91750500D01*
X134212485Y-91712984D01*
X134338015Y-91640509D01*
X134440509Y-91538015D01*
X134492613Y-91447769D01*
X134543180Y-91399553D01*
X134611787Y-91386331D01*
X134676652Y-91412299D01*
X134707387Y-91447769D01*
X134729550Y-91486156D01*
X134759491Y-91538015D01*
X134861985Y-91640509D01*
X134861986Y-91640510D01*
X134861988Y-91640511D01*
X134987511Y-91712982D01*
X134987512Y-91712982D01*
X134987515Y-91712984D01*
X135127525Y-91750500D01*
X135127528Y-91750500D01*
X135272472Y-91750500D01*
X135272475Y-91750500D01*
X135412485Y-91712984D01*
X135538015Y-91640509D01*
X135640509Y-91538015D01*
X135712984Y-91412485D01*
X135750500Y-91272475D01*
X135750500Y-91127525D01*
X135712984Y-90987515D01*
X135683828Y-90937016D01*
X135640511Y-90861988D01*
X135640506Y-90861982D01*
X135538017Y-90759493D01*
X135538015Y-90759491D01*
X135476619Y-90724044D01*
X135447769Y-90707387D01*
X135399553Y-90656820D01*
X135386331Y-90588213D01*
X135412299Y-90523348D01*
X135447769Y-90492613D01*
X135464082Y-90483194D01*
X135538015Y-90440509D01*
X135640509Y-90338015D01*
X135712984Y-90212485D01*
X135750500Y-90072475D01*
X135750500Y-89927525D01*
X135712984Y-89787515D01*
X135712696Y-89787017D01*
X135640511Y-89661988D01*
X135640506Y-89661982D01*
X135538017Y-89559493D01*
X135538011Y-89559488D01*
X135412488Y-89487017D01*
X135412489Y-89487017D01*
X135388201Y-89480509D01*
X135272475Y-89449500D01*
X135127525Y-89449500D01*
X135011799Y-89480509D01*
X134987511Y-89487017D01*
X134861988Y-89559488D01*
X134861982Y-89559493D01*
X134759493Y-89661982D01*
X134759491Y-89661985D01*
X134707387Y-89752231D01*
X134656819Y-89800446D01*
X134588212Y-89813668D01*
X134523347Y-89787700D01*
X134492613Y-89752231D01*
X134470450Y-89713845D01*
X134440509Y-89661985D01*
X134338015Y-89559491D01*
X134338013Y-89559490D01*
X134338011Y-89559488D01*
X134212488Y-89487017D01*
X134212489Y-89487017D01*
X134188201Y-89480509D01*
X134072475Y-89449500D01*
X133927525Y-89449500D01*
X133811799Y-89480509D01*
X133787511Y-89487017D01*
X133661988Y-89559488D01*
X133661982Y-89559493D01*
X133559493Y-89661982D01*
X133559488Y-89661988D01*
X133487017Y-89787511D01*
X133487016Y-89787515D01*
X133474956Y-89832525D01*
X133469775Y-89851860D01*
X133433409Y-89911520D01*
X133370562Y-89942049D01*
X133301187Y-89933754D01*
X133247309Y-89889268D01*
X133230225Y-89851860D01*
X133225045Y-89832527D01*
X133212984Y-89787515D01*
X133212696Y-89787017D01*
X133140511Y-89661988D01*
X133140506Y-89661982D01*
X133038017Y-89559493D01*
X133038011Y-89559488D01*
X132912488Y-89487017D01*
X132912489Y-89487017D01*
X132888201Y-89480509D01*
X132772475Y-89449500D01*
X132627525Y-89449500D01*
X132511799Y-89480509D01*
X132487511Y-89487017D01*
X132361988Y-89559488D01*
X132361982Y-89559493D01*
X132259493Y-89661982D01*
X132259486Y-89661991D01*
X132257386Y-89665630D01*
X132254809Y-89668086D01*
X132254543Y-89668434D01*
X132254488Y-89668392D01*
X132206819Y-89713845D01*
X132138212Y-89727067D01*
X132073347Y-89701099D01*
X132042614Y-89665630D01*
X132040513Y-89661991D01*
X132040510Y-89661988D01*
X132040509Y-89661985D01*
X131938015Y-89559491D01*
X131938013Y-89559490D01*
X131938011Y-89559488D01*
X131812488Y-89487017D01*
X131812489Y-89487017D01*
X131788201Y-89480509D01*
X131672475Y-89449500D01*
X131527525Y-89449500D01*
X131411799Y-89480509D01*
X131387511Y-89487017D01*
X131261988Y-89559488D01*
X131261982Y-89559493D01*
X131159493Y-89661982D01*
X131159488Y-89661988D01*
X131087017Y-89787511D01*
X131087015Y-89787515D01*
X131053639Y-89912074D01*
X131017274Y-89971734D01*
X130954427Y-90002262D01*
X130885051Y-89993967D01*
X130846184Y-89967660D01*
X130738017Y-89859493D01*
X130738011Y-89859488D01*
X130612488Y-89787017D01*
X130612489Y-89787017D01*
X130601006Y-89783940D01*
X130472475Y-89749500D01*
X130327525Y-89749500D01*
X130198993Y-89783940D01*
X130187511Y-89787017D01*
X130062000Y-89859482D01*
X129994100Y-89875955D01*
X129938000Y-89859482D01*
X129812488Y-89787017D01*
X129812489Y-89787017D01*
X129801006Y-89783940D01*
X129672475Y-89749500D01*
X129527525Y-89749500D01*
X129398993Y-89783940D01*
X129387511Y-89787017D01*
X129262000Y-89859482D01*
X129194100Y-89875955D01*
X129138000Y-89859482D01*
X129012488Y-89787017D01*
X129012489Y-89787017D01*
X129001006Y-89783940D01*
X128872475Y-89749500D01*
X128727525Y-89749500D01*
X128598993Y-89783940D01*
X128587511Y-89787017D01*
X128461988Y-89859488D01*
X128461982Y-89859493D01*
X128359493Y-89961982D01*
X128359488Y-89961988D01*
X128287017Y-90087511D01*
X128287016Y-90087515D01*
X128249500Y-90227525D01*
X125500500Y-90227525D01*
X125500500Y-83380112D01*
X125520185Y-83313073D01*
X125572989Y-83267318D01*
X125642147Y-83257374D01*
X125688324Y-83276022D01*
X125688783Y-83275146D01*
X125696639Y-83279255D01*
X125696641Y-83279257D01*
X125784976Y-83325465D01*
X125784977Y-83325465D01*
X125784977Y-83325466D01*
X125826013Y-83337515D01*
X125852015Y-83345150D01*
X125852019Y-83345150D01*
X125852021Y-83345151D01*
X125863652Y-83346823D01*
X125924000Y-83355500D01*
X125924001Y-83355500D01*
X127048639Y-83355500D01*
X127050075Y-83355422D01*
X127075952Y-83354036D01*
X127102310Y-83351202D01*
X127197444Y-83321413D01*
X127258767Y-83287928D01*
X127316985Y-83244347D01*
X128244347Y-82316985D01*
X128262626Y-82296635D01*
X128279260Y-82275993D01*
X128325465Y-82187662D01*
X128345150Y-82120623D01*
X128355500Y-82048638D01*
X128355500Y-81551362D01*
X128354036Y-81524048D01*
X128351202Y-81497690D01*
X128321413Y-81402556D01*
X128318323Y-81396898D01*
X128287931Y-81341238D01*
X128287926Y-81341230D01*
X128244350Y-81283019D01*
X128244349Y-81283018D01*
X128244347Y-81283015D01*
X128244342Y-81283010D01*
X128244334Y-81283001D01*
X128191819Y-81230486D01*
X128158334Y-81169163D01*
X128155500Y-81142805D01*
X128155500Y-80857193D01*
X128175185Y-80790154D01*
X128191819Y-80769512D01*
X128211331Y-80749999D01*
X128244346Y-80716985D01*
X128262626Y-80696635D01*
X128279260Y-80675993D01*
X128325465Y-80587662D01*
X128345150Y-80520623D01*
X128355500Y-80448638D01*
X128355500Y-78579500D01*
X128375185Y-78512461D01*
X128427989Y-78466706D01*
X128479500Y-78455500D01*
X129706195Y-78455500D01*
X129773234Y-78475185D01*
X129818989Y-78527989D01*
X129828933Y-78597147D01*
X129813582Y-78641500D01*
X129787017Y-78687511D01*
X129787016Y-78687515D01*
X129749500Y-78827525D01*
X129749500Y-78972475D01*
X129787016Y-79112485D01*
X129787017Y-79112488D01*
X129859488Y-79238011D01*
X129859490Y-79238013D01*
X129859491Y-79238015D01*
X129961985Y-79340509D01*
X129961986Y-79340510D01*
X129961988Y-79340511D01*
X130087511Y-79412982D01*
X130087512Y-79412982D01*
X130087515Y-79412984D01*
X130227525Y-79450500D01*
X130227528Y-79450500D01*
X130372472Y-79450500D01*
X130372475Y-79450500D01*
X130512485Y-79412984D01*
X130638015Y-79340509D01*
X130740509Y-79238015D01*
X130812984Y-79112485D01*
X130850500Y-78972475D01*
X130850500Y-78827525D01*
X130812984Y-78687515D01*
X130804299Y-78672472D01*
X130786418Y-78641500D01*
X130769945Y-78573600D01*
X130792798Y-78507573D01*
X130847719Y-78464382D01*
X130893805Y-78455500D01*
X135348639Y-78455500D01*
X135350075Y-78455422D01*
X135375952Y-78454036D01*
X135402310Y-78451202D01*
X135497444Y-78421413D01*
X135558767Y-78387928D01*
X135616985Y-78344347D01*
X135684012Y-78277318D01*
X135745335Y-78243834D01*
X135771694Y-78241000D01*
X136541941Y-78241000D01*
X138485000Y-78241000D01*
X138552039Y-78260685D01*
X138597794Y-78313489D01*
X138609000Y-78365000D01*
X138609000Y-92708059D01*
X138637518Y-92814488D01*
X138639054Y-92820220D01*
X138689165Y-92907017D01*
X138689166Y-92907018D01*
X138689165Y-92907018D01*
X138697112Y-92920781D01*
X138697113Y-92920782D01*
X139103857Y-93327525D01*
X139447112Y-93670780D01*
X139529220Y-93752888D01*
X139529221Y-93752889D01*
X139529223Y-93752890D01*
X139555364Y-93767982D01*
X139629780Y-93810946D01*
X139741941Y-93841000D01*
X139858059Y-93841000D01*
X140729609Y-93841000D01*
X140791609Y-93857613D01*
X140887511Y-93912982D01*
X140887512Y-93912982D01*
X140887515Y-93912984D01*
X141027525Y-93950500D01*
X141027528Y-93950500D01*
X141172472Y-93950500D01*
X141172475Y-93950500D01*
X141312485Y-93912984D01*
X141438015Y-93840509D01*
X141507319Y-93771205D01*
X141568642Y-93737720D01*
X141638334Y-93742704D01*
X141682681Y-93771205D01*
X141771985Y-93860509D01*
X141771986Y-93860510D01*
X141771988Y-93860511D01*
X141897511Y-93932982D01*
X141897512Y-93932982D01*
X141897515Y-93932984D01*
X142037525Y-93970500D01*
X142037528Y-93970500D01*
X142182472Y-93970500D01*
X142182475Y-93970500D01*
X142322485Y-93932984D01*
X142448015Y-93860509D01*
X142550509Y-93758015D01*
X142557192Y-93746438D01*
X142607755Y-93698223D01*
X142676361Y-93684997D01*
X142726580Y-93701049D01*
X142842511Y-93767982D01*
X142842512Y-93767982D01*
X142842515Y-93767984D01*
X142982525Y-93805500D01*
X142982528Y-93805500D01*
X143127472Y-93805500D01*
X143127475Y-93805500D01*
X143267485Y-93767984D01*
X143357511Y-93716007D01*
X143425408Y-93699535D01*
X143491435Y-93722387D01*
X143507190Y-93735714D01*
X143509491Y-93738015D01*
X143611985Y-93840509D01*
X143611986Y-93840510D01*
X143611988Y-93840511D01*
X143737511Y-93912982D01*
X143737512Y-93912982D01*
X143737515Y-93912984D01*
X143877525Y-93950500D01*
X143877528Y-93950500D01*
X144022472Y-93950500D01*
X144022475Y-93950500D01*
X144162485Y-93912984D01*
X144163569Y-93912358D01*
X144163570Y-93912358D01*
X144206004Y-93887858D01*
X144288015Y-93840509D01*
X144390509Y-93738015D01*
X144462984Y-93612485D01*
X144500500Y-93472475D01*
X144500500Y-93327525D01*
X163549500Y-93327525D01*
X163549500Y-93472475D01*
X163585829Y-93608054D01*
X163587017Y-93612488D01*
X163659488Y-93738011D01*
X163659490Y-93738013D01*
X163659491Y-93738015D01*
X163761985Y-93840509D01*
X163761986Y-93840510D01*
X163761988Y-93840511D01*
X163887511Y-93912982D01*
X163887512Y-93912982D01*
X163887515Y-93912984D01*
X164027525Y-93950500D01*
X164027528Y-93950500D01*
X164172472Y-93950500D01*
X164172475Y-93950500D01*
X164312485Y-93912984D01*
X164438015Y-93840509D01*
X164540509Y-93738015D01*
X164612984Y-93612485D01*
X164650500Y-93472475D01*
X164650500Y-93327525D01*
X167449500Y-93327525D01*
X167449500Y-93472475D01*
X167485829Y-93608054D01*
X167487017Y-93612488D01*
X167559488Y-93738011D01*
X167559490Y-93738013D01*
X167559491Y-93738015D01*
X167661985Y-93840509D01*
X167661986Y-93840510D01*
X167661988Y-93840511D01*
X167787511Y-93912982D01*
X167787512Y-93912982D01*
X167787515Y-93912984D01*
X167927525Y-93950500D01*
X167927528Y-93950500D01*
X168072472Y-93950500D01*
X168072475Y-93950500D01*
X168212485Y-93912984D01*
X168338015Y-93840509D01*
X168440509Y-93738015D01*
X168512984Y-93612485D01*
X168550500Y-93472475D01*
X168550500Y-93327525D01*
X168512984Y-93187515D01*
X168510773Y-93183686D01*
X168440511Y-93061988D01*
X168440506Y-93061982D01*
X168338017Y-92959493D01*
X168338011Y-92959488D01*
X168212488Y-92887017D01*
X168212489Y-92887017D01*
X168201006Y-92883940D01*
X168072475Y-92849500D01*
X167927525Y-92849500D01*
X167798993Y-92883940D01*
X167787511Y-92887017D01*
X167661988Y-92959488D01*
X167661982Y-92959493D01*
X167559493Y-93061982D01*
X167559488Y-93061988D01*
X167487017Y-93187511D01*
X167487016Y-93187515D01*
X167449500Y-93327525D01*
X164650500Y-93327525D01*
X164612984Y-93187515D01*
X164610773Y-93183686D01*
X164540511Y-93061988D01*
X164540506Y-93061982D01*
X164438017Y-92959493D01*
X164438011Y-92959488D01*
X164312488Y-92887017D01*
X164312489Y-92887017D01*
X164301006Y-92883940D01*
X164172475Y-92849500D01*
X164027525Y-92849500D01*
X163898993Y-92883940D01*
X163887511Y-92887017D01*
X163761988Y-92959488D01*
X163761982Y-92959493D01*
X163659493Y-93061982D01*
X163659488Y-93061988D01*
X163587017Y-93187511D01*
X163587016Y-93187515D01*
X163549500Y-93327525D01*
X144500500Y-93327525D01*
X144462984Y-93187515D01*
X144460773Y-93183686D01*
X144390511Y-93061988D01*
X144390506Y-93061982D01*
X144288017Y-92959493D01*
X144288011Y-92959488D01*
X144162488Y-92887017D01*
X144162489Y-92887017D01*
X144151006Y-92883940D01*
X144022475Y-92849500D01*
X143877525Y-92849500D01*
X143748993Y-92883940D01*
X143737511Y-92887017D01*
X143647490Y-92938991D01*
X143579590Y-92955464D01*
X143513563Y-92932611D01*
X143497809Y-92919285D01*
X143393017Y-92814493D01*
X143393011Y-92814488D01*
X143267488Y-92742017D01*
X143267489Y-92742017D01*
X143256006Y-92738940D01*
X143127475Y-92704500D01*
X142982525Y-92704500D01*
X142853993Y-92738940D01*
X142842511Y-92742017D01*
X142716988Y-92814488D01*
X142716982Y-92814493D01*
X142614493Y-92916982D01*
X142614489Y-92916988D01*
X142607805Y-92928565D01*
X142557237Y-92976780D01*
X142488630Y-92990001D01*
X142438419Y-92973950D01*
X142322488Y-92907017D01*
X142322489Y-92907017D01*
X142311006Y-92903940D01*
X142182475Y-92869500D01*
X142037525Y-92869500D01*
X141908993Y-92903940D01*
X141897511Y-92907017D01*
X141771988Y-92979488D01*
X141771982Y-92979493D01*
X141702681Y-93048795D01*
X141641358Y-93082280D01*
X141571666Y-93077296D01*
X141527319Y-93048795D01*
X141438017Y-92959493D01*
X141438011Y-92959488D01*
X141312488Y-92887017D01*
X141312489Y-92887017D01*
X141301006Y-92883940D01*
X141172475Y-92849500D01*
X141027525Y-92849500D01*
X140898993Y-92883940D01*
X140887511Y-92887017D01*
X140791609Y-92942387D01*
X140729609Y-92959000D01*
X140034030Y-92959000D01*
X139966991Y-92939315D01*
X139946349Y-92922681D01*
X139527319Y-92503651D01*
X139493834Y-92442328D01*
X139492242Y-92427525D01*
X147249500Y-92427525D01*
X147249500Y-92572475D01*
X147285830Y-92708057D01*
X147287017Y-92712488D01*
X147359488Y-92838011D01*
X147359490Y-92838013D01*
X147359491Y-92838015D01*
X147461985Y-92940509D01*
X147461986Y-92940510D01*
X147461988Y-92940511D01*
X147587511Y-93012982D01*
X147587512Y-93012982D01*
X147587515Y-93012984D01*
X147727525Y-93050500D01*
X147727528Y-93050500D01*
X147872472Y-93050500D01*
X147872475Y-93050500D01*
X148012485Y-93012984D01*
X148138015Y-92940509D01*
X148240509Y-92838015D01*
X148312984Y-92712485D01*
X148350500Y-92572475D01*
X148350500Y-92427525D01*
X148312984Y-92287515D01*
X148291613Y-92250500D01*
X148240511Y-92161988D01*
X148240506Y-92161982D01*
X148138017Y-92059493D01*
X148138011Y-92059488D01*
X148012488Y-91987017D01*
X148012489Y-91987017D01*
X148001006Y-91983940D01*
X147977065Y-91977525D01*
X154749500Y-91977525D01*
X154749500Y-92122475D01*
X154783805Y-92250500D01*
X154787017Y-92262488D01*
X154859488Y-92388011D01*
X154859490Y-92388013D01*
X154859491Y-92388015D01*
X154961985Y-92490509D01*
X154961986Y-92490510D01*
X154961988Y-92490511D01*
X155087511Y-92562982D01*
X155087512Y-92562982D01*
X155087515Y-92562984D01*
X155227525Y-92600500D01*
X155227528Y-92600500D01*
X155372472Y-92600500D01*
X155372475Y-92600500D01*
X155512485Y-92562984D01*
X155638015Y-92490509D01*
X155740509Y-92388015D01*
X155812984Y-92262485D01*
X155850500Y-92122475D01*
X155850500Y-91977525D01*
X156349500Y-91977525D01*
X156349500Y-92122475D01*
X156383805Y-92250500D01*
X156387017Y-92262488D01*
X156459488Y-92388011D01*
X156459490Y-92388013D01*
X156459491Y-92388015D01*
X156561985Y-92490509D01*
X156561986Y-92490510D01*
X156561988Y-92490511D01*
X156687511Y-92562982D01*
X156687512Y-92562982D01*
X156687515Y-92562984D01*
X156827525Y-92600500D01*
X156827528Y-92600500D01*
X156972472Y-92600500D01*
X156972475Y-92600500D01*
X157112485Y-92562984D01*
X157238015Y-92490509D01*
X157340509Y-92388015D01*
X157412984Y-92262485D01*
X157450500Y-92122475D01*
X157450500Y-91977525D01*
X157412984Y-91837515D01*
X157384406Y-91788017D01*
X157340511Y-91711988D01*
X157340506Y-91711982D01*
X157238017Y-91609493D01*
X157238011Y-91609488D01*
X157112488Y-91537017D01*
X157112489Y-91537017D01*
X157101006Y-91533940D01*
X156972475Y-91499500D01*
X156827525Y-91499500D01*
X156698993Y-91533940D01*
X156687511Y-91537017D01*
X156561988Y-91609488D01*
X156561982Y-91609493D01*
X156459493Y-91711982D01*
X156459488Y-91711988D01*
X156387017Y-91837511D01*
X156387016Y-91837515D01*
X156349500Y-91977525D01*
X155850500Y-91977525D01*
X155812984Y-91837515D01*
X155784406Y-91788017D01*
X155740511Y-91711988D01*
X155740506Y-91711982D01*
X155638017Y-91609493D01*
X155638011Y-91609488D01*
X155512488Y-91537017D01*
X155512489Y-91537017D01*
X155501006Y-91533940D01*
X155372475Y-91499500D01*
X155227525Y-91499500D01*
X155098993Y-91533940D01*
X155087511Y-91537017D01*
X154961988Y-91609488D01*
X154961982Y-91609493D01*
X154859493Y-91711982D01*
X154859488Y-91711988D01*
X154787017Y-91837511D01*
X154787016Y-91837515D01*
X154749500Y-91977525D01*
X147977065Y-91977525D01*
X147872475Y-91949500D01*
X147727525Y-91949500D01*
X147598993Y-91983940D01*
X147587511Y-91987017D01*
X147461988Y-92059488D01*
X147461982Y-92059493D01*
X147359493Y-92161982D01*
X147359488Y-92161988D01*
X147287017Y-92287511D01*
X147287016Y-92287515D01*
X147249500Y-92427525D01*
X139492242Y-92427525D01*
X139491000Y-92415970D01*
X139491000Y-91027525D01*
X144649500Y-91027525D01*
X144649500Y-91172475D01*
X144680370Y-91287681D01*
X144687017Y-91312488D01*
X144759488Y-91438011D01*
X144759490Y-91438013D01*
X144759491Y-91438015D01*
X144861985Y-91540509D01*
X144861986Y-91540510D01*
X144861988Y-91540511D01*
X144987511Y-91612982D01*
X144987512Y-91612982D01*
X144987515Y-91612984D01*
X145127525Y-91650500D01*
X145127528Y-91650500D01*
X145272472Y-91650500D01*
X145272475Y-91650500D01*
X145412485Y-91612984D01*
X145538015Y-91540509D01*
X145640509Y-91438015D01*
X145675433Y-91377525D01*
X157999500Y-91377525D01*
X157999500Y-91522475D01*
X158031128Y-91640511D01*
X158037017Y-91662488D01*
X158109488Y-91788011D01*
X158109490Y-91788013D01*
X158109491Y-91788015D01*
X158211985Y-91890509D01*
X158211986Y-91890510D01*
X158211988Y-91890511D01*
X158337511Y-91962982D01*
X158337512Y-91962982D01*
X158337515Y-91962984D01*
X158477525Y-92000500D01*
X158477528Y-92000500D01*
X158622472Y-92000500D01*
X158622475Y-92000500D01*
X158762485Y-91962984D01*
X158888015Y-91890509D01*
X158990509Y-91788015D01*
X159062984Y-91662485D01*
X159100500Y-91522475D01*
X159100500Y-91377525D01*
X159062984Y-91237515D01*
X159056542Y-91226358D01*
X158990511Y-91111988D01*
X158990506Y-91111982D01*
X158888017Y-91009493D01*
X158888011Y-91009488D01*
X158762488Y-90937017D01*
X158762489Y-90937017D01*
X158725355Y-90927067D01*
X158622475Y-90899500D01*
X158477525Y-90899500D01*
X158374645Y-90927067D01*
X158337511Y-90937017D01*
X158211988Y-91009488D01*
X158211982Y-91009493D01*
X158109493Y-91111982D01*
X158109488Y-91111988D01*
X158037017Y-91237511D01*
X158037016Y-91237515D01*
X157999500Y-91377525D01*
X145675433Y-91377525D01*
X145712984Y-91312485D01*
X145750500Y-91172475D01*
X145750500Y-91027525D01*
X145712984Y-90887515D01*
X145701943Y-90868392D01*
X145640511Y-90761988D01*
X145640506Y-90761982D01*
X145538017Y-90659493D01*
X145538011Y-90659488D01*
X145482650Y-90627525D01*
X167549500Y-90627525D01*
X167549500Y-90772475D01*
X167583537Y-90899500D01*
X167587017Y-90912488D01*
X167659488Y-91038011D01*
X167659493Y-91038017D01*
X167733795Y-91112319D01*
X167767280Y-91173642D01*
X167762296Y-91243334D01*
X167733795Y-91287681D01*
X167659493Y-91361982D01*
X167659488Y-91361988D01*
X167587017Y-91487511D01*
X167587016Y-91487515D01*
X167549500Y-91627525D01*
X167549500Y-91772475D01*
X167581128Y-91890511D01*
X167587017Y-91912488D01*
X167659488Y-92038011D01*
X167659490Y-92038013D01*
X167659491Y-92038015D01*
X167761985Y-92140509D01*
X167761986Y-92140510D01*
X167761988Y-92140511D01*
X167887511Y-92212982D01*
X167887512Y-92212982D01*
X167887515Y-92212984D01*
X168027525Y-92250500D01*
X168027528Y-92250500D01*
X168172472Y-92250500D01*
X168172475Y-92250500D01*
X168312485Y-92212984D01*
X168438015Y-92140509D01*
X168540509Y-92038015D01*
X168612984Y-91912485D01*
X168650500Y-91772475D01*
X168650500Y-91627525D01*
X168612984Y-91487515D01*
X168612199Y-91486156D01*
X168540511Y-91361988D01*
X168540506Y-91361982D01*
X168466205Y-91287681D01*
X168432720Y-91226358D01*
X168437704Y-91156666D01*
X168466205Y-91112319D01*
X168489256Y-91089268D01*
X168540509Y-91038015D01*
X168612984Y-90912485D01*
X168650500Y-90772475D01*
X168650500Y-90627525D01*
X168612984Y-90487515D01*
X168585844Y-90440508D01*
X168540511Y-90361988D01*
X168540506Y-90361982D01*
X168438017Y-90259493D01*
X168438011Y-90259488D01*
X168312488Y-90187017D01*
X168312489Y-90187017D01*
X168301006Y-90183940D01*
X168172475Y-90149500D01*
X168027525Y-90149500D01*
X167898993Y-90183940D01*
X167887511Y-90187017D01*
X167761988Y-90259488D01*
X167761982Y-90259493D01*
X167659493Y-90361982D01*
X167659488Y-90361988D01*
X167587017Y-90487511D01*
X167587016Y-90487515D01*
X167549500Y-90627525D01*
X145482650Y-90627525D01*
X145412488Y-90587017D01*
X145412489Y-90587017D01*
X145401006Y-90583940D01*
X145272475Y-90549500D01*
X145127525Y-90549500D01*
X144998993Y-90583940D01*
X144987511Y-90587017D01*
X144861988Y-90659488D01*
X144861982Y-90659493D01*
X144759493Y-90761982D01*
X144759488Y-90761988D01*
X144687017Y-90887511D01*
X144687016Y-90887515D01*
X144649500Y-91027525D01*
X139491000Y-91027525D01*
X139491000Y-89832525D01*
X139744500Y-89832525D01*
X139744500Y-89977475D01*
X139774244Y-90088479D01*
X139782017Y-90117488D01*
X139854488Y-90243011D01*
X139854490Y-90243013D01*
X139854491Y-90243015D01*
X139956985Y-90345509D01*
X139956986Y-90345510D01*
X139956988Y-90345511D01*
X140082511Y-90417982D01*
X140082512Y-90417982D01*
X140082515Y-90417984D01*
X140222525Y-90455500D01*
X140222528Y-90455500D01*
X140367472Y-90455500D01*
X140367475Y-90455500D01*
X140507485Y-90417984D01*
X140633015Y-90345509D01*
X140735509Y-90243015D01*
X140807984Y-90117485D01*
X140845500Y-89977475D01*
X140845500Y-89832525D01*
X140807984Y-89692515D01*
X140807982Y-89692511D01*
X140807982Y-89692510D01*
X140804872Y-89685001D01*
X140807504Y-89683910D01*
X140794287Y-89629411D01*
X140817144Y-89563385D01*
X140832984Y-89546972D01*
X140832268Y-89546256D01*
X140878018Y-89500506D01*
X140940509Y-89438015D01*
X141012984Y-89312485D01*
X141050500Y-89172475D01*
X141050500Y-89027525D01*
X141034423Y-88967525D01*
X141547389Y-88967525D01*
X141547389Y-89112475D01*
X141574187Y-89212485D01*
X141584906Y-89252488D01*
X141657377Y-89378011D01*
X141657379Y-89378013D01*
X141657380Y-89378015D01*
X141759874Y-89480509D01*
X141759875Y-89480510D01*
X141759877Y-89480511D01*
X141885400Y-89552982D01*
X141885401Y-89552982D01*
X141885404Y-89552984D01*
X142025414Y-89590500D01*
X142025417Y-89590500D01*
X142170361Y-89590500D01*
X142170364Y-89590500D01*
X142310374Y-89552984D01*
X142435904Y-89480509D01*
X142511266Y-89405146D01*
X142572585Y-89371664D01*
X142642277Y-89376648D01*
X142686625Y-89405149D01*
X142781985Y-89500509D01*
X142781986Y-89500510D01*
X142781988Y-89500511D01*
X142907511Y-89572982D01*
X142907512Y-89572982D01*
X142907515Y-89572984D01*
X143047525Y-89610500D01*
X143047528Y-89610500D01*
X143192472Y-89610500D01*
X143192475Y-89610500D01*
X143332485Y-89572984D01*
X143458015Y-89500509D01*
X143560509Y-89398015D01*
X143632984Y-89272485D01*
X143670500Y-89132475D01*
X143670500Y-88987525D01*
X143632984Y-88847515D01*
X143583601Y-88761982D01*
X143560511Y-88721988D01*
X143560506Y-88721982D01*
X143458017Y-88619493D01*
X143458011Y-88619488D01*
X143332488Y-88547017D01*
X143332489Y-88547017D01*
X143308201Y-88540509D01*
X143192475Y-88509500D01*
X143047525Y-88509500D01*
X142931799Y-88540509D01*
X142907511Y-88547017D01*
X142781988Y-88619488D01*
X142706625Y-88694851D01*
X142645301Y-88728335D01*
X142575610Y-88723350D01*
X142531263Y-88694850D01*
X142435906Y-88599493D01*
X142435900Y-88599488D01*
X142310377Y-88527017D01*
X142310378Y-88527017D01*
X142297790Y-88523644D01*
X142170364Y-88489500D01*
X142025414Y-88489500D01*
X141897988Y-88523644D01*
X141885400Y-88527017D01*
X141759877Y-88599488D01*
X141759871Y-88599493D01*
X141657382Y-88701982D01*
X141657377Y-88701988D01*
X141584906Y-88827511D01*
X141584905Y-88827515D01*
X141547389Y-88967525D01*
X141034423Y-88967525D01*
X141012984Y-88887515D01*
X140955246Y-88787511D01*
X140940511Y-88761988D01*
X140940506Y-88761982D01*
X140838017Y-88659493D01*
X140838011Y-88659488D01*
X140712488Y-88587017D01*
X140712489Y-88587017D01*
X140672709Y-88576358D01*
X140572475Y-88549500D01*
X140427525Y-88549500D01*
X140327291Y-88576358D01*
X140287511Y-88587017D01*
X140161988Y-88659488D01*
X140161982Y-88659493D01*
X140059493Y-88761982D01*
X140059488Y-88761988D01*
X139987017Y-88887511D01*
X139987016Y-88887515D01*
X139949500Y-89027525D01*
X139949500Y-89172475D01*
X139960221Y-89212485D01*
X139987016Y-89312486D01*
X139990127Y-89319995D01*
X139987491Y-89321086D01*
X140000714Y-89375563D01*
X139977870Y-89441593D01*
X139962016Y-89458028D01*
X139962732Y-89458744D01*
X139854488Y-89566988D01*
X139782017Y-89692511D01*
X139782016Y-89692515D01*
X139744500Y-89832525D01*
X139491000Y-89832525D01*
X139491000Y-88027525D01*
X163549500Y-88027525D01*
X163549500Y-88172475D01*
X163560221Y-88212485D01*
X163587017Y-88312488D01*
X163659488Y-88438011D01*
X163659489Y-88438012D01*
X163659491Y-88438015D01*
X163678142Y-88456666D01*
X163683796Y-88462320D01*
X163717280Y-88523644D01*
X163712294Y-88593335D01*
X163683796Y-88637680D01*
X163659488Y-88661988D01*
X163587017Y-88787511D01*
X163587016Y-88787515D01*
X163549500Y-88927525D01*
X163549500Y-89072475D01*
X163587016Y-89212485D01*
X163587017Y-89212488D01*
X163659488Y-89338011D01*
X163659490Y-89338013D01*
X163659491Y-89338015D01*
X163761985Y-89440509D01*
X163761986Y-89440510D01*
X163761988Y-89440511D01*
X163887511Y-89512982D01*
X163887512Y-89512982D01*
X163887515Y-89512984D01*
X164027525Y-89550500D01*
X164027528Y-89550500D01*
X164172472Y-89550500D01*
X164172475Y-89550500D01*
X164312485Y-89512984D01*
X164438015Y-89440509D01*
X164540509Y-89338015D01*
X164612984Y-89212485D01*
X164650500Y-89072475D01*
X164650500Y-88927525D01*
X164612984Y-88787515D01*
X164598244Y-88761985D01*
X164540511Y-88661988D01*
X164540506Y-88661982D01*
X164516205Y-88637681D01*
X164482720Y-88576358D01*
X164487704Y-88506666D01*
X164516205Y-88462319D01*
X164521858Y-88456666D01*
X164540509Y-88438015D01*
X164612984Y-88312485D01*
X164650500Y-88172475D01*
X164650500Y-88027525D01*
X164623705Y-87927525D01*
X167449500Y-87927525D01*
X167449500Y-88072475D01*
X167487016Y-88212485D01*
X167487017Y-88212488D01*
X167559488Y-88338011D01*
X167559493Y-88338017D01*
X167633795Y-88412319D01*
X167667280Y-88473642D01*
X167662296Y-88543334D01*
X167633795Y-88587681D01*
X167559493Y-88661982D01*
X167559488Y-88661988D01*
X167487017Y-88787511D01*
X167487016Y-88787515D01*
X167449500Y-88927525D01*
X167449500Y-89072475D01*
X167487016Y-89212485D01*
X167487017Y-89212488D01*
X167559488Y-89338011D01*
X167559490Y-89338013D01*
X167559491Y-89338015D01*
X167661985Y-89440509D01*
X167661986Y-89440510D01*
X167661988Y-89440511D01*
X167787511Y-89512982D01*
X167787512Y-89512982D01*
X167787515Y-89512984D01*
X167927525Y-89550500D01*
X167927528Y-89550500D01*
X168072472Y-89550500D01*
X168072475Y-89550500D01*
X168212485Y-89512984D01*
X168338015Y-89440509D01*
X168440509Y-89338015D01*
X168512984Y-89212485D01*
X168550500Y-89072475D01*
X168550500Y-88927525D01*
X168512984Y-88787515D01*
X168498244Y-88761985D01*
X168440511Y-88661988D01*
X168440506Y-88661982D01*
X168366205Y-88587681D01*
X168332720Y-88526358D01*
X168337704Y-88456666D01*
X168366205Y-88412319D01*
X168440509Y-88338015D01*
X168512984Y-88212485D01*
X168550500Y-88072475D01*
X168550500Y-87927525D01*
X168512984Y-87787515D01*
X168498244Y-87761985D01*
X168440511Y-87661988D01*
X168440506Y-87661982D01*
X168338017Y-87559493D01*
X168338011Y-87559488D01*
X168212488Y-87487017D01*
X168212489Y-87487017D01*
X168201006Y-87483940D01*
X168072475Y-87449500D01*
X167927525Y-87449500D01*
X167798993Y-87483940D01*
X167787511Y-87487017D01*
X167661988Y-87559488D01*
X167661982Y-87559493D01*
X167559493Y-87661982D01*
X167559488Y-87661988D01*
X167487017Y-87787511D01*
X167487016Y-87787515D01*
X167449500Y-87927525D01*
X164623705Y-87927525D01*
X164612984Y-87887515D01*
X164585843Y-87840506D01*
X164540511Y-87761988D01*
X164540506Y-87761982D01*
X164438017Y-87659493D01*
X164438011Y-87659488D01*
X164312488Y-87587017D01*
X164312489Y-87587017D01*
X164301006Y-87583940D01*
X164172475Y-87549500D01*
X164027525Y-87549500D01*
X163898993Y-87583940D01*
X163887511Y-87587017D01*
X163761988Y-87659488D01*
X163761982Y-87659493D01*
X163659493Y-87761982D01*
X163659488Y-87761988D01*
X163587017Y-87887511D01*
X163587016Y-87887515D01*
X163549500Y-88027525D01*
X139491000Y-88027525D01*
X139491000Y-85327525D01*
X147249500Y-85327525D01*
X147249500Y-85472475D01*
X147283805Y-85600500D01*
X147287017Y-85612488D01*
X147359488Y-85738011D01*
X147359490Y-85738013D01*
X147359491Y-85738015D01*
X147461985Y-85840509D01*
X147461986Y-85840510D01*
X147461988Y-85840511D01*
X147587511Y-85912982D01*
X147587512Y-85912982D01*
X147587515Y-85912984D01*
X147727525Y-85950500D01*
X147727528Y-85950500D01*
X147872472Y-85950500D01*
X147872475Y-85950500D01*
X148012485Y-85912984D01*
X148138015Y-85840509D01*
X148240509Y-85738015D01*
X148278349Y-85672475D01*
X148317048Y-85605447D01*
X148319466Y-85606843D01*
X148354768Y-85563027D01*
X148421059Y-85540955D01*
X148488761Y-85558226D01*
X148536377Y-85609357D01*
X148549500Y-85664875D01*
X148549500Y-85672475D01*
X148570273Y-85750000D01*
X148587017Y-85812488D01*
X148659488Y-85938011D01*
X148659493Y-85938017D01*
X148689607Y-85968131D01*
X148723092Y-86029454D01*
X148718108Y-86099146D01*
X148676236Y-86155079D01*
X148610772Y-86179496D01*
X148569833Y-86175587D01*
X148518490Y-86161829D01*
X148472475Y-86149500D01*
X148327525Y-86149500D01*
X148215580Y-86179496D01*
X148187511Y-86187017D01*
X148061988Y-86259488D01*
X148061982Y-86259493D01*
X147959493Y-86361982D01*
X147959488Y-86361988D01*
X147887017Y-86487511D01*
X147887016Y-86487515D01*
X147849500Y-86627525D01*
X147849500Y-86772475D01*
X147880460Y-86888017D01*
X147887017Y-86912488D01*
X147959488Y-87038011D01*
X147959490Y-87038013D01*
X147959491Y-87038015D01*
X148061985Y-87140509D01*
X148061986Y-87140510D01*
X148061988Y-87140511D01*
X148187511Y-87212982D01*
X148187512Y-87212982D01*
X148187515Y-87212984D01*
X148327525Y-87250500D01*
X148327528Y-87250500D01*
X148472472Y-87250500D01*
X148472475Y-87250500D01*
X148612485Y-87212984D01*
X148738015Y-87140509D01*
X148840509Y-87038015D01*
X148912984Y-86912485D01*
X148950500Y-86772475D01*
X148950500Y-86627525D01*
X148912984Y-86487515D01*
X148907217Y-86477527D01*
X148907216Y-86477525D01*
X149699500Y-86477525D01*
X149699500Y-86622475D01*
X149731128Y-86740511D01*
X149737017Y-86762488D01*
X149809488Y-86888011D01*
X149809490Y-86888013D01*
X149809491Y-86888015D01*
X149911985Y-86990509D01*
X149911986Y-86990510D01*
X149911988Y-86990511D01*
X150037511Y-87062982D01*
X150037512Y-87062982D01*
X150037515Y-87062984D01*
X150177525Y-87100500D01*
X150177528Y-87100500D01*
X150322472Y-87100500D01*
X150322475Y-87100500D01*
X150462485Y-87062984D01*
X150588015Y-86990509D01*
X150690509Y-86888015D01*
X150696565Y-86877525D01*
X156349500Y-86877525D01*
X156349500Y-87022475D01*
X156381128Y-87140511D01*
X156387017Y-87162488D01*
X156459488Y-87288011D01*
X156459490Y-87288013D01*
X156459491Y-87288015D01*
X156561985Y-87390509D01*
X156561986Y-87390510D01*
X156561988Y-87390511D01*
X156687511Y-87462982D01*
X156687512Y-87462982D01*
X156687515Y-87462984D01*
X156827525Y-87500500D01*
X156827528Y-87500500D01*
X156972472Y-87500500D01*
X156972475Y-87500500D01*
X157112485Y-87462984D01*
X157238015Y-87390509D01*
X157300999Y-87327525D01*
X158486000Y-87327525D01*
X158486000Y-87472475D01*
X158509317Y-87559493D01*
X158523517Y-87612488D01*
X158595988Y-87738011D01*
X158595990Y-87738013D01*
X158595991Y-87738015D01*
X158698485Y-87840509D01*
X158698486Y-87840510D01*
X158698488Y-87840511D01*
X158824011Y-87912982D01*
X158824012Y-87912982D01*
X158824015Y-87912984D01*
X158964025Y-87950500D01*
X158964028Y-87950500D01*
X159108972Y-87950500D01*
X159108975Y-87950500D01*
X159248985Y-87912984D01*
X159374515Y-87840509D01*
X159477009Y-87738015D01*
X159549484Y-87612485D01*
X159587000Y-87472475D01*
X159587000Y-87327525D01*
X160049500Y-87327525D01*
X160049500Y-87472475D01*
X160072817Y-87559493D01*
X160087017Y-87612488D01*
X160159488Y-87738011D01*
X160159490Y-87738013D01*
X160159491Y-87738015D01*
X160261985Y-87840509D01*
X160261986Y-87840510D01*
X160261988Y-87840511D01*
X160387511Y-87912982D01*
X160387512Y-87912982D01*
X160387515Y-87912984D01*
X160527525Y-87950500D01*
X160527528Y-87950500D01*
X160672472Y-87950500D01*
X160672475Y-87950500D01*
X160812485Y-87912984D01*
X160814170Y-87912011D01*
X160814171Y-87912011D01*
X160856605Y-87887511D01*
X160938015Y-87840509D01*
X161040509Y-87738015D01*
X161112984Y-87612485D01*
X161150500Y-87472475D01*
X161150500Y-87327525D01*
X161112984Y-87187515D01*
X161085843Y-87140506D01*
X161040511Y-87061988D01*
X161040506Y-87061982D01*
X160938017Y-86959493D01*
X160938011Y-86959488D01*
X160812488Y-86887017D01*
X160812489Y-86887017D01*
X160801006Y-86883940D01*
X160672475Y-86849500D01*
X160527525Y-86849500D01*
X160398993Y-86883940D01*
X160387511Y-86887017D01*
X160261988Y-86959488D01*
X160261982Y-86959493D01*
X160159493Y-87061982D01*
X160159488Y-87061988D01*
X160087017Y-87187511D01*
X160087016Y-87187515D01*
X160049500Y-87327525D01*
X159587000Y-87327525D01*
X159549484Y-87187515D01*
X159522343Y-87140506D01*
X159477011Y-87061988D01*
X159477006Y-87061982D01*
X159374517Y-86959493D01*
X159374511Y-86959488D01*
X159248988Y-86887017D01*
X159248989Y-86887017D01*
X159237506Y-86883940D01*
X159108975Y-86849500D01*
X158964025Y-86849500D01*
X158835493Y-86883940D01*
X158824011Y-86887017D01*
X158698488Y-86959488D01*
X158698482Y-86959493D01*
X158595993Y-87061982D01*
X158595988Y-87061988D01*
X158523517Y-87187511D01*
X158523516Y-87187515D01*
X158486000Y-87327525D01*
X157300999Y-87327525D01*
X157340509Y-87288015D01*
X157412984Y-87162485D01*
X157450500Y-87022475D01*
X157450500Y-86877525D01*
X157412984Y-86737515D01*
X157355537Y-86638015D01*
X157340511Y-86611988D01*
X157340506Y-86611982D01*
X157238017Y-86509493D01*
X157238011Y-86509488D01*
X157112488Y-86437017D01*
X157112489Y-86437017D01*
X157101006Y-86433940D01*
X156972475Y-86399500D01*
X156827525Y-86399500D01*
X156698993Y-86433940D01*
X156687511Y-86437017D01*
X156561988Y-86509488D01*
X156561982Y-86509493D01*
X156459493Y-86611982D01*
X156459488Y-86611988D01*
X156387017Y-86737511D01*
X156386214Y-86740509D01*
X156349500Y-86877525D01*
X150696565Y-86877525D01*
X150762984Y-86762485D01*
X150800500Y-86622475D01*
X150800500Y-86477525D01*
X150762984Y-86337515D01*
X150690509Y-86211985D01*
X150588015Y-86109491D01*
X150588013Y-86109490D01*
X150588011Y-86109488D01*
X150462488Y-86037017D01*
X150462489Y-86037017D01*
X150451006Y-86033940D01*
X150322475Y-85999500D01*
X150177525Y-85999500D01*
X150048993Y-86033940D01*
X150037511Y-86037017D01*
X149911988Y-86109488D01*
X149911982Y-86109493D01*
X149809493Y-86211982D01*
X149809488Y-86211988D01*
X149737017Y-86337511D01*
X149737016Y-86337515D01*
X149699500Y-86477525D01*
X148907216Y-86477525D01*
X148840511Y-86361988D01*
X148840506Y-86361982D01*
X148810392Y-86331868D01*
X148776907Y-86270545D01*
X148781891Y-86200853D01*
X148823763Y-86144920D01*
X148889227Y-86120503D01*
X148930162Y-86124411D01*
X149027525Y-86150500D01*
X149027528Y-86150500D01*
X149172472Y-86150500D01*
X149172475Y-86150500D01*
X149312485Y-86112984D01*
X149438015Y-86040509D01*
X149540509Y-85938015D01*
X149612984Y-85812485D01*
X149650500Y-85672475D01*
X149650500Y-85527525D01*
X149612984Y-85387515D01*
X149546565Y-85272475D01*
X149540511Y-85261988D01*
X149540506Y-85261982D01*
X149438017Y-85159493D01*
X149438011Y-85159488D01*
X149312488Y-85087017D01*
X149312489Y-85087017D01*
X149301006Y-85083940D01*
X149172475Y-85049500D01*
X149027525Y-85049500D01*
X148898993Y-85083940D01*
X148887511Y-85087017D01*
X148761988Y-85159488D01*
X148761982Y-85159493D01*
X148659493Y-85261982D01*
X148659488Y-85261988D01*
X148582952Y-85394553D01*
X148580535Y-85393157D01*
X148545218Y-85436982D01*
X148478924Y-85459045D01*
X148411225Y-85441765D01*
X148363615Y-85390626D01*
X148350500Y-85335124D01*
X148350500Y-85327527D01*
X148350500Y-85327525D01*
X148312984Y-85187515D01*
X148296805Y-85159493D01*
X148240511Y-85061988D01*
X148240506Y-85061982D01*
X148138017Y-84959493D01*
X148138011Y-84959488D01*
X148012488Y-84887017D01*
X148012489Y-84887017D01*
X148001006Y-84883940D01*
X147872475Y-84849500D01*
X147727525Y-84849500D01*
X147598993Y-84883940D01*
X147587511Y-84887017D01*
X147461988Y-84959488D01*
X147461982Y-84959493D01*
X147359493Y-85061982D01*
X147359488Y-85061988D01*
X147287017Y-85187511D01*
X147286214Y-85190509D01*
X147249500Y-85327525D01*
X139491000Y-85327525D01*
X139491000Y-84677525D01*
X162799500Y-84677525D01*
X162799500Y-84822475D01*
X162836213Y-84959488D01*
X162837017Y-84962488D01*
X162909488Y-85088011D01*
X162909490Y-85088013D01*
X162909491Y-85088015D01*
X163011985Y-85190509D01*
X163011986Y-85190510D01*
X163011988Y-85190511D01*
X163137511Y-85262982D01*
X163137512Y-85262982D01*
X163137515Y-85262984D01*
X163277525Y-85300500D01*
X163277528Y-85300500D01*
X163422472Y-85300500D01*
X163422475Y-85300500D01*
X163562485Y-85262984D01*
X163688015Y-85190509D01*
X163790509Y-85088015D01*
X163862984Y-84962485D01*
X163900500Y-84822475D01*
X163900500Y-84677525D01*
X163862984Y-84537515D01*
X163790509Y-84411985D01*
X163688015Y-84309491D01*
X163688013Y-84309490D01*
X163688011Y-84309488D01*
X163667191Y-84297468D01*
X163667188Y-84297466D01*
X163562485Y-84237016D01*
X163422475Y-84199500D01*
X163277525Y-84199500D01*
X163148993Y-84233940D01*
X163137511Y-84237017D01*
X163011988Y-84309488D01*
X163011982Y-84309493D01*
X162909493Y-84411982D01*
X162909488Y-84411988D01*
X162837017Y-84537511D01*
X162837016Y-84537515D01*
X162799500Y-84677525D01*
X139491000Y-84677525D01*
X139491000Y-83391025D01*
X147309500Y-83391025D01*
X147309500Y-83535975D01*
X147326790Y-83600500D01*
X147347017Y-83675988D01*
X147419488Y-83801511D01*
X147419490Y-83801513D01*
X147419491Y-83801515D01*
X147521985Y-83904009D01*
X147521986Y-83904010D01*
X147521988Y-83904011D01*
X147647511Y-83976482D01*
X147647512Y-83976482D01*
X147647515Y-83976484D01*
X147787525Y-84014000D01*
X147787528Y-84014000D01*
X147932472Y-84014000D01*
X147932475Y-84014000D01*
X148072485Y-83976484D01*
X148198015Y-83904009D01*
X148300509Y-83801515D01*
X148372984Y-83675985D01*
X148409068Y-83541318D01*
X148445431Y-83481661D01*
X148453945Y-83477525D01*
X163399500Y-83477525D01*
X163399500Y-83622475D01*
X163429579Y-83734729D01*
X163437017Y-83762488D01*
X163509488Y-83888011D01*
X163509490Y-83888013D01*
X163509491Y-83888015D01*
X163611985Y-83990509D01*
X163621308Y-83995892D01*
X163632798Y-84002526D01*
X163632805Y-84002529D01*
X163737515Y-84062984D01*
X163877525Y-84100500D01*
X163877529Y-84100500D01*
X164022472Y-84100500D01*
X164022475Y-84100500D01*
X164162485Y-84062984D01*
X164288015Y-83990509D01*
X164390509Y-83888015D01*
X164462984Y-83762485D01*
X164500500Y-83622475D01*
X164500500Y-83477525D01*
X164487102Y-83427525D01*
X166949500Y-83427525D01*
X166949500Y-83572475D01*
X166977237Y-83675988D01*
X166987017Y-83712488D01*
X167059488Y-83838011D01*
X167059490Y-83838013D01*
X167059491Y-83838015D01*
X167161985Y-83940509D01*
X167161986Y-83940510D01*
X167161988Y-83940511D01*
X167287511Y-84012982D01*
X167287512Y-84012982D01*
X167287515Y-84012984D01*
X167427525Y-84050500D01*
X167427528Y-84050500D01*
X167572472Y-84050500D01*
X167572475Y-84050500D01*
X167712485Y-84012984D01*
X167838015Y-83940509D01*
X167940509Y-83838015D01*
X168012984Y-83712485D01*
X168050500Y-83572475D01*
X168050500Y-83427525D01*
X168012984Y-83287515D01*
X168008216Y-83279257D01*
X167940511Y-83161988D01*
X167940506Y-83161982D01*
X167838017Y-83059493D01*
X167838011Y-83059488D01*
X167712488Y-82987017D01*
X167712489Y-82987017D01*
X167671373Y-82976000D01*
X167572475Y-82949500D01*
X167427525Y-82949500D01*
X167328627Y-82976000D01*
X167287511Y-82987017D01*
X167161988Y-83059488D01*
X167161982Y-83059493D01*
X167059493Y-83161982D01*
X167059488Y-83161988D01*
X166987017Y-83287511D01*
X166982583Y-83304055D01*
X166949500Y-83427525D01*
X164487102Y-83427525D01*
X164462984Y-83337515D01*
X164456027Y-83325466D01*
X164390511Y-83211988D01*
X164390506Y-83211982D01*
X164288017Y-83109493D01*
X164288011Y-83109488D01*
X164162488Y-83037017D01*
X164162489Y-83037017D01*
X164137469Y-83030313D01*
X164022475Y-82999500D01*
X163877525Y-82999500D01*
X163762531Y-83030313D01*
X163737511Y-83037017D01*
X163611988Y-83109488D01*
X163611982Y-83109493D01*
X163509493Y-83211982D01*
X163509488Y-83211988D01*
X163437017Y-83337511D01*
X163436214Y-83340509D01*
X163399500Y-83477525D01*
X148453945Y-83477525D01*
X148504696Y-83452871D01*
X148504624Y-83452603D01*
X148506019Y-83452229D01*
X148508278Y-83451132D01*
X148512442Y-83450507D01*
X148512468Y-83450500D01*
X148512475Y-83450500D01*
X148652485Y-83412984D01*
X148778015Y-83340509D01*
X148880509Y-83238015D01*
X148952984Y-83112485D01*
X148990500Y-82972475D01*
X148990500Y-82827525D01*
X148952984Y-82687515D01*
X148952979Y-82687507D01*
X148951094Y-82682953D01*
X148943625Y-82613484D01*
X148974900Y-82551004D01*
X149034989Y-82515352D01*
X149097744Y-82515724D01*
X149227525Y-82550500D01*
X149227528Y-82550500D01*
X149372472Y-82550500D01*
X149372475Y-82550500D01*
X149512485Y-82512984D01*
X149638015Y-82440509D01*
X149650999Y-82427525D01*
X165449500Y-82427525D01*
X165449500Y-82572475D01*
X165487016Y-82712485D01*
X165487017Y-82712488D01*
X165559488Y-82838011D01*
X165559490Y-82838013D01*
X165559491Y-82838015D01*
X165661985Y-82940509D01*
X165661986Y-82940510D01*
X165661988Y-82940511D01*
X165787511Y-83012982D01*
X165787512Y-83012982D01*
X165787515Y-83012984D01*
X165927525Y-83050500D01*
X165927528Y-83050500D01*
X166072472Y-83050500D01*
X166072475Y-83050500D01*
X166212485Y-83012984D01*
X166338015Y-82940509D01*
X166440509Y-82838015D01*
X166512984Y-82712485D01*
X166550500Y-82572475D01*
X166550500Y-82427525D01*
X166512984Y-82287515D01*
X166506335Y-82275999D01*
X166440511Y-82161988D01*
X166440506Y-82161982D01*
X166338017Y-82059493D01*
X166338011Y-82059488D01*
X166212488Y-81987017D01*
X166212489Y-81987017D01*
X166201006Y-81983940D01*
X166072475Y-81949500D01*
X165927525Y-81949500D01*
X165798993Y-81983940D01*
X165787511Y-81987017D01*
X165661988Y-82059488D01*
X165661982Y-82059493D01*
X165559493Y-82161982D01*
X165559488Y-82161988D01*
X165487017Y-82287511D01*
X165487016Y-82287515D01*
X165449500Y-82427525D01*
X149650999Y-82427525D01*
X149740509Y-82338015D01*
X149812984Y-82212485D01*
X149850500Y-82072475D01*
X149850500Y-81927525D01*
X149812984Y-81787515D01*
X149800835Y-81766473D01*
X149740511Y-81661988D01*
X149740506Y-81661982D01*
X149638017Y-81559493D01*
X149638011Y-81559488D01*
X149582650Y-81527525D01*
X150149500Y-81527525D01*
X150149500Y-81672475D01*
X150187016Y-81812485D01*
X150187017Y-81812488D01*
X150259488Y-81938011D01*
X150259490Y-81938013D01*
X150259491Y-81938015D01*
X150361985Y-82040509D01*
X150361986Y-82040510D01*
X150361988Y-82040511D01*
X150487511Y-82112982D01*
X150487512Y-82112982D01*
X150487515Y-82112984D01*
X150627525Y-82150500D01*
X150627528Y-82150500D01*
X150772472Y-82150500D01*
X150772475Y-82150500D01*
X150912485Y-82112984D01*
X151038015Y-82040509D01*
X151140509Y-81938015D01*
X151212984Y-81812485D01*
X151235749Y-81727525D01*
X153285997Y-81727525D01*
X153285997Y-81872475D01*
X153318693Y-81994497D01*
X153323514Y-82012488D01*
X153395985Y-82138011D01*
X153395987Y-82138013D01*
X153395988Y-82138015D01*
X153498482Y-82240509D01*
X153498483Y-82240510D01*
X153498485Y-82240511D01*
X153624008Y-82312982D01*
X153624009Y-82312982D01*
X153624012Y-82312984D01*
X153764022Y-82350500D01*
X153764025Y-82350500D01*
X153908969Y-82350500D01*
X153908972Y-82350500D01*
X154048982Y-82312984D01*
X154048984Y-82312982D01*
X154048986Y-82312982D01*
X154048987Y-82312981D01*
X154174498Y-82240516D01*
X154242397Y-82224043D01*
X154298495Y-82240514D01*
X154424015Y-82312984D01*
X154564025Y-82350500D01*
X154564028Y-82350500D01*
X154708972Y-82350500D01*
X154708975Y-82350500D01*
X154848985Y-82312984D01*
X154850670Y-82312011D01*
X154850671Y-82312011D01*
X154894822Y-82286520D01*
X154974515Y-82240509D01*
X155077009Y-82138015D01*
X155149484Y-82012485D01*
X155186581Y-81874038D01*
X171099500Y-81874038D01*
X171099500Y-82125962D01*
X171128968Y-82312012D01*
X171138910Y-82374785D01*
X171216760Y-82614383D01*
X171266746Y-82712485D01*
X171330708Y-82838017D01*
X171331132Y-82838848D01*
X171479201Y-83042649D01*
X171479205Y-83042654D01*
X171657345Y-83220794D01*
X171657350Y-83220798D01*
X171835117Y-83349952D01*
X171861155Y-83368870D01*
X171947734Y-83412984D01*
X172085616Y-83483239D01*
X172085618Y-83483239D01*
X172085621Y-83483241D01*
X172325215Y-83561090D01*
X172574038Y-83600500D01*
X172574039Y-83600500D01*
X172825961Y-83600500D01*
X172825962Y-83600500D01*
X173074785Y-83561090D01*
X173314379Y-83483241D01*
X173538845Y-83368870D01*
X173742656Y-83220793D01*
X173920793Y-83042656D01*
X174068870Y-82838845D01*
X174183241Y-82614379D01*
X174261090Y-82374785D01*
X174300500Y-82125962D01*
X174300500Y-81874038D01*
X174261090Y-81625215D01*
X174183241Y-81385621D01*
X174183239Y-81385618D01*
X174183239Y-81385616D01*
X174130961Y-81283015D01*
X174068870Y-81161155D01*
X174034233Y-81113481D01*
X173920798Y-80957350D01*
X173920794Y-80957345D01*
X173742654Y-80779205D01*
X173742649Y-80779201D01*
X173538848Y-80631132D01*
X173538847Y-80631131D01*
X173538845Y-80631130D01*
X173453528Y-80587659D01*
X173314383Y-80516760D01*
X173074785Y-80438910D01*
X173002916Y-80427527D01*
X172825962Y-80399500D01*
X172574038Y-80399500D01*
X172449626Y-80419205D01*
X172325214Y-80438910D01*
X172085616Y-80516760D01*
X171861151Y-80631132D01*
X171657350Y-80779201D01*
X171657345Y-80779205D01*
X171479205Y-80957345D01*
X171479201Y-80957350D01*
X171331132Y-81161151D01*
X171216760Y-81385616D01*
X171138910Y-81625214D01*
X171122705Y-81727527D01*
X171099500Y-81874038D01*
X155186581Y-81874038D01*
X155187000Y-81872475D01*
X155187000Y-81727525D01*
X155149484Y-81587515D01*
X155141321Y-81573377D01*
X155077011Y-81461988D01*
X155077006Y-81461982D01*
X154974517Y-81359493D01*
X154974511Y-81359488D01*
X154848988Y-81287017D01*
X154848989Y-81287017D01*
X154820909Y-81279493D01*
X154708975Y-81249500D01*
X154564025Y-81249500D01*
X154452091Y-81279493D01*
X154424011Y-81287017D01*
X154298498Y-81359482D01*
X154230597Y-81375955D01*
X154174498Y-81359482D01*
X154048985Y-81287017D01*
X154048986Y-81287017D01*
X154020906Y-81279493D01*
X153908972Y-81249500D01*
X153764022Y-81249500D01*
X153652088Y-81279493D01*
X153624008Y-81287017D01*
X153498485Y-81359488D01*
X153498479Y-81359493D01*
X153395990Y-81461982D01*
X153395985Y-81461988D01*
X153323514Y-81587511D01*
X153323513Y-81587515D01*
X153285997Y-81727525D01*
X151235749Y-81727525D01*
X151250500Y-81672475D01*
X151250500Y-81527525D01*
X151212984Y-81387515D01*
X151211890Y-81385621D01*
X151140511Y-81261988D01*
X151140506Y-81261982D01*
X151038017Y-81159493D01*
X151038011Y-81159488D01*
X150912488Y-81087017D01*
X150912489Y-81087017D01*
X150901006Y-81083940D01*
X150772475Y-81049500D01*
X150627525Y-81049500D01*
X150498993Y-81083940D01*
X150487511Y-81087017D01*
X150361988Y-81159488D01*
X150361982Y-81159493D01*
X150259493Y-81261982D01*
X150259488Y-81261988D01*
X150187017Y-81387511D01*
X150187016Y-81387515D01*
X150149500Y-81527525D01*
X149582650Y-81527525D01*
X149512488Y-81487017D01*
X149512489Y-81487017D01*
X149491948Y-81481513D01*
X149372475Y-81449500D01*
X149227525Y-81449500D01*
X149108052Y-81481513D01*
X149087511Y-81487017D01*
X148961988Y-81559488D01*
X148961982Y-81559493D01*
X148859493Y-81661982D01*
X148859488Y-81661988D01*
X148787017Y-81787511D01*
X148787016Y-81787515D01*
X148749500Y-81927525D01*
X148749500Y-82072475D01*
X148775769Y-82170511D01*
X148787017Y-82212489D01*
X148788907Y-82217051D01*
X148796373Y-82286520D01*
X148765096Y-82348998D01*
X148705005Y-82384648D01*
X148642251Y-82384274D01*
X148512475Y-82349500D01*
X148367525Y-82349500D01*
X148238993Y-82383940D01*
X148227511Y-82387017D01*
X148101988Y-82459488D01*
X148101982Y-82459493D01*
X147999493Y-82561982D01*
X147999488Y-82561988D01*
X147927017Y-82687511D01*
X147890933Y-82822178D01*
X147854567Y-82881838D01*
X147795303Y-82910626D01*
X147795376Y-82910897D01*
X147793971Y-82911273D01*
X147791720Y-82912367D01*
X147787562Y-82912990D01*
X147647511Y-82950517D01*
X147521988Y-83022988D01*
X147521982Y-83022993D01*
X147419493Y-83125482D01*
X147419488Y-83125488D01*
X147347017Y-83251011D01*
X147347016Y-83251015D01*
X147309500Y-83391025D01*
X139491000Y-83391025D01*
X139491000Y-82055749D01*
X139510685Y-81988710D01*
X139563489Y-81942955D01*
X139632647Y-81933011D01*
X139696203Y-81962036D01*
X139722386Y-81993748D01*
X139759491Y-82058015D01*
X139861985Y-82160509D01*
X139861986Y-82160510D01*
X139861988Y-82160511D01*
X139987511Y-82232982D01*
X139987512Y-82232982D01*
X139987515Y-82232984D01*
X140127525Y-82270500D01*
X140127528Y-82270500D01*
X140272472Y-82270500D01*
X140272475Y-82270500D01*
X140412485Y-82232984D01*
X140538015Y-82160509D01*
X140640509Y-82058015D01*
X140708739Y-81939838D01*
X140759306Y-81891622D01*
X140827913Y-81878400D01*
X140892778Y-81904368D01*
X140927763Y-81950529D01*
X140927907Y-81950447D01*
X140928564Y-81951586D01*
X140930689Y-81954389D01*
X140931973Y-81957490D01*
X141004443Y-82083011D01*
X141004445Y-82083013D01*
X141004446Y-82083015D01*
X141106940Y-82185509D01*
X141106941Y-82185510D01*
X141106943Y-82185511D01*
X141232466Y-82257982D01*
X141232467Y-82257982D01*
X141232470Y-82257984D01*
X141372480Y-82295500D01*
X141372483Y-82295500D01*
X141517427Y-82295500D01*
X141517430Y-82295500D01*
X141657440Y-82257984D01*
X141782970Y-82185509D01*
X141782976Y-82185502D01*
X141788074Y-82181591D01*
X141853242Y-82156394D01*
X141921688Y-82170428D01*
X141925521Y-82172550D01*
X142047515Y-82242984D01*
X142187525Y-82280500D01*
X142187528Y-82280500D01*
X142332472Y-82280500D01*
X142332475Y-82280500D01*
X142472485Y-82242984D01*
X142598015Y-82170509D01*
X142697729Y-82070794D01*
X142759048Y-82037312D01*
X142828740Y-82042296D01*
X142847404Y-82051089D01*
X142874913Y-82066972D01*
X143014923Y-82104488D01*
X143014926Y-82104488D01*
X143159870Y-82104488D01*
X143159873Y-82104488D01*
X143299883Y-82066972D01*
X143425413Y-81994497D01*
X143527907Y-81892003D01*
X143600382Y-81766473D01*
X143637898Y-81626463D01*
X143637898Y-81481513D01*
X143600382Y-81341503D01*
X143600224Y-81341230D01*
X143527909Y-81215976D01*
X143527904Y-81215970D01*
X143425415Y-81113481D01*
X143425409Y-81113476D01*
X143299886Y-81041005D01*
X143299887Y-81041005D01*
X143288404Y-81037928D01*
X143159873Y-81003488D01*
X143014923Y-81003488D01*
X142886391Y-81037928D01*
X142874909Y-81041005D01*
X142749386Y-81113476D01*
X142649671Y-81213191D01*
X142588348Y-81246675D01*
X142518656Y-81241691D01*
X142499989Y-81232895D01*
X142472490Y-81217018D01*
X142472489Y-81217017D01*
X142458210Y-81213191D01*
X142332475Y-81179500D01*
X142187525Y-81179500D01*
X142047515Y-81217016D01*
X142047513Y-81217016D01*
X142047513Y-81217017D01*
X142024184Y-81230486D01*
X141921985Y-81289491D01*
X141921984Y-81289491D01*
X141921977Y-81289496D01*
X141916866Y-81293418D01*
X141851695Y-81318607D01*
X141783251Y-81304563D01*
X141779414Y-81302438D01*
X141657440Y-81232016D01*
X141517430Y-81194500D01*
X141372480Y-81194500D01*
X141243948Y-81228940D01*
X141232466Y-81232017D01*
X141106943Y-81304488D01*
X141106937Y-81304493D01*
X141004448Y-81406982D01*
X141004441Y-81406991D01*
X140936214Y-81525162D01*
X140885647Y-81573377D01*
X140817040Y-81586599D01*
X140752175Y-81560631D01*
X140717191Y-81514469D01*
X140717048Y-81514553D01*
X140716385Y-81513406D01*
X140714263Y-81510605D01*
X140712985Y-81507519D01*
X140712984Y-81507515D01*
X140712981Y-81507510D01*
X140712980Y-81507507D01*
X140640511Y-81381988D01*
X140640506Y-81381982D01*
X140538017Y-81279493D01*
X140538011Y-81279488D01*
X140412488Y-81207017D01*
X140412489Y-81207017D01*
X140401006Y-81203940D01*
X140272475Y-81169500D01*
X140127525Y-81169500D01*
X139998993Y-81203940D01*
X139987511Y-81207017D01*
X139861988Y-81279488D01*
X139861982Y-81279493D01*
X139759493Y-81381982D01*
X139759491Y-81381985D01*
X139722387Y-81446251D01*
X139671819Y-81494466D01*
X139603212Y-81507688D01*
X139538348Y-81481720D01*
X139497820Y-81424806D01*
X139491000Y-81384250D01*
X139491000Y-80427525D01*
X160349500Y-80427525D01*
X160349500Y-80572475D01*
X160376288Y-80672447D01*
X160387017Y-80712488D01*
X160459488Y-80838011D01*
X160459490Y-80838013D01*
X160459491Y-80838015D01*
X160561985Y-80940509D01*
X160561986Y-80940510D01*
X160561988Y-80940511D01*
X160687511Y-81012982D01*
X160687512Y-81012982D01*
X160687515Y-81012984D01*
X160827525Y-81050500D01*
X160827528Y-81050500D01*
X160972473Y-81050500D01*
X160972475Y-81050500D01*
X161015754Y-81038903D01*
X161085601Y-81040564D01*
X161143464Y-81079726D01*
X161155233Y-81096674D01*
X161205889Y-81184413D01*
X161308383Y-81286907D01*
X161308384Y-81286908D01*
X161308386Y-81286909D01*
X161433909Y-81359380D01*
X161433910Y-81359380D01*
X161433913Y-81359382D01*
X161573923Y-81396898D01*
X161573926Y-81396898D01*
X161718870Y-81396898D01*
X161718873Y-81396898D01*
X161858883Y-81359382D01*
X161984413Y-81286907D01*
X162086907Y-81184413D01*
X162159382Y-81058883D01*
X162196898Y-80918873D01*
X162196898Y-80773923D01*
X162159382Y-80633913D01*
X162157776Y-80631132D01*
X162086909Y-80508386D01*
X162086904Y-80508380D01*
X161984415Y-80405891D01*
X161984409Y-80405886D01*
X161858886Y-80333415D01*
X161858887Y-80333415D01*
X161847404Y-80330338D01*
X161718873Y-80295898D01*
X161573923Y-80295898D01*
X161530643Y-80307495D01*
X161460793Y-80305832D01*
X161402931Y-80266669D01*
X161391163Y-80249720D01*
X161389824Y-80247400D01*
X161340509Y-80161985D01*
X161238015Y-80059491D01*
X161238013Y-80059490D01*
X161238011Y-80059488D01*
X161112488Y-79987017D01*
X161112489Y-79987017D01*
X161101006Y-79983940D01*
X160972475Y-79949500D01*
X160827525Y-79949500D01*
X160698993Y-79983940D01*
X160687511Y-79987017D01*
X160561988Y-80059488D01*
X160561982Y-80059493D01*
X160459493Y-80161982D01*
X160459488Y-80161988D01*
X160387017Y-80287511D01*
X160386214Y-80290508D01*
X160349500Y-80427525D01*
X139491000Y-80427525D01*
X139491000Y-79777525D01*
X145949500Y-79777525D01*
X145949500Y-79922475D01*
X145986213Y-80059488D01*
X145987017Y-80062488D01*
X146059488Y-80188011D01*
X146059490Y-80188013D01*
X146059491Y-80188015D01*
X146161985Y-80290509D01*
X146161986Y-80290510D01*
X146161988Y-80290511D01*
X146287511Y-80362982D01*
X146287512Y-80362982D01*
X146287515Y-80362984D01*
X146427525Y-80400500D01*
X146427528Y-80400500D01*
X146572472Y-80400500D01*
X146572475Y-80400500D01*
X146712485Y-80362984D01*
X146838015Y-80290509D01*
X146940509Y-80188015D01*
X147012984Y-80062485D01*
X147050500Y-79922475D01*
X147050500Y-79777525D01*
X147012984Y-79637515D01*
X146952682Y-79533070D01*
X146940511Y-79511988D01*
X146940506Y-79511982D01*
X146838017Y-79409493D01*
X146838011Y-79409488D01*
X146712488Y-79337017D01*
X146712489Y-79337017D01*
X146701006Y-79333940D01*
X146572475Y-79299500D01*
X146427525Y-79299500D01*
X146298993Y-79333940D01*
X146287511Y-79337017D01*
X146161988Y-79409488D01*
X146161982Y-79409493D01*
X146059493Y-79511982D01*
X146059488Y-79511988D01*
X145987017Y-79637511D01*
X145987016Y-79637515D01*
X145949500Y-79777525D01*
X139491000Y-79777525D01*
X139491000Y-78365000D01*
X139510685Y-78297961D01*
X139563489Y-78252206D01*
X139615000Y-78241000D01*
X149658057Y-78241000D01*
X149658059Y-78241000D01*
X149770220Y-78210946D01*
X149870780Y-78152888D01*
X149952888Y-78070780D01*
X150296143Y-77727525D01*
X152249500Y-77727525D01*
X152249500Y-77872475D01*
X152277650Y-77977530D01*
X152287017Y-78012488D01*
X152359488Y-78138011D01*
X152359490Y-78138013D01*
X152359491Y-78138015D01*
X152461985Y-78240509D01*
X152461986Y-78240510D01*
X152461988Y-78240511D01*
X152587511Y-78312982D01*
X152587513Y-78312983D01*
X152587515Y-78312984D01*
X152625859Y-78323258D01*
X152685518Y-78359621D01*
X152716048Y-78422467D01*
X152713540Y-78475124D01*
X152699500Y-78527523D01*
X152699500Y-78527525D01*
X152699500Y-78672475D01*
X152737016Y-78812485D01*
X152737017Y-78812488D01*
X152809488Y-78938011D01*
X152809490Y-78938013D01*
X152809491Y-78938015D01*
X152911985Y-79040509D01*
X152911986Y-79040510D01*
X152911988Y-79040511D01*
X153037511Y-79112982D01*
X153037512Y-79112982D01*
X153037515Y-79112984D01*
X153177525Y-79150500D01*
X153177528Y-79150500D01*
X153322472Y-79150500D01*
X153322475Y-79150500D01*
X153462485Y-79112984D01*
X153588015Y-79040509D01*
X153690509Y-78938015D01*
X153696565Y-78927525D01*
X159649500Y-78927525D01*
X159649500Y-79072475D01*
X159677400Y-79176597D01*
X159687017Y-79212488D01*
X159759488Y-79338011D01*
X159759490Y-79338013D01*
X159759491Y-79338015D01*
X159861985Y-79440509D01*
X159861986Y-79440510D01*
X159861988Y-79440511D01*
X159987511Y-79512982D01*
X159987512Y-79512982D01*
X159987515Y-79512984D01*
X160127525Y-79550500D01*
X160127528Y-79550500D01*
X160272472Y-79550500D01*
X160272475Y-79550500D01*
X160412485Y-79512984D01*
X160538015Y-79440509D01*
X160603203Y-79375321D01*
X163924500Y-79375321D01*
X163924500Y-81124678D01*
X163939032Y-81197735D01*
X163939033Y-81197739D01*
X163951914Y-81217017D01*
X163994399Y-81280601D01*
X164074873Y-81334371D01*
X164077260Y-81335966D01*
X164077264Y-81335967D01*
X164150321Y-81350499D01*
X164150324Y-81350500D01*
X164150326Y-81350500D01*
X165899676Y-81350500D01*
X165899677Y-81350499D01*
X165972740Y-81335966D01*
X166055601Y-81280601D01*
X166110966Y-81197740D01*
X166125500Y-81124674D01*
X166125500Y-80163389D01*
X166464500Y-80163389D01*
X166464500Y-80336610D01*
X166480702Y-80438910D01*
X166491598Y-80507701D01*
X166545127Y-80672445D01*
X166623768Y-80826788D01*
X166725586Y-80966928D01*
X166848072Y-81089414D01*
X166988212Y-81191232D01*
X167142555Y-81269873D01*
X167307299Y-81323402D01*
X167478389Y-81350500D01*
X167478390Y-81350500D01*
X167651610Y-81350500D01*
X167651611Y-81350500D01*
X167822701Y-81323402D01*
X167987445Y-81269873D01*
X168141788Y-81191232D01*
X168281928Y-81089414D01*
X168404414Y-80966928D01*
X168506232Y-80826788D01*
X168584873Y-80672445D01*
X168638402Y-80507701D01*
X168665500Y-80336611D01*
X168665500Y-80163389D01*
X168638402Y-79992299D01*
X168584873Y-79827555D01*
X168506232Y-79673212D01*
X168404414Y-79533072D01*
X168281928Y-79410586D01*
X168141788Y-79308768D01*
X167987445Y-79230127D01*
X167822701Y-79176598D01*
X167822699Y-79176597D01*
X167822698Y-79176597D01*
X167691271Y-79155781D01*
X167651611Y-79149500D01*
X167478389Y-79149500D01*
X167438728Y-79155781D01*
X167307302Y-79176597D01*
X167142552Y-79230128D01*
X166988211Y-79308768D01*
X166908256Y-79366859D01*
X166848072Y-79410586D01*
X166848070Y-79410588D01*
X166848069Y-79410588D01*
X166725588Y-79533069D01*
X166725588Y-79533070D01*
X166725586Y-79533072D01*
X166712924Y-79550500D01*
X166623768Y-79673211D01*
X166545128Y-79827552D01*
X166491597Y-79992302D01*
X166464500Y-80163389D01*
X166125500Y-80163389D01*
X166125500Y-79375326D01*
X166125500Y-79375323D01*
X166125499Y-79375321D01*
X166110967Y-79302264D01*
X166110966Y-79302260D01*
X166068525Y-79238742D01*
X166055601Y-79219399D01*
X165972740Y-79164034D01*
X165972739Y-79164033D01*
X165972735Y-79164032D01*
X165899677Y-79149500D01*
X165899674Y-79149500D01*
X164150326Y-79149500D01*
X164150323Y-79149500D01*
X164077264Y-79164032D01*
X164077260Y-79164033D01*
X163994399Y-79219399D01*
X163939033Y-79302260D01*
X163939032Y-79302264D01*
X163924500Y-79375321D01*
X160603203Y-79375321D01*
X160640509Y-79338015D01*
X160641256Y-79336720D01*
X160658282Y-79307233D01*
X160712982Y-79212488D01*
X160712981Y-79212488D01*
X160712984Y-79212485D01*
X160750500Y-79072475D01*
X160750500Y-78927525D01*
X160712984Y-78787515D01*
X160655246Y-78687511D01*
X160640511Y-78661988D01*
X160640506Y-78661982D01*
X160538017Y-78559493D01*
X160538011Y-78559488D01*
X160412488Y-78487017D01*
X160412489Y-78487017D01*
X160401006Y-78483940D01*
X160272475Y-78449500D01*
X160127525Y-78449500D01*
X159998993Y-78483940D01*
X159987511Y-78487017D01*
X159861988Y-78559488D01*
X159861982Y-78559493D01*
X159759493Y-78661982D01*
X159759488Y-78661988D01*
X159687017Y-78787511D01*
X159687016Y-78787515D01*
X159649500Y-78927525D01*
X153696565Y-78927525D01*
X153762984Y-78812485D01*
X153800500Y-78672475D01*
X153800500Y-78527525D01*
X153762984Y-78387515D01*
X153746879Y-78359621D01*
X153690511Y-78261988D01*
X153690506Y-78261982D01*
X153588017Y-78159493D01*
X153588011Y-78159488D01*
X153462488Y-78087017D01*
X153462489Y-78087017D01*
X153458568Y-78085966D01*
X153424138Y-78076740D01*
X153364480Y-78040377D01*
X153333951Y-77977530D01*
X153336458Y-77924876D01*
X153350500Y-77872475D01*
X153350500Y-77727525D01*
X153312984Y-77587515D01*
X153309356Y-77581232D01*
X153240511Y-77461988D01*
X153240506Y-77461982D01*
X153138017Y-77359493D01*
X153138011Y-77359488D01*
X153012488Y-77287017D01*
X153012489Y-77287017D01*
X153001006Y-77283940D01*
X152872475Y-77249500D01*
X152727525Y-77249500D01*
X152598993Y-77283940D01*
X152587511Y-77287017D01*
X152461988Y-77359488D01*
X152461982Y-77359493D01*
X152359493Y-77461982D01*
X152359488Y-77461988D01*
X152287017Y-77587511D01*
X152287016Y-77587515D01*
X152249500Y-77727525D01*
X150296143Y-77727525D01*
X150996143Y-77027525D01*
X158949500Y-77027525D01*
X158949500Y-77172475D01*
X158980192Y-77287016D01*
X158987017Y-77312488D01*
X159059488Y-77438011D01*
X159059490Y-77438013D01*
X159059491Y-77438015D01*
X159161985Y-77540509D01*
X159161986Y-77540510D01*
X159161988Y-77540511D01*
X159287511Y-77612982D01*
X159287512Y-77612982D01*
X159287515Y-77612984D01*
X159427525Y-77650500D01*
X159427528Y-77650500D01*
X159572472Y-77650500D01*
X159572475Y-77650500D01*
X159712485Y-77612984D01*
X159838015Y-77540509D01*
X159940509Y-77438015D01*
X160012984Y-77312485D01*
X160050500Y-77172475D01*
X160050500Y-77027525D01*
X160012984Y-76887515D01*
X159997081Y-76859971D01*
X159940511Y-76761988D01*
X159940506Y-76761982D01*
X159838017Y-76659493D01*
X159838015Y-76659491D01*
X159712485Y-76587016D01*
X159586989Y-76553389D01*
X163814500Y-76553389D01*
X163814500Y-76726611D01*
X163820102Y-76761982D01*
X163839984Y-76887515D01*
X163841598Y-76897701D01*
X163895127Y-77062445D01*
X163973768Y-77216788D01*
X164075586Y-77356928D01*
X164198072Y-77479414D01*
X164338212Y-77581232D01*
X164492555Y-77659873D01*
X164657299Y-77713402D01*
X164828389Y-77740500D01*
X164828390Y-77740500D01*
X165001610Y-77740500D01*
X165001611Y-77740500D01*
X165172701Y-77713402D01*
X165337445Y-77659873D01*
X165491788Y-77581232D01*
X165631928Y-77479414D01*
X165754414Y-77356928D01*
X165856232Y-77216788D01*
X165934873Y-77062445D01*
X165988402Y-76897701D01*
X166015500Y-76726611D01*
X166015500Y-76553389D01*
X165988402Y-76382299D01*
X165934873Y-76217555D01*
X165856232Y-76063212D01*
X165754414Y-75923072D01*
X165631928Y-75800586D01*
X165491788Y-75698768D01*
X165337445Y-75620127D01*
X165172701Y-75566598D01*
X165172699Y-75566597D01*
X165172698Y-75566597D01*
X165041271Y-75545781D01*
X165001611Y-75539500D01*
X164828389Y-75539500D01*
X164788728Y-75545781D01*
X164657302Y-75566597D01*
X164492552Y-75620128D01*
X164338211Y-75698768D01*
X164258256Y-75756859D01*
X164198072Y-75800586D01*
X164198070Y-75800588D01*
X164198069Y-75800588D01*
X164075588Y-75923069D01*
X164075588Y-75923070D01*
X164075586Y-75923072D01*
X164031859Y-75983256D01*
X163973768Y-76063211D01*
X163895128Y-76217552D01*
X163841597Y-76382302D01*
X163826569Y-76477188D01*
X163814500Y-76553389D01*
X159586989Y-76553389D01*
X159572475Y-76549500D01*
X159427525Y-76549500D01*
X159298993Y-76583940D01*
X159287511Y-76587017D01*
X159161988Y-76659488D01*
X159161982Y-76659493D01*
X159059493Y-76761982D01*
X159059488Y-76761988D01*
X158987017Y-76887511D01*
X158986214Y-76890509D01*
X158949500Y-77027525D01*
X150996143Y-77027525D01*
X152546143Y-75477525D01*
X162049500Y-75477525D01*
X162049500Y-75622475D01*
X162050854Y-75627527D01*
X162087017Y-75762488D01*
X162159488Y-75888011D01*
X162159490Y-75888013D01*
X162159491Y-75888015D01*
X162261985Y-75990509D01*
X162261986Y-75990510D01*
X162261988Y-75990511D01*
X162387511Y-76062982D01*
X162387512Y-76062982D01*
X162387515Y-76062984D01*
X162527525Y-76100500D01*
X162527528Y-76100500D01*
X162672472Y-76100500D01*
X162672475Y-76100500D01*
X162812485Y-76062984D01*
X162938015Y-75990509D01*
X163040509Y-75888015D01*
X163112984Y-75762485D01*
X163150500Y-75622475D01*
X163150500Y-75477525D01*
X163112984Y-75337515D01*
X163065728Y-75255666D01*
X163040511Y-75211988D01*
X163040506Y-75211982D01*
X162938017Y-75109493D01*
X162938011Y-75109488D01*
X162812488Y-75037017D01*
X162812489Y-75037017D01*
X162801006Y-75033940D01*
X162672475Y-74999500D01*
X162527525Y-74999500D01*
X162398993Y-75033940D01*
X162387511Y-75037017D01*
X162261988Y-75109488D01*
X162261982Y-75109493D01*
X162159493Y-75211982D01*
X162159488Y-75211988D01*
X162087017Y-75337511D01*
X162087016Y-75337515D01*
X162049500Y-75477525D01*
X152546143Y-75477525D01*
X153479804Y-74543864D01*
X153541127Y-74510379D01*
X153567485Y-74507545D01*
X153893064Y-74507545D01*
X153955064Y-74524158D01*
X154050966Y-74579527D01*
X154050967Y-74579527D01*
X154050970Y-74579529D01*
X154190980Y-74617045D01*
X154190983Y-74617045D01*
X154335927Y-74617045D01*
X154335930Y-74617045D01*
X154475940Y-74579529D01*
X154550254Y-74536624D01*
X154571846Y-74524158D01*
X154587334Y-74520007D01*
X154598911Y-74512568D01*
X154633846Y-74507545D01*
X154703625Y-74507545D01*
X154765625Y-74524158D01*
X154867511Y-74582982D01*
X154867512Y-74582982D01*
X154867515Y-74582984D01*
X155007525Y-74620500D01*
X155007528Y-74620500D01*
X155152472Y-74620500D01*
X155152475Y-74620500D01*
X155292485Y-74582984D01*
X155360243Y-74543864D01*
X155388391Y-74527613D01*
X155403879Y-74523462D01*
X155415456Y-74516023D01*
X155450391Y-74511000D01*
X155471436Y-74511000D01*
X155538475Y-74530685D01*
X155546923Y-74536624D01*
X155551980Y-74540504D01*
X155551985Y-74540509D01*
X155614750Y-74576746D01*
X155677511Y-74612982D01*
X155677512Y-74612982D01*
X155677515Y-74612984D01*
X155817525Y-74650500D01*
X155817528Y-74650500D01*
X155962472Y-74650500D01*
X155962475Y-74650500D01*
X156102485Y-74612984D01*
X156228015Y-74540509D01*
X156330509Y-74438015D01*
X156402984Y-74312485D01*
X156440500Y-74172475D01*
X156440500Y-74027525D01*
X156436712Y-74013389D01*
X163814500Y-74013389D01*
X163814500Y-74186610D01*
X163836818Y-74327525D01*
X163841598Y-74357701D01*
X163893040Y-74516023D01*
X163895128Y-74522447D01*
X163947547Y-74625326D01*
X163973768Y-74676788D01*
X164075586Y-74816928D01*
X164198072Y-74939414D01*
X164338212Y-75041232D01*
X164492555Y-75119873D01*
X164657299Y-75173402D01*
X164828389Y-75200500D01*
X164828390Y-75200500D01*
X165001610Y-75200500D01*
X165001611Y-75200500D01*
X165172701Y-75173402D01*
X165337445Y-75119873D01*
X165491788Y-75041232D01*
X165631928Y-74939414D01*
X165754414Y-74816928D01*
X165856232Y-74676788D01*
X165934873Y-74522445D01*
X165988402Y-74357701D01*
X166015500Y-74186611D01*
X166015500Y-74013389D01*
X165988402Y-73842299D01*
X165934873Y-73677555D01*
X165856232Y-73523212D01*
X165754414Y-73383072D01*
X165631928Y-73260586D01*
X165491788Y-73158768D01*
X165337445Y-73080127D01*
X165172701Y-73026598D01*
X165172699Y-73026597D01*
X165172698Y-73026597D01*
X165041271Y-73005781D01*
X165001611Y-72999500D01*
X164828389Y-72999500D01*
X164788728Y-73005781D01*
X164657302Y-73026597D01*
X164657299Y-73026598D01*
X164516115Y-73072472D01*
X164492552Y-73080128D01*
X164338211Y-73158768D01*
X164264277Y-73212485D01*
X164198072Y-73260586D01*
X164198070Y-73260588D01*
X164198069Y-73260588D01*
X164075588Y-73383069D01*
X164075588Y-73383070D01*
X164075586Y-73383072D01*
X164054569Y-73412000D01*
X163973768Y-73523211D01*
X163895128Y-73677552D01*
X163841597Y-73842302D01*
X163814500Y-74013389D01*
X156436712Y-74013389D01*
X156402984Y-73887515D01*
X156376878Y-73842299D01*
X156330511Y-73761988D01*
X156330506Y-73761982D01*
X156228017Y-73659493D01*
X156228011Y-73659488D01*
X156102488Y-73587017D01*
X156102489Y-73587017D01*
X156091006Y-73583940D01*
X155962475Y-73549500D01*
X155817525Y-73549500D01*
X155677515Y-73587016D01*
X155633570Y-73612387D01*
X155618082Y-73616537D01*
X155606506Y-73623977D01*
X155571571Y-73629000D01*
X155450391Y-73629000D01*
X155388391Y-73612387D01*
X155292488Y-73557017D01*
X155292489Y-73557017D01*
X155264435Y-73549500D01*
X155152475Y-73519500D01*
X155007525Y-73519500D01*
X154867515Y-73557016D01*
X154777593Y-73608932D01*
X154762105Y-73613082D01*
X154750529Y-73620522D01*
X154715594Y-73625545D01*
X154633846Y-73625545D01*
X154571846Y-73608932D01*
X154475943Y-73553562D01*
X154475944Y-73553562D01*
X154460784Y-73549500D01*
X154335930Y-73516045D01*
X154190980Y-73516045D01*
X154066126Y-73549500D01*
X154050966Y-73553562D01*
X153955064Y-73608932D01*
X153893064Y-73625545D01*
X153275396Y-73625545D01*
X153163236Y-73655598D01*
X153163233Y-73655599D01*
X153062678Y-73713655D01*
X153062672Y-73713659D01*
X150030090Y-76746241D01*
X149968767Y-76779726D01*
X149899075Y-76774742D01*
X149843142Y-76732870D01*
X149818725Y-76667406D01*
X149822633Y-76626474D01*
X149850500Y-76522475D01*
X149850500Y-76377525D01*
X149812984Y-76237515D01*
X149801458Y-76217552D01*
X149740511Y-76111988D01*
X149740506Y-76111982D01*
X149638017Y-76009493D01*
X149638011Y-76009488D01*
X149512488Y-75937017D01*
X149512489Y-75937017D01*
X149501006Y-75933940D01*
X149372475Y-75899500D01*
X149227525Y-75899500D01*
X149098993Y-75933940D01*
X149087511Y-75937017D01*
X148961988Y-76009488D01*
X148961982Y-76009493D01*
X148859493Y-76111982D01*
X148859486Y-76111991D01*
X148831886Y-76159796D01*
X148781319Y-76208011D01*
X148712712Y-76221233D01*
X148647847Y-76195265D01*
X148607319Y-76138350D01*
X148600500Y-76097795D01*
X148600500Y-74625323D01*
X148600499Y-74625321D01*
X148585967Y-74552264D01*
X148585966Y-74552260D01*
X148578112Y-74540506D01*
X148530601Y-74469399D01*
X148447740Y-74414034D01*
X148447739Y-74414033D01*
X148447735Y-74414032D01*
X148374677Y-74399500D01*
X148374674Y-74399500D01*
X146625326Y-74399500D01*
X146625323Y-74399500D01*
X146552264Y-74414032D01*
X146552260Y-74414033D01*
X146469399Y-74469399D01*
X146414033Y-74552260D01*
X146414032Y-74552264D01*
X146399500Y-74625321D01*
X146399500Y-76374678D01*
X146414032Y-76447735D01*
X146414033Y-76447739D01*
X146414034Y-76447740D01*
X146469399Y-76530601D01*
X146552260Y-76585966D01*
X146552264Y-76585967D01*
X146625321Y-76600499D01*
X146625324Y-76600500D01*
X146625326Y-76600500D01*
X148374676Y-76600500D01*
X148374677Y-76600499D01*
X148447740Y-76585966D01*
X148530601Y-76530601D01*
X148536352Y-76521993D01*
X148589959Y-76477188D01*
X148659284Y-76468477D01*
X148722313Y-76498628D01*
X148759035Y-76558069D01*
X148759221Y-76558754D01*
X148777364Y-76626465D01*
X148787017Y-76662488D01*
X148859488Y-76788011D01*
X148859490Y-76788013D01*
X148859491Y-76788015D01*
X148961985Y-76890509D01*
X148961986Y-76890510D01*
X148961988Y-76890511D01*
X149087511Y-76962982D01*
X149087512Y-76962982D01*
X149087515Y-76962984D01*
X149227525Y-77000500D01*
X149227528Y-77000500D01*
X149372471Y-77000500D01*
X149372475Y-77000500D01*
X149476470Y-76972634D01*
X149546315Y-76974297D01*
X149604178Y-77013459D01*
X149631683Y-77077687D01*
X149620097Y-77146589D01*
X149596242Y-77180090D01*
X149453649Y-77322682D01*
X149392329Y-77356166D01*
X149365970Y-77359000D01*
X136179500Y-77359000D01*
X136112461Y-77339315D01*
X136066706Y-77286511D01*
X136055500Y-77235000D01*
X136055500Y-77051360D01*
X136054222Y-77027525D01*
X136054036Y-77024048D01*
X136053555Y-77019577D01*
X136051202Y-76997689D01*
X136051201Y-76997687D01*
X136043356Y-76972634D01*
X136021413Y-76902556D01*
X136014833Y-76890506D01*
X135987931Y-76841238D01*
X135987926Y-76841230D01*
X135944350Y-76783019D01*
X135944349Y-76783018D01*
X135944347Y-76783015D01*
X135944342Y-76783010D01*
X135944334Y-76783001D01*
X134868411Y-75707079D01*
X134788857Y-75627525D01*
X144599500Y-75627525D01*
X144599500Y-75772475D01*
X144630460Y-75888017D01*
X144637017Y-75912488D01*
X144709488Y-76038011D01*
X144709490Y-76038013D01*
X144709491Y-76038015D01*
X144811985Y-76140509D01*
X144811986Y-76140510D01*
X144811988Y-76140511D01*
X144937511Y-76212982D01*
X144937512Y-76212982D01*
X144937515Y-76212984D01*
X145077525Y-76250500D01*
X145077528Y-76250500D01*
X145222472Y-76250500D01*
X145222475Y-76250500D01*
X145362485Y-76212984D01*
X145488015Y-76140509D01*
X145590509Y-76038015D01*
X145662984Y-75912485D01*
X145700500Y-75772475D01*
X145700500Y-75627525D01*
X145662984Y-75487515D01*
X145657217Y-75477527D01*
X145590511Y-75361988D01*
X145590506Y-75361982D01*
X145488017Y-75259493D01*
X145488011Y-75259488D01*
X145362488Y-75187017D01*
X145362489Y-75187017D01*
X145331039Y-75178590D01*
X145222475Y-75149500D01*
X145077525Y-75149500D01*
X144968961Y-75178590D01*
X144937511Y-75187017D01*
X144811988Y-75259488D01*
X144811982Y-75259493D01*
X144709493Y-75361982D01*
X144709488Y-75361988D01*
X144637017Y-75487511D01*
X144637016Y-75487515D01*
X144599500Y-75627525D01*
X134788857Y-75627525D01*
X134416998Y-75255666D01*
X134416997Y-75255665D01*
X134416985Y-75255653D01*
X134396635Y-75237374D01*
X134396629Y-75237369D01*
X134396620Y-75237361D01*
X134375999Y-75220744D01*
X134375996Y-75220742D01*
X134375993Y-75220740D01*
X134287662Y-75174535D01*
X134287659Y-75174534D01*
X134220624Y-75154850D01*
X134220616Y-75154848D01*
X134148639Y-75144500D01*
X134148638Y-75144500D01*
X130151362Y-75144500D01*
X130151361Y-75144500D01*
X130124065Y-75145963D01*
X130124060Y-75145963D01*
X130124048Y-75145964D01*
X130124040Y-75145964D01*
X130124011Y-75145967D01*
X130097689Y-75148797D01*
X130097687Y-75148798D01*
X130002558Y-75178586D01*
X130002548Y-75178590D01*
X129941238Y-75212068D01*
X129941230Y-75212073D01*
X129883019Y-75255649D01*
X129883001Y-75255665D01*
X129555666Y-75583001D01*
X129555638Y-75583031D01*
X129537361Y-75603379D01*
X129520744Y-75624000D01*
X129474534Y-75712340D01*
X129454850Y-75779375D01*
X129454848Y-75779383D01*
X129444500Y-75851360D01*
X129444500Y-76020500D01*
X129424815Y-76087539D01*
X129372011Y-76133294D01*
X129320500Y-76144500D01*
X126551361Y-76144500D01*
X126524065Y-76145963D01*
X126524060Y-76145963D01*
X126524048Y-76145964D01*
X126524040Y-76145964D01*
X126524011Y-76145967D01*
X126497689Y-76148797D01*
X126497687Y-76148798D01*
X126402558Y-76178586D01*
X126402548Y-76178590D01*
X126341238Y-76212068D01*
X126341230Y-76212073D01*
X126283019Y-76255649D01*
X126283001Y-76255665D01*
X125712181Y-76826486D01*
X125650858Y-76859971D01*
X125581166Y-76854987D01*
X125525233Y-76813115D01*
X125500816Y-76747651D01*
X125500500Y-76738805D01*
X125500500Y-72927525D01*
X126949500Y-72927525D01*
X126949500Y-73072475D01*
X126987016Y-73212485D01*
X126987017Y-73212488D01*
X127030614Y-73288000D01*
X127047087Y-73355900D01*
X127030614Y-73412000D01*
X126987017Y-73487511D01*
X126987016Y-73487515D01*
X126949500Y-73627525D01*
X126949500Y-73772475D01*
X126984001Y-73901232D01*
X126987017Y-73912488D01*
X127030614Y-73988000D01*
X127047087Y-74055900D01*
X127030614Y-74112000D01*
X126987017Y-74187511D01*
X126987016Y-74187515D01*
X126949500Y-74327525D01*
X126949500Y-74472475D01*
X126979111Y-74582982D01*
X126987017Y-74612488D01*
X127059488Y-74738011D01*
X127059490Y-74738013D01*
X127059491Y-74738015D01*
X127161985Y-74840509D01*
X127161986Y-74840510D01*
X127161988Y-74840511D01*
X127287511Y-74912982D01*
X127287512Y-74912982D01*
X127287515Y-74912984D01*
X127427525Y-74950500D01*
X127427528Y-74950500D01*
X127572472Y-74950500D01*
X127572475Y-74950500D01*
X127712485Y-74912984D01*
X127838015Y-74840509D01*
X127940509Y-74738015D01*
X128012984Y-74612485D01*
X128050500Y-74472475D01*
X128050500Y-74327525D01*
X128012984Y-74187515D01*
X127969384Y-74111998D01*
X127952912Y-74044101D01*
X127969385Y-73988000D01*
X128012984Y-73912485D01*
X128050500Y-73772475D01*
X128050500Y-73627525D01*
X128012984Y-73487515D01*
X127969384Y-73411998D01*
X127952912Y-73344101D01*
X127969385Y-73288000D01*
X128012984Y-73212485D01*
X128050500Y-73072475D01*
X128050500Y-72927525D01*
X128035994Y-72873389D01*
X146399500Y-72873389D01*
X146399500Y-73046611D01*
X146426598Y-73217701D01*
X146480127Y-73382445D01*
X146558768Y-73536788D01*
X146660586Y-73676928D01*
X146783072Y-73799414D01*
X146923212Y-73901232D01*
X147077555Y-73979873D01*
X147242299Y-74033402D01*
X147413389Y-74060500D01*
X147413390Y-74060500D01*
X147586610Y-74060500D01*
X147586611Y-74060500D01*
X147757701Y-74033402D01*
X147775788Y-74027525D01*
X150449500Y-74027525D01*
X150449500Y-74172475D01*
X150487016Y-74312485D01*
X150487017Y-74312488D01*
X150559488Y-74438011D01*
X150559490Y-74438013D01*
X150559491Y-74438015D01*
X150661985Y-74540509D01*
X150661986Y-74540510D01*
X150661988Y-74540511D01*
X150787511Y-74612982D01*
X150787512Y-74612982D01*
X150787515Y-74612984D01*
X150927525Y-74650500D01*
X150927528Y-74650500D01*
X151072472Y-74650500D01*
X151072475Y-74650500D01*
X151212485Y-74612984D01*
X151338015Y-74540509D01*
X151440509Y-74438015D01*
X151512984Y-74312485D01*
X151550500Y-74172475D01*
X151550500Y-74027525D01*
X151512984Y-73887515D01*
X151486878Y-73842299D01*
X151440511Y-73761988D01*
X151440506Y-73761982D01*
X151338017Y-73659493D01*
X151338011Y-73659488D01*
X151212488Y-73587017D01*
X151212489Y-73587017D01*
X151201006Y-73583940D01*
X151072475Y-73549500D01*
X150927525Y-73549500D01*
X150798993Y-73583940D01*
X150787511Y-73587017D01*
X150661988Y-73659488D01*
X150661982Y-73659493D01*
X150559493Y-73761982D01*
X150559488Y-73761988D01*
X150487017Y-73887511D01*
X150487016Y-73887515D01*
X150449500Y-74027525D01*
X147775788Y-74027525D01*
X147922445Y-73979873D01*
X148076788Y-73901232D01*
X148216928Y-73799414D01*
X148339414Y-73676928D01*
X148441232Y-73536788D01*
X148519873Y-73382445D01*
X148573402Y-73217701D01*
X148600500Y-73046611D01*
X148600500Y-72873389D01*
X148573402Y-72702299D01*
X148519873Y-72537555D01*
X148441232Y-72383212D01*
X148339414Y-72243072D01*
X148216928Y-72120586D01*
X148076788Y-72018768D01*
X147922445Y-71940127D01*
X147757701Y-71886598D01*
X147757699Y-71886597D01*
X147757698Y-71886597D01*
X147626271Y-71865781D01*
X147586611Y-71859500D01*
X147413389Y-71859500D01*
X147373728Y-71865781D01*
X147242302Y-71886597D01*
X147077552Y-71940128D01*
X146923211Y-72018768D01*
X146843256Y-72076859D01*
X146783072Y-72120586D01*
X146783070Y-72120588D01*
X146783069Y-72120588D01*
X146660588Y-72243069D01*
X146660588Y-72243070D01*
X146660586Y-72243072D01*
X146616859Y-72303256D01*
X146558768Y-72383211D01*
X146480128Y-72537552D01*
X146480127Y-72537554D01*
X146480127Y-72537555D01*
X146462891Y-72590601D01*
X146426597Y-72702302D01*
X146413101Y-72787515D01*
X146399500Y-72873389D01*
X128035994Y-72873389D01*
X128012984Y-72787515D01*
X127963784Y-72702299D01*
X127940511Y-72661988D01*
X127940506Y-72661982D01*
X127838017Y-72559493D01*
X127838011Y-72559488D01*
X127712488Y-72487017D01*
X127712489Y-72487017D01*
X127701006Y-72483940D01*
X127572475Y-72449500D01*
X127427525Y-72449500D01*
X127298993Y-72483940D01*
X127287511Y-72487017D01*
X127161988Y-72559488D01*
X127161982Y-72559493D01*
X127059493Y-72661982D01*
X127059488Y-72661988D01*
X126987017Y-72787511D01*
X126987016Y-72787515D01*
X126949500Y-72927525D01*
X125500500Y-72927525D01*
X125500500Y-70727525D01*
X133949500Y-70727525D01*
X133949500Y-70872475D01*
X133982810Y-70996788D01*
X133987017Y-71012488D01*
X134059488Y-71138011D01*
X134059490Y-71138013D01*
X134059491Y-71138015D01*
X134161985Y-71240509D01*
X134161986Y-71240510D01*
X134161988Y-71240511D01*
X134287511Y-71312982D01*
X134287512Y-71312982D01*
X134287515Y-71312984D01*
X134427525Y-71350500D01*
X134427528Y-71350500D01*
X134572472Y-71350500D01*
X134572475Y-71350500D01*
X134712485Y-71312984D01*
X134838015Y-71240509D01*
X134940509Y-71138015D01*
X135012984Y-71012485D01*
X135050500Y-70872475D01*
X135050500Y-70727525D01*
X135012984Y-70587515D01*
X135012696Y-70587017D01*
X134940511Y-70461988D01*
X134940506Y-70461982D01*
X134838017Y-70359493D01*
X134838011Y-70359488D01*
X134712488Y-70287017D01*
X134712489Y-70287017D01*
X134701006Y-70283940D01*
X134572475Y-70249500D01*
X134427525Y-70249500D01*
X134298993Y-70283940D01*
X134287511Y-70287017D01*
X134161988Y-70359488D01*
X134161982Y-70359493D01*
X134059493Y-70461982D01*
X134059488Y-70461988D01*
X133987017Y-70587511D01*
X133987016Y-70587515D01*
X133949500Y-70727525D01*
X125500500Y-70727525D01*
X125500500Y-69827525D01*
X137649500Y-69827525D01*
X137649500Y-69972475D01*
X137662897Y-70022472D01*
X137687017Y-70112488D01*
X137759488Y-70238011D01*
X137759490Y-70238013D01*
X137759491Y-70238015D01*
X137861985Y-70340509D01*
X137861986Y-70340510D01*
X137861988Y-70340511D01*
X137987511Y-70412982D01*
X137987512Y-70412982D01*
X137987515Y-70412984D01*
X138127525Y-70450500D01*
X138127528Y-70450500D01*
X138272472Y-70450500D01*
X138272475Y-70450500D01*
X138412485Y-70412984D01*
X138538015Y-70340509D01*
X138640509Y-70238015D01*
X138712984Y-70112485D01*
X138750500Y-69972475D01*
X138750500Y-69877525D01*
X139149500Y-69877525D01*
X139149500Y-70022475D01*
X139186966Y-70162299D01*
X139187017Y-70162488D01*
X139259488Y-70288011D01*
X139259490Y-70288013D01*
X139259491Y-70288015D01*
X139361985Y-70390509D01*
X139361986Y-70390510D01*
X139361988Y-70390511D01*
X139487511Y-70462982D01*
X139487512Y-70462982D01*
X139487515Y-70462984D01*
X139627525Y-70500500D01*
X139627528Y-70500500D01*
X139772472Y-70500500D01*
X139772475Y-70500500D01*
X139912485Y-70462984D01*
X140038015Y-70390509D01*
X140095135Y-70333389D01*
X146399500Y-70333389D01*
X146399500Y-70506611D01*
X146426598Y-70677701D01*
X146480127Y-70842445D01*
X146558768Y-70996788D01*
X146660586Y-71136928D01*
X146783072Y-71259414D01*
X146923212Y-71361232D01*
X147077555Y-71439873D01*
X147242299Y-71493402D01*
X147413389Y-71520500D01*
X147413390Y-71520500D01*
X147586610Y-71520500D01*
X147586611Y-71520500D01*
X147757701Y-71493402D01*
X147922445Y-71439873D01*
X148076788Y-71361232D01*
X148216928Y-71259414D01*
X148339414Y-71136928D01*
X148418900Y-71027525D01*
X150449500Y-71027525D01*
X150449500Y-71172475D01*
X150487016Y-71312485D01*
X150487017Y-71312488D01*
X150559488Y-71438011D01*
X150559490Y-71438013D01*
X150559491Y-71438015D01*
X150661985Y-71540509D01*
X150661986Y-71540510D01*
X150661988Y-71540511D01*
X150787511Y-71612982D01*
X150787512Y-71612982D01*
X150787515Y-71612984D01*
X150927525Y-71650500D01*
X150927528Y-71650500D01*
X151072472Y-71650500D01*
X151072475Y-71650500D01*
X151212485Y-71612984D01*
X151338015Y-71540509D01*
X151440509Y-71438015D01*
X151446565Y-71427525D01*
X155299500Y-71427525D01*
X155299500Y-71572475D01*
X155337016Y-71712485D01*
X155337017Y-71712488D01*
X155409488Y-71838011D01*
X155409490Y-71838013D01*
X155409491Y-71838015D01*
X155511985Y-71940509D01*
X155511986Y-71940510D01*
X155511988Y-71940511D01*
X155637511Y-72012982D01*
X155637512Y-72012982D01*
X155637515Y-72012984D01*
X155777525Y-72050500D01*
X155777528Y-72050500D01*
X155922472Y-72050500D01*
X155922475Y-72050500D01*
X156062485Y-72012984D01*
X156188015Y-71940509D01*
X156290509Y-71838015D01*
X156354301Y-71727525D01*
X161249500Y-71727525D01*
X161249500Y-71872475D01*
X161287016Y-72012485D01*
X161287017Y-72012488D01*
X161359488Y-72138011D01*
X161359490Y-72138013D01*
X161359491Y-72138015D01*
X161461985Y-72240509D01*
X161461986Y-72240510D01*
X161461988Y-72240511D01*
X161587511Y-72312982D01*
X161587512Y-72312982D01*
X161587515Y-72312984D01*
X161727525Y-72350500D01*
X161727528Y-72350500D01*
X161872472Y-72350500D01*
X161872475Y-72350500D01*
X162012485Y-72312984D01*
X162138015Y-72240509D01*
X162240509Y-72138015D01*
X162312984Y-72012485D01*
X162350500Y-71872475D01*
X162350500Y-71727525D01*
X162312984Y-71587515D01*
X162285843Y-71540506D01*
X162240511Y-71461988D01*
X162240506Y-71461982D01*
X162138017Y-71359493D01*
X162138011Y-71359488D01*
X162012488Y-71287017D01*
X162012489Y-71287017D01*
X162001006Y-71283940D01*
X161872475Y-71249500D01*
X161727525Y-71249500D01*
X161598993Y-71283940D01*
X161587511Y-71287017D01*
X161461988Y-71359488D01*
X161461982Y-71359493D01*
X161359493Y-71461982D01*
X161359488Y-71461988D01*
X161287017Y-71587511D01*
X161287016Y-71587515D01*
X161249500Y-71727525D01*
X156354301Y-71727525D01*
X156362984Y-71712485D01*
X156400500Y-71572475D01*
X156400500Y-71427525D01*
X156362984Y-71287515D01*
X156362696Y-71287017D01*
X156290511Y-71161988D01*
X156290506Y-71161982D01*
X156188017Y-71059493D01*
X156188011Y-71059488D01*
X156062488Y-70987017D01*
X156062489Y-70987017D01*
X156051006Y-70983940D01*
X155922475Y-70949500D01*
X155777525Y-70949500D01*
X155648993Y-70983940D01*
X155637511Y-70987017D01*
X155511988Y-71059488D01*
X155511982Y-71059493D01*
X155409493Y-71161982D01*
X155409488Y-71161988D01*
X155337017Y-71287511D01*
X155337016Y-71287515D01*
X155299500Y-71427525D01*
X151446565Y-71427525D01*
X151512984Y-71312485D01*
X151550500Y-71172475D01*
X151550500Y-71027525D01*
X151512984Y-70887515D01*
X151440509Y-70761985D01*
X151363845Y-70685321D01*
X163814500Y-70685321D01*
X163814500Y-72434678D01*
X163829032Y-72507735D01*
X163829033Y-72507739D01*
X163829034Y-72507740D01*
X163884399Y-72590601D01*
X163967260Y-72645966D01*
X163967264Y-72645967D01*
X164040321Y-72660499D01*
X164040324Y-72660500D01*
X164040326Y-72660500D01*
X165789676Y-72660500D01*
X165789677Y-72660499D01*
X165862740Y-72645966D01*
X165945601Y-72590601D01*
X166000966Y-72507740D01*
X166015500Y-72434674D01*
X166015500Y-70685326D01*
X166015500Y-70685323D01*
X166015499Y-70685321D01*
X166000967Y-70612264D01*
X166000966Y-70612260D01*
X165984432Y-70587515D01*
X165945601Y-70529399D01*
X165862740Y-70474034D01*
X165862739Y-70474033D01*
X165862735Y-70474032D01*
X165789677Y-70459500D01*
X165789674Y-70459500D01*
X164040326Y-70459500D01*
X164040323Y-70459500D01*
X163967264Y-70474032D01*
X163967260Y-70474033D01*
X163884399Y-70529399D01*
X163829033Y-70612260D01*
X163829032Y-70612264D01*
X163814500Y-70685321D01*
X151363845Y-70685321D01*
X151338015Y-70659491D01*
X151338013Y-70659490D01*
X151338011Y-70659488D01*
X151212488Y-70587017D01*
X151212489Y-70587017D01*
X151201006Y-70583940D01*
X151072475Y-70549500D01*
X150927525Y-70549500D01*
X150798993Y-70583940D01*
X150787511Y-70587017D01*
X150661988Y-70659488D01*
X150661982Y-70659493D01*
X150559493Y-70761982D01*
X150559488Y-70761988D01*
X150487017Y-70887511D01*
X150487016Y-70887515D01*
X150449500Y-71027525D01*
X148418900Y-71027525D01*
X148441232Y-70996788D01*
X148519873Y-70842445D01*
X148573402Y-70677701D01*
X148600500Y-70506611D01*
X148600500Y-70333389D01*
X148573402Y-70162299D01*
X148519873Y-69997555D01*
X148441232Y-69843212D01*
X148339414Y-69703072D01*
X148216928Y-69580586D01*
X148076788Y-69478768D01*
X147922445Y-69400127D01*
X147757701Y-69346598D01*
X147757699Y-69346597D01*
X147757698Y-69346597D01*
X147626271Y-69325781D01*
X147586611Y-69319500D01*
X147413389Y-69319500D01*
X147373728Y-69325781D01*
X147242302Y-69346597D01*
X147077552Y-69400128D01*
X146923211Y-69478768D01*
X146843256Y-69536859D01*
X146783072Y-69580586D01*
X146783070Y-69580588D01*
X146783069Y-69580588D01*
X146660588Y-69703069D01*
X146660588Y-69703070D01*
X146660586Y-69703072D01*
X146616859Y-69763256D01*
X146558768Y-69843211D01*
X146480128Y-69997552D01*
X146426597Y-70162302D01*
X146406686Y-70288017D01*
X146399500Y-70333389D01*
X140095135Y-70333389D01*
X140140509Y-70288015D01*
X140212984Y-70162485D01*
X140250500Y-70022475D01*
X140250500Y-69877525D01*
X140212984Y-69737515D01*
X140197644Y-69710946D01*
X140140511Y-69611988D01*
X140140506Y-69611982D01*
X140038017Y-69509493D01*
X140038011Y-69509488D01*
X139912488Y-69437017D01*
X139912489Y-69437017D01*
X139901006Y-69433940D01*
X139772475Y-69399500D01*
X139627525Y-69399500D01*
X139498993Y-69433940D01*
X139487511Y-69437017D01*
X139361988Y-69509488D01*
X139361982Y-69509493D01*
X139259493Y-69611982D01*
X139259488Y-69611988D01*
X139187017Y-69737511D01*
X139187016Y-69737515D01*
X139149500Y-69877525D01*
X138750500Y-69877525D01*
X138750500Y-69827525D01*
X138712984Y-69687515D01*
X138685843Y-69640506D01*
X138640511Y-69561988D01*
X138640506Y-69561982D01*
X138538017Y-69459493D01*
X138538011Y-69459488D01*
X138412488Y-69387017D01*
X138412489Y-69387017D01*
X138401006Y-69383940D01*
X138272475Y-69349500D01*
X138127525Y-69349500D01*
X137998993Y-69383940D01*
X137987511Y-69387017D01*
X137861988Y-69459488D01*
X137861982Y-69459493D01*
X137759493Y-69561982D01*
X137759488Y-69561988D01*
X137687017Y-69687511D01*
X137687016Y-69687515D01*
X137649500Y-69827525D01*
X125500500Y-69827525D01*
X125500500Y-68927525D01*
X129349500Y-68927525D01*
X129349500Y-69072475D01*
X129387016Y-69212485D01*
X129387017Y-69212488D01*
X129459488Y-69338011D01*
X129459490Y-69338013D01*
X129459491Y-69338015D01*
X129561985Y-69440509D01*
X129561986Y-69440510D01*
X129561988Y-69440511D01*
X129687511Y-69512982D01*
X129687512Y-69512982D01*
X129687515Y-69512984D01*
X129794487Y-69541647D01*
X129850072Y-69573740D01*
X129929220Y-69652888D01*
X130029780Y-69710946D01*
X130141941Y-69741000D01*
X130141943Y-69741000D01*
X134658057Y-69741000D01*
X134658059Y-69741000D01*
X134770220Y-69710946D01*
X134870780Y-69652888D01*
X134895789Y-69627878D01*
X134906348Y-69620928D01*
X134928158Y-69614262D01*
X134948172Y-69603334D01*
X134972462Y-69600722D01*
X134973167Y-69600507D01*
X134973525Y-69600608D01*
X134974530Y-69600500D01*
X135022472Y-69600500D01*
X135022475Y-69600500D01*
X135162485Y-69562984D01*
X135288015Y-69490509D01*
X135390509Y-69388015D01*
X135462984Y-69262485D01*
X135499147Y-69127525D01*
X155349500Y-69127525D01*
X155349500Y-69272475D01*
X155380460Y-69388017D01*
X155387017Y-69412488D01*
X155459488Y-69538011D01*
X155459490Y-69538013D01*
X155459491Y-69538015D01*
X155561985Y-69640509D01*
X155561986Y-69640510D01*
X155561988Y-69640511D01*
X155687511Y-69712982D01*
X155687512Y-69712982D01*
X155687515Y-69712984D01*
X155827525Y-69750500D01*
X155827528Y-69750500D01*
X155972472Y-69750500D01*
X155972475Y-69750500D01*
X156112485Y-69712984D01*
X156238015Y-69640509D01*
X156340509Y-69538015D01*
X156412984Y-69412485D01*
X156450500Y-69272475D01*
X156450500Y-69127525D01*
X156412984Y-68987515D01*
X156407217Y-68977527D01*
X156340511Y-68861988D01*
X156340506Y-68861982D01*
X156238017Y-68759493D01*
X156238011Y-68759488D01*
X156112488Y-68687017D01*
X156112489Y-68687017D01*
X156090895Y-68681231D01*
X155972475Y-68649500D01*
X155827525Y-68649500D01*
X155709105Y-68681231D01*
X155687511Y-68687017D01*
X155561988Y-68759488D01*
X155561982Y-68759493D01*
X155459493Y-68861982D01*
X155459488Y-68861988D01*
X155387017Y-68987511D01*
X155387016Y-68987515D01*
X155349500Y-69127525D01*
X135499147Y-69127525D01*
X135500500Y-69122475D01*
X135500500Y-68977525D01*
X135462984Y-68837515D01*
X135449062Y-68813402D01*
X135390511Y-68711988D01*
X135390506Y-68711982D01*
X135288017Y-68609493D01*
X135288011Y-68609488D01*
X135162490Y-68537018D01*
X135162487Y-68537017D01*
X135162485Y-68537016D01*
X135022475Y-68499500D01*
X134877525Y-68499500D01*
X134748993Y-68533940D01*
X134737511Y-68537017D01*
X134611988Y-68609488D01*
X134611982Y-68609493D01*
X134509493Y-68711982D01*
X134509491Y-68711985D01*
X134460407Y-68797001D01*
X134409840Y-68845216D01*
X134353020Y-68859000D01*
X130525449Y-68859000D01*
X130458410Y-68839315D01*
X130418764Y-68793561D01*
X130417048Y-68794553D01*
X130340511Y-68661988D01*
X130340506Y-68661982D01*
X130238017Y-68559493D01*
X130238011Y-68559488D01*
X130112488Y-68487017D01*
X130112489Y-68487017D01*
X130101006Y-68483940D01*
X129972475Y-68449500D01*
X129827525Y-68449500D01*
X129698993Y-68483940D01*
X129687511Y-68487017D01*
X129561988Y-68559488D01*
X129561982Y-68559493D01*
X129459493Y-68661982D01*
X129459488Y-68661988D01*
X129387017Y-68787511D01*
X129387016Y-68787515D01*
X129349500Y-68927525D01*
X125500500Y-68927525D01*
X125500500Y-68427525D01*
X142849500Y-68427525D01*
X142849500Y-68572475D01*
X142878642Y-68681232D01*
X142887017Y-68712488D01*
X142959488Y-68838011D01*
X142959490Y-68838013D01*
X142959491Y-68838015D01*
X143061985Y-68940509D01*
X143061986Y-68940510D01*
X143061988Y-68940511D01*
X143187511Y-69012982D01*
X143187512Y-69012982D01*
X143187515Y-69012984D01*
X143327525Y-69050500D01*
X143327528Y-69050500D01*
X143472472Y-69050500D01*
X143472475Y-69050500D01*
X143612485Y-69012984D01*
X143614170Y-69012011D01*
X143614171Y-69012011D01*
X143656605Y-68987511D01*
X143738015Y-68940509D01*
X143840509Y-68838015D01*
X143912984Y-68712485D01*
X143950500Y-68572475D01*
X143950500Y-68427525D01*
X143912984Y-68287515D01*
X143891613Y-68250500D01*
X143840511Y-68161988D01*
X143840506Y-68161982D01*
X143738017Y-68059493D01*
X143738011Y-68059488D01*
X143612488Y-67987017D01*
X143612489Y-67987017D01*
X143601006Y-67983940D01*
X143472475Y-67949500D01*
X143327525Y-67949500D01*
X143198993Y-67983940D01*
X143187511Y-67987017D01*
X143061988Y-68059488D01*
X143061982Y-68059493D01*
X142959493Y-68161982D01*
X142959488Y-68161988D01*
X142887017Y-68287511D01*
X142887016Y-68287515D01*
X142849500Y-68427525D01*
X125500500Y-68427525D01*
X125500500Y-67627525D01*
X156849500Y-67627525D01*
X156849500Y-67772475D01*
X156864006Y-67826610D01*
X156887017Y-67912488D01*
X156959488Y-68038011D01*
X156959490Y-68038013D01*
X156959491Y-68038015D01*
X157061985Y-68140509D01*
X157061986Y-68140510D01*
X157061988Y-68140511D01*
X157187511Y-68212982D01*
X157187512Y-68212982D01*
X157187515Y-68212984D01*
X157327525Y-68250500D01*
X157327528Y-68250500D01*
X157472472Y-68250500D01*
X157472475Y-68250500D01*
X157612485Y-68212984D01*
X157738015Y-68140509D01*
X157840509Y-68038015D01*
X157842612Y-68034371D01*
X157845190Y-68031913D01*
X157845457Y-68031566D01*
X157845511Y-68031607D01*
X157893177Y-67986156D01*
X157961783Y-67972931D01*
X158026649Y-67998897D01*
X158057386Y-68034370D01*
X158059491Y-68038015D01*
X158161985Y-68140509D01*
X158161986Y-68140510D01*
X158161988Y-68140511D01*
X158287511Y-68212982D01*
X158287512Y-68212982D01*
X158287515Y-68212984D01*
X158427525Y-68250500D01*
X158427528Y-68250500D01*
X158572472Y-68250500D01*
X158572475Y-68250500D01*
X158712485Y-68212984D01*
X158838015Y-68140509D01*
X158940509Y-68038015D01*
X159012984Y-67912485D01*
X159050500Y-67772475D01*
X159050500Y-67653389D01*
X163814500Y-67653389D01*
X163814500Y-67826610D01*
X163839905Y-67987017D01*
X163841598Y-67997701D01*
X163895127Y-68162445D01*
X163973768Y-68316788D01*
X164075586Y-68456928D01*
X164198072Y-68579414D01*
X164338212Y-68681232D01*
X164492555Y-68759873D01*
X164657299Y-68813402D01*
X164828389Y-68840500D01*
X164828390Y-68840500D01*
X165001610Y-68840500D01*
X165001611Y-68840500D01*
X165172701Y-68813402D01*
X165337445Y-68759873D01*
X165491788Y-68681232D01*
X165631928Y-68579414D01*
X165754414Y-68456928D01*
X165856232Y-68316788D01*
X165934873Y-68162445D01*
X165988402Y-67997701D01*
X166015500Y-67826611D01*
X166015500Y-67653389D01*
X165988402Y-67482299D01*
X165934873Y-67317555D01*
X165856232Y-67163212D01*
X165754414Y-67023072D01*
X165631928Y-66900586D01*
X165491788Y-66798768D01*
X165364888Y-66734110D01*
X165337447Y-66720128D01*
X165337446Y-66720127D01*
X165337445Y-66720127D01*
X165172701Y-66666598D01*
X165172699Y-66666597D01*
X165172698Y-66666597D01*
X165041271Y-66645781D01*
X165001611Y-66639500D01*
X164828389Y-66639500D01*
X164788728Y-66645781D01*
X164657302Y-66666597D01*
X164657299Y-66666598D01*
X164516075Y-66712485D01*
X164492552Y-66720128D01*
X164338211Y-66798768D01*
X164258256Y-66856859D01*
X164198072Y-66900586D01*
X164198070Y-66900588D01*
X164198069Y-66900588D01*
X164075588Y-67023069D01*
X164075588Y-67023070D01*
X164075586Y-67023072D01*
X164031859Y-67083256D01*
X163973768Y-67163211D01*
X163895128Y-67317552D01*
X163841597Y-67482302D01*
X163814500Y-67653389D01*
X159050500Y-67653389D01*
X159050500Y-67627525D01*
X159012984Y-67487515D01*
X159009974Y-67482302D01*
X158940511Y-67361988D01*
X158940506Y-67361982D01*
X158838017Y-67259493D01*
X158838011Y-67259488D01*
X158712488Y-67187017D01*
X158712489Y-67187017D01*
X158701006Y-67183940D01*
X158572475Y-67149500D01*
X158427525Y-67149500D01*
X158298993Y-67183940D01*
X158287511Y-67187017D01*
X158161988Y-67259488D01*
X158161982Y-67259493D01*
X158059493Y-67361982D01*
X158059486Y-67361991D01*
X158057386Y-67365630D01*
X158054809Y-67368086D01*
X158054543Y-67368434D01*
X158054488Y-67368392D01*
X158006819Y-67413845D01*
X157938212Y-67427067D01*
X157873347Y-67401099D01*
X157842614Y-67365630D01*
X157840513Y-67361991D01*
X157840510Y-67361988D01*
X157840509Y-67361985D01*
X157738015Y-67259491D01*
X157738013Y-67259490D01*
X157738011Y-67259488D01*
X157612488Y-67187017D01*
X157612489Y-67187017D01*
X157601006Y-67183940D01*
X157472475Y-67149500D01*
X157327525Y-67149500D01*
X157198993Y-67183940D01*
X157187511Y-67187017D01*
X157061988Y-67259488D01*
X157061982Y-67259493D01*
X156959493Y-67361982D01*
X156959488Y-67361988D01*
X156887017Y-67487511D01*
X156887016Y-67487515D01*
X156849500Y-67627525D01*
X125500500Y-67627525D01*
X125500500Y-66939234D01*
X128834500Y-66939234D01*
X128834500Y-67090765D01*
X128873719Y-67237136D01*
X128891549Y-67268017D01*
X128949485Y-67368365D01*
X129056635Y-67475515D01*
X129170281Y-67541129D01*
X129187861Y-67551279D01*
X129187865Y-67551281D01*
X129334234Y-67590500D01*
X129334236Y-67590500D01*
X129485764Y-67590500D01*
X129485766Y-67590500D01*
X129632135Y-67551281D01*
X129763365Y-67475515D01*
X129870515Y-67368365D01*
X129946281Y-67237135D01*
X129985500Y-67090766D01*
X129985500Y-66939234D01*
X129963606Y-66857525D01*
X130999500Y-66857525D01*
X130999500Y-67002475D01*
X131023158Y-67090765D01*
X131037017Y-67142488D01*
X131109488Y-67268011D01*
X131109490Y-67268013D01*
X131109491Y-67268015D01*
X131211985Y-67370509D01*
X131211986Y-67370510D01*
X131211988Y-67370511D01*
X131337511Y-67442982D01*
X131337512Y-67442982D01*
X131337515Y-67442984D01*
X131477525Y-67480500D01*
X131477528Y-67480500D01*
X131622472Y-67480500D01*
X131622475Y-67480500D01*
X131762485Y-67442984D01*
X131888015Y-67370509D01*
X131990509Y-67268015D01*
X132062984Y-67142485D01*
X132100500Y-67002475D01*
X132100500Y-66877525D01*
X132499500Y-66877525D01*
X132499500Y-67022475D01*
X132517799Y-67090766D01*
X132537017Y-67162488D01*
X132609488Y-67288011D01*
X132609490Y-67288013D01*
X132609491Y-67288015D01*
X132711985Y-67390509D01*
X132711986Y-67390510D01*
X132711988Y-67390511D01*
X132837511Y-67462982D01*
X132837512Y-67462982D01*
X132837515Y-67462984D01*
X132977525Y-67500500D01*
X132977528Y-67500500D01*
X133122472Y-67500500D01*
X133122475Y-67500500D01*
X133262485Y-67462984D01*
X133388015Y-67390509D01*
X133490509Y-67288015D01*
X133562984Y-67162485D01*
X133600500Y-67022475D01*
X133600500Y-66939234D01*
X134614500Y-66939234D01*
X134614500Y-67090765D01*
X134653719Y-67237136D01*
X134671549Y-67268017D01*
X134729485Y-67368365D01*
X134836635Y-67475515D01*
X134950281Y-67541129D01*
X134967861Y-67551279D01*
X134967865Y-67551281D01*
X135114234Y-67590500D01*
X135114236Y-67590500D01*
X135265764Y-67590500D01*
X135265766Y-67590500D01*
X135412135Y-67551281D01*
X135543365Y-67475515D01*
X135650515Y-67368365D01*
X135726281Y-67237135D01*
X135765500Y-67090766D01*
X135765500Y-66939234D01*
X135726281Y-66792865D01*
X135650515Y-66661635D01*
X135543365Y-66554485D01*
X135465437Y-66509493D01*
X135412136Y-66478719D01*
X135306819Y-66450500D01*
X135265766Y-66439500D01*
X135114234Y-66439500D01*
X134967863Y-66478719D01*
X134836635Y-66554485D01*
X134836632Y-66554487D01*
X134729487Y-66661632D01*
X134729485Y-66661635D01*
X134653719Y-66792863D01*
X134614500Y-66939234D01*
X133600500Y-66939234D01*
X133600500Y-66877525D01*
X133562984Y-66737515D01*
X133522039Y-66666597D01*
X133490511Y-66611988D01*
X133490506Y-66611982D01*
X133388017Y-66509493D01*
X133388011Y-66509488D01*
X133262488Y-66437017D01*
X133262489Y-66437017D01*
X133251006Y-66433940D01*
X133122475Y-66399500D01*
X132977525Y-66399500D01*
X132848993Y-66433940D01*
X132837511Y-66437017D01*
X132711988Y-66509488D01*
X132711982Y-66509493D01*
X132609493Y-66611982D01*
X132609488Y-66611988D01*
X132537017Y-66737511D01*
X132537016Y-66737515D01*
X132499500Y-66877525D01*
X132100500Y-66877525D01*
X132100500Y-66857525D01*
X132062984Y-66717515D01*
X132033586Y-66666597D01*
X131990511Y-66591988D01*
X131990506Y-66591982D01*
X131888017Y-66489493D01*
X131888011Y-66489488D01*
X131762488Y-66417017D01*
X131762489Y-66417017D01*
X131751006Y-66413940D01*
X131622475Y-66379500D01*
X131477525Y-66379500D01*
X131348993Y-66413940D01*
X131337511Y-66417017D01*
X131211988Y-66489488D01*
X131211982Y-66489493D01*
X131109493Y-66591982D01*
X131109488Y-66591988D01*
X131037017Y-66717511D01*
X131037016Y-66717515D01*
X130999500Y-66857525D01*
X129963606Y-66857525D01*
X129946281Y-66792865D01*
X129870515Y-66661635D01*
X129763365Y-66554485D01*
X129685437Y-66509493D01*
X129632136Y-66478719D01*
X129526819Y-66450500D01*
X129485766Y-66439500D01*
X129334234Y-66439500D01*
X129187863Y-66478719D01*
X129056635Y-66554485D01*
X129056632Y-66554487D01*
X128949487Y-66661632D01*
X128949485Y-66661635D01*
X128873719Y-66792863D01*
X128834500Y-66939234D01*
X125500500Y-66939234D01*
X125500500Y-66734110D01*
X125500500Y-66734108D01*
X125466392Y-66606814D01*
X125400500Y-66492686D01*
X125307314Y-66399500D01*
X125250250Y-66366554D01*
X125193187Y-66333608D01*
X125129539Y-66316554D01*
X125065892Y-66299500D01*
X125065891Y-66299500D01*
X122153751Y-66299500D01*
X122146264Y-66299274D01*
X121850178Y-66281363D01*
X121835313Y-66279558D01*
X121547236Y-66226766D01*
X121532698Y-66223182D01*
X121253102Y-66136057D01*
X121239101Y-66130748D01*
X120972027Y-66010548D01*
X120958768Y-66003589D01*
X120815415Y-65916929D01*
X120708134Y-65852075D01*
X120695814Y-65843571D01*
X120675335Y-65827527D01*
X120542503Y-65723459D01*
X120465270Y-65662951D01*
X120454062Y-65653021D01*
X120246978Y-65445937D01*
X120237048Y-65434729D01*
X120079192Y-65233241D01*
X120056424Y-65204179D01*
X120047926Y-65191868D01*
X119896407Y-64941225D01*
X119889454Y-64927979D01*
X119769249Y-64660893D01*
X119763942Y-64646897D01*
X119756561Y-64623211D01*
X119676816Y-64367300D01*
X119673233Y-64352763D01*
X119620441Y-64064686D01*
X119618636Y-64049821D01*
X119614263Y-63977525D01*
X119600952Y-63757472D01*
X119600952Y-63742527D01*
X119608119Y-63624038D01*
X120549500Y-63624038D01*
X120549500Y-63875962D01*
X120572705Y-64022472D01*
X120588910Y-64124785D01*
X120666760Y-64364383D01*
X120727235Y-64483070D01*
X120780198Y-64587016D01*
X120781132Y-64588848D01*
X120929201Y-64792649D01*
X120929205Y-64792654D01*
X121107345Y-64970794D01*
X121107350Y-64970798D01*
X121285117Y-65099952D01*
X121311155Y-65118870D01*
X121416355Y-65172472D01*
X121535616Y-65233239D01*
X121535618Y-65233239D01*
X121535621Y-65233241D01*
X121775215Y-65311090D01*
X122024038Y-65350500D01*
X122024039Y-65350500D01*
X122275961Y-65350500D01*
X122275962Y-65350500D01*
X122524785Y-65311090D01*
X122764379Y-65233241D01*
X122988845Y-65118870D01*
X123114571Y-65027525D01*
X126639500Y-65027525D01*
X126639500Y-65172475D01*
X126670083Y-65286610D01*
X126677017Y-65312488D01*
X126749482Y-65438000D01*
X126765955Y-65505900D01*
X126749482Y-65562000D01*
X126677017Y-65687511D01*
X126677016Y-65687515D01*
X126639500Y-65827525D01*
X126639500Y-65972475D01*
X126662817Y-66059493D01*
X126677017Y-66112488D01*
X126749488Y-66238011D01*
X126749490Y-66238013D01*
X126749491Y-66238015D01*
X126851985Y-66340509D01*
X126851986Y-66340510D01*
X126851988Y-66340511D01*
X126977511Y-66412982D01*
X126977512Y-66412982D01*
X126977515Y-66412984D01*
X127117525Y-66450500D01*
X127117528Y-66450500D01*
X127262472Y-66450500D01*
X127262475Y-66450500D01*
X127402485Y-66412984D01*
X127528015Y-66340509D01*
X127630509Y-66238015D01*
X127702984Y-66112485D01*
X127740500Y-65972475D01*
X127740500Y-65827525D01*
X127702984Y-65687515D01*
X127630516Y-65561997D01*
X127614044Y-65494101D01*
X127630515Y-65438003D01*
X127702984Y-65312485D01*
X127740500Y-65172475D01*
X127740500Y-65027525D01*
X136859500Y-65027525D01*
X136859500Y-65172475D01*
X136890083Y-65286610D01*
X136897017Y-65312488D01*
X136969482Y-65438000D01*
X136985955Y-65505900D01*
X136969482Y-65562000D01*
X136897017Y-65687511D01*
X136897016Y-65687515D01*
X136859500Y-65827525D01*
X136859500Y-65972475D01*
X136882817Y-66059493D01*
X136897017Y-66112488D01*
X136969488Y-66238011D01*
X136969490Y-66238013D01*
X136969491Y-66238015D01*
X137071985Y-66340509D01*
X137071986Y-66340510D01*
X137071988Y-66340511D01*
X137197511Y-66412982D01*
X137197512Y-66412982D01*
X137197515Y-66412984D01*
X137337525Y-66450500D01*
X137337528Y-66450500D01*
X137482472Y-66450500D01*
X137482475Y-66450500D01*
X137568218Y-66427525D01*
X154949500Y-66427525D01*
X154949500Y-66572475D01*
X154987016Y-66712485D01*
X154987017Y-66712488D01*
X155059488Y-66838011D01*
X155059490Y-66838013D01*
X155059491Y-66838015D01*
X155161985Y-66940509D01*
X155161986Y-66940510D01*
X155161988Y-66940511D01*
X155287511Y-67012982D01*
X155287512Y-67012982D01*
X155287515Y-67012984D01*
X155427525Y-67050500D01*
X155427528Y-67050500D01*
X155572472Y-67050500D01*
X155572475Y-67050500D01*
X155712485Y-67012984D01*
X155838015Y-66940509D01*
X155940509Y-66838015D01*
X156012984Y-66712485D01*
X156050500Y-66572475D01*
X156050500Y-66427525D01*
X156012984Y-66287515D01*
X155984406Y-66238017D01*
X155940511Y-66161988D01*
X155940506Y-66161982D01*
X155838017Y-66059493D01*
X155838011Y-66059488D01*
X155712488Y-65987017D01*
X155712489Y-65987017D01*
X155701006Y-65983940D01*
X155572475Y-65949500D01*
X155427525Y-65949500D01*
X155298993Y-65983940D01*
X155287511Y-65987017D01*
X155161988Y-66059488D01*
X155161982Y-66059493D01*
X155059493Y-66161982D01*
X155059488Y-66161988D01*
X154987017Y-66287511D01*
X154987016Y-66287515D01*
X154949500Y-66427525D01*
X137568218Y-66427525D01*
X137622485Y-66412984D01*
X137748015Y-66340509D01*
X137850509Y-66238015D01*
X137922984Y-66112485D01*
X137960500Y-65972475D01*
X137960500Y-65827525D01*
X137922984Y-65687515D01*
X137850516Y-65561997D01*
X137834044Y-65494101D01*
X137850515Y-65438003D01*
X137922984Y-65312485D01*
X137960500Y-65172475D01*
X137960500Y-65113389D01*
X163814500Y-65113389D01*
X163814500Y-65286610D01*
X163839734Y-65445937D01*
X163841598Y-65457701D01*
X163895127Y-65622445D01*
X163973768Y-65776788D01*
X164075586Y-65916928D01*
X164198072Y-66039414D01*
X164338212Y-66141232D01*
X164492555Y-66219873D01*
X164657299Y-66273402D01*
X164828389Y-66300500D01*
X164828390Y-66300500D01*
X165001610Y-66300500D01*
X165001611Y-66300500D01*
X165172701Y-66273402D01*
X165337445Y-66219873D01*
X165491788Y-66141232D01*
X165631928Y-66039414D01*
X165754414Y-65916928D01*
X165856232Y-65776788D01*
X165934873Y-65622445D01*
X165988402Y-65457701D01*
X166015500Y-65286611D01*
X166015500Y-65113389D01*
X165988402Y-64942299D01*
X165934873Y-64777555D01*
X165856232Y-64623212D01*
X165754414Y-64483072D01*
X165631928Y-64360586D01*
X165491788Y-64258768D01*
X165337445Y-64180127D01*
X165172701Y-64126598D01*
X165172699Y-64126597D01*
X165172698Y-64126597D01*
X165041271Y-64105781D01*
X165001611Y-64099500D01*
X164828389Y-64099500D01*
X164788728Y-64105781D01*
X164657302Y-64126597D01*
X164492552Y-64180128D01*
X164338211Y-64258768D01*
X164297957Y-64288015D01*
X164198072Y-64360586D01*
X164198070Y-64360588D01*
X164198069Y-64360588D01*
X164075588Y-64483069D01*
X164075588Y-64483070D01*
X164075586Y-64483072D01*
X164062924Y-64500500D01*
X163973768Y-64623211D01*
X163895128Y-64777552D01*
X163841597Y-64942302D01*
X163814500Y-65113389D01*
X137960500Y-65113389D01*
X137960500Y-65027525D01*
X137922984Y-64887515D01*
X137859498Y-64777555D01*
X137850511Y-64761988D01*
X137850506Y-64761982D01*
X137748017Y-64659493D01*
X137748011Y-64659488D01*
X137622488Y-64587017D01*
X137622489Y-64587017D01*
X137611006Y-64583940D01*
X137482475Y-64549500D01*
X137337525Y-64549500D01*
X137208993Y-64583940D01*
X137197511Y-64587017D01*
X137071988Y-64659488D01*
X137071982Y-64659493D01*
X136969493Y-64761982D01*
X136969488Y-64761988D01*
X136897017Y-64887511D01*
X136897016Y-64887515D01*
X136859500Y-65027525D01*
X127740500Y-65027525D01*
X127702984Y-64887515D01*
X127639498Y-64777555D01*
X127630511Y-64761988D01*
X127630506Y-64761982D01*
X127528017Y-64659493D01*
X127528011Y-64659488D01*
X127402488Y-64587017D01*
X127402489Y-64587017D01*
X127391006Y-64583940D01*
X127262475Y-64549500D01*
X127117525Y-64549500D01*
X126988993Y-64583940D01*
X126977511Y-64587017D01*
X126851988Y-64659488D01*
X126851982Y-64659493D01*
X126749493Y-64761982D01*
X126749488Y-64761988D01*
X126677017Y-64887511D01*
X126677016Y-64887515D01*
X126639500Y-65027525D01*
X123114571Y-65027525D01*
X123192656Y-64970793D01*
X123370793Y-64792656D01*
X123518870Y-64588845D01*
X123633241Y-64364379D01*
X123711090Y-64124785D01*
X123742333Y-63927525D01*
X144049500Y-63927525D01*
X144049500Y-64072475D01*
X144078346Y-64180127D01*
X144087017Y-64212488D01*
X144159488Y-64338011D01*
X144159490Y-64338013D01*
X144159491Y-64338015D01*
X144261985Y-64440509D01*
X144261986Y-64440510D01*
X144261988Y-64440511D01*
X144387511Y-64512982D01*
X144387512Y-64512982D01*
X144387515Y-64512984D01*
X144527525Y-64550500D01*
X144527528Y-64550500D01*
X144672472Y-64550500D01*
X144672475Y-64550500D01*
X144812485Y-64512984D01*
X144938015Y-64440509D01*
X145040509Y-64338015D01*
X145112984Y-64212485D01*
X145150500Y-64072475D01*
X145150500Y-63927525D01*
X145137102Y-63877525D01*
X152049500Y-63877525D01*
X152049500Y-64022475D01*
X152077400Y-64126597D01*
X152087017Y-64162488D01*
X152159488Y-64288011D01*
X152159490Y-64288013D01*
X152159491Y-64288015D01*
X152261985Y-64390509D01*
X152261986Y-64390510D01*
X152261988Y-64390511D01*
X152387511Y-64462982D01*
X152387512Y-64462982D01*
X152387515Y-64462984D01*
X152527525Y-64500500D01*
X152527528Y-64500500D01*
X152672472Y-64500500D01*
X152672475Y-64500500D01*
X152812485Y-64462984D01*
X152938015Y-64390509D01*
X153040509Y-64288015D01*
X153112984Y-64162485D01*
X153150500Y-64022475D01*
X153150500Y-63977525D01*
X159949500Y-63977525D01*
X159949500Y-64122475D01*
X159986020Y-64258768D01*
X159987017Y-64262488D01*
X160059488Y-64388011D01*
X160059490Y-64388013D01*
X160059491Y-64388015D01*
X160161985Y-64490509D01*
X160161986Y-64490510D01*
X160161988Y-64490511D01*
X160287511Y-64562982D01*
X160287512Y-64562982D01*
X160287515Y-64562984D01*
X160427525Y-64600500D01*
X160427528Y-64600500D01*
X160572472Y-64600500D01*
X160572475Y-64600500D01*
X160712485Y-64562984D01*
X160838015Y-64490509D01*
X160940509Y-64388015D01*
X161012984Y-64262485D01*
X161050500Y-64122475D01*
X161050500Y-63977525D01*
X161012984Y-63837515D01*
X160984116Y-63787515D01*
X160940511Y-63711988D01*
X160940506Y-63711982D01*
X160838017Y-63609493D01*
X160838011Y-63609488D01*
X160712488Y-63537017D01*
X160712489Y-63537017D01*
X160701006Y-63533940D01*
X160572475Y-63499500D01*
X160427525Y-63499500D01*
X160298993Y-63533940D01*
X160287511Y-63537017D01*
X160161988Y-63609488D01*
X160161982Y-63609493D01*
X160059493Y-63711982D01*
X160059488Y-63711988D01*
X159987017Y-63837511D01*
X159987016Y-63837515D01*
X159949500Y-63977525D01*
X153150500Y-63977525D01*
X153150500Y-63877525D01*
X153112984Y-63737515D01*
X153098244Y-63711985D01*
X153040511Y-63611988D01*
X153040506Y-63611982D01*
X152938017Y-63509493D01*
X152938011Y-63509488D01*
X152812488Y-63437017D01*
X152812489Y-63437017D01*
X152801006Y-63433940D01*
X152672475Y-63399500D01*
X152527525Y-63399500D01*
X152398993Y-63433940D01*
X152387511Y-63437017D01*
X152261988Y-63509488D01*
X152261982Y-63509493D01*
X152159493Y-63611982D01*
X152159488Y-63611988D01*
X152087017Y-63737511D01*
X152087016Y-63737515D01*
X152049500Y-63877525D01*
X145137102Y-63877525D01*
X145112984Y-63787515D01*
X145097386Y-63760499D01*
X145040511Y-63661988D01*
X145040506Y-63661982D01*
X144938017Y-63559493D01*
X144938011Y-63559488D01*
X144812488Y-63487017D01*
X144812489Y-63487017D01*
X144801006Y-63483940D01*
X144672475Y-63449500D01*
X144527525Y-63449500D01*
X144398993Y-63483940D01*
X144387511Y-63487017D01*
X144261988Y-63559488D01*
X144261982Y-63559493D01*
X144159493Y-63661982D01*
X144159488Y-63661988D01*
X144087017Y-63787511D01*
X144087016Y-63787515D01*
X144049500Y-63927525D01*
X123742333Y-63927525D01*
X123750500Y-63875962D01*
X123750500Y-63624038D01*
X123711090Y-63375215D01*
X123633241Y-63135621D01*
X123633239Y-63135618D01*
X123633239Y-63135616D01*
X123591747Y-63054184D01*
X123518870Y-62911155D01*
X123466520Y-62839101D01*
X123370798Y-62707350D01*
X123370794Y-62707345D01*
X123192654Y-62529205D01*
X123192649Y-62529201D01*
X122988848Y-62381132D01*
X122988847Y-62381131D01*
X122988845Y-62381130D01*
X122918747Y-62345413D01*
X122764383Y-62266760D01*
X122524785Y-62188910D01*
X122275962Y-62149500D01*
X122024038Y-62149500D01*
X121899626Y-62169205D01*
X121775214Y-62188910D01*
X121535616Y-62266760D01*
X121311151Y-62381132D01*
X121107350Y-62529201D01*
X121107345Y-62529205D01*
X120929205Y-62707345D01*
X120929201Y-62707350D01*
X120781132Y-62911151D01*
X120666760Y-63135616D01*
X120588910Y-63375214D01*
X120577144Y-63449500D01*
X120549500Y-63624038D01*
X119608119Y-63624038D01*
X119618636Y-63450173D01*
X119620441Y-63435313D01*
X119631455Y-63375215D01*
X119673233Y-63147232D01*
X119676817Y-63132698D01*
X119707457Y-63034371D01*
X119763945Y-62853091D01*
X119769247Y-62839111D01*
X119889458Y-62572013D01*
X119896403Y-62558781D01*
X120047931Y-62308123D01*
X120056418Y-62295827D01*
X120237055Y-62065261D01*
X120246970Y-62054070D01*
X120454070Y-61846970D01*
X120465261Y-61837055D01*
X120531295Y-61785321D01*
X163814500Y-61785321D01*
X163814500Y-63534678D01*
X163829032Y-63607735D01*
X163829033Y-63607739D01*
X163829034Y-63607740D01*
X163884399Y-63690601D01*
X163954606Y-63737511D01*
X163967260Y-63745966D01*
X163967264Y-63745967D01*
X164040321Y-63760499D01*
X164040324Y-63760500D01*
X164040326Y-63760500D01*
X165789676Y-63760500D01*
X165789677Y-63760499D01*
X165862740Y-63745966D01*
X165945601Y-63690601D01*
X166000966Y-63607740D01*
X166015500Y-63534674D01*
X166015500Y-61785326D01*
X166015500Y-61785323D01*
X166015499Y-61785321D01*
X166000967Y-61712264D01*
X166000966Y-61712260D01*
X165980495Y-61681623D01*
X165945601Y-61629399D01*
X165862740Y-61574034D01*
X165862739Y-61574033D01*
X165862735Y-61574032D01*
X165789677Y-61559500D01*
X165789674Y-61559500D01*
X164040326Y-61559500D01*
X164040323Y-61559500D01*
X163967264Y-61574032D01*
X163967260Y-61574033D01*
X163884399Y-61629399D01*
X163829033Y-61712260D01*
X163829032Y-61712264D01*
X163814500Y-61785321D01*
X120531295Y-61785321D01*
X120695827Y-61656418D01*
X120708123Y-61647931D01*
X120958781Y-61496403D01*
X120972013Y-61489458D01*
X121239111Y-61369247D01*
X121253091Y-61363945D01*
X121532702Y-61276815D01*
X121547232Y-61273233D01*
X121835317Y-61220440D01*
X121850175Y-61218636D01*
X122146264Y-61200726D01*
X122153751Y-61200500D01*
X122215892Y-61200500D01*
X125334108Y-61200500D01*
X168850500Y-61200500D01*
X168917539Y-61220185D01*
G37*
%TD.AperFunction*%
%TD*%
%TA.AperFunction,Conductor*%
%TO.N,VDD_5V*%
G36*
X134215677Y-75419685D02*
G01*
X134236319Y-75436319D01*
X135763681Y-76963681D01*
X135797166Y-77025004D01*
X135800000Y-77051362D01*
X135800000Y-77748638D01*
X135780315Y-77815677D01*
X135763681Y-77836319D01*
X135436319Y-78163681D01*
X135374996Y-78197166D01*
X135348638Y-78200000D01*
X128199999Y-78200000D01*
X128100000Y-78299999D01*
X128100000Y-80448638D01*
X128080315Y-80515677D01*
X128063681Y-80536319D01*
X127900000Y-80699999D01*
X127900000Y-81300000D01*
X128063681Y-81463681D01*
X128097166Y-81525004D01*
X128100000Y-81551362D01*
X128100000Y-82048638D01*
X128080315Y-82115677D01*
X128063681Y-82136319D01*
X127136319Y-83063681D01*
X127074996Y-83097166D01*
X127048638Y-83100000D01*
X125924000Y-83100000D01*
X125856961Y-83080315D01*
X125811206Y-83027511D01*
X125800000Y-82976000D01*
X125800000Y-77151362D01*
X125819685Y-77084323D01*
X125836319Y-77063681D01*
X126463681Y-76436319D01*
X126525004Y-76402834D01*
X126551362Y-76400000D01*
X129500000Y-76400000D01*
X129700000Y-76200000D01*
X129700000Y-75851362D01*
X129719685Y-75784323D01*
X129736319Y-75763681D01*
X130063681Y-75436319D01*
X130125004Y-75402834D01*
X130151362Y-75400000D01*
X134148638Y-75400000D01*
X134215677Y-75419685D01*
G37*
%TD.AperFunction*%
%TD*%
M02*
