%TF.GenerationSoftware,KiCad,Pcbnew,9.0.1*%
%TF.CreationDate,2025-07-01T00:30:54-05:00*%
%TF.ProjectId,CAN-Sensor-Hub-v1,43414e2d-5365-46e7-936f-722d4875622d,rev?*%
%TF.SameCoordinates,Original*%
%TF.FileFunction,Legend,Bot*%
%TF.FilePolarity,Positive*%
%FSLAX46Y46*%
G04 Gerber Fmt 4.6, Leading zero omitted, Abs format (unit mm)*
G04 Created by KiCad (PCBNEW 9.0.1) date 2025-07-01 00:30:54*
%MOMM*%
%LPD*%
G01*
G04 APERTURE LIST*
%ADD10C,0.150000*%
%ADD11C,0.120000*%
G04 APERTURE END LIST*
D10*
X141035713Y-80528485D02*
X141111903Y-80490390D01*
X141111903Y-80490390D02*
X141188094Y-80414200D01*
X141188094Y-80414200D02*
X141302380Y-80299914D01*
X141302380Y-80299914D02*
X141378570Y-80261819D01*
X141378570Y-80261819D02*
X141454761Y-80261819D01*
X141416665Y-80452295D02*
X141492856Y-80414200D01*
X141492856Y-80414200D02*
X141569046Y-80338009D01*
X141569046Y-80338009D02*
X141607142Y-80185628D01*
X141607142Y-80185628D02*
X141607142Y-79918961D01*
X141607142Y-79918961D02*
X141569046Y-79766580D01*
X141569046Y-79766580D02*
X141492856Y-79690390D01*
X141492856Y-79690390D02*
X141416665Y-79652295D01*
X141416665Y-79652295D02*
X141264284Y-79652295D01*
X141264284Y-79652295D02*
X141188094Y-79690390D01*
X141188094Y-79690390D02*
X141111903Y-79766580D01*
X141111903Y-79766580D02*
X141073808Y-79918961D01*
X141073808Y-79918961D02*
X141073808Y-80185628D01*
X141073808Y-80185628D02*
X141111903Y-80338009D01*
X141111903Y-80338009D02*
X141188094Y-80414200D01*
X141188094Y-80414200D02*
X141264284Y-80452295D01*
X141264284Y-80452295D02*
X141416665Y-80452295D01*
X140730951Y-80452295D02*
X140730951Y-79652295D01*
X140197618Y-79652295D02*
X140045237Y-79652295D01*
X140045237Y-79652295D02*
X139969047Y-79690390D01*
X139969047Y-79690390D02*
X139892856Y-79766580D01*
X139892856Y-79766580D02*
X139854761Y-79918961D01*
X139854761Y-79918961D02*
X139854761Y-80185628D01*
X139854761Y-80185628D02*
X139892856Y-80338009D01*
X139892856Y-80338009D02*
X139969047Y-80414200D01*
X139969047Y-80414200D02*
X140045237Y-80452295D01*
X140045237Y-80452295D02*
X140197618Y-80452295D01*
X140197618Y-80452295D02*
X140273809Y-80414200D01*
X140273809Y-80414200D02*
X140349999Y-80338009D01*
X140349999Y-80338009D02*
X140388095Y-80185628D01*
X140388095Y-80185628D02*
X140388095Y-79918961D01*
X140388095Y-79918961D02*
X140349999Y-79766580D01*
X140349999Y-79766580D02*
X140273809Y-79690390D01*
X140273809Y-79690390D02*
X140197618Y-79652295D01*
X139550000Y-79728485D02*
X139511904Y-79690390D01*
X139511904Y-79690390D02*
X139435714Y-79652295D01*
X139435714Y-79652295D02*
X139245238Y-79652295D01*
X139245238Y-79652295D02*
X139169047Y-79690390D01*
X139169047Y-79690390D02*
X139130952Y-79728485D01*
X139130952Y-79728485D02*
X139092857Y-79804676D01*
X139092857Y-79804676D02*
X139092857Y-79880866D01*
X139092857Y-79880866D02*
X139130952Y-79995152D01*
X139130952Y-79995152D02*
X139588095Y-80452295D01*
X139588095Y-80452295D02*
X139092857Y-80452295D01*
X152395237Y-84938485D02*
X152471427Y-84900390D01*
X152471427Y-84900390D02*
X152547618Y-84824200D01*
X152547618Y-84824200D02*
X152661904Y-84709914D01*
X152661904Y-84709914D02*
X152738094Y-84671819D01*
X152738094Y-84671819D02*
X152814285Y-84671819D01*
X152776189Y-84862295D02*
X152852380Y-84824200D01*
X152852380Y-84824200D02*
X152928570Y-84748009D01*
X152928570Y-84748009D02*
X152966666Y-84595628D01*
X152966666Y-84595628D02*
X152966666Y-84328961D01*
X152966666Y-84328961D02*
X152928570Y-84176580D01*
X152928570Y-84176580D02*
X152852380Y-84100390D01*
X152852380Y-84100390D02*
X152776189Y-84062295D01*
X152776189Y-84062295D02*
X152623808Y-84062295D01*
X152623808Y-84062295D02*
X152547618Y-84100390D01*
X152547618Y-84100390D02*
X152471427Y-84176580D01*
X152471427Y-84176580D02*
X152433332Y-84328961D01*
X152433332Y-84328961D02*
X152433332Y-84595628D01*
X152433332Y-84595628D02*
X152471427Y-84748009D01*
X152471427Y-84748009D02*
X152547618Y-84824200D01*
X152547618Y-84824200D02*
X152623808Y-84862295D01*
X152623808Y-84862295D02*
X152776189Y-84862295D01*
X152090475Y-84862295D02*
X152090475Y-84062295D01*
X152090475Y-84062295D02*
X151633332Y-84862295D01*
X151633332Y-84862295D02*
X151633332Y-84062295D01*
X150795237Y-84786104D02*
X150833333Y-84824200D01*
X150833333Y-84824200D02*
X150947618Y-84862295D01*
X150947618Y-84862295D02*
X151023809Y-84862295D01*
X151023809Y-84862295D02*
X151138095Y-84824200D01*
X151138095Y-84824200D02*
X151214285Y-84748009D01*
X151214285Y-84748009D02*
X151252380Y-84671819D01*
X151252380Y-84671819D02*
X151290476Y-84519438D01*
X151290476Y-84519438D02*
X151290476Y-84405152D01*
X151290476Y-84405152D02*
X151252380Y-84252771D01*
X151252380Y-84252771D02*
X151214285Y-84176580D01*
X151214285Y-84176580D02*
X151138095Y-84100390D01*
X151138095Y-84100390D02*
X151023809Y-84062295D01*
X151023809Y-84062295D02*
X150947618Y-84062295D01*
X150947618Y-84062295D02*
X150833333Y-84100390D01*
X150833333Y-84100390D02*
X150795237Y-84138485D01*
X150490476Y-84824200D02*
X150376190Y-84862295D01*
X150376190Y-84862295D02*
X150185714Y-84862295D01*
X150185714Y-84862295D02*
X150109523Y-84824200D01*
X150109523Y-84824200D02*
X150071428Y-84786104D01*
X150071428Y-84786104D02*
X150033333Y-84709914D01*
X150033333Y-84709914D02*
X150033333Y-84633723D01*
X150033333Y-84633723D02*
X150071428Y-84557533D01*
X150071428Y-84557533D02*
X150109523Y-84519438D01*
X150109523Y-84519438D02*
X150185714Y-84481342D01*
X150185714Y-84481342D02*
X150338095Y-84443247D01*
X150338095Y-84443247D02*
X150414285Y-84405152D01*
X150414285Y-84405152D02*
X150452380Y-84367057D01*
X150452380Y-84367057D02*
X150490476Y-84290866D01*
X150490476Y-84290866D02*
X150490476Y-84214676D01*
X150490476Y-84214676D02*
X150452380Y-84138485D01*
X150452380Y-84138485D02*
X150414285Y-84100390D01*
X150414285Y-84100390D02*
X150338095Y-84062295D01*
X150338095Y-84062295D02*
X150147618Y-84062295D01*
X150147618Y-84062295D02*
X150033333Y-84100390D01*
X154119999Y-75492295D02*
X154119999Y-74692295D01*
X154119999Y-74692295D02*
X153929523Y-74692295D01*
X153929523Y-74692295D02*
X153815237Y-74730390D01*
X153815237Y-74730390D02*
X153739047Y-74806580D01*
X153739047Y-74806580D02*
X153700952Y-74882771D01*
X153700952Y-74882771D02*
X153662856Y-75035152D01*
X153662856Y-75035152D02*
X153662856Y-75149438D01*
X153662856Y-75149438D02*
X153700952Y-75301819D01*
X153700952Y-75301819D02*
X153739047Y-75378009D01*
X153739047Y-75378009D02*
X153815237Y-75454200D01*
X153815237Y-75454200D02*
X153929523Y-75492295D01*
X153929523Y-75492295D02*
X154119999Y-75492295D01*
X153053333Y-75073247D02*
X152939047Y-75111342D01*
X152939047Y-75111342D02*
X152900952Y-75149438D01*
X152900952Y-75149438D02*
X152862856Y-75225628D01*
X152862856Y-75225628D02*
X152862856Y-75339914D01*
X152862856Y-75339914D02*
X152900952Y-75416104D01*
X152900952Y-75416104D02*
X152939047Y-75454200D01*
X152939047Y-75454200D02*
X153015237Y-75492295D01*
X153015237Y-75492295D02*
X153319999Y-75492295D01*
X153319999Y-75492295D02*
X153319999Y-74692295D01*
X153319999Y-74692295D02*
X153053333Y-74692295D01*
X153053333Y-74692295D02*
X152977142Y-74730390D01*
X152977142Y-74730390D02*
X152939047Y-74768485D01*
X152939047Y-74768485D02*
X152900952Y-74844676D01*
X152900952Y-74844676D02*
X152900952Y-74920866D01*
X152900952Y-74920866D02*
X152939047Y-74997057D01*
X152939047Y-74997057D02*
X152977142Y-75035152D01*
X152977142Y-75035152D02*
X153053333Y-75073247D01*
X153053333Y-75073247D02*
X153319999Y-75073247D01*
X152100952Y-74730390D02*
X152177142Y-74692295D01*
X152177142Y-74692295D02*
X152291428Y-74692295D01*
X152291428Y-74692295D02*
X152405714Y-74730390D01*
X152405714Y-74730390D02*
X152481904Y-74806580D01*
X152481904Y-74806580D02*
X152519999Y-74882771D01*
X152519999Y-74882771D02*
X152558095Y-75035152D01*
X152558095Y-75035152D02*
X152558095Y-75149438D01*
X152558095Y-75149438D02*
X152519999Y-75301819D01*
X152519999Y-75301819D02*
X152481904Y-75378009D01*
X152481904Y-75378009D02*
X152405714Y-75454200D01*
X152405714Y-75454200D02*
X152291428Y-75492295D01*
X152291428Y-75492295D02*
X152215237Y-75492295D01*
X152215237Y-75492295D02*
X152100952Y-75454200D01*
X152100952Y-75454200D02*
X152062856Y-75416104D01*
X152062856Y-75416104D02*
X152062856Y-75149438D01*
X152062856Y-75149438D02*
X152215237Y-75149438D01*
X151910476Y-75568485D02*
X151300952Y-75568485D01*
X151224761Y-74692295D02*
X150767618Y-74692295D01*
X150996190Y-75492295D02*
X150996190Y-74692295D01*
X150577142Y-74692295D02*
X150043808Y-75492295D01*
X150043808Y-74692295D02*
X150577142Y-75492295D01*
X151885237Y-79082295D02*
X151885237Y-78282295D01*
X151885237Y-78282295D02*
X151694761Y-78282295D01*
X151694761Y-78282295D02*
X151580475Y-78320390D01*
X151580475Y-78320390D02*
X151504285Y-78396580D01*
X151504285Y-78396580D02*
X151466190Y-78472771D01*
X151466190Y-78472771D02*
X151428094Y-78625152D01*
X151428094Y-78625152D02*
X151428094Y-78739438D01*
X151428094Y-78739438D02*
X151466190Y-78891819D01*
X151466190Y-78891819D02*
X151504285Y-78968009D01*
X151504285Y-78968009D02*
X151580475Y-79044200D01*
X151580475Y-79044200D02*
X151694761Y-79082295D01*
X151694761Y-79082295D02*
X151885237Y-79082295D01*
X150818571Y-78663247D02*
X150704285Y-78701342D01*
X150704285Y-78701342D02*
X150666190Y-78739438D01*
X150666190Y-78739438D02*
X150628094Y-78815628D01*
X150628094Y-78815628D02*
X150628094Y-78929914D01*
X150628094Y-78929914D02*
X150666190Y-79006104D01*
X150666190Y-79006104D02*
X150704285Y-79044200D01*
X150704285Y-79044200D02*
X150780475Y-79082295D01*
X150780475Y-79082295D02*
X151085237Y-79082295D01*
X151085237Y-79082295D02*
X151085237Y-78282295D01*
X151085237Y-78282295D02*
X150818571Y-78282295D01*
X150818571Y-78282295D02*
X150742380Y-78320390D01*
X150742380Y-78320390D02*
X150704285Y-78358485D01*
X150704285Y-78358485D02*
X150666190Y-78434676D01*
X150666190Y-78434676D02*
X150666190Y-78510866D01*
X150666190Y-78510866D02*
X150704285Y-78587057D01*
X150704285Y-78587057D02*
X150742380Y-78625152D01*
X150742380Y-78625152D02*
X150818571Y-78663247D01*
X150818571Y-78663247D02*
X151085237Y-78663247D01*
X149866190Y-78320390D02*
X149942380Y-78282295D01*
X149942380Y-78282295D02*
X150056666Y-78282295D01*
X150056666Y-78282295D02*
X150170952Y-78320390D01*
X150170952Y-78320390D02*
X150247142Y-78396580D01*
X150247142Y-78396580D02*
X150285237Y-78472771D01*
X150285237Y-78472771D02*
X150323333Y-78625152D01*
X150323333Y-78625152D02*
X150323333Y-78739438D01*
X150323333Y-78739438D02*
X150285237Y-78891819D01*
X150285237Y-78891819D02*
X150247142Y-78968009D01*
X150247142Y-78968009D02*
X150170952Y-79044200D01*
X150170952Y-79044200D02*
X150056666Y-79082295D01*
X150056666Y-79082295D02*
X149980475Y-79082295D01*
X149980475Y-79082295D02*
X149866190Y-79044200D01*
X149866190Y-79044200D02*
X149828094Y-79006104D01*
X149828094Y-79006104D02*
X149828094Y-78739438D01*
X149828094Y-78739438D02*
X149980475Y-78739438D01*
X149675714Y-79158485D02*
X149066190Y-79158485D01*
X148418570Y-79082295D02*
X148685237Y-78701342D01*
X148875713Y-79082295D02*
X148875713Y-78282295D01*
X148875713Y-78282295D02*
X148570951Y-78282295D01*
X148570951Y-78282295D02*
X148494761Y-78320390D01*
X148494761Y-78320390D02*
X148456666Y-78358485D01*
X148456666Y-78358485D02*
X148418570Y-78434676D01*
X148418570Y-78434676D02*
X148418570Y-78548961D01*
X148418570Y-78548961D02*
X148456666Y-78625152D01*
X148456666Y-78625152D02*
X148494761Y-78663247D01*
X148494761Y-78663247D02*
X148570951Y-78701342D01*
X148570951Y-78701342D02*
X148875713Y-78701342D01*
X148151904Y-78282295D02*
X147618570Y-79082295D01*
X147618570Y-78282295D02*
X148151904Y-79082295D01*
X154853333Y-67214200D02*
X154739047Y-67252295D01*
X154739047Y-67252295D02*
X154548571Y-67252295D01*
X154548571Y-67252295D02*
X154472380Y-67214200D01*
X154472380Y-67214200D02*
X154434285Y-67176104D01*
X154434285Y-67176104D02*
X154396190Y-67099914D01*
X154396190Y-67099914D02*
X154396190Y-67023723D01*
X154396190Y-67023723D02*
X154434285Y-66947533D01*
X154434285Y-66947533D02*
X154472380Y-66909438D01*
X154472380Y-66909438D02*
X154548571Y-66871342D01*
X154548571Y-66871342D02*
X154700952Y-66833247D01*
X154700952Y-66833247D02*
X154777142Y-66795152D01*
X154777142Y-66795152D02*
X154815237Y-66757057D01*
X154815237Y-66757057D02*
X154853333Y-66680866D01*
X154853333Y-66680866D02*
X154853333Y-66604676D01*
X154853333Y-66604676D02*
X154815237Y-66528485D01*
X154815237Y-66528485D02*
X154777142Y-66490390D01*
X154777142Y-66490390D02*
X154700952Y-66452295D01*
X154700952Y-66452295D02*
X154510475Y-66452295D01*
X154510475Y-66452295D02*
X154396190Y-66490390D01*
X153596189Y-67176104D02*
X153634285Y-67214200D01*
X153634285Y-67214200D02*
X153748570Y-67252295D01*
X153748570Y-67252295D02*
X153824761Y-67252295D01*
X153824761Y-67252295D02*
X153939047Y-67214200D01*
X153939047Y-67214200D02*
X154015237Y-67138009D01*
X154015237Y-67138009D02*
X154053332Y-67061819D01*
X154053332Y-67061819D02*
X154091428Y-66909438D01*
X154091428Y-66909438D02*
X154091428Y-66795152D01*
X154091428Y-66795152D02*
X154053332Y-66642771D01*
X154053332Y-66642771D02*
X154015237Y-66566580D01*
X154015237Y-66566580D02*
X153939047Y-66490390D01*
X153939047Y-66490390D02*
X153824761Y-66452295D01*
X153824761Y-66452295D02*
X153748570Y-66452295D01*
X153748570Y-66452295D02*
X153634285Y-66490390D01*
X153634285Y-66490390D02*
X153596189Y-66528485D01*
X152872380Y-67252295D02*
X153253332Y-67252295D01*
X153253332Y-67252295D02*
X153253332Y-66452295D01*
X152186666Y-67252295D02*
X152643809Y-67252295D01*
X152415237Y-67252295D02*
X152415237Y-66452295D01*
X152415237Y-66452295D02*
X152491428Y-66566580D01*
X152491428Y-66566580D02*
X152567618Y-66642771D01*
X152567618Y-66642771D02*
X152643809Y-66680866D01*
X159232381Y-69614200D02*
X159118095Y-69652295D01*
X159118095Y-69652295D02*
X158927619Y-69652295D01*
X158927619Y-69652295D02*
X158851428Y-69614200D01*
X158851428Y-69614200D02*
X158813333Y-69576104D01*
X158813333Y-69576104D02*
X158775238Y-69499914D01*
X158775238Y-69499914D02*
X158775238Y-69423723D01*
X158775238Y-69423723D02*
X158813333Y-69347533D01*
X158813333Y-69347533D02*
X158851428Y-69309438D01*
X158851428Y-69309438D02*
X158927619Y-69271342D01*
X158927619Y-69271342D02*
X159080000Y-69233247D01*
X159080000Y-69233247D02*
X159156190Y-69195152D01*
X159156190Y-69195152D02*
X159194285Y-69157057D01*
X159194285Y-69157057D02*
X159232381Y-69080866D01*
X159232381Y-69080866D02*
X159232381Y-69004676D01*
X159232381Y-69004676D02*
X159194285Y-68928485D01*
X159194285Y-68928485D02*
X159156190Y-68890390D01*
X159156190Y-68890390D02*
X159080000Y-68852295D01*
X159080000Y-68852295D02*
X158889523Y-68852295D01*
X158889523Y-68852295D02*
X158775238Y-68890390D01*
X158432380Y-69652295D02*
X158432380Y-68852295D01*
X158432380Y-68852295D02*
X158241904Y-68852295D01*
X158241904Y-68852295D02*
X158127618Y-68890390D01*
X158127618Y-68890390D02*
X158051428Y-68966580D01*
X158051428Y-68966580D02*
X158013333Y-69042771D01*
X158013333Y-69042771D02*
X157975237Y-69195152D01*
X157975237Y-69195152D02*
X157975237Y-69309438D01*
X157975237Y-69309438D02*
X158013333Y-69461819D01*
X158013333Y-69461819D02*
X158051428Y-69538009D01*
X158051428Y-69538009D02*
X158127618Y-69614200D01*
X158127618Y-69614200D02*
X158241904Y-69652295D01*
X158241904Y-69652295D02*
X158432380Y-69652295D01*
X157670476Y-69423723D02*
X157289523Y-69423723D01*
X157746666Y-69652295D02*
X157479999Y-68852295D01*
X157479999Y-68852295D02*
X157213333Y-69652295D01*
X156527619Y-69652295D02*
X156984762Y-69652295D01*
X156756190Y-69652295D02*
X156756190Y-68852295D01*
X156756190Y-68852295D02*
X156832381Y-68966580D01*
X156832381Y-68966580D02*
X156908571Y-69042771D01*
X156908571Y-69042771D02*
X156984762Y-69080866D01*
X144798094Y-92396104D02*
X144836190Y-92434200D01*
X144836190Y-92434200D02*
X144950475Y-92472295D01*
X144950475Y-92472295D02*
X145026666Y-92472295D01*
X145026666Y-92472295D02*
X145140952Y-92434200D01*
X145140952Y-92434200D02*
X145217142Y-92358009D01*
X145217142Y-92358009D02*
X145255237Y-92281819D01*
X145255237Y-92281819D02*
X145293333Y-92129438D01*
X145293333Y-92129438D02*
X145293333Y-92015152D01*
X145293333Y-92015152D02*
X145255237Y-91862771D01*
X145255237Y-91862771D02*
X145217142Y-91786580D01*
X145217142Y-91786580D02*
X145140952Y-91710390D01*
X145140952Y-91710390D02*
X145026666Y-91672295D01*
X145026666Y-91672295D02*
X144950475Y-91672295D01*
X144950475Y-91672295D02*
X144836190Y-91710390D01*
X144836190Y-91710390D02*
X144798094Y-91748485D01*
X144569523Y-91672295D02*
X144112380Y-91672295D01*
X144340952Y-92472295D02*
X144340952Y-91672295D01*
X143921904Y-91672295D02*
X143388570Y-92472295D01*
X143388570Y-91672295D02*
X143921904Y-92472295D01*
X142023332Y-92276104D02*
X142061428Y-92314200D01*
X142061428Y-92314200D02*
X142175713Y-92352295D01*
X142175713Y-92352295D02*
X142251904Y-92352295D01*
X142251904Y-92352295D02*
X142366190Y-92314200D01*
X142366190Y-92314200D02*
X142442380Y-92238009D01*
X142442380Y-92238009D02*
X142480475Y-92161819D01*
X142480475Y-92161819D02*
X142518571Y-92009438D01*
X142518571Y-92009438D02*
X142518571Y-91895152D01*
X142518571Y-91895152D02*
X142480475Y-91742771D01*
X142480475Y-91742771D02*
X142442380Y-91666580D01*
X142442380Y-91666580D02*
X142366190Y-91590390D01*
X142366190Y-91590390D02*
X142251904Y-91552295D01*
X142251904Y-91552295D02*
X142175713Y-91552295D01*
X142175713Y-91552295D02*
X142061428Y-91590390D01*
X142061428Y-91590390D02*
X142023332Y-91628485D01*
X141223332Y-92352295D02*
X141489999Y-91971342D01*
X141680475Y-92352295D02*
X141680475Y-91552295D01*
X141680475Y-91552295D02*
X141375713Y-91552295D01*
X141375713Y-91552295D02*
X141299523Y-91590390D01*
X141299523Y-91590390D02*
X141261428Y-91628485D01*
X141261428Y-91628485D02*
X141223332Y-91704676D01*
X141223332Y-91704676D02*
X141223332Y-91818961D01*
X141223332Y-91818961D02*
X141261428Y-91895152D01*
X141261428Y-91895152D02*
X141299523Y-91933247D01*
X141299523Y-91933247D02*
X141375713Y-91971342D01*
X141375713Y-91971342D02*
X141680475Y-91971342D01*
X140956666Y-91552295D02*
X140423332Y-92352295D01*
X140423332Y-91552295D02*
X140956666Y-92352295D01*
X131974761Y-68362295D02*
X131974761Y-67562295D01*
X131974761Y-67562295D02*
X131784285Y-67562295D01*
X131784285Y-67562295D02*
X131669999Y-67600390D01*
X131669999Y-67600390D02*
X131593809Y-67676580D01*
X131593809Y-67676580D02*
X131555714Y-67752771D01*
X131555714Y-67752771D02*
X131517618Y-67905152D01*
X131517618Y-67905152D02*
X131517618Y-68019438D01*
X131517618Y-68019438D02*
X131555714Y-68171819D01*
X131555714Y-68171819D02*
X131593809Y-68248009D01*
X131593809Y-68248009D02*
X131669999Y-68324200D01*
X131669999Y-68324200D02*
X131784285Y-68362295D01*
X131784285Y-68362295D02*
X131974761Y-68362295D01*
X131174761Y-68057533D02*
X130565238Y-68057533D01*
X130869999Y-68362295D02*
X130869999Y-67752771D01*
X134514761Y-68482295D02*
X134514761Y-67682295D01*
X134514761Y-67682295D02*
X134324285Y-67682295D01*
X134324285Y-67682295D02*
X134209999Y-67720390D01*
X134209999Y-67720390D02*
X134133809Y-67796580D01*
X134133809Y-67796580D02*
X134095714Y-67872771D01*
X134095714Y-67872771D02*
X134057618Y-68025152D01*
X134057618Y-68025152D02*
X134057618Y-68139438D01*
X134057618Y-68139438D02*
X134095714Y-68291819D01*
X134095714Y-68291819D02*
X134133809Y-68368009D01*
X134133809Y-68368009D02*
X134209999Y-68444200D01*
X134209999Y-68444200D02*
X134324285Y-68482295D01*
X134324285Y-68482295D02*
X134514761Y-68482295D01*
X133714761Y-68177533D02*
X133105238Y-68177533D01*
X144925713Y-87958485D02*
X145001903Y-87920390D01*
X145001903Y-87920390D02*
X145078094Y-87844200D01*
X145078094Y-87844200D02*
X145192380Y-87729914D01*
X145192380Y-87729914D02*
X145268570Y-87691819D01*
X145268570Y-87691819D02*
X145344761Y-87691819D01*
X145306665Y-87882295D02*
X145382856Y-87844200D01*
X145382856Y-87844200D02*
X145459046Y-87768009D01*
X145459046Y-87768009D02*
X145497142Y-87615628D01*
X145497142Y-87615628D02*
X145497142Y-87348961D01*
X145497142Y-87348961D02*
X145459046Y-87196580D01*
X145459046Y-87196580D02*
X145382856Y-87120390D01*
X145382856Y-87120390D02*
X145306665Y-87082295D01*
X145306665Y-87082295D02*
X145154284Y-87082295D01*
X145154284Y-87082295D02*
X145078094Y-87120390D01*
X145078094Y-87120390D02*
X145001903Y-87196580D01*
X145001903Y-87196580D02*
X144963808Y-87348961D01*
X144963808Y-87348961D02*
X144963808Y-87615628D01*
X144963808Y-87615628D02*
X145001903Y-87768009D01*
X145001903Y-87768009D02*
X145078094Y-87844200D01*
X145078094Y-87844200D02*
X145154284Y-87882295D01*
X145154284Y-87882295D02*
X145306665Y-87882295D01*
X144620951Y-87882295D02*
X144620951Y-87082295D01*
X144087618Y-87082295D02*
X143935237Y-87082295D01*
X143935237Y-87082295D02*
X143859047Y-87120390D01*
X143859047Y-87120390D02*
X143782856Y-87196580D01*
X143782856Y-87196580D02*
X143744761Y-87348961D01*
X143744761Y-87348961D02*
X143744761Y-87615628D01*
X143744761Y-87615628D02*
X143782856Y-87768009D01*
X143782856Y-87768009D02*
X143859047Y-87844200D01*
X143859047Y-87844200D02*
X143935237Y-87882295D01*
X143935237Y-87882295D02*
X144087618Y-87882295D01*
X144087618Y-87882295D02*
X144163809Y-87844200D01*
X144163809Y-87844200D02*
X144239999Y-87768009D01*
X144239999Y-87768009D02*
X144278095Y-87615628D01*
X144278095Y-87615628D02*
X144278095Y-87348961D01*
X144278095Y-87348961D02*
X144239999Y-87196580D01*
X144239999Y-87196580D02*
X144163809Y-87120390D01*
X144163809Y-87120390D02*
X144087618Y-87082295D01*
X143478095Y-87082295D02*
X142982857Y-87082295D01*
X142982857Y-87082295D02*
X143249523Y-87387057D01*
X143249523Y-87387057D02*
X143135238Y-87387057D01*
X143135238Y-87387057D02*
X143059047Y-87425152D01*
X143059047Y-87425152D02*
X143020952Y-87463247D01*
X143020952Y-87463247D02*
X142982857Y-87539438D01*
X142982857Y-87539438D02*
X142982857Y-87729914D01*
X142982857Y-87729914D02*
X143020952Y-87806104D01*
X143020952Y-87806104D02*
X143059047Y-87844200D01*
X143059047Y-87844200D02*
X143135238Y-87882295D01*
X143135238Y-87882295D02*
X143363809Y-87882295D01*
X143363809Y-87882295D02*
X143440000Y-87844200D01*
X143440000Y-87844200D02*
X143478095Y-87806104D01*
X141095713Y-83788485D02*
X141171903Y-83750390D01*
X141171903Y-83750390D02*
X141248094Y-83674200D01*
X141248094Y-83674200D02*
X141362380Y-83559914D01*
X141362380Y-83559914D02*
X141438570Y-83521819D01*
X141438570Y-83521819D02*
X141514761Y-83521819D01*
X141476665Y-83712295D02*
X141552856Y-83674200D01*
X141552856Y-83674200D02*
X141629046Y-83598009D01*
X141629046Y-83598009D02*
X141667142Y-83445628D01*
X141667142Y-83445628D02*
X141667142Y-83178961D01*
X141667142Y-83178961D02*
X141629046Y-83026580D01*
X141629046Y-83026580D02*
X141552856Y-82950390D01*
X141552856Y-82950390D02*
X141476665Y-82912295D01*
X141476665Y-82912295D02*
X141324284Y-82912295D01*
X141324284Y-82912295D02*
X141248094Y-82950390D01*
X141248094Y-82950390D02*
X141171903Y-83026580D01*
X141171903Y-83026580D02*
X141133808Y-83178961D01*
X141133808Y-83178961D02*
X141133808Y-83445628D01*
X141133808Y-83445628D02*
X141171903Y-83598009D01*
X141171903Y-83598009D02*
X141248094Y-83674200D01*
X141248094Y-83674200D02*
X141324284Y-83712295D01*
X141324284Y-83712295D02*
X141476665Y-83712295D01*
X140790951Y-83712295D02*
X140790951Y-82912295D01*
X140257618Y-82912295D02*
X140105237Y-82912295D01*
X140105237Y-82912295D02*
X140029047Y-82950390D01*
X140029047Y-82950390D02*
X139952856Y-83026580D01*
X139952856Y-83026580D02*
X139914761Y-83178961D01*
X139914761Y-83178961D02*
X139914761Y-83445628D01*
X139914761Y-83445628D02*
X139952856Y-83598009D01*
X139952856Y-83598009D02*
X140029047Y-83674200D01*
X140029047Y-83674200D02*
X140105237Y-83712295D01*
X140105237Y-83712295D02*
X140257618Y-83712295D01*
X140257618Y-83712295D02*
X140333809Y-83674200D01*
X140333809Y-83674200D02*
X140409999Y-83598009D01*
X140409999Y-83598009D02*
X140448095Y-83445628D01*
X140448095Y-83445628D02*
X140448095Y-83178961D01*
X140448095Y-83178961D02*
X140409999Y-83026580D01*
X140409999Y-83026580D02*
X140333809Y-82950390D01*
X140333809Y-82950390D02*
X140257618Y-82912295D01*
X139152857Y-83712295D02*
X139610000Y-83712295D01*
X139381428Y-83712295D02*
X139381428Y-82912295D01*
X139381428Y-82912295D02*
X139457619Y-83026580D01*
X139457619Y-83026580D02*
X139533809Y-83102771D01*
X139533809Y-83102771D02*
X139610000Y-83140866D01*
X143335713Y-85398485D02*
X143411903Y-85360390D01*
X143411903Y-85360390D02*
X143488094Y-85284200D01*
X143488094Y-85284200D02*
X143602380Y-85169914D01*
X143602380Y-85169914D02*
X143678570Y-85131819D01*
X143678570Y-85131819D02*
X143754761Y-85131819D01*
X143716665Y-85322295D02*
X143792856Y-85284200D01*
X143792856Y-85284200D02*
X143869046Y-85208009D01*
X143869046Y-85208009D02*
X143907142Y-85055628D01*
X143907142Y-85055628D02*
X143907142Y-84788961D01*
X143907142Y-84788961D02*
X143869046Y-84636580D01*
X143869046Y-84636580D02*
X143792856Y-84560390D01*
X143792856Y-84560390D02*
X143716665Y-84522295D01*
X143716665Y-84522295D02*
X143564284Y-84522295D01*
X143564284Y-84522295D02*
X143488094Y-84560390D01*
X143488094Y-84560390D02*
X143411903Y-84636580D01*
X143411903Y-84636580D02*
X143373808Y-84788961D01*
X143373808Y-84788961D02*
X143373808Y-85055628D01*
X143373808Y-85055628D02*
X143411903Y-85208009D01*
X143411903Y-85208009D02*
X143488094Y-85284200D01*
X143488094Y-85284200D02*
X143564284Y-85322295D01*
X143564284Y-85322295D02*
X143716665Y-85322295D01*
X143030951Y-85322295D02*
X143030951Y-84522295D01*
X142497618Y-84522295D02*
X142345237Y-84522295D01*
X142345237Y-84522295D02*
X142269047Y-84560390D01*
X142269047Y-84560390D02*
X142192856Y-84636580D01*
X142192856Y-84636580D02*
X142154761Y-84788961D01*
X142154761Y-84788961D02*
X142154761Y-85055628D01*
X142154761Y-85055628D02*
X142192856Y-85208009D01*
X142192856Y-85208009D02*
X142269047Y-85284200D01*
X142269047Y-85284200D02*
X142345237Y-85322295D01*
X142345237Y-85322295D02*
X142497618Y-85322295D01*
X142497618Y-85322295D02*
X142573809Y-85284200D01*
X142573809Y-85284200D02*
X142649999Y-85208009D01*
X142649999Y-85208009D02*
X142688095Y-85055628D01*
X142688095Y-85055628D02*
X142688095Y-84788961D01*
X142688095Y-84788961D02*
X142649999Y-84636580D01*
X142649999Y-84636580D02*
X142573809Y-84560390D01*
X142573809Y-84560390D02*
X142497618Y-84522295D01*
X141659523Y-84522295D02*
X141583333Y-84522295D01*
X141583333Y-84522295D02*
X141507142Y-84560390D01*
X141507142Y-84560390D02*
X141469047Y-84598485D01*
X141469047Y-84598485D02*
X141430952Y-84674676D01*
X141430952Y-84674676D02*
X141392857Y-84827057D01*
X141392857Y-84827057D02*
X141392857Y-85017533D01*
X141392857Y-85017533D02*
X141430952Y-85169914D01*
X141430952Y-85169914D02*
X141469047Y-85246104D01*
X141469047Y-85246104D02*
X141507142Y-85284200D01*
X141507142Y-85284200D02*
X141583333Y-85322295D01*
X141583333Y-85322295D02*
X141659523Y-85322295D01*
X141659523Y-85322295D02*
X141735714Y-85284200D01*
X141735714Y-85284200D02*
X141773809Y-85246104D01*
X141773809Y-85246104D02*
X141811904Y-85169914D01*
X141811904Y-85169914D02*
X141850000Y-85017533D01*
X141850000Y-85017533D02*
X141850000Y-84827057D01*
X141850000Y-84827057D02*
X141811904Y-84674676D01*
X141811904Y-84674676D02*
X141773809Y-84598485D01*
X141773809Y-84598485D02*
X141735714Y-84560390D01*
X141735714Y-84560390D02*
X141659523Y-84522295D01*
X150819047Y-88938485D02*
X150895237Y-88900390D01*
X150895237Y-88900390D02*
X150971428Y-88824200D01*
X150971428Y-88824200D02*
X151085714Y-88709914D01*
X151085714Y-88709914D02*
X151161904Y-88671819D01*
X151161904Y-88671819D02*
X151238095Y-88671819D01*
X151199999Y-88862295D02*
X151276190Y-88824200D01*
X151276190Y-88824200D02*
X151352380Y-88748009D01*
X151352380Y-88748009D02*
X151390476Y-88595628D01*
X151390476Y-88595628D02*
X151390476Y-88328961D01*
X151390476Y-88328961D02*
X151352380Y-88176580D01*
X151352380Y-88176580D02*
X151276190Y-88100390D01*
X151276190Y-88100390D02*
X151199999Y-88062295D01*
X151199999Y-88062295D02*
X151047618Y-88062295D01*
X151047618Y-88062295D02*
X150971428Y-88100390D01*
X150971428Y-88100390D02*
X150895237Y-88176580D01*
X150895237Y-88176580D02*
X150857142Y-88328961D01*
X150857142Y-88328961D02*
X150857142Y-88595628D01*
X150857142Y-88595628D02*
X150895237Y-88748009D01*
X150895237Y-88748009D02*
X150971428Y-88824200D01*
X150971428Y-88824200D02*
X151047618Y-88862295D01*
X151047618Y-88862295D02*
X151199999Y-88862295D01*
X150057142Y-88786104D02*
X150095238Y-88824200D01*
X150095238Y-88824200D02*
X150209523Y-88862295D01*
X150209523Y-88862295D02*
X150285714Y-88862295D01*
X150285714Y-88862295D02*
X150400000Y-88824200D01*
X150400000Y-88824200D02*
X150476190Y-88748009D01*
X150476190Y-88748009D02*
X150514285Y-88671819D01*
X150514285Y-88671819D02*
X150552381Y-88519438D01*
X150552381Y-88519438D02*
X150552381Y-88405152D01*
X150552381Y-88405152D02*
X150514285Y-88252771D01*
X150514285Y-88252771D02*
X150476190Y-88176580D01*
X150476190Y-88176580D02*
X150400000Y-88100390D01*
X150400000Y-88100390D02*
X150285714Y-88062295D01*
X150285714Y-88062295D02*
X150209523Y-88062295D01*
X150209523Y-88062295D02*
X150095238Y-88100390D01*
X150095238Y-88100390D02*
X150057142Y-88138485D01*
X149333333Y-88862295D02*
X149714285Y-88862295D01*
X149714285Y-88862295D02*
X149714285Y-88062295D01*
X149066666Y-88862295D02*
X149066666Y-88062295D01*
X148609523Y-88862295D02*
X148952381Y-88405152D01*
X148609523Y-88062295D02*
X149066666Y-88519438D01*
X157083333Y-90204819D02*
X157083333Y-90919104D01*
X157083333Y-90919104D02*
X157130952Y-91061961D01*
X157130952Y-91061961D02*
X157226190Y-91157200D01*
X157226190Y-91157200D02*
X157369047Y-91204819D01*
X157369047Y-91204819D02*
X157464285Y-91204819D01*
X156130952Y-90204819D02*
X156607142Y-90204819D01*
X156607142Y-90204819D02*
X156654761Y-90681009D01*
X156654761Y-90681009D02*
X156607142Y-90633390D01*
X156607142Y-90633390D02*
X156511904Y-90585771D01*
X156511904Y-90585771D02*
X156273809Y-90585771D01*
X156273809Y-90585771D02*
X156178571Y-90633390D01*
X156178571Y-90633390D02*
X156130952Y-90681009D01*
X156130952Y-90681009D02*
X156083333Y-90776247D01*
X156083333Y-90776247D02*
X156083333Y-91014342D01*
X156083333Y-91014342D02*
X156130952Y-91109580D01*
X156130952Y-91109580D02*
X156178571Y-91157200D01*
X156178571Y-91157200D02*
X156273809Y-91204819D01*
X156273809Y-91204819D02*
X156511904Y-91204819D01*
X156511904Y-91204819D02*
X156607142Y-91157200D01*
X156607142Y-91157200D02*
X156654761Y-91109580D01*
D11*
%TO.C,J5*%
X154590000Y-90080000D02*
X153315000Y-90080000D01*
X153315000Y-90015000D02*
X153315000Y-90080000D01*
X153315000Y-90015000D02*
X149685000Y-90015000D01*
X153315000Y-96520000D02*
X153315000Y-96585000D01*
X153315000Y-96585000D02*
X149685000Y-96585000D01*
X149685000Y-90015000D02*
X149685000Y-90080000D01*
X149685000Y-96520000D02*
X149685000Y-96585000D01*
%TD*%
M02*
