M48
; DRILL file {KiCad 9.0.1} date 2025-07-01T00:29:04-0500
; FORMAT={-:-/ absolute / metric / decimal}
; #@! TF.CreationDate,2025-07-01T00:29:04-05:00
; #@! TF.GenerationSoftware,Kicad,Pcbnew,9.0.1
; #@! TF.FileFunction,Plated,1,4,PTH
FMAT,2
METRIC
; #@! TA.AperFunction,Plated,PTH,ViaDrill
T1C0.300
; #@! TA.AperFunction,Plated,PTH,ComponentDrill
T2C0.300
; #@! TA.AperFunction,Plated,PTH,ComponentDrill
T3C1.000
; #@! TA.AperFunction,Plated,PTH,ComponentDrill
T4C1.200
%
G90
G05
T1
X126.2Y-77.6
X126.25Y-73.75
X126.6Y-80.5
X126.9Y-76.9
X126.9Y-77.6
X127.19Y-65.1
X127.19Y-65.9
X127.4Y-80.5
X127.5Y-73.0
X127.5Y-73.7
X127.5Y-74.4
X127.6Y-76.9
X127.6Y-77.6
X128.8Y-90.3
X129.6Y-90.3
X129.9Y-69.0
X130.3Y-78.9
X130.4Y-90.3
X131.1Y-94.9
X131.1Y-95.6
X131.1Y-96.3
X131.1Y-97.1
X131.55Y-66.93
X133.0Y-73.8
X133.0Y-74.6
X133.05Y-66.95
X133.2Y-76.2
X133.2Y-77.0
X133.2Y-77.8
X133.8Y-73.0
X133.8Y-73.8
X133.8Y-74.6
X134.0Y-76.2
X134.0Y-77.0
X134.0Y-77.8
X134.5Y-70.8
X134.6Y-72.2
X134.6Y-73.0
X134.6Y-73.8
X134.6Y-74.6
X134.8Y-77.0
X134.8Y-77.8
X134.95Y-69.05
X135.4Y-73.8
X135.4Y-74.6
X137.35Y-97.35
X137.41Y-65.1
X137.41Y-65.9
X138.2Y-69.9
X138.5Y-95.5
X139.7Y-69.95
X140.2Y-81.72
X140.295Y-89.905
X140.5Y-89.1
X141.1Y-93.4
X141.445Y-81.745
X141.5Y-94.9
X142.098Y-89.04
X142.11Y-93.42
X142.26Y-81.73
X142.9Y-94.9
X143.055Y-93.255
X143.087Y-81.554
X143.12Y-89.06
X143.4Y-68.5
X143.6Y-64.0
X143.95Y-93.4
X144.2Y-79.8
X144.2Y-89.4
X144.6Y-64.0
X145.15Y-75.7
X145.2Y-91.1
X145.2Y-95.05
X146.2Y-96.7
X146.5Y-79.85
X147.1Y-96.9
X147.8Y-85.4
X147.8Y-92.5
X147.86Y-83.463
X148.2Y-82.0
X148.4Y-86.7
X148.44Y-82.9
X149.1Y-85.6
X149.3Y-76.45
X149.3Y-82.0
X150.25Y-86.55
X150.4Y-97.3
X150.7Y-81.6
X151.0Y-71.1
X151.0Y-74.1
X151.65Y-63.95
X152.2Y-88.7
X152.6Y-63.95
X152.8Y-77.8
X153.25Y-78.6
X153.7Y-97.3
X153.836Y-81.8
X154.263Y-74.067
X154.636Y-81.8
X155.08Y-74.07
X155.3Y-92.05
X155.5Y-66.5
X155.85Y-71.5
X155.89Y-74.1
X155.9Y-69.2
X156.106Y-94.1
X156.9Y-86.95
X156.9Y-92.05
X156.906Y-94.098
X157.4Y-67.7
X157.706Y-94.103
X158.1Y-76.2
X158.3Y-72.45
X158.5Y-67.7
X158.506Y-94.111
X158.55Y-91.45
X159.036Y-87.4
X159.5Y-64.05
X159.5Y-77.1
X159.7Y-81.5
X159.7Y-94.2
X160.2Y-79.0
X160.5Y-64.05
X160.6Y-83.9
X160.6Y-87.4
X160.9Y-80.5
X160.9Y-97.3
X161.646Y-80.846
X161.8Y-71.8
X162.2Y-95.9
X162.4Y-97.3
X162.6Y-75.55
X163.35Y-84.75
X163.95Y-83.55
X164.1Y-88.1
X164.1Y-89.0
X164.1Y-93.4
X164.1Y-94.9
X164.3Y-96.4
X166.0Y-82.5
X167.5Y-83.5
X168.0Y-88.0
X168.0Y-89.0
X168.0Y-93.4
X168.1Y-90.7
X168.1Y-91.7
X168.8Y-85.2
X168.8Y-86.3
T2
X131.6Y-90.0
X131.6Y-91.2
X132.7Y-90.0
X132.7Y-91.2
X134.0Y-90.0
X134.0Y-91.2
X135.2Y-90.0
X135.2Y-91.2
T3
X147.5Y-70.42
X147.5Y-72.96
X147.5Y-75.5
X164.915Y-62.66
X164.915Y-65.2
X164.915Y-67.74
X164.915Y-71.56
X164.915Y-74.1
X164.915Y-76.64
X165.025Y-80.25
X167.565Y-80.25
T4
X128.1Y-102.7
X128.1Y-107.7
X131.6Y-102.7
X131.6Y-107.7
X135.1Y-102.7
X135.1Y-107.7
X138.6Y-102.7
X138.6Y-107.7
X142.1Y-102.7
X142.1Y-107.7
X145.6Y-102.7
X145.6Y-107.7
X149.1Y-102.7
X149.1Y-107.7
X152.6Y-102.7
X152.6Y-107.7
X156.1Y-102.7
X156.1Y-107.7
X159.6Y-102.7
X159.6Y-107.7
X163.1Y-102.7
X163.1Y-107.7
X166.6Y-102.7
X166.6Y-107.7
M30
