%TF.GenerationSoftware,KiCad,Pcbnew,9.0.1*%
%TF.CreationDate,2025-07-01T00:30:54-05:00*%
%TF.ProjectId,CAN-Sensor-Hub-v1,43414e2d-5365-46e7-936f-722d4875622d,rev?*%
%TF.SameCoordinates,Original*%
%TF.FileFunction,Soldermask,Bot*%
%TF.FilePolarity,Negative*%
%FSLAX46Y46*%
G04 Gerber Fmt 4.6, Leading zero omitted, Abs format (unit mm)*
G04 Created by KiCad (PCBNEW 9.0.1) date 2025-07-01 00:30:54*
%MOMM*%
%LPD*%
G01*
G04 APERTURE LIST*
G04 Aperture macros list*
%AMRoundRect*
0 Rectangle with rounded corners*
0 $1 Rounding radius*
0 $2 $3 $4 $5 $6 $7 $8 $9 X,Y pos of 4 corners*
0 Add a 4 corners polygon primitive as box body*
4,1,4,$2,$3,$4,$5,$6,$7,$8,$9,$2,$3,0*
0 Add four circle primitives for the rounded corners*
1,1,$1+$1,$2,$3*
1,1,$1+$1,$4,$5*
1,1,$1+$1,$6,$7*
1,1,$1+$1,$8,$9*
0 Add four rect primitives between the rounded corners*
20,1,$1+$1,$2,$3,$4,$5,0*
20,1,$1+$1,$4,$5,$6,$7,0*
20,1,$1+$1,$6,$7,$8,$9,0*
20,1,$1+$1,$8,$9,$2,$3,0*%
G04 Aperture macros list end*
%ADD10C,2.700000*%
%ADD11C,0.500400*%
%ADD12C,1.700000*%
%ADD13R,1.700000X1.700000*%
%ADD14C,0.650000*%
%ADD15R,1.500000X2.300000*%
%ADD16RoundRect,0.250001X-0.499999X-0.899999X0.499999X-0.899999X0.499999X0.899999X-0.499999X0.899999X0*%
%ADD17O,1.500000X2.300000*%
%ADD18R,2.400000X0.740000*%
G04 APERTURE END LIST*
D10*
%TO.C,H2*%
X172700000Y-82000000D03*
%TD*%
D11*
%TO.C,QSPI_IO2*%
X141900000Y-80840000D03*
%TD*%
%TO.C,QSPI_NCS*%
X149430000Y-84480000D03*
%TD*%
%TO.C,TP20*%
X149460000Y-74930000D03*
%TD*%
%TO.C,TP19*%
X152490000Y-78560000D03*
%TD*%
%TO.C,TP14*%
X154530000Y-67880000D03*
%TD*%
%TO.C,TP13*%
X157850000Y-68340000D03*
%TD*%
%TO.C,TP12*%
X143010000Y-91880000D03*
%TD*%
%TO.C,TP11*%
X141490000Y-91070000D03*
%TD*%
%TO.C,TP8*%
X132530000Y-67940000D03*
%TD*%
%TO.C,TP7*%
X133040000Y-68810000D03*
%TD*%
%TO.C,TP6*%
X144500000Y-86500000D03*
%TD*%
%TO.C,TP4*%
X142340000Y-83340000D03*
%TD*%
%TO.C,TP3*%
X144190000Y-85450000D03*
%TD*%
%TO.C,TP2*%
X148040000Y-88550000D03*
%TD*%
D12*
%TO.C,J11*%
X147500000Y-70420000D03*
X147500000Y-72960000D03*
D13*
X147500000Y-75500000D03*
%TD*%
%TO.C,J6*%
X165025000Y-80250000D03*
D12*
X167565000Y-80250000D03*
%TD*%
D10*
%TO.C,H4*%
X172675000Y-110250000D03*
%TD*%
%TO.C,H3*%
X122100000Y-110250000D03*
%TD*%
%TO.C,H1*%
X122150000Y-63750000D03*
%TD*%
D14*
%TO.C,J4*%
X129410000Y-67015000D03*
X135190000Y-67015000D03*
%TD*%
D15*
%TO.C,J12*%
X128100000Y-102700000D03*
D16*
X128100000Y-107700000D03*
D17*
X131600000Y-102700000D03*
X131600000Y-107700000D03*
X135100000Y-102700000D03*
X135100000Y-107700000D03*
X138600000Y-102700000D03*
X138600000Y-107700000D03*
X142100000Y-102700000D03*
X142100000Y-107700000D03*
X145600000Y-102700000D03*
X145600000Y-107700000D03*
X149100000Y-102700000D03*
X149100000Y-107700000D03*
X152600000Y-102700000D03*
X152600000Y-107700000D03*
X156100000Y-102700000D03*
X156100000Y-107700000D03*
X159600000Y-102700000D03*
X159600000Y-107700000D03*
X163100000Y-102700000D03*
X163100000Y-107700000D03*
X166600000Y-102700000D03*
X166600000Y-107700000D03*
%TD*%
D18*
%TO.C,J5*%
X153450000Y-90760000D03*
X149550000Y-90760000D03*
X153450000Y-92030000D03*
X149550000Y-92030000D03*
X153450000Y-93300000D03*
X149550000Y-93300000D03*
X153450000Y-94570000D03*
X149550000Y-94570000D03*
X153450000Y-95840000D03*
X149550000Y-95840000D03*
%TD*%
D13*
%TO.C,J10*%
X164915000Y-62660000D03*
D12*
X164915000Y-65200000D03*
X164915000Y-67740000D03*
%TD*%
D13*
%TO.C,J9*%
X164915000Y-71560000D03*
D12*
X164915000Y-74100000D03*
X164915000Y-76640000D03*
%TD*%
M02*
