%TF.GenerationSoftware,KiCad,Pcbnew,9.0.1*%
%TF.CreationDate,2025-07-01T00:30:54-05:00*%
%TF.ProjectId,CAN-Sensor-Hub-v1,43414e2d-5365-46e7-936f-722d4875622d,rev?*%
%TF.SameCoordinates,Original*%
%TF.FileFunction,Paste,Top*%
%TF.FilePolarity,Positive*%
%FSLAX46Y46*%
G04 Gerber Fmt 4.6, Leading zero omitted, Abs format (unit mm)*
G04 Created by KiCad (PCBNEW 9.0.1) date 2025-07-01 00:30:54*
%MOMM*%
%LPD*%
G01*
G04 APERTURE LIST*
G04 Aperture macros list*
%AMRoundRect*
0 Rectangle with rounded corners*
0 $1 Rounding radius*
0 $2 $3 $4 $5 $6 $7 $8 $9 X,Y pos of 4 corners*
0 Add a 4 corners polygon primitive as box body*
4,1,4,$2,$3,$4,$5,$6,$7,$8,$9,$2,$3,0*
0 Add four circle primitives for the rounded corners*
1,1,$1+$1,$2,$3*
1,1,$1+$1,$4,$5*
1,1,$1+$1,$6,$7*
1,1,$1+$1,$8,$9*
0 Add four rect primitives between the rounded corners*
20,1,$1+$1,$2,$3,$4,$5,0*
20,1,$1+$1,$4,$5,$6,$7,0*
20,1,$1+$1,$6,$7,$8,$9,0*
20,1,$1+$1,$8,$9,$2,$3,0*%
G04 Aperture macros list end*
%ADD10RoundRect,0.150000X0.150000X0.625000X-0.150000X0.625000X-0.150000X-0.625000X0.150000X-0.625000X0*%
%ADD11RoundRect,0.250000X0.350000X0.650000X-0.350000X0.650000X-0.350000X-0.650000X0.350000X-0.650000X0*%
%ADD12RoundRect,0.250000X-0.945000X0.420000X-0.945000X-0.420000X0.945000X-0.420000X0.945000X0.420000X0*%
%ADD13RoundRect,0.135000X0.135000X0.185000X-0.135000X0.185000X-0.135000X-0.185000X0.135000X-0.185000X0*%
%ADD14RoundRect,0.140000X-0.140000X-0.170000X0.140000X-0.170000X0.140000X0.170000X-0.140000X0.170000X0*%
%ADD15RoundRect,0.140000X0.140000X0.170000X-0.140000X0.170000X-0.140000X-0.170000X0.140000X-0.170000X0*%
%ADD16RoundRect,0.140000X0.170000X-0.140000X0.170000X0.140000X-0.170000X0.140000X-0.170000X-0.140000X0*%
%ADD17RoundRect,0.140000X-0.170000X0.140000X-0.170000X-0.140000X0.170000X-0.140000X0.170000X0.140000X0*%
%ADD18RoundRect,0.135000X0.185000X-0.135000X0.185000X0.135000X-0.185000X0.135000X-0.185000X-0.135000X0*%
%ADD19RoundRect,0.250000X0.840000X0.750000X-0.840000X0.750000X-0.840000X-0.750000X0.840000X-0.750000X0*%
%ADD20RoundRect,0.150000X0.150000X0.425000X-0.150000X0.425000X-0.150000X-0.425000X0.150000X-0.425000X0*%
%ADD21RoundRect,0.075000X0.075000X0.500000X-0.075000X0.500000X-0.075000X-0.500000X0.075000X-0.500000X0*%
%ADD22RoundRect,0.125000X-0.125000X0.250000X-0.125000X-0.250000X0.125000X-0.250000X0.125000X0.250000X0*%
%ADD23RoundRect,0.250000X-0.615000X0.435000X-0.615000X-0.435000X0.615000X-0.435000X0.615000X0.435000X0*%
%ADD24RoundRect,0.150000X-0.150000X0.825000X-0.150000X-0.825000X0.150000X-0.825000X0.150000X0.825000X0*%
%ADD25RoundRect,0.135000X-0.185000X0.135000X-0.185000X-0.135000X0.185000X-0.135000X0.185000X0.135000X0*%
%ADD26R,1.800000X1.350000*%
%ADD27RoundRect,0.243750X0.243750X0.456250X-0.243750X0.456250X-0.243750X-0.456250X0.243750X-0.456250X0*%
%ADD28RoundRect,0.150000X-0.587500X-0.150000X0.587500X-0.150000X0.587500X0.150000X-0.587500X0.150000X0*%
%ADD29RoundRect,0.218750X0.256250X-0.218750X0.256250X0.218750X-0.256250X0.218750X-0.256250X-0.218750X0*%
%ADD30RoundRect,0.150000X0.587500X0.150000X-0.587500X0.150000X-0.587500X-0.150000X0.587500X-0.150000X0*%
%ADD31R,0.600000X1.550000*%
%ADD32R,3.100000X2.600000*%
%ADD33RoundRect,0.225000X0.250000X-0.225000X0.250000X0.225000X-0.250000X0.225000X-0.250000X-0.225000X0*%
%ADD34RoundRect,0.225000X0.225000X0.250000X-0.225000X0.250000X-0.225000X-0.250000X0.225000X-0.250000X0*%
%ADD35RoundRect,0.135000X-0.135000X-0.185000X0.135000X-0.185000X0.135000X0.185000X-0.135000X0.185000X0*%
%ADD36RoundRect,0.375000X-0.625000X-0.375000X0.625000X-0.375000X0.625000X0.375000X-0.625000X0.375000X0*%
%ADD37RoundRect,0.500000X-0.500000X-1.400000X0.500000X-1.400000X0.500000X1.400000X-0.500000X1.400000X0*%
%ADD38RoundRect,0.250000X0.250000X0.475000X-0.250000X0.475000X-0.250000X-0.475000X0.250000X-0.475000X0*%
%ADD39R,2.950000X1.400000*%
%ADD40RoundRect,0.075000X0.725000X0.075000X-0.725000X0.075000X-0.725000X-0.075000X0.725000X-0.075000X0*%
%ADD41RoundRect,0.075000X0.075000X0.725000X-0.075000X0.725000X-0.075000X-0.725000X0.075000X-0.725000X0*%
%ADD42R,2.000000X3.400000*%
%ADD43RoundRect,0.243750X-0.243750X-0.456250X0.243750X-0.456250X0.243750X0.456250X-0.243750X0.456250X0*%
%ADD44R,1.800000X1.000000*%
%ADD45RoundRect,0.218750X-0.218750X-0.256250X0.218750X-0.256250X0.218750X0.256250X-0.218750X0.256250X0*%
%ADD46RoundRect,0.225000X-0.225000X-0.250000X0.225000X-0.250000X0.225000X0.250000X-0.225000X0.250000X0*%
G04 APERTURE END LIST*
D10*
%TO.C,J3*%
X144600000Y-65750000D03*
X143600000Y-65750000D03*
X142600000Y-65750000D03*
X141600000Y-65750000D03*
D11*
X145900000Y-61875000D03*
X140300000Y-61875000D03*
%TD*%
D12*
%TO.C,C7*%
X127480000Y-85450000D03*
X127480000Y-88530000D03*
%TD*%
D13*
%TO.C,R8*%
X131490000Y-86200000D03*
X132510000Y-86200000D03*
%TD*%
D14*
%TO.C,C26*%
X145480000Y-67750000D03*
X144520000Y-67750000D03*
%TD*%
%TO.C,C25*%
X152730000Y-67500000D03*
X151770000Y-67500000D03*
%TD*%
D15*
%TO.C,C22*%
X155520000Y-67500000D03*
X156480000Y-67500000D03*
%TD*%
D10*
%TO.C,J1*%
X160550000Y-65750000D03*
X159550000Y-65750000D03*
X158550000Y-65750000D03*
X157550000Y-65750000D03*
D11*
X161850000Y-61875000D03*
X156250000Y-61875000D03*
%TD*%
D10*
%TO.C,J2*%
X152650000Y-65750000D03*
X151650000Y-65750000D03*
X150650000Y-65750000D03*
X149650000Y-65750000D03*
D11*
X153950000Y-61875000D03*
X148350000Y-61875000D03*
%TD*%
D16*
%TO.C,C9*%
X149250000Y-78660000D03*
X149250000Y-77700000D03*
%TD*%
D17*
%TO.C,C8*%
X145000000Y-92470000D03*
X145000000Y-93430000D03*
%TD*%
D18*
%TO.C,R6*%
X151000000Y-73110000D03*
X151000000Y-72090000D03*
%TD*%
%TO.C,R5*%
X151000000Y-70210000D03*
X151000000Y-69190000D03*
%TD*%
%TO.C,R4*%
X126250000Y-72760000D03*
X126250000Y-71740000D03*
%TD*%
D19*
%TO.C,J4*%
X127190000Y-63585000D03*
X127190000Y-67515000D03*
X137410000Y-63585000D03*
X137410000Y-67515000D03*
D20*
X135500000Y-68090000D03*
X134700000Y-68090000D03*
D21*
X134050000Y-68090000D03*
X133050000Y-68090000D03*
X131550000Y-68090000D03*
X130550000Y-68090000D03*
D20*
X129900000Y-68090000D03*
X129100000Y-68090000D03*
X129100000Y-68090000D03*
X129900000Y-68090000D03*
D21*
X131050000Y-68090000D03*
X132050000Y-68090000D03*
X132550000Y-68090000D03*
X133550000Y-68090000D03*
D20*
X134700000Y-68090000D03*
X135500000Y-68090000D03*
%TD*%
D22*
%TO.C,U3*%
X144200000Y-88200000D03*
X142930000Y-88200000D03*
X141660000Y-88200000D03*
X140390000Y-88200000D03*
X140390000Y-82800000D03*
X141660000Y-82800000D03*
X142930000Y-82800000D03*
X144200000Y-82800000D03*
D23*
X141220000Y-86350000D03*
X143370000Y-86350000D03*
X141220000Y-84650000D03*
X143370000Y-84650000D03*
%TD*%
D14*
%TO.C,C10*%
X148230000Y-78600000D03*
X147270000Y-78600000D03*
%TD*%
D17*
%TO.C,C2*%
X168000000Y-86220000D03*
X168000000Y-87180000D03*
%TD*%
D15*
%TO.C,C11*%
X160180000Y-97300000D03*
X159220000Y-97300000D03*
%TD*%
D14*
%TO.C,C5*%
X143220000Y-75700000D03*
X144180000Y-75700000D03*
%TD*%
D18*
%TO.C,R12*%
X158300000Y-71810000D03*
X158300000Y-70790000D03*
%TD*%
D14*
%TO.C,C19*%
X162220000Y-95000000D03*
X163180000Y-95000000D03*
%TD*%
D24*
%TO.C,U2*%
X143655000Y-91625000D03*
X142385000Y-91625000D03*
X141115000Y-91625000D03*
X139845000Y-91625000D03*
X139845000Y-96575000D03*
X141115000Y-96575000D03*
X142385000Y-96575000D03*
X143655000Y-96575000D03*
%TD*%
D25*
%TO.C,R16*%
X144200000Y-80590000D03*
X144200000Y-81610000D03*
%TD*%
D13*
%TO.C,R10*%
X131810000Y-69800000D03*
X130790000Y-69800000D03*
%TD*%
D26*
%TO.C,SW1*%
X143200000Y-69900000D03*
X143200000Y-74050000D03*
%TD*%
D14*
%TO.C,C6*%
X135620000Y-86300000D03*
X136580000Y-86300000D03*
%TD*%
D27*
%TO.C,D1*%
X154337500Y-71500000D03*
X152462500Y-71500000D03*
%TD*%
D28*
%TO.C,Q1*%
X159925000Y-69950000D03*
X159925000Y-71850000D03*
X161800000Y-70900000D03*
%TD*%
D29*
%TO.C,D6*%
X137000000Y-93300000D03*
X137000000Y-91725000D03*
%TD*%
D17*
%TO.C,C3*%
X167200000Y-89740000D03*
X167200000Y-90700000D03*
%TD*%
D30*
%TO.C,Q3*%
X128937500Y-82850000D03*
X128937500Y-80950000D03*
X127062500Y-81900000D03*
%TD*%
D25*
%TO.C,R11*%
X129900000Y-88390000D03*
X129900000Y-89410000D03*
%TD*%
D31*
%TO.C,U1*%
X135305000Y-87900000D03*
X134035000Y-87900000D03*
X132765000Y-87900000D03*
X131495000Y-87900000D03*
X131495000Y-93300000D03*
X132765000Y-93300000D03*
X134035000Y-93300000D03*
X135305000Y-93300000D03*
D32*
X133400000Y-90600000D03*
%TD*%
D16*
%TO.C,C4*%
X167200000Y-92660000D03*
X167200000Y-91700000D03*
%TD*%
%TO.C,C1*%
X168000000Y-85280000D03*
X168000000Y-84320000D03*
%TD*%
D33*
%TO.C,C15*%
X139700000Y-72450000D03*
X139700000Y-70900000D03*
%TD*%
D18*
%TO.C,R14*%
X158300000Y-75510000D03*
X158300000Y-74490000D03*
%TD*%
D33*
%TO.C,C17*%
X128900000Y-73975000D03*
X128900000Y-72425000D03*
%TD*%
D17*
%TO.C,C14*%
X146200000Y-95020000D03*
X146200000Y-95980000D03*
%TD*%
D34*
%TO.C,C23*%
X162112500Y-68300000D03*
X160562500Y-68300000D03*
%TD*%
D33*
%TO.C,C18*%
X128900000Y-77175000D03*
X128900000Y-75625000D03*
%TD*%
D14*
%TO.C,C21*%
X141240000Y-89850000D03*
X142200000Y-89850000D03*
%TD*%
D35*
%TO.C,R1*%
X163290000Y-97300000D03*
X164310000Y-97300000D03*
%TD*%
%TO.C,R15*%
X157290000Y-73400000D03*
X158310000Y-73400000D03*
%TD*%
D28*
%TO.C,Q2*%
X159925000Y-73550000D03*
X159925000Y-75450000D03*
X161800000Y-74500000D03*
%TD*%
D35*
%TO.C,R13*%
X157290000Y-69700000D03*
X158310000Y-69700000D03*
%TD*%
D36*
%TO.C,U4*%
X131150000Y-72000000D03*
X131150000Y-74300000D03*
D37*
X137450000Y-74300000D03*
D36*
X131150000Y-76600000D03*
%TD*%
D14*
%TO.C,C13*%
X164020000Y-82500000D03*
X164980000Y-82500000D03*
%TD*%
D38*
%TO.C,C16*%
X134250000Y-96100000D03*
X132350000Y-96100000D03*
%TD*%
D35*
%TO.C,R2*%
X147790000Y-97300000D03*
X148810000Y-97300000D03*
%TD*%
D27*
%TO.C,D3*%
X152462500Y-69200000D03*
X154337500Y-69200000D03*
%TD*%
D39*
%TO.C,X1*%
X165700000Y-86900000D03*
X165700000Y-84700000D03*
%TD*%
D13*
%TO.C,R9*%
X133810000Y-69800000D03*
X132790000Y-69800000D03*
%TD*%
D40*
%TO.C,U7*%
X161875000Y-93900000D03*
X161875000Y-93400000D03*
X161875000Y-92900000D03*
X161875000Y-92400000D03*
X161875000Y-91900000D03*
X161875000Y-91400000D03*
X161875000Y-90900000D03*
X161875000Y-90400000D03*
X161875000Y-89900000D03*
X161875000Y-89400000D03*
X161875000Y-88900000D03*
X161875000Y-88400000D03*
X161875000Y-87900000D03*
X161875000Y-87400000D03*
X161875000Y-86900000D03*
X161875000Y-86400000D03*
X161875000Y-85900000D03*
X161875000Y-85400000D03*
X161875000Y-84900000D03*
X161875000Y-84400000D03*
X161875000Y-83900000D03*
X161875000Y-83400000D03*
X161875000Y-82900000D03*
X161875000Y-82400000D03*
X161875000Y-81900000D03*
D41*
X160200000Y-80225000D03*
X159700000Y-80225000D03*
X159200000Y-80225000D03*
X158700000Y-80225000D03*
X158200000Y-80225000D03*
X157700000Y-80225000D03*
X157200000Y-80225000D03*
X156700000Y-80225000D03*
X156200000Y-80225000D03*
X155700000Y-80225000D03*
X155200000Y-80225000D03*
X154700000Y-80225000D03*
X154200000Y-80225000D03*
X153700000Y-80225000D03*
X153200000Y-80225000D03*
X152700000Y-80225000D03*
X152200000Y-80225000D03*
X151700000Y-80225000D03*
X151200000Y-80225000D03*
X150700000Y-80225000D03*
X150200000Y-80225000D03*
X149700000Y-80225000D03*
X149200000Y-80225000D03*
X148700000Y-80225000D03*
X148200000Y-80225000D03*
D40*
X146525000Y-81900000D03*
X146525000Y-82400000D03*
X146525000Y-82900000D03*
X146525000Y-83400000D03*
X146525000Y-83900000D03*
X146525000Y-84400000D03*
X146525000Y-84900000D03*
X146525000Y-85400000D03*
X146525000Y-85900000D03*
X146525000Y-86400000D03*
X146525000Y-86900000D03*
X146525000Y-87400000D03*
X146525000Y-87900000D03*
X146525000Y-88400000D03*
X146525000Y-88900000D03*
X146525000Y-89400000D03*
X146525000Y-89900000D03*
X146525000Y-90400000D03*
X146525000Y-90900000D03*
X146525000Y-91400000D03*
X146525000Y-91900000D03*
X146525000Y-92400000D03*
X146525000Y-92900000D03*
X146525000Y-93400000D03*
X146525000Y-93900000D03*
D41*
X148200000Y-95575000D03*
X148700000Y-95575000D03*
X149200000Y-95575000D03*
X149700000Y-95575000D03*
X150200000Y-95575000D03*
X150700000Y-95575000D03*
X151200000Y-95575000D03*
X151700000Y-95575000D03*
X152200000Y-95575000D03*
X152700000Y-95575000D03*
X153200000Y-95575000D03*
X153700000Y-95575000D03*
X154200000Y-95575000D03*
X154700000Y-95575000D03*
X155200000Y-95575000D03*
X155700000Y-95575000D03*
X156200000Y-95575000D03*
X156700000Y-95575000D03*
X157200000Y-95575000D03*
X157700000Y-95575000D03*
X158200000Y-95575000D03*
X158700000Y-95575000D03*
X159200000Y-95575000D03*
X159700000Y-95575000D03*
X160200000Y-95575000D03*
%TD*%
D13*
%TO.C,R3*%
X152210000Y-97300000D03*
X151190000Y-97300000D03*
%TD*%
D42*
%TO.C,L1*%
X137250000Y-81900000D03*
X131550000Y-81900000D03*
%TD*%
D43*
%TO.C,D2*%
X126312500Y-70200000D03*
X128187500Y-70200000D03*
%TD*%
D44*
%TO.C,X2*%
X165500000Y-89950000D03*
X165500000Y-92450000D03*
%TD*%
D45*
%TO.C,D5*%
X127212500Y-79300000D03*
X128787500Y-79300000D03*
%TD*%
D46*
%TO.C,C20*%
X135025000Y-69900000D03*
X136575000Y-69900000D03*
%TD*%
D17*
%TO.C,C12*%
X138500000Y-96420000D03*
X138500000Y-97380000D03*
%TD*%
D34*
%TO.C,C24*%
X162137500Y-77100000D03*
X160587500Y-77100000D03*
%TD*%
M02*
