%TF.GenerationSoftware,KiCad,Pcbnew,9.0.1*%
%TF.CreationDate,2025-07-01T00:30:54-05:00*%
%TF.ProjectId,CAN-Sensor-Hub-v1,43414e2d-5365-46e7-936f-722d4875622d,rev?*%
%TF.SameCoordinates,Original*%
%TF.FileFunction,Legend,Top*%
%TF.FilePolarity,Positive*%
%FSLAX46Y46*%
G04 Gerber Fmt 4.6, Leading zero omitted, Abs format (unit mm)*
G04 Created by KiCad (PCBNEW 9.0.1) date 2025-07-01 00:30:54*
%MOMM*%
%LPD*%
G01*
G04 APERTURE LIST*
%ADD10C,0.150000*%
%ADD11C,0.120000*%
%ADD12C,0.127000*%
G04 APERTURE END LIST*
D10*
X140172295Y-66566666D02*
X140743723Y-66566666D01*
X140743723Y-66566666D02*
X140858009Y-66604761D01*
X140858009Y-66604761D02*
X140934200Y-66680952D01*
X140934200Y-66680952D02*
X140972295Y-66795237D01*
X140972295Y-66795237D02*
X140972295Y-66871428D01*
X140172295Y-66261904D02*
X140172295Y-65766666D01*
X140172295Y-65766666D02*
X140477057Y-66033332D01*
X140477057Y-66033332D02*
X140477057Y-65919047D01*
X140477057Y-65919047D02*
X140515152Y-65842856D01*
X140515152Y-65842856D02*
X140553247Y-65804761D01*
X140553247Y-65804761D02*
X140629438Y-65766666D01*
X140629438Y-65766666D02*
X140819914Y-65766666D01*
X140819914Y-65766666D02*
X140896104Y-65804761D01*
X140896104Y-65804761D02*
X140934200Y-65842856D01*
X140934200Y-65842856D02*
X140972295Y-65919047D01*
X140972295Y-65919047D02*
X140972295Y-66147618D01*
X140972295Y-66147618D02*
X140934200Y-66223809D01*
X140934200Y-66223809D02*
X140896104Y-66261904D01*
X139764200Y-67133333D02*
X139802295Y-67019047D01*
X139802295Y-67019047D02*
X139802295Y-66828571D01*
X139802295Y-66828571D02*
X139764200Y-66752380D01*
X139764200Y-66752380D02*
X139726104Y-66714285D01*
X139726104Y-66714285D02*
X139649914Y-66676190D01*
X139649914Y-66676190D02*
X139573723Y-66676190D01*
X139573723Y-66676190D02*
X139497533Y-66714285D01*
X139497533Y-66714285D02*
X139459438Y-66752380D01*
X139459438Y-66752380D02*
X139421342Y-66828571D01*
X139421342Y-66828571D02*
X139383247Y-66980952D01*
X139383247Y-66980952D02*
X139345152Y-67057142D01*
X139345152Y-67057142D02*
X139307057Y-67095237D01*
X139307057Y-67095237D02*
X139230866Y-67133333D01*
X139230866Y-67133333D02*
X139154676Y-67133333D01*
X139154676Y-67133333D02*
X139078485Y-67095237D01*
X139078485Y-67095237D02*
X139040390Y-67057142D01*
X139040390Y-67057142D02*
X139002295Y-66980952D01*
X139002295Y-66980952D02*
X139002295Y-66790475D01*
X139002295Y-66790475D02*
X139040390Y-66676190D01*
X139726104Y-65876189D02*
X139764200Y-65914285D01*
X139764200Y-65914285D02*
X139802295Y-66028570D01*
X139802295Y-66028570D02*
X139802295Y-66104761D01*
X139802295Y-66104761D02*
X139764200Y-66219047D01*
X139764200Y-66219047D02*
X139688009Y-66295237D01*
X139688009Y-66295237D02*
X139611819Y-66333332D01*
X139611819Y-66333332D02*
X139459438Y-66371428D01*
X139459438Y-66371428D02*
X139345152Y-66371428D01*
X139345152Y-66371428D02*
X139192771Y-66333332D01*
X139192771Y-66333332D02*
X139116580Y-66295237D01*
X139116580Y-66295237D02*
X139040390Y-66219047D01*
X139040390Y-66219047D02*
X139002295Y-66104761D01*
X139002295Y-66104761D02*
X139002295Y-66028570D01*
X139002295Y-66028570D02*
X139040390Y-65914285D01*
X139040390Y-65914285D02*
X139078485Y-65876189D01*
X139802295Y-65152380D02*
X139802295Y-65533332D01*
X139802295Y-65533332D02*
X139002295Y-65533332D01*
X139002295Y-64961904D02*
X139002295Y-64466666D01*
X139002295Y-64466666D02*
X139307057Y-64733332D01*
X139307057Y-64733332D02*
X139307057Y-64619047D01*
X139307057Y-64619047D02*
X139345152Y-64542856D01*
X139345152Y-64542856D02*
X139383247Y-64504761D01*
X139383247Y-64504761D02*
X139459438Y-64466666D01*
X139459438Y-64466666D02*
X139649914Y-64466666D01*
X139649914Y-64466666D02*
X139726104Y-64504761D01*
X139726104Y-64504761D02*
X139764200Y-64542856D01*
X139764200Y-64542856D02*
X139802295Y-64619047D01*
X139802295Y-64619047D02*
X139802295Y-64847618D01*
X139802295Y-64847618D02*
X139764200Y-64923809D01*
X139764200Y-64923809D02*
X139726104Y-64961904D01*
X140297618Y-68704200D02*
X140411904Y-68742295D01*
X140411904Y-68742295D02*
X140602380Y-68742295D01*
X140602380Y-68742295D02*
X140678571Y-68704200D01*
X140678571Y-68704200D02*
X140716666Y-68666104D01*
X140716666Y-68666104D02*
X140754761Y-68589914D01*
X140754761Y-68589914D02*
X140754761Y-68513723D01*
X140754761Y-68513723D02*
X140716666Y-68437533D01*
X140716666Y-68437533D02*
X140678571Y-68399438D01*
X140678571Y-68399438D02*
X140602380Y-68361342D01*
X140602380Y-68361342D02*
X140449999Y-68323247D01*
X140449999Y-68323247D02*
X140373809Y-68285152D01*
X140373809Y-68285152D02*
X140335714Y-68247057D01*
X140335714Y-68247057D02*
X140297618Y-68170866D01*
X140297618Y-68170866D02*
X140297618Y-68094676D01*
X140297618Y-68094676D02*
X140335714Y-68018485D01*
X140335714Y-68018485D02*
X140373809Y-67980390D01*
X140373809Y-67980390D02*
X140449999Y-67942295D01*
X140449999Y-67942295D02*
X140640476Y-67942295D01*
X140640476Y-67942295D02*
X140754761Y-67980390D01*
X141097619Y-68742295D02*
X141097619Y-67942295D01*
X141097619Y-67942295D02*
X141288095Y-67942295D01*
X141288095Y-67942295D02*
X141402381Y-67980390D01*
X141402381Y-67980390D02*
X141478571Y-68056580D01*
X141478571Y-68056580D02*
X141516666Y-68132771D01*
X141516666Y-68132771D02*
X141554762Y-68285152D01*
X141554762Y-68285152D02*
X141554762Y-68399438D01*
X141554762Y-68399438D02*
X141516666Y-68551819D01*
X141516666Y-68551819D02*
X141478571Y-68628009D01*
X141478571Y-68628009D02*
X141402381Y-68704200D01*
X141402381Y-68704200D02*
X141288095Y-68742295D01*
X141288095Y-68742295D02*
X141097619Y-68742295D01*
X141859523Y-68513723D02*
X142240476Y-68513723D01*
X141783333Y-68742295D02*
X142050000Y-67942295D01*
X142050000Y-67942295D02*
X142316666Y-68742295D01*
X142507142Y-67942295D02*
X143002380Y-67942295D01*
X143002380Y-67942295D02*
X142735714Y-68247057D01*
X142735714Y-68247057D02*
X142849999Y-68247057D01*
X142849999Y-68247057D02*
X142926190Y-68285152D01*
X142926190Y-68285152D02*
X142964285Y-68323247D01*
X142964285Y-68323247D02*
X143002380Y-68399438D01*
X143002380Y-68399438D02*
X143002380Y-68589914D01*
X143002380Y-68589914D02*
X142964285Y-68666104D01*
X142964285Y-68666104D02*
X142926190Y-68704200D01*
X142926190Y-68704200D02*
X142849999Y-68742295D01*
X142849999Y-68742295D02*
X142621428Y-68742295D01*
X142621428Y-68742295D02*
X142545237Y-68704200D01*
X142545237Y-68704200D02*
X142507142Y-68666104D01*
X147056666Y-68794200D02*
X147170952Y-68832295D01*
X147170952Y-68832295D02*
X147361428Y-68832295D01*
X147361428Y-68832295D02*
X147437619Y-68794200D01*
X147437619Y-68794200D02*
X147475714Y-68756104D01*
X147475714Y-68756104D02*
X147513809Y-68679914D01*
X147513809Y-68679914D02*
X147513809Y-68603723D01*
X147513809Y-68603723D02*
X147475714Y-68527533D01*
X147475714Y-68527533D02*
X147437619Y-68489438D01*
X147437619Y-68489438D02*
X147361428Y-68451342D01*
X147361428Y-68451342D02*
X147209047Y-68413247D01*
X147209047Y-68413247D02*
X147132857Y-68375152D01*
X147132857Y-68375152D02*
X147094762Y-68337057D01*
X147094762Y-68337057D02*
X147056666Y-68260866D01*
X147056666Y-68260866D02*
X147056666Y-68184676D01*
X147056666Y-68184676D02*
X147094762Y-68108485D01*
X147094762Y-68108485D02*
X147132857Y-68070390D01*
X147132857Y-68070390D02*
X147209047Y-68032295D01*
X147209047Y-68032295D02*
X147399524Y-68032295D01*
X147399524Y-68032295D02*
X147513809Y-68070390D01*
X148313810Y-68756104D02*
X148275714Y-68794200D01*
X148275714Y-68794200D02*
X148161429Y-68832295D01*
X148161429Y-68832295D02*
X148085238Y-68832295D01*
X148085238Y-68832295D02*
X147970952Y-68794200D01*
X147970952Y-68794200D02*
X147894762Y-68718009D01*
X147894762Y-68718009D02*
X147856667Y-68641819D01*
X147856667Y-68641819D02*
X147818571Y-68489438D01*
X147818571Y-68489438D02*
X147818571Y-68375152D01*
X147818571Y-68375152D02*
X147856667Y-68222771D01*
X147856667Y-68222771D02*
X147894762Y-68146580D01*
X147894762Y-68146580D02*
X147970952Y-68070390D01*
X147970952Y-68070390D02*
X148085238Y-68032295D01*
X148085238Y-68032295D02*
X148161429Y-68032295D01*
X148161429Y-68032295D02*
X148275714Y-68070390D01*
X148275714Y-68070390D02*
X148313810Y-68108485D01*
X149037619Y-68832295D02*
X148656667Y-68832295D01*
X148656667Y-68832295D02*
X148656667Y-68032295D01*
X149266190Y-68108485D02*
X149304286Y-68070390D01*
X149304286Y-68070390D02*
X149380476Y-68032295D01*
X149380476Y-68032295D02*
X149570952Y-68032295D01*
X149570952Y-68032295D02*
X149647143Y-68070390D01*
X149647143Y-68070390D02*
X149685238Y-68108485D01*
X149685238Y-68108485D02*
X149723333Y-68184676D01*
X149723333Y-68184676D02*
X149723333Y-68260866D01*
X149723333Y-68260866D02*
X149685238Y-68375152D01*
X149685238Y-68375152D02*
X149228095Y-68832295D01*
X149228095Y-68832295D02*
X149723333Y-68832295D01*
X145817618Y-66704200D02*
X145931904Y-66742295D01*
X145931904Y-66742295D02*
X146122380Y-66742295D01*
X146122380Y-66742295D02*
X146198571Y-66704200D01*
X146198571Y-66704200D02*
X146236666Y-66666104D01*
X146236666Y-66666104D02*
X146274761Y-66589914D01*
X146274761Y-66589914D02*
X146274761Y-66513723D01*
X146274761Y-66513723D02*
X146236666Y-66437533D01*
X146236666Y-66437533D02*
X146198571Y-66399438D01*
X146198571Y-66399438D02*
X146122380Y-66361342D01*
X146122380Y-66361342D02*
X145969999Y-66323247D01*
X145969999Y-66323247D02*
X145893809Y-66285152D01*
X145893809Y-66285152D02*
X145855714Y-66247057D01*
X145855714Y-66247057D02*
X145817618Y-66170866D01*
X145817618Y-66170866D02*
X145817618Y-66094676D01*
X145817618Y-66094676D02*
X145855714Y-66018485D01*
X145855714Y-66018485D02*
X145893809Y-65980390D01*
X145893809Y-65980390D02*
X145969999Y-65942295D01*
X145969999Y-65942295D02*
X146160476Y-65942295D01*
X146160476Y-65942295D02*
X146274761Y-65980390D01*
X146617619Y-66742295D02*
X146617619Y-65942295D01*
X146617619Y-65942295D02*
X146808095Y-65942295D01*
X146808095Y-65942295D02*
X146922381Y-65980390D01*
X146922381Y-65980390D02*
X146998571Y-66056580D01*
X146998571Y-66056580D02*
X147036666Y-66132771D01*
X147036666Y-66132771D02*
X147074762Y-66285152D01*
X147074762Y-66285152D02*
X147074762Y-66399438D01*
X147074762Y-66399438D02*
X147036666Y-66551819D01*
X147036666Y-66551819D02*
X146998571Y-66628009D01*
X146998571Y-66628009D02*
X146922381Y-66704200D01*
X146922381Y-66704200D02*
X146808095Y-66742295D01*
X146808095Y-66742295D02*
X146617619Y-66742295D01*
X147379523Y-66513723D02*
X147760476Y-66513723D01*
X147303333Y-66742295D02*
X147570000Y-65942295D01*
X147570000Y-65942295D02*
X147836666Y-66742295D01*
X148065237Y-66018485D02*
X148103333Y-65980390D01*
X148103333Y-65980390D02*
X148179523Y-65942295D01*
X148179523Y-65942295D02*
X148369999Y-65942295D01*
X148369999Y-65942295D02*
X148446190Y-65980390D01*
X148446190Y-65980390D02*
X148484285Y-66018485D01*
X148484285Y-66018485D02*
X148522380Y-66094676D01*
X148522380Y-66094676D02*
X148522380Y-66170866D01*
X148522380Y-66170866D02*
X148484285Y-66285152D01*
X148484285Y-66285152D02*
X148027142Y-66742295D01*
X148027142Y-66742295D02*
X148522380Y-66742295D01*
X140312295Y-75240476D02*
X140312295Y-74745238D01*
X140312295Y-74745238D02*
X140617057Y-75011904D01*
X140617057Y-75011904D02*
X140617057Y-74897619D01*
X140617057Y-74897619D02*
X140655152Y-74821428D01*
X140655152Y-74821428D02*
X140693247Y-74783333D01*
X140693247Y-74783333D02*
X140769438Y-74745238D01*
X140769438Y-74745238D02*
X140959914Y-74745238D01*
X140959914Y-74745238D02*
X141036104Y-74783333D01*
X141036104Y-74783333D02*
X141074200Y-74821428D01*
X141074200Y-74821428D02*
X141112295Y-74897619D01*
X141112295Y-74897619D02*
X141112295Y-75126190D01*
X141112295Y-75126190D02*
X141074200Y-75202381D01*
X141074200Y-75202381D02*
X141036104Y-75240476D01*
X140312295Y-74516666D02*
X141112295Y-74249999D01*
X141112295Y-74249999D02*
X140312295Y-73983333D01*
X140312295Y-73792857D02*
X140312295Y-73297619D01*
X140312295Y-73297619D02*
X140617057Y-73564285D01*
X140617057Y-73564285D02*
X140617057Y-73450000D01*
X140617057Y-73450000D02*
X140655152Y-73373809D01*
X140655152Y-73373809D02*
X140693247Y-73335714D01*
X140693247Y-73335714D02*
X140769438Y-73297619D01*
X140769438Y-73297619D02*
X140959914Y-73297619D01*
X140959914Y-73297619D02*
X141036104Y-73335714D01*
X141036104Y-73335714D02*
X141074200Y-73373809D01*
X141074200Y-73373809D02*
X141112295Y-73450000D01*
X141112295Y-73450000D02*
X141112295Y-73678571D01*
X141112295Y-73678571D02*
X141074200Y-73754762D01*
X141074200Y-73754762D02*
X141036104Y-73792857D01*
X125647619Y-77502295D02*
X125266667Y-77502295D01*
X125266667Y-77502295D02*
X125228571Y-77883247D01*
X125228571Y-77883247D02*
X125266667Y-77845152D01*
X125266667Y-77845152D02*
X125342857Y-77807057D01*
X125342857Y-77807057D02*
X125533333Y-77807057D01*
X125533333Y-77807057D02*
X125609524Y-77845152D01*
X125609524Y-77845152D02*
X125647619Y-77883247D01*
X125647619Y-77883247D02*
X125685714Y-77959438D01*
X125685714Y-77959438D02*
X125685714Y-78149914D01*
X125685714Y-78149914D02*
X125647619Y-78226104D01*
X125647619Y-78226104D02*
X125609524Y-78264200D01*
X125609524Y-78264200D02*
X125533333Y-78302295D01*
X125533333Y-78302295D02*
X125342857Y-78302295D01*
X125342857Y-78302295D02*
X125266667Y-78264200D01*
X125266667Y-78264200D02*
X125228571Y-78226104D01*
X125914286Y-77502295D02*
X126180953Y-78302295D01*
X126180953Y-78302295D02*
X126447619Y-77502295D01*
X126233333Y-90579580D02*
X126185714Y-90627200D01*
X126185714Y-90627200D02*
X126042857Y-90674819D01*
X126042857Y-90674819D02*
X125947619Y-90674819D01*
X125947619Y-90674819D02*
X125804762Y-90627200D01*
X125804762Y-90627200D02*
X125709524Y-90531961D01*
X125709524Y-90531961D02*
X125661905Y-90436723D01*
X125661905Y-90436723D02*
X125614286Y-90246247D01*
X125614286Y-90246247D02*
X125614286Y-90103390D01*
X125614286Y-90103390D02*
X125661905Y-89912914D01*
X125661905Y-89912914D02*
X125709524Y-89817676D01*
X125709524Y-89817676D02*
X125804762Y-89722438D01*
X125804762Y-89722438D02*
X125947619Y-89674819D01*
X125947619Y-89674819D02*
X126042857Y-89674819D01*
X126042857Y-89674819D02*
X126185714Y-89722438D01*
X126185714Y-89722438D02*
X126233333Y-89770057D01*
X126566667Y-89674819D02*
X127233333Y-89674819D01*
X127233333Y-89674819D02*
X126804762Y-90674819D01*
X143992380Y-76392295D02*
X143992380Y-76963723D01*
X143992380Y-76963723D02*
X143954285Y-77078009D01*
X143954285Y-77078009D02*
X143878094Y-77154200D01*
X143878094Y-77154200D02*
X143763809Y-77192295D01*
X143763809Y-77192295D02*
X143687618Y-77192295D01*
X144792380Y-77192295D02*
X144335237Y-77192295D01*
X144563809Y-77192295D02*
X144563809Y-76392295D01*
X144563809Y-76392295D02*
X144487618Y-76506580D01*
X144487618Y-76506580D02*
X144411428Y-76582771D01*
X144411428Y-76582771D02*
X144335237Y-76620866D01*
X145554285Y-77192295D02*
X145097142Y-77192295D01*
X145325714Y-77192295D02*
X145325714Y-76392295D01*
X145325714Y-76392295D02*
X145249523Y-76506580D01*
X145249523Y-76506580D02*
X145173333Y-76582771D01*
X145173333Y-76582771D02*
X145097142Y-76620866D01*
X133366667Y-86612295D02*
X133100000Y-86231342D01*
X132909524Y-86612295D02*
X132909524Y-85812295D01*
X132909524Y-85812295D02*
X133214286Y-85812295D01*
X133214286Y-85812295D02*
X133290476Y-85850390D01*
X133290476Y-85850390D02*
X133328571Y-85888485D01*
X133328571Y-85888485D02*
X133366667Y-85964676D01*
X133366667Y-85964676D02*
X133366667Y-86078961D01*
X133366667Y-86078961D02*
X133328571Y-86155152D01*
X133328571Y-86155152D02*
X133290476Y-86193247D01*
X133290476Y-86193247D02*
X133214286Y-86231342D01*
X133214286Y-86231342D02*
X132909524Y-86231342D01*
X133823809Y-86155152D02*
X133747619Y-86117057D01*
X133747619Y-86117057D02*
X133709524Y-86078961D01*
X133709524Y-86078961D02*
X133671428Y-86002771D01*
X133671428Y-86002771D02*
X133671428Y-85964676D01*
X133671428Y-85964676D02*
X133709524Y-85888485D01*
X133709524Y-85888485D02*
X133747619Y-85850390D01*
X133747619Y-85850390D02*
X133823809Y-85812295D01*
X133823809Y-85812295D02*
X133976190Y-85812295D01*
X133976190Y-85812295D02*
X134052381Y-85850390D01*
X134052381Y-85850390D02*
X134090476Y-85888485D01*
X134090476Y-85888485D02*
X134128571Y-85964676D01*
X134128571Y-85964676D02*
X134128571Y-86002771D01*
X134128571Y-86002771D02*
X134090476Y-86078961D01*
X134090476Y-86078961D02*
X134052381Y-86117057D01*
X134052381Y-86117057D02*
X133976190Y-86155152D01*
X133976190Y-86155152D02*
X133823809Y-86155152D01*
X133823809Y-86155152D02*
X133747619Y-86193247D01*
X133747619Y-86193247D02*
X133709524Y-86231342D01*
X133709524Y-86231342D02*
X133671428Y-86307533D01*
X133671428Y-86307533D02*
X133671428Y-86459914D01*
X133671428Y-86459914D02*
X133709524Y-86536104D01*
X133709524Y-86536104D02*
X133747619Y-86574200D01*
X133747619Y-86574200D02*
X133823809Y-86612295D01*
X133823809Y-86612295D02*
X133976190Y-86612295D01*
X133976190Y-86612295D02*
X134052381Y-86574200D01*
X134052381Y-86574200D02*
X134090476Y-86536104D01*
X134090476Y-86536104D02*
X134128571Y-86459914D01*
X134128571Y-86459914D02*
X134128571Y-86307533D01*
X134128571Y-86307533D02*
X134090476Y-86231342D01*
X134090476Y-86231342D02*
X134052381Y-86193247D01*
X134052381Y-86193247D02*
X133976190Y-86155152D01*
X146555714Y-67706104D02*
X146517618Y-67744200D01*
X146517618Y-67744200D02*
X146403333Y-67782295D01*
X146403333Y-67782295D02*
X146327142Y-67782295D01*
X146327142Y-67782295D02*
X146212856Y-67744200D01*
X146212856Y-67744200D02*
X146136666Y-67668009D01*
X146136666Y-67668009D02*
X146098571Y-67591819D01*
X146098571Y-67591819D02*
X146060475Y-67439438D01*
X146060475Y-67439438D02*
X146060475Y-67325152D01*
X146060475Y-67325152D02*
X146098571Y-67172771D01*
X146098571Y-67172771D02*
X146136666Y-67096580D01*
X146136666Y-67096580D02*
X146212856Y-67020390D01*
X146212856Y-67020390D02*
X146327142Y-66982295D01*
X146327142Y-66982295D02*
X146403333Y-66982295D01*
X146403333Y-66982295D02*
X146517618Y-67020390D01*
X146517618Y-67020390D02*
X146555714Y-67058485D01*
X146860475Y-67058485D02*
X146898571Y-67020390D01*
X146898571Y-67020390D02*
X146974761Y-66982295D01*
X146974761Y-66982295D02*
X147165237Y-66982295D01*
X147165237Y-66982295D02*
X147241428Y-67020390D01*
X147241428Y-67020390D02*
X147279523Y-67058485D01*
X147279523Y-67058485D02*
X147317618Y-67134676D01*
X147317618Y-67134676D02*
X147317618Y-67210866D01*
X147317618Y-67210866D02*
X147279523Y-67325152D01*
X147279523Y-67325152D02*
X146822380Y-67782295D01*
X146822380Y-67782295D02*
X147317618Y-67782295D01*
X148003333Y-66982295D02*
X147850952Y-66982295D01*
X147850952Y-66982295D02*
X147774761Y-67020390D01*
X147774761Y-67020390D02*
X147736666Y-67058485D01*
X147736666Y-67058485D02*
X147660476Y-67172771D01*
X147660476Y-67172771D02*
X147622380Y-67325152D01*
X147622380Y-67325152D02*
X147622380Y-67629914D01*
X147622380Y-67629914D02*
X147660476Y-67706104D01*
X147660476Y-67706104D02*
X147698571Y-67744200D01*
X147698571Y-67744200D02*
X147774761Y-67782295D01*
X147774761Y-67782295D02*
X147927142Y-67782295D01*
X147927142Y-67782295D02*
X148003333Y-67744200D01*
X148003333Y-67744200D02*
X148041428Y-67706104D01*
X148041428Y-67706104D02*
X148079523Y-67629914D01*
X148079523Y-67629914D02*
X148079523Y-67439438D01*
X148079523Y-67439438D02*
X148041428Y-67363247D01*
X148041428Y-67363247D02*
X148003333Y-67325152D01*
X148003333Y-67325152D02*
X147927142Y-67287057D01*
X147927142Y-67287057D02*
X147774761Y-67287057D01*
X147774761Y-67287057D02*
X147698571Y-67325152D01*
X147698571Y-67325152D02*
X147660476Y-67363247D01*
X147660476Y-67363247D02*
X147622380Y-67439438D01*
X149705714Y-67686104D02*
X149667618Y-67724200D01*
X149667618Y-67724200D02*
X149553333Y-67762295D01*
X149553333Y-67762295D02*
X149477142Y-67762295D01*
X149477142Y-67762295D02*
X149362856Y-67724200D01*
X149362856Y-67724200D02*
X149286666Y-67648009D01*
X149286666Y-67648009D02*
X149248571Y-67571819D01*
X149248571Y-67571819D02*
X149210475Y-67419438D01*
X149210475Y-67419438D02*
X149210475Y-67305152D01*
X149210475Y-67305152D02*
X149248571Y-67152771D01*
X149248571Y-67152771D02*
X149286666Y-67076580D01*
X149286666Y-67076580D02*
X149362856Y-67000390D01*
X149362856Y-67000390D02*
X149477142Y-66962295D01*
X149477142Y-66962295D02*
X149553333Y-66962295D01*
X149553333Y-66962295D02*
X149667618Y-67000390D01*
X149667618Y-67000390D02*
X149705714Y-67038485D01*
X150010475Y-67038485D02*
X150048571Y-67000390D01*
X150048571Y-67000390D02*
X150124761Y-66962295D01*
X150124761Y-66962295D02*
X150315237Y-66962295D01*
X150315237Y-66962295D02*
X150391428Y-67000390D01*
X150391428Y-67000390D02*
X150429523Y-67038485D01*
X150429523Y-67038485D02*
X150467618Y-67114676D01*
X150467618Y-67114676D02*
X150467618Y-67190866D01*
X150467618Y-67190866D02*
X150429523Y-67305152D01*
X150429523Y-67305152D02*
X149972380Y-67762295D01*
X149972380Y-67762295D02*
X150467618Y-67762295D01*
X151191428Y-66962295D02*
X150810476Y-66962295D01*
X150810476Y-66962295D02*
X150772380Y-67343247D01*
X150772380Y-67343247D02*
X150810476Y-67305152D01*
X150810476Y-67305152D02*
X150886666Y-67267057D01*
X150886666Y-67267057D02*
X151077142Y-67267057D01*
X151077142Y-67267057D02*
X151153333Y-67305152D01*
X151153333Y-67305152D02*
X151191428Y-67343247D01*
X151191428Y-67343247D02*
X151229523Y-67419438D01*
X151229523Y-67419438D02*
X151229523Y-67609914D01*
X151229523Y-67609914D02*
X151191428Y-67686104D01*
X151191428Y-67686104D02*
X151153333Y-67724200D01*
X151153333Y-67724200D02*
X151077142Y-67762295D01*
X151077142Y-67762295D02*
X150886666Y-67762295D01*
X150886666Y-67762295D02*
X150810476Y-67724200D01*
X150810476Y-67724200D02*
X150772380Y-67686104D01*
X155566104Y-65544285D02*
X155604200Y-65582381D01*
X155604200Y-65582381D02*
X155642295Y-65696666D01*
X155642295Y-65696666D02*
X155642295Y-65772857D01*
X155642295Y-65772857D02*
X155604200Y-65887143D01*
X155604200Y-65887143D02*
X155528009Y-65963333D01*
X155528009Y-65963333D02*
X155451819Y-66001428D01*
X155451819Y-66001428D02*
X155299438Y-66039524D01*
X155299438Y-66039524D02*
X155185152Y-66039524D01*
X155185152Y-66039524D02*
X155032771Y-66001428D01*
X155032771Y-66001428D02*
X154956580Y-65963333D01*
X154956580Y-65963333D02*
X154880390Y-65887143D01*
X154880390Y-65887143D02*
X154842295Y-65772857D01*
X154842295Y-65772857D02*
X154842295Y-65696666D01*
X154842295Y-65696666D02*
X154880390Y-65582381D01*
X154880390Y-65582381D02*
X154918485Y-65544285D01*
X154918485Y-65239524D02*
X154880390Y-65201428D01*
X154880390Y-65201428D02*
X154842295Y-65125238D01*
X154842295Y-65125238D02*
X154842295Y-64934762D01*
X154842295Y-64934762D02*
X154880390Y-64858571D01*
X154880390Y-64858571D02*
X154918485Y-64820476D01*
X154918485Y-64820476D02*
X154994676Y-64782381D01*
X154994676Y-64782381D02*
X155070866Y-64782381D01*
X155070866Y-64782381D02*
X155185152Y-64820476D01*
X155185152Y-64820476D02*
X155642295Y-65277619D01*
X155642295Y-65277619D02*
X155642295Y-64782381D01*
X154918485Y-64477619D02*
X154880390Y-64439523D01*
X154880390Y-64439523D02*
X154842295Y-64363333D01*
X154842295Y-64363333D02*
X154842295Y-64172857D01*
X154842295Y-64172857D02*
X154880390Y-64096666D01*
X154880390Y-64096666D02*
X154918485Y-64058571D01*
X154918485Y-64058571D02*
X154994676Y-64020476D01*
X154994676Y-64020476D02*
X155070866Y-64020476D01*
X155070866Y-64020476D02*
X155185152Y-64058571D01*
X155185152Y-64058571D02*
X155642295Y-64515714D01*
X155642295Y-64515714D02*
X155642295Y-64020476D01*
X156273333Y-66032295D02*
X156273333Y-66603723D01*
X156273333Y-66603723D02*
X156235238Y-66718009D01*
X156235238Y-66718009D02*
X156159047Y-66794200D01*
X156159047Y-66794200D02*
X156044762Y-66832295D01*
X156044762Y-66832295D02*
X155968571Y-66832295D01*
X157073333Y-66832295D02*
X156616190Y-66832295D01*
X156844762Y-66832295D02*
X156844762Y-66032295D01*
X156844762Y-66032295D02*
X156768571Y-66146580D01*
X156768571Y-66146580D02*
X156692381Y-66222771D01*
X156692381Y-66222771D02*
X156616190Y-66260866D01*
X147013333Y-63282295D02*
X147013333Y-63853723D01*
X147013333Y-63853723D02*
X146975238Y-63968009D01*
X146975238Y-63968009D02*
X146899047Y-64044200D01*
X146899047Y-64044200D02*
X146784762Y-64082295D01*
X146784762Y-64082295D02*
X146708571Y-64082295D01*
X147356190Y-63358485D02*
X147394286Y-63320390D01*
X147394286Y-63320390D02*
X147470476Y-63282295D01*
X147470476Y-63282295D02*
X147660952Y-63282295D01*
X147660952Y-63282295D02*
X147737143Y-63320390D01*
X147737143Y-63320390D02*
X147775238Y-63358485D01*
X147775238Y-63358485D02*
X147813333Y-63434676D01*
X147813333Y-63434676D02*
X147813333Y-63510866D01*
X147813333Y-63510866D02*
X147775238Y-63625152D01*
X147775238Y-63625152D02*
X147318095Y-64082295D01*
X147318095Y-64082295D02*
X147813333Y-64082295D01*
X150496667Y-78466104D02*
X150458571Y-78504200D01*
X150458571Y-78504200D02*
X150344286Y-78542295D01*
X150344286Y-78542295D02*
X150268095Y-78542295D01*
X150268095Y-78542295D02*
X150153809Y-78504200D01*
X150153809Y-78504200D02*
X150077619Y-78428009D01*
X150077619Y-78428009D02*
X150039524Y-78351819D01*
X150039524Y-78351819D02*
X150001428Y-78199438D01*
X150001428Y-78199438D02*
X150001428Y-78085152D01*
X150001428Y-78085152D02*
X150039524Y-77932771D01*
X150039524Y-77932771D02*
X150077619Y-77856580D01*
X150077619Y-77856580D02*
X150153809Y-77780390D01*
X150153809Y-77780390D02*
X150268095Y-77742295D01*
X150268095Y-77742295D02*
X150344286Y-77742295D01*
X150344286Y-77742295D02*
X150458571Y-77780390D01*
X150458571Y-77780390D02*
X150496667Y-77818485D01*
X150877619Y-78542295D02*
X151030000Y-78542295D01*
X151030000Y-78542295D02*
X151106190Y-78504200D01*
X151106190Y-78504200D02*
X151144286Y-78466104D01*
X151144286Y-78466104D02*
X151220476Y-78351819D01*
X151220476Y-78351819D02*
X151258571Y-78199438D01*
X151258571Y-78199438D02*
X151258571Y-77894676D01*
X151258571Y-77894676D02*
X151220476Y-77818485D01*
X151220476Y-77818485D02*
X151182381Y-77780390D01*
X151182381Y-77780390D02*
X151106190Y-77742295D01*
X151106190Y-77742295D02*
X150953809Y-77742295D01*
X150953809Y-77742295D02*
X150877619Y-77780390D01*
X150877619Y-77780390D02*
X150839524Y-77818485D01*
X150839524Y-77818485D02*
X150801428Y-77894676D01*
X150801428Y-77894676D02*
X150801428Y-78085152D01*
X150801428Y-78085152D02*
X150839524Y-78161342D01*
X150839524Y-78161342D02*
X150877619Y-78199438D01*
X150877619Y-78199438D02*
X150953809Y-78237533D01*
X150953809Y-78237533D02*
X151106190Y-78237533D01*
X151106190Y-78237533D02*
X151182381Y-78199438D01*
X151182381Y-78199438D02*
X151220476Y-78161342D01*
X151220476Y-78161342D02*
X151258571Y-78085152D01*
X145266104Y-90063332D02*
X145304200Y-90101428D01*
X145304200Y-90101428D02*
X145342295Y-90215713D01*
X145342295Y-90215713D02*
X145342295Y-90291904D01*
X145342295Y-90291904D02*
X145304200Y-90406190D01*
X145304200Y-90406190D02*
X145228009Y-90482380D01*
X145228009Y-90482380D02*
X145151819Y-90520475D01*
X145151819Y-90520475D02*
X144999438Y-90558571D01*
X144999438Y-90558571D02*
X144885152Y-90558571D01*
X144885152Y-90558571D02*
X144732771Y-90520475D01*
X144732771Y-90520475D02*
X144656580Y-90482380D01*
X144656580Y-90482380D02*
X144580390Y-90406190D01*
X144580390Y-90406190D02*
X144542295Y-90291904D01*
X144542295Y-90291904D02*
X144542295Y-90215713D01*
X144542295Y-90215713D02*
X144580390Y-90101428D01*
X144580390Y-90101428D02*
X144618485Y-90063332D01*
X144885152Y-89606190D02*
X144847057Y-89682380D01*
X144847057Y-89682380D02*
X144808961Y-89720475D01*
X144808961Y-89720475D02*
X144732771Y-89758571D01*
X144732771Y-89758571D02*
X144694676Y-89758571D01*
X144694676Y-89758571D02*
X144618485Y-89720475D01*
X144618485Y-89720475D02*
X144580390Y-89682380D01*
X144580390Y-89682380D02*
X144542295Y-89606190D01*
X144542295Y-89606190D02*
X144542295Y-89453809D01*
X144542295Y-89453809D02*
X144580390Y-89377618D01*
X144580390Y-89377618D02*
X144618485Y-89339523D01*
X144618485Y-89339523D02*
X144694676Y-89301428D01*
X144694676Y-89301428D02*
X144732771Y-89301428D01*
X144732771Y-89301428D02*
X144808961Y-89339523D01*
X144808961Y-89339523D02*
X144847057Y-89377618D01*
X144847057Y-89377618D02*
X144885152Y-89453809D01*
X144885152Y-89453809D02*
X144885152Y-89606190D01*
X144885152Y-89606190D02*
X144923247Y-89682380D01*
X144923247Y-89682380D02*
X144961342Y-89720475D01*
X144961342Y-89720475D02*
X145037533Y-89758571D01*
X145037533Y-89758571D02*
X145189914Y-89758571D01*
X145189914Y-89758571D02*
X145266104Y-89720475D01*
X145266104Y-89720475D02*
X145304200Y-89682380D01*
X145304200Y-89682380D02*
X145342295Y-89606190D01*
X145342295Y-89606190D02*
X145342295Y-89453809D01*
X145342295Y-89453809D02*
X145304200Y-89377618D01*
X145304200Y-89377618D02*
X145266104Y-89339523D01*
X145266104Y-89339523D02*
X145189914Y-89301428D01*
X145189914Y-89301428D02*
X145037533Y-89301428D01*
X145037533Y-89301428D02*
X144961342Y-89339523D01*
X144961342Y-89339523D02*
X144923247Y-89377618D01*
X144923247Y-89377618D02*
X144885152Y-89453809D01*
X162207295Y-80516666D02*
X162778723Y-80516666D01*
X162778723Y-80516666D02*
X162893009Y-80554761D01*
X162893009Y-80554761D02*
X162969200Y-80630952D01*
X162969200Y-80630952D02*
X163007295Y-80745237D01*
X163007295Y-80745237D02*
X163007295Y-80821428D01*
X162207295Y-79792856D02*
X162207295Y-79945237D01*
X162207295Y-79945237D02*
X162245390Y-80021428D01*
X162245390Y-80021428D02*
X162283485Y-80059523D01*
X162283485Y-80059523D02*
X162397771Y-80135713D01*
X162397771Y-80135713D02*
X162550152Y-80173809D01*
X162550152Y-80173809D02*
X162854914Y-80173809D01*
X162854914Y-80173809D02*
X162931104Y-80135713D01*
X162931104Y-80135713D02*
X162969200Y-80097618D01*
X162969200Y-80097618D02*
X163007295Y-80021428D01*
X163007295Y-80021428D02*
X163007295Y-79869047D01*
X163007295Y-79869047D02*
X162969200Y-79792856D01*
X162969200Y-79792856D02*
X162931104Y-79754761D01*
X162931104Y-79754761D02*
X162854914Y-79716666D01*
X162854914Y-79716666D02*
X162664438Y-79716666D01*
X162664438Y-79716666D02*
X162588247Y-79754761D01*
X162588247Y-79754761D02*
X162550152Y-79792856D01*
X162550152Y-79792856D02*
X162512057Y-79869047D01*
X162512057Y-79869047D02*
X162512057Y-80021428D01*
X162512057Y-80021428D02*
X162550152Y-80097618D01*
X162550152Y-80097618D02*
X162588247Y-80135713D01*
X162588247Y-80135713D02*
X162664438Y-80173809D01*
X150322295Y-72763332D02*
X149941342Y-73029999D01*
X150322295Y-73220475D02*
X149522295Y-73220475D01*
X149522295Y-73220475D02*
X149522295Y-72915713D01*
X149522295Y-72915713D02*
X149560390Y-72839523D01*
X149560390Y-72839523D02*
X149598485Y-72801428D01*
X149598485Y-72801428D02*
X149674676Y-72763332D01*
X149674676Y-72763332D02*
X149788961Y-72763332D01*
X149788961Y-72763332D02*
X149865152Y-72801428D01*
X149865152Y-72801428D02*
X149903247Y-72839523D01*
X149903247Y-72839523D02*
X149941342Y-72915713D01*
X149941342Y-72915713D02*
X149941342Y-73220475D01*
X149522295Y-72077618D02*
X149522295Y-72229999D01*
X149522295Y-72229999D02*
X149560390Y-72306190D01*
X149560390Y-72306190D02*
X149598485Y-72344285D01*
X149598485Y-72344285D02*
X149712771Y-72420475D01*
X149712771Y-72420475D02*
X149865152Y-72458571D01*
X149865152Y-72458571D02*
X150169914Y-72458571D01*
X150169914Y-72458571D02*
X150246104Y-72420475D01*
X150246104Y-72420475D02*
X150284200Y-72382380D01*
X150284200Y-72382380D02*
X150322295Y-72306190D01*
X150322295Y-72306190D02*
X150322295Y-72153809D01*
X150322295Y-72153809D02*
X150284200Y-72077618D01*
X150284200Y-72077618D02*
X150246104Y-72039523D01*
X150246104Y-72039523D02*
X150169914Y-72001428D01*
X150169914Y-72001428D02*
X149979438Y-72001428D01*
X149979438Y-72001428D02*
X149903247Y-72039523D01*
X149903247Y-72039523D02*
X149865152Y-72077618D01*
X149865152Y-72077618D02*
X149827057Y-72153809D01*
X149827057Y-72153809D02*
X149827057Y-72306190D01*
X149827057Y-72306190D02*
X149865152Y-72382380D01*
X149865152Y-72382380D02*
X149903247Y-72420475D01*
X149903247Y-72420475D02*
X149979438Y-72458571D01*
X150402295Y-69833332D02*
X150021342Y-70099999D01*
X150402295Y-70290475D02*
X149602295Y-70290475D01*
X149602295Y-70290475D02*
X149602295Y-69985713D01*
X149602295Y-69985713D02*
X149640390Y-69909523D01*
X149640390Y-69909523D02*
X149678485Y-69871428D01*
X149678485Y-69871428D02*
X149754676Y-69833332D01*
X149754676Y-69833332D02*
X149868961Y-69833332D01*
X149868961Y-69833332D02*
X149945152Y-69871428D01*
X149945152Y-69871428D02*
X149983247Y-69909523D01*
X149983247Y-69909523D02*
X150021342Y-69985713D01*
X150021342Y-69985713D02*
X150021342Y-70290475D01*
X149602295Y-69109523D02*
X149602295Y-69490475D01*
X149602295Y-69490475D02*
X149983247Y-69528571D01*
X149983247Y-69528571D02*
X149945152Y-69490475D01*
X149945152Y-69490475D02*
X149907057Y-69414285D01*
X149907057Y-69414285D02*
X149907057Y-69223809D01*
X149907057Y-69223809D02*
X149945152Y-69147618D01*
X149945152Y-69147618D02*
X149983247Y-69109523D01*
X149983247Y-69109523D02*
X150059438Y-69071428D01*
X150059438Y-69071428D02*
X150249914Y-69071428D01*
X150249914Y-69071428D02*
X150326104Y-69109523D01*
X150326104Y-69109523D02*
X150364200Y-69147618D01*
X150364200Y-69147618D02*
X150402295Y-69223809D01*
X150402295Y-69223809D02*
X150402295Y-69414285D01*
X150402295Y-69414285D02*
X150364200Y-69490475D01*
X150364200Y-69490475D02*
X150326104Y-69528571D01*
X126766667Y-74112295D02*
X126500000Y-73731342D01*
X126309524Y-74112295D02*
X126309524Y-73312295D01*
X126309524Y-73312295D02*
X126614286Y-73312295D01*
X126614286Y-73312295D02*
X126690476Y-73350390D01*
X126690476Y-73350390D02*
X126728571Y-73388485D01*
X126728571Y-73388485D02*
X126766667Y-73464676D01*
X126766667Y-73464676D02*
X126766667Y-73578961D01*
X126766667Y-73578961D02*
X126728571Y-73655152D01*
X126728571Y-73655152D02*
X126690476Y-73693247D01*
X126690476Y-73693247D02*
X126614286Y-73731342D01*
X126614286Y-73731342D02*
X126309524Y-73731342D01*
X127452381Y-73578961D02*
X127452381Y-74112295D01*
X127261905Y-73274200D02*
X127071428Y-73845628D01*
X127071428Y-73845628D02*
X127566667Y-73845628D01*
X137733333Y-61062295D02*
X137733333Y-61633723D01*
X137733333Y-61633723D02*
X137695238Y-61748009D01*
X137695238Y-61748009D02*
X137619047Y-61824200D01*
X137619047Y-61824200D02*
X137504762Y-61862295D01*
X137504762Y-61862295D02*
X137428571Y-61862295D01*
X138457143Y-61328961D02*
X138457143Y-61862295D01*
X138266667Y-61024200D02*
X138076190Y-61595628D01*
X138076190Y-61595628D02*
X138571429Y-61595628D01*
X138812295Y-81859523D02*
X139459914Y-81859523D01*
X139459914Y-81859523D02*
X139536104Y-81821428D01*
X139536104Y-81821428D02*
X139574200Y-81783333D01*
X139574200Y-81783333D02*
X139612295Y-81707142D01*
X139612295Y-81707142D02*
X139612295Y-81554761D01*
X139612295Y-81554761D02*
X139574200Y-81478571D01*
X139574200Y-81478571D02*
X139536104Y-81440476D01*
X139536104Y-81440476D02*
X139459914Y-81402380D01*
X139459914Y-81402380D02*
X138812295Y-81402380D01*
X138812295Y-81097619D02*
X138812295Y-80602381D01*
X138812295Y-80602381D02*
X139117057Y-80869047D01*
X139117057Y-80869047D02*
X139117057Y-80754762D01*
X139117057Y-80754762D02*
X139155152Y-80678571D01*
X139155152Y-80678571D02*
X139193247Y-80640476D01*
X139193247Y-80640476D02*
X139269438Y-80602381D01*
X139269438Y-80602381D02*
X139459914Y-80602381D01*
X139459914Y-80602381D02*
X139536104Y-80640476D01*
X139536104Y-80640476D02*
X139574200Y-80678571D01*
X139574200Y-80678571D02*
X139612295Y-80754762D01*
X139612295Y-80754762D02*
X139612295Y-80983333D01*
X139612295Y-80983333D02*
X139574200Y-81059524D01*
X139574200Y-81059524D02*
X139536104Y-81097619D01*
X145135714Y-78776104D02*
X145097618Y-78814200D01*
X145097618Y-78814200D02*
X144983333Y-78852295D01*
X144983333Y-78852295D02*
X144907142Y-78852295D01*
X144907142Y-78852295D02*
X144792856Y-78814200D01*
X144792856Y-78814200D02*
X144716666Y-78738009D01*
X144716666Y-78738009D02*
X144678571Y-78661819D01*
X144678571Y-78661819D02*
X144640475Y-78509438D01*
X144640475Y-78509438D02*
X144640475Y-78395152D01*
X144640475Y-78395152D02*
X144678571Y-78242771D01*
X144678571Y-78242771D02*
X144716666Y-78166580D01*
X144716666Y-78166580D02*
X144792856Y-78090390D01*
X144792856Y-78090390D02*
X144907142Y-78052295D01*
X144907142Y-78052295D02*
X144983333Y-78052295D01*
X144983333Y-78052295D02*
X145097618Y-78090390D01*
X145097618Y-78090390D02*
X145135714Y-78128485D01*
X145897618Y-78852295D02*
X145440475Y-78852295D01*
X145669047Y-78852295D02*
X145669047Y-78052295D01*
X145669047Y-78052295D02*
X145592856Y-78166580D01*
X145592856Y-78166580D02*
X145516666Y-78242771D01*
X145516666Y-78242771D02*
X145440475Y-78280866D01*
X146392857Y-78052295D02*
X146469047Y-78052295D01*
X146469047Y-78052295D02*
X146545238Y-78090390D01*
X146545238Y-78090390D02*
X146583333Y-78128485D01*
X146583333Y-78128485D02*
X146621428Y-78204676D01*
X146621428Y-78204676D02*
X146659523Y-78357057D01*
X146659523Y-78357057D02*
X146659523Y-78547533D01*
X146659523Y-78547533D02*
X146621428Y-78699914D01*
X146621428Y-78699914D02*
X146583333Y-78776104D01*
X146583333Y-78776104D02*
X146545238Y-78814200D01*
X146545238Y-78814200D02*
X146469047Y-78852295D01*
X146469047Y-78852295D02*
X146392857Y-78852295D01*
X146392857Y-78852295D02*
X146316666Y-78814200D01*
X146316666Y-78814200D02*
X146278571Y-78776104D01*
X146278571Y-78776104D02*
X146240476Y-78699914D01*
X146240476Y-78699914D02*
X146202380Y-78547533D01*
X146202380Y-78547533D02*
X146202380Y-78357057D01*
X146202380Y-78357057D02*
X146240476Y-78204676D01*
X146240476Y-78204676D02*
X146278571Y-78128485D01*
X146278571Y-78128485D02*
X146316666Y-78090390D01*
X146316666Y-78090390D02*
X146392857Y-78052295D01*
X169246104Y-88483332D02*
X169284200Y-88521428D01*
X169284200Y-88521428D02*
X169322295Y-88635713D01*
X169322295Y-88635713D02*
X169322295Y-88711904D01*
X169322295Y-88711904D02*
X169284200Y-88826190D01*
X169284200Y-88826190D02*
X169208009Y-88902380D01*
X169208009Y-88902380D02*
X169131819Y-88940475D01*
X169131819Y-88940475D02*
X168979438Y-88978571D01*
X168979438Y-88978571D02*
X168865152Y-88978571D01*
X168865152Y-88978571D02*
X168712771Y-88940475D01*
X168712771Y-88940475D02*
X168636580Y-88902380D01*
X168636580Y-88902380D02*
X168560390Y-88826190D01*
X168560390Y-88826190D02*
X168522295Y-88711904D01*
X168522295Y-88711904D02*
X168522295Y-88635713D01*
X168522295Y-88635713D02*
X168560390Y-88521428D01*
X168560390Y-88521428D02*
X168598485Y-88483332D01*
X168598485Y-88178571D02*
X168560390Y-88140475D01*
X168560390Y-88140475D02*
X168522295Y-88064285D01*
X168522295Y-88064285D02*
X168522295Y-87873809D01*
X168522295Y-87873809D02*
X168560390Y-87797618D01*
X168560390Y-87797618D02*
X168598485Y-87759523D01*
X168598485Y-87759523D02*
X168674676Y-87721428D01*
X168674676Y-87721428D02*
X168750866Y-87721428D01*
X168750866Y-87721428D02*
X168865152Y-87759523D01*
X168865152Y-87759523D02*
X169322295Y-88216666D01*
X169322295Y-88216666D02*
X169322295Y-87721428D01*
X156985714Y-97686104D02*
X156947618Y-97724200D01*
X156947618Y-97724200D02*
X156833333Y-97762295D01*
X156833333Y-97762295D02*
X156757142Y-97762295D01*
X156757142Y-97762295D02*
X156642856Y-97724200D01*
X156642856Y-97724200D02*
X156566666Y-97648009D01*
X156566666Y-97648009D02*
X156528571Y-97571819D01*
X156528571Y-97571819D02*
X156490475Y-97419438D01*
X156490475Y-97419438D02*
X156490475Y-97305152D01*
X156490475Y-97305152D02*
X156528571Y-97152771D01*
X156528571Y-97152771D02*
X156566666Y-97076580D01*
X156566666Y-97076580D02*
X156642856Y-97000390D01*
X156642856Y-97000390D02*
X156757142Y-96962295D01*
X156757142Y-96962295D02*
X156833333Y-96962295D01*
X156833333Y-96962295D02*
X156947618Y-97000390D01*
X156947618Y-97000390D02*
X156985714Y-97038485D01*
X157747618Y-97762295D02*
X157290475Y-97762295D01*
X157519047Y-97762295D02*
X157519047Y-96962295D01*
X157519047Y-96962295D02*
X157442856Y-97076580D01*
X157442856Y-97076580D02*
X157366666Y-97152771D01*
X157366666Y-97152771D02*
X157290475Y-97190866D01*
X158509523Y-97762295D02*
X158052380Y-97762295D01*
X158280952Y-97762295D02*
X158280952Y-96962295D01*
X158280952Y-96962295D02*
X158204761Y-97076580D01*
X158204761Y-97076580D02*
X158128571Y-97152771D01*
X158128571Y-97152771D02*
X158052380Y-97190866D01*
X141746667Y-76076104D02*
X141708571Y-76114200D01*
X141708571Y-76114200D02*
X141594286Y-76152295D01*
X141594286Y-76152295D02*
X141518095Y-76152295D01*
X141518095Y-76152295D02*
X141403809Y-76114200D01*
X141403809Y-76114200D02*
X141327619Y-76038009D01*
X141327619Y-76038009D02*
X141289524Y-75961819D01*
X141289524Y-75961819D02*
X141251428Y-75809438D01*
X141251428Y-75809438D02*
X141251428Y-75695152D01*
X141251428Y-75695152D02*
X141289524Y-75542771D01*
X141289524Y-75542771D02*
X141327619Y-75466580D01*
X141327619Y-75466580D02*
X141403809Y-75390390D01*
X141403809Y-75390390D02*
X141518095Y-75352295D01*
X141518095Y-75352295D02*
X141594286Y-75352295D01*
X141594286Y-75352295D02*
X141708571Y-75390390D01*
X141708571Y-75390390D02*
X141746667Y-75428485D01*
X142470476Y-75352295D02*
X142089524Y-75352295D01*
X142089524Y-75352295D02*
X142051428Y-75733247D01*
X142051428Y-75733247D02*
X142089524Y-75695152D01*
X142089524Y-75695152D02*
X142165714Y-75657057D01*
X142165714Y-75657057D02*
X142356190Y-75657057D01*
X142356190Y-75657057D02*
X142432381Y-75695152D01*
X142432381Y-75695152D02*
X142470476Y-75733247D01*
X142470476Y-75733247D02*
X142508571Y-75809438D01*
X142508571Y-75809438D02*
X142508571Y-75999914D01*
X142508571Y-75999914D02*
X142470476Y-76076104D01*
X142470476Y-76076104D02*
X142432381Y-76114200D01*
X142432381Y-76114200D02*
X142356190Y-76152295D01*
X142356190Y-76152295D02*
X142165714Y-76152295D01*
X142165714Y-76152295D02*
X142089524Y-76114200D01*
X142089524Y-76114200D02*
X142051428Y-76076104D01*
X156155714Y-72702295D02*
X155889047Y-72321342D01*
X155698571Y-72702295D02*
X155698571Y-71902295D01*
X155698571Y-71902295D02*
X156003333Y-71902295D01*
X156003333Y-71902295D02*
X156079523Y-71940390D01*
X156079523Y-71940390D02*
X156117618Y-71978485D01*
X156117618Y-71978485D02*
X156155714Y-72054676D01*
X156155714Y-72054676D02*
X156155714Y-72168961D01*
X156155714Y-72168961D02*
X156117618Y-72245152D01*
X156117618Y-72245152D02*
X156079523Y-72283247D01*
X156079523Y-72283247D02*
X156003333Y-72321342D01*
X156003333Y-72321342D02*
X155698571Y-72321342D01*
X156917618Y-72702295D02*
X156460475Y-72702295D01*
X156689047Y-72702295D02*
X156689047Y-71902295D01*
X156689047Y-71902295D02*
X156612856Y-72016580D01*
X156612856Y-72016580D02*
X156536666Y-72092771D01*
X156536666Y-72092771D02*
X156460475Y-72130866D01*
X157222380Y-71978485D02*
X157260476Y-71940390D01*
X157260476Y-71940390D02*
X157336666Y-71902295D01*
X157336666Y-71902295D02*
X157527142Y-71902295D01*
X157527142Y-71902295D02*
X157603333Y-71940390D01*
X157603333Y-71940390D02*
X157641428Y-71978485D01*
X157641428Y-71978485D02*
X157679523Y-72054676D01*
X157679523Y-72054676D02*
X157679523Y-72130866D01*
X157679523Y-72130866D02*
X157641428Y-72245152D01*
X157641428Y-72245152D02*
X157184285Y-72702295D01*
X157184285Y-72702295D02*
X157679523Y-72702295D01*
X164485714Y-95536104D02*
X164447618Y-95574200D01*
X164447618Y-95574200D02*
X164333333Y-95612295D01*
X164333333Y-95612295D02*
X164257142Y-95612295D01*
X164257142Y-95612295D02*
X164142856Y-95574200D01*
X164142856Y-95574200D02*
X164066666Y-95498009D01*
X164066666Y-95498009D02*
X164028571Y-95421819D01*
X164028571Y-95421819D02*
X163990475Y-95269438D01*
X163990475Y-95269438D02*
X163990475Y-95155152D01*
X163990475Y-95155152D02*
X164028571Y-95002771D01*
X164028571Y-95002771D02*
X164066666Y-94926580D01*
X164066666Y-94926580D02*
X164142856Y-94850390D01*
X164142856Y-94850390D02*
X164257142Y-94812295D01*
X164257142Y-94812295D02*
X164333333Y-94812295D01*
X164333333Y-94812295D02*
X164447618Y-94850390D01*
X164447618Y-94850390D02*
X164485714Y-94888485D01*
X165247618Y-95612295D02*
X164790475Y-95612295D01*
X165019047Y-95612295D02*
X165019047Y-94812295D01*
X165019047Y-94812295D02*
X164942856Y-94926580D01*
X164942856Y-94926580D02*
X164866666Y-95002771D01*
X164866666Y-95002771D02*
X164790475Y-95040866D01*
X165628571Y-95612295D02*
X165780952Y-95612295D01*
X165780952Y-95612295D02*
X165857142Y-95574200D01*
X165857142Y-95574200D02*
X165895238Y-95536104D01*
X165895238Y-95536104D02*
X165971428Y-95421819D01*
X165971428Y-95421819D02*
X166009523Y-95269438D01*
X166009523Y-95269438D02*
X166009523Y-94964676D01*
X166009523Y-94964676D02*
X165971428Y-94888485D01*
X165971428Y-94888485D02*
X165933333Y-94850390D01*
X165933333Y-94850390D02*
X165857142Y-94812295D01*
X165857142Y-94812295D02*
X165704761Y-94812295D01*
X165704761Y-94812295D02*
X165628571Y-94850390D01*
X165628571Y-94850390D02*
X165590476Y-94888485D01*
X165590476Y-94888485D02*
X165552380Y-94964676D01*
X165552380Y-94964676D02*
X165552380Y-95155152D01*
X165552380Y-95155152D02*
X165590476Y-95231342D01*
X165590476Y-95231342D02*
X165628571Y-95269438D01*
X165628571Y-95269438D02*
X165704761Y-95307533D01*
X165704761Y-95307533D02*
X165857142Y-95307533D01*
X165857142Y-95307533D02*
X165933333Y-95269438D01*
X165933333Y-95269438D02*
X165971428Y-95231342D01*
X165971428Y-95231342D02*
X166009523Y-95155152D01*
X138062295Y-94709523D02*
X138709914Y-94709523D01*
X138709914Y-94709523D02*
X138786104Y-94671428D01*
X138786104Y-94671428D02*
X138824200Y-94633333D01*
X138824200Y-94633333D02*
X138862295Y-94557142D01*
X138862295Y-94557142D02*
X138862295Y-94404761D01*
X138862295Y-94404761D02*
X138824200Y-94328571D01*
X138824200Y-94328571D02*
X138786104Y-94290476D01*
X138786104Y-94290476D02*
X138709914Y-94252380D01*
X138709914Y-94252380D02*
X138062295Y-94252380D01*
X138138485Y-93909524D02*
X138100390Y-93871428D01*
X138100390Y-93871428D02*
X138062295Y-93795238D01*
X138062295Y-93795238D02*
X138062295Y-93604762D01*
X138062295Y-93604762D02*
X138100390Y-93528571D01*
X138100390Y-93528571D02*
X138138485Y-93490476D01*
X138138485Y-93490476D02*
X138214676Y-93452381D01*
X138214676Y-93452381D02*
X138290866Y-93452381D01*
X138290866Y-93452381D02*
X138405152Y-93490476D01*
X138405152Y-93490476D02*
X138862295Y-93947619D01*
X138862295Y-93947619D02*
X138862295Y-93452381D01*
X143612295Y-80264285D02*
X143231342Y-80530952D01*
X143612295Y-80721428D02*
X142812295Y-80721428D01*
X142812295Y-80721428D02*
X142812295Y-80416666D01*
X142812295Y-80416666D02*
X142850390Y-80340476D01*
X142850390Y-80340476D02*
X142888485Y-80302381D01*
X142888485Y-80302381D02*
X142964676Y-80264285D01*
X142964676Y-80264285D02*
X143078961Y-80264285D01*
X143078961Y-80264285D02*
X143155152Y-80302381D01*
X143155152Y-80302381D02*
X143193247Y-80340476D01*
X143193247Y-80340476D02*
X143231342Y-80416666D01*
X143231342Y-80416666D02*
X143231342Y-80721428D01*
X143612295Y-79502381D02*
X143612295Y-79959524D01*
X143612295Y-79730952D02*
X142812295Y-79730952D01*
X142812295Y-79730952D02*
X142926580Y-79807143D01*
X142926580Y-79807143D02*
X143002771Y-79883333D01*
X143002771Y-79883333D02*
X143040866Y-79959524D01*
X142812295Y-78816666D02*
X142812295Y-78969047D01*
X142812295Y-78969047D02*
X142850390Y-79045238D01*
X142850390Y-79045238D02*
X142888485Y-79083333D01*
X142888485Y-79083333D02*
X143002771Y-79159523D01*
X143002771Y-79159523D02*
X143155152Y-79197619D01*
X143155152Y-79197619D02*
X143459914Y-79197619D01*
X143459914Y-79197619D02*
X143536104Y-79159523D01*
X143536104Y-79159523D02*
X143574200Y-79121428D01*
X143574200Y-79121428D02*
X143612295Y-79045238D01*
X143612295Y-79045238D02*
X143612295Y-78892857D01*
X143612295Y-78892857D02*
X143574200Y-78816666D01*
X143574200Y-78816666D02*
X143536104Y-78778571D01*
X143536104Y-78778571D02*
X143459914Y-78740476D01*
X143459914Y-78740476D02*
X143269438Y-78740476D01*
X143269438Y-78740476D02*
X143193247Y-78778571D01*
X143193247Y-78778571D02*
X143155152Y-78816666D01*
X143155152Y-78816666D02*
X143117057Y-78892857D01*
X143117057Y-78892857D02*
X143117057Y-79045238D01*
X143117057Y-79045238D02*
X143155152Y-79121428D01*
X143155152Y-79121428D02*
X143193247Y-79159523D01*
X143193247Y-79159523D02*
X143269438Y-79197619D01*
X129942295Y-70914285D02*
X129561342Y-71180952D01*
X129942295Y-71371428D02*
X129142295Y-71371428D01*
X129142295Y-71371428D02*
X129142295Y-71066666D01*
X129142295Y-71066666D02*
X129180390Y-70990476D01*
X129180390Y-70990476D02*
X129218485Y-70952381D01*
X129218485Y-70952381D02*
X129294676Y-70914285D01*
X129294676Y-70914285D02*
X129408961Y-70914285D01*
X129408961Y-70914285D02*
X129485152Y-70952381D01*
X129485152Y-70952381D02*
X129523247Y-70990476D01*
X129523247Y-70990476D02*
X129561342Y-71066666D01*
X129561342Y-71066666D02*
X129561342Y-71371428D01*
X129942295Y-70152381D02*
X129942295Y-70609524D01*
X129942295Y-70380952D02*
X129142295Y-70380952D01*
X129142295Y-70380952D02*
X129256580Y-70457143D01*
X129256580Y-70457143D02*
X129332771Y-70533333D01*
X129332771Y-70533333D02*
X129370866Y-70609524D01*
X129142295Y-69657142D02*
X129142295Y-69580952D01*
X129142295Y-69580952D02*
X129180390Y-69504761D01*
X129180390Y-69504761D02*
X129218485Y-69466666D01*
X129218485Y-69466666D02*
X129294676Y-69428571D01*
X129294676Y-69428571D02*
X129447057Y-69390476D01*
X129447057Y-69390476D02*
X129637533Y-69390476D01*
X129637533Y-69390476D02*
X129789914Y-69428571D01*
X129789914Y-69428571D02*
X129866104Y-69466666D01*
X129866104Y-69466666D02*
X129904200Y-69504761D01*
X129904200Y-69504761D02*
X129942295Y-69580952D01*
X129942295Y-69580952D02*
X129942295Y-69657142D01*
X129942295Y-69657142D02*
X129904200Y-69733333D01*
X129904200Y-69733333D02*
X129866104Y-69771428D01*
X129866104Y-69771428D02*
X129789914Y-69809523D01*
X129789914Y-69809523D02*
X129637533Y-69847619D01*
X129637533Y-69847619D02*
X129447057Y-69847619D01*
X129447057Y-69847619D02*
X129294676Y-69809523D01*
X129294676Y-69809523D02*
X129218485Y-69771428D01*
X129218485Y-69771428D02*
X129180390Y-69733333D01*
X129180390Y-69733333D02*
X129142295Y-69657142D01*
X141424200Y-73041667D02*
X141462295Y-72927381D01*
X141462295Y-72927381D02*
X141462295Y-72736905D01*
X141462295Y-72736905D02*
X141424200Y-72660714D01*
X141424200Y-72660714D02*
X141386104Y-72622619D01*
X141386104Y-72622619D02*
X141309914Y-72584524D01*
X141309914Y-72584524D02*
X141233723Y-72584524D01*
X141233723Y-72584524D02*
X141157533Y-72622619D01*
X141157533Y-72622619D02*
X141119438Y-72660714D01*
X141119438Y-72660714D02*
X141081342Y-72736905D01*
X141081342Y-72736905D02*
X141043247Y-72889286D01*
X141043247Y-72889286D02*
X141005152Y-72965476D01*
X141005152Y-72965476D02*
X140967057Y-73003571D01*
X140967057Y-73003571D02*
X140890866Y-73041667D01*
X140890866Y-73041667D02*
X140814676Y-73041667D01*
X140814676Y-73041667D02*
X140738485Y-73003571D01*
X140738485Y-73003571D02*
X140700390Y-72965476D01*
X140700390Y-72965476D02*
X140662295Y-72889286D01*
X140662295Y-72889286D02*
X140662295Y-72698809D01*
X140662295Y-72698809D02*
X140700390Y-72584524D01*
X140662295Y-72317857D02*
X141462295Y-72127381D01*
X141462295Y-72127381D02*
X140890866Y-71975000D01*
X140890866Y-71975000D02*
X141462295Y-71822619D01*
X141462295Y-71822619D02*
X140662295Y-71632143D01*
X141462295Y-70908333D02*
X141462295Y-71365476D01*
X141462295Y-71136904D02*
X140662295Y-71136904D01*
X140662295Y-71136904D02*
X140776580Y-71213095D01*
X140776580Y-71213095D02*
X140852771Y-71289285D01*
X140852771Y-71289285D02*
X140890866Y-71365476D01*
X137366667Y-86536104D02*
X137328571Y-86574200D01*
X137328571Y-86574200D02*
X137214286Y-86612295D01*
X137214286Y-86612295D02*
X137138095Y-86612295D01*
X137138095Y-86612295D02*
X137023809Y-86574200D01*
X137023809Y-86574200D02*
X136947619Y-86498009D01*
X136947619Y-86498009D02*
X136909524Y-86421819D01*
X136909524Y-86421819D02*
X136871428Y-86269438D01*
X136871428Y-86269438D02*
X136871428Y-86155152D01*
X136871428Y-86155152D02*
X136909524Y-86002771D01*
X136909524Y-86002771D02*
X136947619Y-85926580D01*
X136947619Y-85926580D02*
X137023809Y-85850390D01*
X137023809Y-85850390D02*
X137138095Y-85812295D01*
X137138095Y-85812295D02*
X137214286Y-85812295D01*
X137214286Y-85812295D02*
X137328571Y-85850390D01*
X137328571Y-85850390D02*
X137366667Y-85888485D01*
X138052381Y-85812295D02*
X137900000Y-85812295D01*
X137900000Y-85812295D02*
X137823809Y-85850390D01*
X137823809Y-85850390D02*
X137785714Y-85888485D01*
X137785714Y-85888485D02*
X137709524Y-86002771D01*
X137709524Y-86002771D02*
X137671428Y-86155152D01*
X137671428Y-86155152D02*
X137671428Y-86459914D01*
X137671428Y-86459914D02*
X137709524Y-86536104D01*
X137709524Y-86536104D02*
X137747619Y-86574200D01*
X137747619Y-86574200D02*
X137823809Y-86612295D01*
X137823809Y-86612295D02*
X137976190Y-86612295D01*
X137976190Y-86612295D02*
X138052381Y-86574200D01*
X138052381Y-86574200D02*
X138090476Y-86536104D01*
X138090476Y-86536104D02*
X138128571Y-86459914D01*
X138128571Y-86459914D02*
X138128571Y-86269438D01*
X138128571Y-86269438D02*
X138090476Y-86193247D01*
X138090476Y-86193247D02*
X138052381Y-86155152D01*
X138052381Y-86155152D02*
X137976190Y-86117057D01*
X137976190Y-86117057D02*
X137823809Y-86117057D01*
X137823809Y-86117057D02*
X137747619Y-86155152D01*
X137747619Y-86155152D02*
X137709524Y-86193247D01*
X137709524Y-86193247D02*
X137671428Y-86269438D01*
X151659524Y-73362295D02*
X151659524Y-72562295D01*
X151659524Y-72562295D02*
X151850000Y-72562295D01*
X151850000Y-72562295D02*
X151964286Y-72600390D01*
X151964286Y-72600390D02*
X152040476Y-72676580D01*
X152040476Y-72676580D02*
X152078571Y-72752771D01*
X152078571Y-72752771D02*
X152116667Y-72905152D01*
X152116667Y-72905152D02*
X152116667Y-73019438D01*
X152116667Y-73019438D02*
X152078571Y-73171819D01*
X152078571Y-73171819D02*
X152040476Y-73248009D01*
X152040476Y-73248009D02*
X151964286Y-73324200D01*
X151964286Y-73324200D02*
X151850000Y-73362295D01*
X151850000Y-73362295D02*
X151659524Y-73362295D01*
X152878571Y-73362295D02*
X152421428Y-73362295D01*
X152650000Y-73362295D02*
X152650000Y-72562295D01*
X152650000Y-72562295D02*
X152573809Y-72676580D01*
X152573809Y-72676580D02*
X152497619Y-72752771D01*
X152497619Y-72752771D02*
X152421428Y-72790866D01*
X158923809Y-69188485D02*
X158847619Y-69150390D01*
X158847619Y-69150390D02*
X158771428Y-69074200D01*
X158771428Y-69074200D02*
X158657142Y-68959914D01*
X158657142Y-68959914D02*
X158580952Y-68921819D01*
X158580952Y-68921819D02*
X158504761Y-68921819D01*
X158542857Y-69112295D02*
X158466666Y-69074200D01*
X158466666Y-69074200D02*
X158390476Y-68998009D01*
X158390476Y-68998009D02*
X158352380Y-68845628D01*
X158352380Y-68845628D02*
X158352380Y-68578961D01*
X158352380Y-68578961D02*
X158390476Y-68426580D01*
X158390476Y-68426580D02*
X158466666Y-68350390D01*
X158466666Y-68350390D02*
X158542857Y-68312295D01*
X158542857Y-68312295D02*
X158695238Y-68312295D01*
X158695238Y-68312295D02*
X158771428Y-68350390D01*
X158771428Y-68350390D02*
X158847619Y-68426580D01*
X158847619Y-68426580D02*
X158885714Y-68578961D01*
X158885714Y-68578961D02*
X158885714Y-68845628D01*
X158885714Y-68845628D02*
X158847619Y-68998009D01*
X158847619Y-68998009D02*
X158771428Y-69074200D01*
X158771428Y-69074200D02*
X158695238Y-69112295D01*
X158695238Y-69112295D02*
X158542857Y-69112295D01*
X159647618Y-69112295D02*
X159190475Y-69112295D01*
X159419047Y-69112295D02*
X159419047Y-68312295D01*
X159419047Y-68312295D02*
X159342856Y-68426580D01*
X159342856Y-68426580D02*
X159266666Y-68502771D01*
X159266666Y-68502771D02*
X159190475Y-68540866D01*
X138862295Y-92590475D02*
X138062295Y-92590475D01*
X138062295Y-92590475D02*
X138062295Y-92399999D01*
X138062295Y-92399999D02*
X138100390Y-92285713D01*
X138100390Y-92285713D02*
X138176580Y-92209523D01*
X138176580Y-92209523D02*
X138252771Y-92171428D01*
X138252771Y-92171428D02*
X138405152Y-92133332D01*
X138405152Y-92133332D02*
X138519438Y-92133332D01*
X138519438Y-92133332D02*
X138671819Y-92171428D01*
X138671819Y-92171428D02*
X138748009Y-92209523D01*
X138748009Y-92209523D02*
X138824200Y-92285713D01*
X138824200Y-92285713D02*
X138862295Y-92399999D01*
X138862295Y-92399999D02*
X138862295Y-92590475D01*
X138062295Y-91447618D02*
X138062295Y-91599999D01*
X138062295Y-91599999D02*
X138100390Y-91676190D01*
X138100390Y-91676190D02*
X138138485Y-91714285D01*
X138138485Y-91714285D02*
X138252771Y-91790475D01*
X138252771Y-91790475D02*
X138405152Y-91828571D01*
X138405152Y-91828571D02*
X138709914Y-91828571D01*
X138709914Y-91828571D02*
X138786104Y-91790475D01*
X138786104Y-91790475D02*
X138824200Y-91752380D01*
X138824200Y-91752380D02*
X138862295Y-91676190D01*
X138862295Y-91676190D02*
X138862295Y-91523809D01*
X138862295Y-91523809D02*
X138824200Y-91447618D01*
X138824200Y-91447618D02*
X138786104Y-91409523D01*
X138786104Y-91409523D02*
X138709914Y-91371428D01*
X138709914Y-91371428D02*
X138519438Y-91371428D01*
X138519438Y-91371428D02*
X138443247Y-91409523D01*
X138443247Y-91409523D02*
X138405152Y-91447618D01*
X138405152Y-91447618D02*
X138367057Y-91523809D01*
X138367057Y-91523809D02*
X138367057Y-91676190D01*
X138367057Y-91676190D02*
X138405152Y-91752380D01*
X138405152Y-91752380D02*
X138443247Y-91790475D01*
X138443247Y-91790475D02*
X138519438Y-91828571D01*
X168406667Y-90146104D02*
X168368571Y-90184200D01*
X168368571Y-90184200D02*
X168254286Y-90222295D01*
X168254286Y-90222295D02*
X168178095Y-90222295D01*
X168178095Y-90222295D02*
X168063809Y-90184200D01*
X168063809Y-90184200D02*
X167987619Y-90108009D01*
X167987619Y-90108009D02*
X167949524Y-90031819D01*
X167949524Y-90031819D02*
X167911428Y-89879438D01*
X167911428Y-89879438D02*
X167911428Y-89765152D01*
X167911428Y-89765152D02*
X167949524Y-89612771D01*
X167949524Y-89612771D02*
X167987619Y-89536580D01*
X167987619Y-89536580D02*
X168063809Y-89460390D01*
X168063809Y-89460390D02*
X168178095Y-89422295D01*
X168178095Y-89422295D02*
X168254286Y-89422295D01*
X168254286Y-89422295D02*
X168368571Y-89460390D01*
X168368571Y-89460390D02*
X168406667Y-89498485D01*
X168673333Y-89422295D02*
X169168571Y-89422295D01*
X169168571Y-89422295D02*
X168901905Y-89727057D01*
X168901905Y-89727057D02*
X169016190Y-89727057D01*
X169016190Y-89727057D02*
X169092381Y-89765152D01*
X169092381Y-89765152D02*
X169130476Y-89803247D01*
X169130476Y-89803247D02*
X169168571Y-89879438D01*
X169168571Y-89879438D02*
X169168571Y-90069914D01*
X169168571Y-90069914D02*
X169130476Y-90146104D01*
X169130476Y-90146104D02*
X169092381Y-90184200D01*
X169092381Y-90184200D02*
X169016190Y-90222295D01*
X169016190Y-90222295D02*
X168787619Y-90222295D01*
X168787619Y-90222295D02*
X168711428Y-90184200D01*
X168711428Y-90184200D02*
X168673333Y-90146104D01*
X126443809Y-83478485D02*
X126367619Y-83440390D01*
X126367619Y-83440390D02*
X126291428Y-83364200D01*
X126291428Y-83364200D02*
X126177142Y-83249914D01*
X126177142Y-83249914D02*
X126100952Y-83211819D01*
X126100952Y-83211819D02*
X126024761Y-83211819D01*
X126062857Y-83402295D02*
X125986666Y-83364200D01*
X125986666Y-83364200D02*
X125910476Y-83288009D01*
X125910476Y-83288009D02*
X125872380Y-83135628D01*
X125872380Y-83135628D02*
X125872380Y-82868961D01*
X125872380Y-82868961D02*
X125910476Y-82716580D01*
X125910476Y-82716580D02*
X125986666Y-82640390D01*
X125986666Y-82640390D02*
X126062857Y-82602295D01*
X126062857Y-82602295D02*
X126215238Y-82602295D01*
X126215238Y-82602295D02*
X126291428Y-82640390D01*
X126291428Y-82640390D02*
X126367619Y-82716580D01*
X126367619Y-82716580D02*
X126405714Y-82868961D01*
X126405714Y-82868961D02*
X126405714Y-83135628D01*
X126405714Y-83135628D02*
X126367619Y-83288009D01*
X126367619Y-83288009D02*
X126291428Y-83364200D01*
X126291428Y-83364200D02*
X126215238Y-83402295D01*
X126215238Y-83402295D02*
X126062857Y-83402295D01*
X126672380Y-82602295D02*
X127167618Y-82602295D01*
X127167618Y-82602295D02*
X126900952Y-82907057D01*
X126900952Y-82907057D02*
X127015237Y-82907057D01*
X127015237Y-82907057D02*
X127091428Y-82945152D01*
X127091428Y-82945152D02*
X127129523Y-82983247D01*
X127129523Y-82983247D02*
X127167618Y-83059438D01*
X127167618Y-83059438D02*
X127167618Y-83249914D01*
X127167618Y-83249914D02*
X127129523Y-83326104D01*
X127129523Y-83326104D02*
X127091428Y-83364200D01*
X127091428Y-83364200D02*
X127015237Y-83402295D01*
X127015237Y-83402295D02*
X126786666Y-83402295D01*
X126786666Y-83402295D02*
X126710475Y-83364200D01*
X126710475Y-83364200D02*
X126672380Y-83326104D01*
X130322295Y-87154285D02*
X129941342Y-87420952D01*
X130322295Y-87611428D02*
X129522295Y-87611428D01*
X129522295Y-87611428D02*
X129522295Y-87306666D01*
X129522295Y-87306666D02*
X129560390Y-87230476D01*
X129560390Y-87230476D02*
X129598485Y-87192381D01*
X129598485Y-87192381D02*
X129674676Y-87154285D01*
X129674676Y-87154285D02*
X129788961Y-87154285D01*
X129788961Y-87154285D02*
X129865152Y-87192381D01*
X129865152Y-87192381D02*
X129903247Y-87230476D01*
X129903247Y-87230476D02*
X129941342Y-87306666D01*
X129941342Y-87306666D02*
X129941342Y-87611428D01*
X130322295Y-86392381D02*
X130322295Y-86849524D01*
X130322295Y-86620952D02*
X129522295Y-86620952D01*
X129522295Y-86620952D02*
X129636580Y-86697143D01*
X129636580Y-86697143D02*
X129712771Y-86773333D01*
X129712771Y-86773333D02*
X129750866Y-86849524D01*
X130322295Y-85630476D02*
X130322295Y-86087619D01*
X130322295Y-85859047D02*
X129522295Y-85859047D01*
X129522295Y-85859047D02*
X129636580Y-85935238D01*
X129636580Y-85935238D02*
X129712771Y-86011428D01*
X129712771Y-86011428D02*
X129750866Y-86087619D01*
X136140476Y-88812295D02*
X136140476Y-89459914D01*
X136140476Y-89459914D02*
X136178571Y-89536104D01*
X136178571Y-89536104D02*
X136216666Y-89574200D01*
X136216666Y-89574200D02*
X136292857Y-89612295D01*
X136292857Y-89612295D02*
X136445238Y-89612295D01*
X136445238Y-89612295D02*
X136521428Y-89574200D01*
X136521428Y-89574200D02*
X136559523Y-89536104D01*
X136559523Y-89536104D02*
X136597619Y-89459914D01*
X136597619Y-89459914D02*
X136597619Y-88812295D01*
X137397618Y-89612295D02*
X136940475Y-89612295D01*
X137169047Y-89612295D02*
X137169047Y-88812295D01*
X137169047Y-88812295D02*
X137092856Y-88926580D01*
X137092856Y-88926580D02*
X137016666Y-89002771D01*
X137016666Y-89002771D02*
X136940475Y-89040866D01*
X168446667Y-92896104D02*
X168408571Y-92934200D01*
X168408571Y-92934200D02*
X168294286Y-92972295D01*
X168294286Y-92972295D02*
X168218095Y-92972295D01*
X168218095Y-92972295D02*
X168103809Y-92934200D01*
X168103809Y-92934200D02*
X168027619Y-92858009D01*
X168027619Y-92858009D02*
X167989524Y-92781819D01*
X167989524Y-92781819D02*
X167951428Y-92629438D01*
X167951428Y-92629438D02*
X167951428Y-92515152D01*
X167951428Y-92515152D02*
X167989524Y-92362771D01*
X167989524Y-92362771D02*
X168027619Y-92286580D01*
X168027619Y-92286580D02*
X168103809Y-92210390D01*
X168103809Y-92210390D02*
X168218095Y-92172295D01*
X168218095Y-92172295D02*
X168294286Y-92172295D01*
X168294286Y-92172295D02*
X168408571Y-92210390D01*
X168408571Y-92210390D02*
X168446667Y-92248485D01*
X169132381Y-92438961D02*
X169132381Y-92972295D01*
X168941905Y-92134200D02*
X168751428Y-92705628D01*
X168751428Y-92705628D02*
X169246667Y-92705628D01*
X169116667Y-83876104D02*
X169078571Y-83914200D01*
X169078571Y-83914200D02*
X168964286Y-83952295D01*
X168964286Y-83952295D02*
X168888095Y-83952295D01*
X168888095Y-83952295D02*
X168773809Y-83914200D01*
X168773809Y-83914200D02*
X168697619Y-83838009D01*
X168697619Y-83838009D02*
X168659524Y-83761819D01*
X168659524Y-83761819D02*
X168621428Y-83609438D01*
X168621428Y-83609438D02*
X168621428Y-83495152D01*
X168621428Y-83495152D02*
X168659524Y-83342771D01*
X168659524Y-83342771D02*
X168697619Y-83266580D01*
X168697619Y-83266580D02*
X168773809Y-83190390D01*
X168773809Y-83190390D02*
X168888095Y-83152295D01*
X168888095Y-83152295D02*
X168964286Y-83152295D01*
X168964286Y-83152295D02*
X169078571Y-83190390D01*
X169078571Y-83190390D02*
X169116667Y-83228485D01*
X169878571Y-83952295D02*
X169421428Y-83952295D01*
X169650000Y-83952295D02*
X169650000Y-83152295D01*
X169650000Y-83152295D02*
X169573809Y-83266580D01*
X169573809Y-83266580D02*
X169497619Y-83342771D01*
X169497619Y-83342771D02*
X169421428Y-83380866D01*
X139786104Y-69014285D02*
X139824200Y-69052381D01*
X139824200Y-69052381D02*
X139862295Y-69166666D01*
X139862295Y-69166666D02*
X139862295Y-69242857D01*
X139862295Y-69242857D02*
X139824200Y-69357143D01*
X139824200Y-69357143D02*
X139748009Y-69433333D01*
X139748009Y-69433333D02*
X139671819Y-69471428D01*
X139671819Y-69471428D02*
X139519438Y-69509524D01*
X139519438Y-69509524D02*
X139405152Y-69509524D01*
X139405152Y-69509524D02*
X139252771Y-69471428D01*
X139252771Y-69471428D02*
X139176580Y-69433333D01*
X139176580Y-69433333D02*
X139100390Y-69357143D01*
X139100390Y-69357143D02*
X139062295Y-69242857D01*
X139062295Y-69242857D02*
X139062295Y-69166666D01*
X139062295Y-69166666D02*
X139100390Y-69052381D01*
X139100390Y-69052381D02*
X139138485Y-69014285D01*
X139862295Y-68252381D02*
X139862295Y-68709524D01*
X139862295Y-68480952D02*
X139062295Y-68480952D01*
X139062295Y-68480952D02*
X139176580Y-68557143D01*
X139176580Y-68557143D02*
X139252771Y-68633333D01*
X139252771Y-68633333D02*
X139290866Y-68709524D01*
X139062295Y-67528571D02*
X139062295Y-67909523D01*
X139062295Y-67909523D02*
X139443247Y-67947619D01*
X139443247Y-67947619D02*
X139405152Y-67909523D01*
X139405152Y-67909523D02*
X139367057Y-67833333D01*
X139367057Y-67833333D02*
X139367057Y-67642857D01*
X139367057Y-67642857D02*
X139405152Y-67566666D01*
X139405152Y-67566666D02*
X139443247Y-67528571D01*
X139443247Y-67528571D02*
X139519438Y-67490476D01*
X139519438Y-67490476D02*
X139709914Y-67490476D01*
X139709914Y-67490476D02*
X139786104Y-67528571D01*
X139786104Y-67528571D02*
X139824200Y-67566666D01*
X139824200Y-67566666D02*
X139862295Y-67642857D01*
X139862295Y-67642857D02*
X139862295Y-67833333D01*
X139862295Y-67833333D02*
X139824200Y-67909523D01*
X139824200Y-67909523D02*
X139786104Y-67947619D01*
X156155714Y-76102295D02*
X155889047Y-75721342D01*
X155698571Y-76102295D02*
X155698571Y-75302295D01*
X155698571Y-75302295D02*
X156003333Y-75302295D01*
X156003333Y-75302295D02*
X156079523Y-75340390D01*
X156079523Y-75340390D02*
X156117618Y-75378485D01*
X156117618Y-75378485D02*
X156155714Y-75454676D01*
X156155714Y-75454676D02*
X156155714Y-75568961D01*
X156155714Y-75568961D02*
X156117618Y-75645152D01*
X156117618Y-75645152D02*
X156079523Y-75683247D01*
X156079523Y-75683247D02*
X156003333Y-75721342D01*
X156003333Y-75721342D02*
X155698571Y-75721342D01*
X156917618Y-76102295D02*
X156460475Y-76102295D01*
X156689047Y-76102295D02*
X156689047Y-75302295D01*
X156689047Y-75302295D02*
X156612856Y-75416580D01*
X156612856Y-75416580D02*
X156536666Y-75492771D01*
X156536666Y-75492771D02*
X156460475Y-75530866D01*
X157603333Y-75568961D02*
X157603333Y-76102295D01*
X157412857Y-75264200D02*
X157222380Y-75835628D01*
X157222380Y-75835628D02*
X157717619Y-75835628D01*
X128036104Y-72514285D02*
X128074200Y-72552381D01*
X128074200Y-72552381D02*
X128112295Y-72666666D01*
X128112295Y-72666666D02*
X128112295Y-72742857D01*
X128112295Y-72742857D02*
X128074200Y-72857143D01*
X128074200Y-72857143D02*
X127998009Y-72933333D01*
X127998009Y-72933333D02*
X127921819Y-72971428D01*
X127921819Y-72971428D02*
X127769438Y-73009524D01*
X127769438Y-73009524D02*
X127655152Y-73009524D01*
X127655152Y-73009524D02*
X127502771Y-72971428D01*
X127502771Y-72971428D02*
X127426580Y-72933333D01*
X127426580Y-72933333D02*
X127350390Y-72857143D01*
X127350390Y-72857143D02*
X127312295Y-72742857D01*
X127312295Y-72742857D02*
X127312295Y-72666666D01*
X127312295Y-72666666D02*
X127350390Y-72552381D01*
X127350390Y-72552381D02*
X127388485Y-72514285D01*
X128112295Y-71752381D02*
X128112295Y-72209524D01*
X128112295Y-71980952D02*
X127312295Y-71980952D01*
X127312295Y-71980952D02*
X127426580Y-72057143D01*
X127426580Y-72057143D02*
X127502771Y-72133333D01*
X127502771Y-72133333D02*
X127540866Y-72209524D01*
X127312295Y-71485714D02*
X127312295Y-70952380D01*
X127312295Y-70952380D02*
X128112295Y-71295238D01*
X145536104Y-97264285D02*
X145574200Y-97302381D01*
X145574200Y-97302381D02*
X145612295Y-97416666D01*
X145612295Y-97416666D02*
X145612295Y-97492857D01*
X145612295Y-97492857D02*
X145574200Y-97607143D01*
X145574200Y-97607143D02*
X145498009Y-97683333D01*
X145498009Y-97683333D02*
X145421819Y-97721428D01*
X145421819Y-97721428D02*
X145269438Y-97759524D01*
X145269438Y-97759524D02*
X145155152Y-97759524D01*
X145155152Y-97759524D02*
X145002771Y-97721428D01*
X145002771Y-97721428D02*
X144926580Y-97683333D01*
X144926580Y-97683333D02*
X144850390Y-97607143D01*
X144850390Y-97607143D02*
X144812295Y-97492857D01*
X144812295Y-97492857D02*
X144812295Y-97416666D01*
X144812295Y-97416666D02*
X144850390Y-97302381D01*
X144850390Y-97302381D02*
X144888485Y-97264285D01*
X145612295Y-96502381D02*
X145612295Y-96959524D01*
X145612295Y-96730952D02*
X144812295Y-96730952D01*
X144812295Y-96730952D02*
X144926580Y-96807143D01*
X144926580Y-96807143D02*
X145002771Y-96883333D01*
X145002771Y-96883333D02*
X145040866Y-96959524D01*
X145078961Y-95816666D02*
X145612295Y-95816666D01*
X144774200Y-96007142D02*
X145345628Y-96197619D01*
X145345628Y-96197619D02*
X145345628Y-95702380D01*
X161235714Y-67536104D02*
X161197618Y-67574200D01*
X161197618Y-67574200D02*
X161083333Y-67612295D01*
X161083333Y-67612295D02*
X161007142Y-67612295D01*
X161007142Y-67612295D02*
X160892856Y-67574200D01*
X160892856Y-67574200D02*
X160816666Y-67498009D01*
X160816666Y-67498009D02*
X160778571Y-67421819D01*
X160778571Y-67421819D02*
X160740475Y-67269438D01*
X160740475Y-67269438D02*
X160740475Y-67155152D01*
X160740475Y-67155152D02*
X160778571Y-67002771D01*
X160778571Y-67002771D02*
X160816666Y-66926580D01*
X160816666Y-66926580D02*
X160892856Y-66850390D01*
X160892856Y-66850390D02*
X161007142Y-66812295D01*
X161007142Y-66812295D02*
X161083333Y-66812295D01*
X161083333Y-66812295D02*
X161197618Y-66850390D01*
X161197618Y-66850390D02*
X161235714Y-66888485D01*
X161540475Y-66888485D02*
X161578571Y-66850390D01*
X161578571Y-66850390D02*
X161654761Y-66812295D01*
X161654761Y-66812295D02*
X161845237Y-66812295D01*
X161845237Y-66812295D02*
X161921428Y-66850390D01*
X161921428Y-66850390D02*
X161959523Y-66888485D01*
X161959523Y-66888485D02*
X161997618Y-66964676D01*
X161997618Y-66964676D02*
X161997618Y-67040866D01*
X161997618Y-67040866D02*
X161959523Y-67155152D01*
X161959523Y-67155152D02*
X161502380Y-67612295D01*
X161502380Y-67612295D02*
X161997618Y-67612295D01*
X162264285Y-66812295D02*
X162759523Y-66812295D01*
X162759523Y-66812295D02*
X162492857Y-67117057D01*
X162492857Y-67117057D02*
X162607142Y-67117057D01*
X162607142Y-67117057D02*
X162683333Y-67155152D01*
X162683333Y-67155152D02*
X162721428Y-67193247D01*
X162721428Y-67193247D02*
X162759523Y-67269438D01*
X162759523Y-67269438D02*
X162759523Y-67459914D01*
X162759523Y-67459914D02*
X162721428Y-67536104D01*
X162721428Y-67536104D02*
X162683333Y-67574200D01*
X162683333Y-67574200D02*
X162607142Y-67612295D01*
X162607142Y-67612295D02*
X162378571Y-67612295D01*
X162378571Y-67612295D02*
X162302380Y-67574200D01*
X162302380Y-67574200D02*
X162264285Y-67536104D01*
X128036104Y-76014285D02*
X128074200Y-76052381D01*
X128074200Y-76052381D02*
X128112295Y-76166666D01*
X128112295Y-76166666D02*
X128112295Y-76242857D01*
X128112295Y-76242857D02*
X128074200Y-76357143D01*
X128074200Y-76357143D02*
X127998009Y-76433333D01*
X127998009Y-76433333D02*
X127921819Y-76471428D01*
X127921819Y-76471428D02*
X127769438Y-76509524D01*
X127769438Y-76509524D02*
X127655152Y-76509524D01*
X127655152Y-76509524D02*
X127502771Y-76471428D01*
X127502771Y-76471428D02*
X127426580Y-76433333D01*
X127426580Y-76433333D02*
X127350390Y-76357143D01*
X127350390Y-76357143D02*
X127312295Y-76242857D01*
X127312295Y-76242857D02*
X127312295Y-76166666D01*
X127312295Y-76166666D02*
X127350390Y-76052381D01*
X127350390Y-76052381D02*
X127388485Y-76014285D01*
X128112295Y-75252381D02*
X128112295Y-75709524D01*
X128112295Y-75480952D02*
X127312295Y-75480952D01*
X127312295Y-75480952D02*
X127426580Y-75557143D01*
X127426580Y-75557143D02*
X127502771Y-75633333D01*
X127502771Y-75633333D02*
X127540866Y-75709524D01*
X127655152Y-74795238D02*
X127617057Y-74871428D01*
X127617057Y-74871428D02*
X127578961Y-74909523D01*
X127578961Y-74909523D02*
X127502771Y-74947619D01*
X127502771Y-74947619D02*
X127464676Y-74947619D01*
X127464676Y-74947619D02*
X127388485Y-74909523D01*
X127388485Y-74909523D02*
X127350390Y-74871428D01*
X127350390Y-74871428D02*
X127312295Y-74795238D01*
X127312295Y-74795238D02*
X127312295Y-74642857D01*
X127312295Y-74642857D02*
X127350390Y-74566666D01*
X127350390Y-74566666D02*
X127388485Y-74528571D01*
X127388485Y-74528571D02*
X127464676Y-74490476D01*
X127464676Y-74490476D02*
X127502771Y-74490476D01*
X127502771Y-74490476D02*
X127578961Y-74528571D01*
X127578961Y-74528571D02*
X127617057Y-74566666D01*
X127617057Y-74566666D02*
X127655152Y-74642857D01*
X127655152Y-74642857D02*
X127655152Y-74795238D01*
X127655152Y-74795238D02*
X127693247Y-74871428D01*
X127693247Y-74871428D02*
X127731342Y-74909523D01*
X127731342Y-74909523D02*
X127807533Y-74947619D01*
X127807533Y-74947619D02*
X127959914Y-74947619D01*
X127959914Y-74947619D02*
X128036104Y-74909523D01*
X128036104Y-74909523D02*
X128074200Y-74871428D01*
X128074200Y-74871428D02*
X128112295Y-74795238D01*
X128112295Y-74795238D02*
X128112295Y-74642857D01*
X128112295Y-74642857D02*
X128074200Y-74566666D01*
X128074200Y-74566666D02*
X128036104Y-74528571D01*
X128036104Y-74528571D02*
X127959914Y-74490476D01*
X127959914Y-74490476D02*
X127807533Y-74490476D01*
X127807533Y-74490476D02*
X127731342Y-74528571D01*
X127731342Y-74528571D02*
X127693247Y-74566666D01*
X127693247Y-74566666D02*
X127655152Y-74642857D01*
X138215714Y-90136104D02*
X138177618Y-90174200D01*
X138177618Y-90174200D02*
X138063333Y-90212295D01*
X138063333Y-90212295D02*
X137987142Y-90212295D01*
X137987142Y-90212295D02*
X137872856Y-90174200D01*
X137872856Y-90174200D02*
X137796666Y-90098009D01*
X137796666Y-90098009D02*
X137758571Y-90021819D01*
X137758571Y-90021819D02*
X137720475Y-89869438D01*
X137720475Y-89869438D02*
X137720475Y-89755152D01*
X137720475Y-89755152D02*
X137758571Y-89602771D01*
X137758571Y-89602771D02*
X137796666Y-89526580D01*
X137796666Y-89526580D02*
X137872856Y-89450390D01*
X137872856Y-89450390D02*
X137987142Y-89412295D01*
X137987142Y-89412295D02*
X138063333Y-89412295D01*
X138063333Y-89412295D02*
X138177618Y-89450390D01*
X138177618Y-89450390D02*
X138215714Y-89488485D01*
X138520475Y-89488485D02*
X138558571Y-89450390D01*
X138558571Y-89450390D02*
X138634761Y-89412295D01*
X138634761Y-89412295D02*
X138825237Y-89412295D01*
X138825237Y-89412295D02*
X138901428Y-89450390D01*
X138901428Y-89450390D02*
X138939523Y-89488485D01*
X138939523Y-89488485D02*
X138977618Y-89564676D01*
X138977618Y-89564676D02*
X138977618Y-89640866D01*
X138977618Y-89640866D02*
X138939523Y-89755152D01*
X138939523Y-89755152D02*
X138482380Y-90212295D01*
X138482380Y-90212295D02*
X138977618Y-90212295D01*
X139739523Y-90212295D02*
X139282380Y-90212295D01*
X139510952Y-90212295D02*
X139510952Y-89412295D01*
X139510952Y-89412295D02*
X139434761Y-89526580D01*
X139434761Y-89526580D02*
X139358571Y-89602771D01*
X139358571Y-89602771D02*
X139282380Y-89640866D01*
X165566667Y-97662295D02*
X165300000Y-97281342D01*
X165109524Y-97662295D02*
X165109524Y-96862295D01*
X165109524Y-96862295D02*
X165414286Y-96862295D01*
X165414286Y-96862295D02*
X165490476Y-96900390D01*
X165490476Y-96900390D02*
X165528571Y-96938485D01*
X165528571Y-96938485D02*
X165566667Y-97014676D01*
X165566667Y-97014676D02*
X165566667Y-97128961D01*
X165566667Y-97128961D02*
X165528571Y-97205152D01*
X165528571Y-97205152D02*
X165490476Y-97243247D01*
X165490476Y-97243247D02*
X165414286Y-97281342D01*
X165414286Y-97281342D02*
X165109524Y-97281342D01*
X166328571Y-97662295D02*
X165871428Y-97662295D01*
X166100000Y-97662295D02*
X166100000Y-96862295D01*
X166100000Y-96862295D02*
X166023809Y-96976580D01*
X166023809Y-96976580D02*
X165947619Y-97052771D01*
X165947619Y-97052771D02*
X165871428Y-97090866D01*
X125602380Y-97212295D02*
X125602380Y-97783723D01*
X125602380Y-97783723D02*
X125564285Y-97898009D01*
X125564285Y-97898009D02*
X125488094Y-97974200D01*
X125488094Y-97974200D02*
X125373809Y-98012295D01*
X125373809Y-98012295D02*
X125297618Y-98012295D01*
X126402380Y-98012295D02*
X125945237Y-98012295D01*
X126173809Y-98012295D02*
X126173809Y-97212295D01*
X126173809Y-97212295D02*
X126097618Y-97326580D01*
X126097618Y-97326580D02*
X126021428Y-97402771D01*
X126021428Y-97402771D02*
X125945237Y-97440866D01*
X126707142Y-97288485D02*
X126745238Y-97250390D01*
X126745238Y-97250390D02*
X126821428Y-97212295D01*
X126821428Y-97212295D02*
X127011904Y-97212295D01*
X127011904Y-97212295D02*
X127088095Y-97250390D01*
X127088095Y-97250390D02*
X127126190Y-97288485D01*
X127126190Y-97288485D02*
X127164285Y-97364676D01*
X127164285Y-97364676D02*
X127164285Y-97440866D01*
X127164285Y-97440866D02*
X127126190Y-97555152D01*
X127126190Y-97555152D02*
X126669047Y-98012295D01*
X126669047Y-98012295D02*
X127164285Y-98012295D01*
X156075714Y-74872295D02*
X155809047Y-74491342D01*
X155618571Y-74872295D02*
X155618571Y-74072295D01*
X155618571Y-74072295D02*
X155923333Y-74072295D01*
X155923333Y-74072295D02*
X155999523Y-74110390D01*
X155999523Y-74110390D02*
X156037618Y-74148485D01*
X156037618Y-74148485D02*
X156075714Y-74224676D01*
X156075714Y-74224676D02*
X156075714Y-74338961D01*
X156075714Y-74338961D02*
X156037618Y-74415152D01*
X156037618Y-74415152D02*
X155999523Y-74453247D01*
X155999523Y-74453247D02*
X155923333Y-74491342D01*
X155923333Y-74491342D02*
X155618571Y-74491342D01*
X156837618Y-74872295D02*
X156380475Y-74872295D01*
X156609047Y-74872295D02*
X156609047Y-74072295D01*
X156609047Y-74072295D02*
X156532856Y-74186580D01*
X156532856Y-74186580D02*
X156456666Y-74262771D01*
X156456666Y-74262771D02*
X156380475Y-74300866D01*
X157561428Y-74072295D02*
X157180476Y-74072295D01*
X157180476Y-74072295D02*
X157142380Y-74453247D01*
X157142380Y-74453247D02*
X157180476Y-74415152D01*
X157180476Y-74415152D02*
X157256666Y-74377057D01*
X157256666Y-74377057D02*
X157447142Y-74377057D01*
X157447142Y-74377057D02*
X157523333Y-74415152D01*
X157523333Y-74415152D02*
X157561428Y-74453247D01*
X157561428Y-74453247D02*
X157599523Y-74529438D01*
X157599523Y-74529438D02*
X157599523Y-74719914D01*
X157599523Y-74719914D02*
X157561428Y-74796104D01*
X157561428Y-74796104D02*
X157523333Y-74834200D01*
X157523333Y-74834200D02*
X157447142Y-74872295D01*
X157447142Y-74872295D02*
X157256666Y-74872295D01*
X157256666Y-74872295D02*
X157180476Y-74834200D01*
X157180476Y-74834200D02*
X157142380Y-74796104D01*
X159173809Y-77188485D02*
X159097619Y-77150390D01*
X159097619Y-77150390D02*
X159021428Y-77074200D01*
X159021428Y-77074200D02*
X158907142Y-76959914D01*
X158907142Y-76959914D02*
X158830952Y-76921819D01*
X158830952Y-76921819D02*
X158754761Y-76921819D01*
X158792857Y-77112295D02*
X158716666Y-77074200D01*
X158716666Y-77074200D02*
X158640476Y-76998009D01*
X158640476Y-76998009D02*
X158602380Y-76845628D01*
X158602380Y-76845628D02*
X158602380Y-76578961D01*
X158602380Y-76578961D02*
X158640476Y-76426580D01*
X158640476Y-76426580D02*
X158716666Y-76350390D01*
X158716666Y-76350390D02*
X158792857Y-76312295D01*
X158792857Y-76312295D02*
X158945238Y-76312295D01*
X158945238Y-76312295D02*
X159021428Y-76350390D01*
X159021428Y-76350390D02*
X159097619Y-76426580D01*
X159097619Y-76426580D02*
X159135714Y-76578961D01*
X159135714Y-76578961D02*
X159135714Y-76845628D01*
X159135714Y-76845628D02*
X159097619Y-76998009D01*
X159097619Y-76998009D02*
X159021428Y-77074200D01*
X159021428Y-77074200D02*
X158945238Y-77112295D01*
X158945238Y-77112295D02*
X158792857Y-77112295D01*
X159440475Y-76388485D02*
X159478571Y-76350390D01*
X159478571Y-76350390D02*
X159554761Y-76312295D01*
X159554761Y-76312295D02*
X159745237Y-76312295D01*
X159745237Y-76312295D02*
X159821428Y-76350390D01*
X159821428Y-76350390D02*
X159859523Y-76388485D01*
X159859523Y-76388485D02*
X159897618Y-76464676D01*
X159897618Y-76464676D02*
X159897618Y-76540866D01*
X159897618Y-76540866D02*
X159859523Y-76655152D01*
X159859523Y-76655152D02*
X159402380Y-77112295D01*
X159402380Y-77112295D02*
X159897618Y-77112295D01*
X162852380Y-69062295D02*
X162852380Y-69633723D01*
X162852380Y-69633723D02*
X162814285Y-69748009D01*
X162814285Y-69748009D02*
X162738094Y-69824200D01*
X162738094Y-69824200D02*
X162623809Y-69862295D01*
X162623809Y-69862295D02*
X162547618Y-69862295D01*
X163652380Y-69862295D02*
X163195237Y-69862295D01*
X163423809Y-69862295D02*
X163423809Y-69062295D01*
X163423809Y-69062295D02*
X163347618Y-69176580D01*
X163347618Y-69176580D02*
X163271428Y-69252771D01*
X163271428Y-69252771D02*
X163195237Y-69290866D01*
X164147619Y-69062295D02*
X164223809Y-69062295D01*
X164223809Y-69062295D02*
X164300000Y-69100390D01*
X164300000Y-69100390D02*
X164338095Y-69138485D01*
X164338095Y-69138485D02*
X164376190Y-69214676D01*
X164376190Y-69214676D02*
X164414285Y-69367057D01*
X164414285Y-69367057D02*
X164414285Y-69557533D01*
X164414285Y-69557533D02*
X164376190Y-69709914D01*
X164376190Y-69709914D02*
X164338095Y-69786104D01*
X164338095Y-69786104D02*
X164300000Y-69824200D01*
X164300000Y-69824200D02*
X164223809Y-69862295D01*
X164223809Y-69862295D02*
X164147619Y-69862295D01*
X164147619Y-69862295D02*
X164071428Y-69824200D01*
X164071428Y-69824200D02*
X164033333Y-69786104D01*
X164033333Y-69786104D02*
X163995238Y-69709914D01*
X163995238Y-69709914D02*
X163957142Y-69557533D01*
X163957142Y-69557533D02*
X163957142Y-69367057D01*
X163957142Y-69367057D02*
X163995238Y-69214676D01*
X163995238Y-69214676D02*
X164033333Y-69138485D01*
X164033333Y-69138485D02*
X164071428Y-69100390D01*
X164071428Y-69100390D02*
X164147619Y-69062295D01*
X156155714Y-71122295D02*
X155889047Y-70741342D01*
X155698571Y-71122295D02*
X155698571Y-70322295D01*
X155698571Y-70322295D02*
X156003333Y-70322295D01*
X156003333Y-70322295D02*
X156079523Y-70360390D01*
X156079523Y-70360390D02*
X156117618Y-70398485D01*
X156117618Y-70398485D02*
X156155714Y-70474676D01*
X156155714Y-70474676D02*
X156155714Y-70588961D01*
X156155714Y-70588961D02*
X156117618Y-70665152D01*
X156117618Y-70665152D02*
X156079523Y-70703247D01*
X156079523Y-70703247D02*
X156003333Y-70741342D01*
X156003333Y-70741342D02*
X155698571Y-70741342D01*
X156917618Y-71122295D02*
X156460475Y-71122295D01*
X156689047Y-71122295D02*
X156689047Y-70322295D01*
X156689047Y-70322295D02*
X156612856Y-70436580D01*
X156612856Y-70436580D02*
X156536666Y-70512771D01*
X156536666Y-70512771D02*
X156460475Y-70550866D01*
X157184285Y-70322295D02*
X157679523Y-70322295D01*
X157679523Y-70322295D02*
X157412857Y-70627057D01*
X157412857Y-70627057D02*
X157527142Y-70627057D01*
X157527142Y-70627057D02*
X157603333Y-70665152D01*
X157603333Y-70665152D02*
X157641428Y-70703247D01*
X157641428Y-70703247D02*
X157679523Y-70779438D01*
X157679523Y-70779438D02*
X157679523Y-70969914D01*
X157679523Y-70969914D02*
X157641428Y-71046104D01*
X157641428Y-71046104D02*
X157603333Y-71084200D01*
X157603333Y-71084200D02*
X157527142Y-71122295D01*
X157527142Y-71122295D02*
X157298571Y-71122295D01*
X157298571Y-71122295D02*
X157222380Y-71084200D01*
X157222380Y-71084200D02*
X157184285Y-71046104D01*
X136640476Y-77292295D02*
X136640476Y-77939914D01*
X136640476Y-77939914D02*
X136678571Y-78016104D01*
X136678571Y-78016104D02*
X136716666Y-78054200D01*
X136716666Y-78054200D02*
X136792857Y-78092295D01*
X136792857Y-78092295D02*
X136945238Y-78092295D01*
X136945238Y-78092295D02*
X137021428Y-78054200D01*
X137021428Y-78054200D02*
X137059523Y-78016104D01*
X137059523Y-78016104D02*
X137097619Y-77939914D01*
X137097619Y-77939914D02*
X137097619Y-77292295D01*
X137821428Y-77558961D02*
X137821428Y-78092295D01*
X137630952Y-77254200D02*
X137440475Y-77825628D01*
X137440475Y-77825628D02*
X137935714Y-77825628D01*
X167025714Y-82846104D02*
X166987618Y-82884200D01*
X166987618Y-82884200D02*
X166873333Y-82922295D01*
X166873333Y-82922295D02*
X166797142Y-82922295D01*
X166797142Y-82922295D02*
X166682856Y-82884200D01*
X166682856Y-82884200D02*
X166606666Y-82808009D01*
X166606666Y-82808009D02*
X166568571Y-82731819D01*
X166568571Y-82731819D02*
X166530475Y-82579438D01*
X166530475Y-82579438D02*
X166530475Y-82465152D01*
X166530475Y-82465152D02*
X166568571Y-82312771D01*
X166568571Y-82312771D02*
X166606666Y-82236580D01*
X166606666Y-82236580D02*
X166682856Y-82160390D01*
X166682856Y-82160390D02*
X166797142Y-82122295D01*
X166797142Y-82122295D02*
X166873333Y-82122295D01*
X166873333Y-82122295D02*
X166987618Y-82160390D01*
X166987618Y-82160390D02*
X167025714Y-82198485D01*
X167787618Y-82922295D02*
X167330475Y-82922295D01*
X167559047Y-82922295D02*
X167559047Y-82122295D01*
X167559047Y-82122295D02*
X167482856Y-82236580D01*
X167482856Y-82236580D02*
X167406666Y-82312771D01*
X167406666Y-82312771D02*
X167330475Y-82350866D01*
X168054285Y-82122295D02*
X168549523Y-82122295D01*
X168549523Y-82122295D02*
X168282857Y-82427057D01*
X168282857Y-82427057D02*
X168397142Y-82427057D01*
X168397142Y-82427057D02*
X168473333Y-82465152D01*
X168473333Y-82465152D02*
X168511428Y-82503247D01*
X168511428Y-82503247D02*
X168549523Y-82579438D01*
X168549523Y-82579438D02*
X168549523Y-82769914D01*
X168549523Y-82769914D02*
X168511428Y-82846104D01*
X168511428Y-82846104D02*
X168473333Y-82884200D01*
X168473333Y-82884200D02*
X168397142Y-82922295D01*
X168397142Y-82922295D02*
X168168571Y-82922295D01*
X168168571Y-82922295D02*
X168092380Y-82884200D01*
X168092380Y-82884200D02*
X168054285Y-82846104D01*
X136036104Y-96764285D02*
X136074200Y-96802381D01*
X136074200Y-96802381D02*
X136112295Y-96916666D01*
X136112295Y-96916666D02*
X136112295Y-96992857D01*
X136112295Y-96992857D02*
X136074200Y-97107143D01*
X136074200Y-97107143D02*
X135998009Y-97183333D01*
X135998009Y-97183333D02*
X135921819Y-97221428D01*
X135921819Y-97221428D02*
X135769438Y-97259524D01*
X135769438Y-97259524D02*
X135655152Y-97259524D01*
X135655152Y-97259524D02*
X135502771Y-97221428D01*
X135502771Y-97221428D02*
X135426580Y-97183333D01*
X135426580Y-97183333D02*
X135350390Y-97107143D01*
X135350390Y-97107143D02*
X135312295Y-96992857D01*
X135312295Y-96992857D02*
X135312295Y-96916666D01*
X135312295Y-96916666D02*
X135350390Y-96802381D01*
X135350390Y-96802381D02*
X135388485Y-96764285D01*
X136112295Y-96002381D02*
X136112295Y-96459524D01*
X136112295Y-96230952D02*
X135312295Y-96230952D01*
X135312295Y-96230952D02*
X135426580Y-96307143D01*
X135426580Y-96307143D02*
X135502771Y-96383333D01*
X135502771Y-96383333D02*
X135540866Y-96459524D01*
X135312295Y-95316666D02*
X135312295Y-95469047D01*
X135312295Y-95469047D02*
X135350390Y-95545238D01*
X135350390Y-95545238D02*
X135388485Y-95583333D01*
X135388485Y-95583333D02*
X135502771Y-95659523D01*
X135502771Y-95659523D02*
X135655152Y-95697619D01*
X135655152Y-95697619D02*
X135959914Y-95697619D01*
X135959914Y-95697619D02*
X136036104Y-95659523D01*
X136036104Y-95659523D02*
X136074200Y-95621428D01*
X136074200Y-95621428D02*
X136112295Y-95545238D01*
X136112295Y-95545238D02*
X136112295Y-95392857D01*
X136112295Y-95392857D02*
X136074200Y-95316666D01*
X136074200Y-95316666D02*
X136036104Y-95278571D01*
X136036104Y-95278571D02*
X135959914Y-95240476D01*
X135959914Y-95240476D02*
X135769438Y-95240476D01*
X135769438Y-95240476D02*
X135693247Y-95278571D01*
X135693247Y-95278571D02*
X135655152Y-95316666D01*
X135655152Y-95316666D02*
X135617057Y-95392857D01*
X135617057Y-95392857D02*
X135617057Y-95545238D01*
X135617057Y-95545238D02*
X135655152Y-95621428D01*
X135655152Y-95621428D02*
X135693247Y-95659523D01*
X135693247Y-95659523D02*
X135769438Y-95697619D01*
X146366667Y-98362295D02*
X146100000Y-97981342D01*
X145909524Y-98362295D02*
X145909524Y-97562295D01*
X145909524Y-97562295D02*
X146214286Y-97562295D01*
X146214286Y-97562295D02*
X146290476Y-97600390D01*
X146290476Y-97600390D02*
X146328571Y-97638485D01*
X146328571Y-97638485D02*
X146366667Y-97714676D01*
X146366667Y-97714676D02*
X146366667Y-97828961D01*
X146366667Y-97828961D02*
X146328571Y-97905152D01*
X146328571Y-97905152D02*
X146290476Y-97943247D01*
X146290476Y-97943247D02*
X146214286Y-97981342D01*
X146214286Y-97981342D02*
X145909524Y-97981342D01*
X146671428Y-97638485D02*
X146709524Y-97600390D01*
X146709524Y-97600390D02*
X146785714Y-97562295D01*
X146785714Y-97562295D02*
X146976190Y-97562295D01*
X146976190Y-97562295D02*
X147052381Y-97600390D01*
X147052381Y-97600390D02*
X147090476Y-97638485D01*
X147090476Y-97638485D02*
X147128571Y-97714676D01*
X147128571Y-97714676D02*
X147128571Y-97790866D01*
X147128571Y-97790866D02*
X147090476Y-97905152D01*
X147090476Y-97905152D02*
X146633333Y-98362295D01*
X146633333Y-98362295D02*
X147128571Y-98362295D01*
X153409524Y-68112295D02*
X153409524Y-67312295D01*
X153409524Y-67312295D02*
X153600000Y-67312295D01*
X153600000Y-67312295D02*
X153714286Y-67350390D01*
X153714286Y-67350390D02*
X153790476Y-67426580D01*
X153790476Y-67426580D02*
X153828571Y-67502771D01*
X153828571Y-67502771D02*
X153866667Y-67655152D01*
X153866667Y-67655152D02*
X153866667Y-67769438D01*
X153866667Y-67769438D02*
X153828571Y-67921819D01*
X153828571Y-67921819D02*
X153790476Y-67998009D01*
X153790476Y-67998009D02*
X153714286Y-68074200D01*
X153714286Y-68074200D02*
X153600000Y-68112295D01*
X153600000Y-68112295D02*
X153409524Y-68112295D01*
X154133333Y-67312295D02*
X154628571Y-67312295D01*
X154628571Y-67312295D02*
X154361905Y-67617057D01*
X154361905Y-67617057D02*
X154476190Y-67617057D01*
X154476190Y-67617057D02*
X154552381Y-67655152D01*
X154552381Y-67655152D02*
X154590476Y-67693247D01*
X154590476Y-67693247D02*
X154628571Y-67769438D01*
X154628571Y-67769438D02*
X154628571Y-67959914D01*
X154628571Y-67959914D02*
X154590476Y-68036104D01*
X154590476Y-68036104D02*
X154552381Y-68074200D01*
X154552381Y-68074200D02*
X154476190Y-68112295D01*
X154476190Y-68112295D02*
X154247619Y-68112295D01*
X154247619Y-68112295D02*
X154171428Y-68074200D01*
X154171428Y-68074200D02*
X154133333Y-68036104D01*
X163483333Y-77562295D02*
X163483333Y-78133723D01*
X163483333Y-78133723D02*
X163445238Y-78248009D01*
X163445238Y-78248009D02*
X163369047Y-78324200D01*
X163369047Y-78324200D02*
X163254762Y-78362295D01*
X163254762Y-78362295D02*
X163178571Y-78362295D01*
X163902381Y-78362295D02*
X164054762Y-78362295D01*
X164054762Y-78362295D02*
X164130952Y-78324200D01*
X164130952Y-78324200D02*
X164169048Y-78286104D01*
X164169048Y-78286104D02*
X164245238Y-78171819D01*
X164245238Y-78171819D02*
X164283333Y-78019438D01*
X164283333Y-78019438D02*
X164283333Y-77714676D01*
X164283333Y-77714676D02*
X164245238Y-77638485D01*
X164245238Y-77638485D02*
X164207143Y-77600390D01*
X164207143Y-77600390D02*
X164130952Y-77562295D01*
X164130952Y-77562295D02*
X163978571Y-77562295D01*
X163978571Y-77562295D02*
X163902381Y-77600390D01*
X163902381Y-77600390D02*
X163864286Y-77638485D01*
X163864286Y-77638485D02*
X163826190Y-77714676D01*
X163826190Y-77714676D02*
X163826190Y-77905152D01*
X163826190Y-77905152D02*
X163864286Y-77981342D01*
X163864286Y-77981342D02*
X163902381Y-78019438D01*
X163902381Y-78019438D02*
X163978571Y-78057533D01*
X163978571Y-78057533D02*
X164130952Y-78057533D01*
X164130952Y-78057533D02*
X164207143Y-78019438D01*
X164207143Y-78019438D02*
X164245238Y-77981342D01*
X164245238Y-77981342D02*
X164283333Y-77905152D01*
X165602380Y-88062295D02*
X166135714Y-88862295D01*
X166135714Y-88062295D02*
X165602380Y-88862295D01*
X166859523Y-88862295D02*
X166402380Y-88862295D01*
X166630952Y-88862295D02*
X166630952Y-88062295D01*
X166630952Y-88062295D02*
X166554761Y-88176580D01*
X166554761Y-88176580D02*
X166478571Y-88252771D01*
X166478571Y-88252771D02*
X166402380Y-88290866D01*
X133106667Y-71202295D02*
X132840000Y-70821342D01*
X132649524Y-71202295D02*
X132649524Y-70402295D01*
X132649524Y-70402295D02*
X132954286Y-70402295D01*
X132954286Y-70402295D02*
X133030476Y-70440390D01*
X133030476Y-70440390D02*
X133068571Y-70478485D01*
X133068571Y-70478485D02*
X133106667Y-70554676D01*
X133106667Y-70554676D02*
X133106667Y-70668961D01*
X133106667Y-70668961D02*
X133068571Y-70745152D01*
X133068571Y-70745152D02*
X133030476Y-70783247D01*
X133030476Y-70783247D02*
X132954286Y-70821342D01*
X132954286Y-70821342D02*
X132649524Y-70821342D01*
X133487619Y-71202295D02*
X133640000Y-71202295D01*
X133640000Y-71202295D02*
X133716190Y-71164200D01*
X133716190Y-71164200D02*
X133754286Y-71126104D01*
X133754286Y-71126104D02*
X133830476Y-71011819D01*
X133830476Y-71011819D02*
X133868571Y-70859438D01*
X133868571Y-70859438D02*
X133868571Y-70554676D01*
X133868571Y-70554676D02*
X133830476Y-70478485D01*
X133830476Y-70478485D02*
X133792381Y-70440390D01*
X133792381Y-70440390D02*
X133716190Y-70402295D01*
X133716190Y-70402295D02*
X133563809Y-70402295D01*
X133563809Y-70402295D02*
X133487619Y-70440390D01*
X133487619Y-70440390D02*
X133449524Y-70478485D01*
X133449524Y-70478485D02*
X133411428Y-70554676D01*
X133411428Y-70554676D02*
X133411428Y-70745152D01*
X133411428Y-70745152D02*
X133449524Y-70821342D01*
X133449524Y-70821342D02*
X133487619Y-70859438D01*
X133487619Y-70859438D02*
X133563809Y-70897533D01*
X133563809Y-70897533D02*
X133716190Y-70897533D01*
X133716190Y-70897533D02*
X133792381Y-70859438D01*
X133792381Y-70859438D02*
X133830476Y-70821342D01*
X133830476Y-70821342D02*
X133868571Y-70745152D01*
X145570476Y-80352295D02*
X145570476Y-80999914D01*
X145570476Y-80999914D02*
X145608571Y-81076104D01*
X145608571Y-81076104D02*
X145646666Y-81114200D01*
X145646666Y-81114200D02*
X145722857Y-81152295D01*
X145722857Y-81152295D02*
X145875238Y-81152295D01*
X145875238Y-81152295D02*
X145951428Y-81114200D01*
X145951428Y-81114200D02*
X145989523Y-81076104D01*
X145989523Y-81076104D02*
X146027619Y-80999914D01*
X146027619Y-80999914D02*
X146027619Y-80352295D01*
X146332380Y-80352295D02*
X146865714Y-80352295D01*
X146865714Y-80352295D02*
X146522856Y-81152295D01*
X153366667Y-97862295D02*
X153100000Y-97481342D01*
X152909524Y-97862295D02*
X152909524Y-97062295D01*
X152909524Y-97062295D02*
X153214286Y-97062295D01*
X153214286Y-97062295D02*
X153290476Y-97100390D01*
X153290476Y-97100390D02*
X153328571Y-97138485D01*
X153328571Y-97138485D02*
X153366667Y-97214676D01*
X153366667Y-97214676D02*
X153366667Y-97328961D01*
X153366667Y-97328961D02*
X153328571Y-97405152D01*
X153328571Y-97405152D02*
X153290476Y-97443247D01*
X153290476Y-97443247D02*
X153214286Y-97481342D01*
X153214286Y-97481342D02*
X152909524Y-97481342D01*
X153633333Y-97062295D02*
X154128571Y-97062295D01*
X154128571Y-97062295D02*
X153861905Y-97367057D01*
X153861905Y-97367057D02*
X153976190Y-97367057D01*
X153976190Y-97367057D02*
X154052381Y-97405152D01*
X154052381Y-97405152D02*
X154090476Y-97443247D01*
X154090476Y-97443247D02*
X154128571Y-97519438D01*
X154128571Y-97519438D02*
X154128571Y-97709914D01*
X154128571Y-97709914D02*
X154090476Y-97786104D01*
X154090476Y-97786104D02*
X154052381Y-97824200D01*
X154052381Y-97824200D02*
X153976190Y-97862295D01*
X153976190Y-97862295D02*
X153747619Y-97862295D01*
X153747619Y-97862295D02*
X153671428Y-97824200D01*
X153671428Y-97824200D02*
X153633333Y-97786104D01*
X138366666Y-79112295D02*
X137985714Y-79112295D01*
X137985714Y-79112295D02*
X137985714Y-78312295D01*
X139052380Y-79112295D02*
X138595237Y-79112295D01*
X138823809Y-79112295D02*
X138823809Y-78312295D01*
X138823809Y-78312295D02*
X138747618Y-78426580D01*
X138747618Y-78426580D02*
X138671428Y-78502771D01*
X138671428Y-78502771D02*
X138595237Y-78540866D01*
X125982295Y-69030475D02*
X125182295Y-69030475D01*
X125182295Y-69030475D02*
X125182295Y-68839999D01*
X125182295Y-68839999D02*
X125220390Y-68725713D01*
X125220390Y-68725713D02*
X125296580Y-68649523D01*
X125296580Y-68649523D02*
X125372771Y-68611428D01*
X125372771Y-68611428D02*
X125525152Y-68573332D01*
X125525152Y-68573332D02*
X125639438Y-68573332D01*
X125639438Y-68573332D02*
X125791819Y-68611428D01*
X125791819Y-68611428D02*
X125868009Y-68649523D01*
X125868009Y-68649523D02*
X125944200Y-68725713D01*
X125944200Y-68725713D02*
X125982295Y-68839999D01*
X125982295Y-68839999D02*
X125982295Y-69030475D01*
X125258485Y-68268571D02*
X125220390Y-68230475D01*
X125220390Y-68230475D02*
X125182295Y-68154285D01*
X125182295Y-68154285D02*
X125182295Y-67963809D01*
X125182295Y-67963809D02*
X125220390Y-67887618D01*
X125220390Y-67887618D02*
X125258485Y-67849523D01*
X125258485Y-67849523D02*
X125334676Y-67811428D01*
X125334676Y-67811428D02*
X125410866Y-67811428D01*
X125410866Y-67811428D02*
X125525152Y-67849523D01*
X125525152Y-67849523D02*
X125982295Y-68306666D01*
X125982295Y-68306666D02*
X125982295Y-67811428D01*
X166182380Y-93752295D02*
X166715714Y-94552295D01*
X166715714Y-93752295D02*
X166182380Y-94552295D01*
X166982380Y-93828485D02*
X167020476Y-93790390D01*
X167020476Y-93790390D02*
X167096666Y-93752295D01*
X167096666Y-93752295D02*
X167287142Y-93752295D01*
X167287142Y-93752295D02*
X167363333Y-93790390D01*
X167363333Y-93790390D02*
X167401428Y-93828485D01*
X167401428Y-93828485D02*
X167439523Y-93904676D01*
X167439523Y-93904676D02*
X167439523Y-93980866D01*
X167439523Y-93980866D02*
X167401428Y-94095152D01*
X167401428Y-94095152D02*
X166944285Y-94552295D01*
X166944285Y-94552295D02*
X167439523Y-94552295D01*
X130532295Y-79850475D02*
X129732295Y-79850475D01*
X129732295Y-79850475D02*
X129732295Y-79659999D01*
X129732295Y-79659999D02*
X129770390Y-79545713D01*
X129770390Y-79545713D02*
X129846580Y-79469523D01*
X129846580Y-79469523D02*
X129922771Y-79431428D01*
X129922771Y-79431428D02*
X130075152Y-79393332D01*
X130075152Y-79393332D02*
X130189438Y-79393332D01*
X130189438Y-79393332D02*
X130341819Y-79431428D01*
X130341819Y-79431428D02*
X130418009Y-79469523D01*
X130418009Y-79469523D02*
X130494200Y-79545713D01*
X130494200Y-79545713D02*
X130532295Y-79659999D01*
X130532295Y-79659999D02*
X130532295Y-79850475D01*
X129732295Y-78669523D02*
X129732295Y-79050475D01*
X129732295Y-79050475D02*
X130113247Y-79088571D01*
X130113247Y-79088571D02*
X130075152Y-79050475D01*
X130075152Y-79050475D02*
X130037057Y-78974285D01*
X130037057Y-78974285D02*
X130037057Y-78783809D01*
X130037057Y-78783809D02*
X130075152Y-78707618D01*
X130075152Y-78707618D02*
X130113247Y-78669523D01*
X130113247Y-78669523D02*
X130189438Y-78631428D01*
X130189438Y-78631428D02*
X130379914Y-78631428D01*
X130379914Y-78631428D02*
X130456104Y-78669523D01*
X130456104Y-78669523D02*
X130494200Y-78707618D01*
X130494200Y-78707618D02*
X130532295Y-78783809D01*
X130532295Y-78783809D02*
X130532295Y-78974285D01*
X130532295Y-78974285D02*
X130494200Y-79050475D01*
X130494200Y-79050475D02*
X130456104Y-79088571D01*
X137045714Y-71366104D02*
X137007618Y-71404200D01*
X137007618Y-71404200D02*
X136893333Y-71442295D01*
X136893333Y-71442295D02*
X136817142Y-71442295D01*
X136817142Y-71442295D02*
X136702856Y-71404200D01*
X136702856Y-71404200D02*
X136626666Y-71328009D01*
X136626666Y-71328009D02*
X136588571Y-71251819D01*
X136588571Y-71251819D02*
X136550475Y-71099438D01*
X136550475Y-71099438D02*
X136550475Y-70985152D01*
X136550475Y-70985152D02*
X136588571Y-70832771D01*
X136588571Y-70832771D02*
X136626666Y-70756580D01*
X136626666Y-70756580D02*
X136702856Y-70680390D01*
X136702856Y-70680390D02*
X136817142Y-70642295D01*
X136817142Y-70642295D02*
X136893333Y-70642295D01*
X136893333Y-70642295D02*
X137007618Y-70680390D01*
X137007618Y-70680390D02*
X137045714Y-70718485D01*
X137350475Y-70718485D02*
X137388571Y-70680390D01*
X137388571Y-70680390D02*
X137464761Y-70642295D01*
X137464761Y-70642295D02*
X137655237Y-70642295D01*
X137655237Y-70642295D02*
X137731428Y-70680390D01*
X137731428Y-70680390D02*
X137769523Y-70718485D01*
X137769523Y-70718485D02*
X137807618Y-70794676D01*
X137807618Y-70794676D02*
X137807618Y-70870866D01*
X137807618Y-70870866D02*
X137769523Y-70985152D01*
X137769523Y-70985152D02*
X137312380Y-71442295D01*
X137312380Y-71442295D02*
X137807618Y-71442295D01*
X138302857Y-70642295D02*
X138379047Y-70642295D01*
X138379047Y-70642295D02*
X138455238Y-70680390D01*
X138455238Y-70680390D02*
X138493333Y-70718485D01*
X138493333Y-70718485D02*
X138531428Y-70794676D01*
X138531428Y-70794676D02*
X138569523Y-70947057D01*
X138569523Y-70947057D02*
X138569523Y-71137533D01*
X138569523Y-71137533D02*
X138531428Y-71289914D01*
X138531428Y-71289914D02*
X138493333Y-71366104D01*
X138493333Y-71366104D02*
X138455238Y-71404200D01*
X138455238Y-71404200D02*
X138379047Y-71442295D01*
X138379047Y-71442295D02*
X138302857Y-71442295D01*
X138302857Y-71442295D02*
X138226666Y-71404200D01*
X138226666Y-71404200D02*
X138188571Y-71366104D01*
X138188571Y-71366104D02*
X138150476Y-71289914D01*
X138150476Y-71289914D02*
X138112380Y-71137533D01*
X138112380Y-71137533D02*
X138112380Y-70947057D01*
X138112380Y-70947057D02*
X138150476Y-70794676D01*
X138150476Y-70794676D02*
X138188571Y-70718485D01*
X138188571Y-70718485D02*
X138226666Y-70680390D01*
X138226666Y-70680390D02*
X138302857Y-70642295D01*
X137786104Y-96764285D02*
X137824200Y-96802381D01*
X137824200Y-96802381D02*
X137862295Y-96916666D01*
X137862295Y-96916666D02*
X137862295Y-96992857D01*
X137862295Y-96992857D02*
X137824200Y-97107143D01*
X137824200Y-97107143D02*
X137748009Y-97183333D01*
X137748009Y-97183333D02*
X137671819Y-97221428D01*
X137671819Y-97221428D02*
X137519438Y-97259524D01*
X137519438Y-97259524D02*
X137405152Y-97259524D01*
X137405152Y-97259524D02*
X137252771Y-97221428D01*
X137252771Y-97221428D02*
X137176580Y-97183333D01*
X137176580Y-97183333D02*
X137100390Y-97107143D01*
X137100390Y-97107143D02*
X137062295Y-96992857D01*
X137062295Y-96992857D02*
X137062295Y-96916666D01*
X137062295Y-96916666D02*
X137100390Y-96802381D01*
X137100390Y-96802381D02*
X137138485Y-96764285D01*
X137862295Y-96002381D02*
X137862295Y-96459524D01*
X137862295Y-96230952D02*
X137062295Y-96230952D01*
X137062295Y-96230952D02*
X137176580Y-96307143D01*
X137176580Y-96307143D02*
X137252771Y-96383333D01*
X137252771Y-96383333D02*
X137290866Y-96459524D01*
X137138485Y-95697619D02*
X137100390Y-95659523D01*
X137100390Y-95659523D02*
X137062295Y-95583333D01*
X137062295Y-95583333D02*
X137062295Y-95392857D01*
X137062295Y-95392857D02*
X137100390Y-95316666D01*
X137100390Y-95316666D02*
X137138485Y-95278571D01*
X137138485Y-95278571D02*
X137214676Y-95240476D01*
X137214676Y-95240476D02*
X137290866Y-95240476D01*
X137290866Y-95240476D02*
X137405152Y-95278571D01*
X137405152Y-95278571D02*
X137862295Y-95735714D01*
X137862295Y-95735714D02*
X137862295Y-95240476D01*
X161325714Y-78776104D02*
X161287618Y-78814200D01*
X161287618Y-78814200D02*
X161173333Y-78852295D01*
X161173333Y-78852295D02*
X161097142Y-78852295D01*
X161097142Y-78852295D02*
X160982856Y-78814200D01*
X160982856Y-78814200D02*
X160906666Y-78738009D01*
X160906666Y-78738009D02*
X160868571Y-78661819D01*
X160868571Y-78661819D02*
X160830475Y-78509438D01*
X160830475Y-78509438D02*
X160830475Y-78395152D01*
X160830475Y-78395152D02*
X160868571Y-78242771D01*
X160868571Y-78242771D02*
X160906666Y-78166580D01*
X160906666Y-78166580D02*
X160982856Y-78090390D01*
X160982856Y-78090390D02*
X161097142Y-78052295D01*
X161097142Y-78052295D02*
X161173333Y-78052295D01*
X161173333Y-78052295D02*
X161287618Y-78090390D01*
X161287618Y-78090390D02*
X161325714Y-78128485D01*
X161630475Y-78128485D02*
X161668571Y-78090390D01*
X161668571Y-78090390D02*
X161744761Y-78052295D01*
X161744761Y-78052295D02*
X161935237Y-78052295D01*
X161935237Y-78052295D02*
X162011428Y-78090390D01*
X162011428Y-78090390D02*
X162049523Y-78128485D01*
X162049523Y-78128485D02*
X162087618Y-78204676D01*
X162087618Y-78204676D02*
X162087618Y-78280866D01*
X162087618Y-78280866D02*
X162049523Y-78395152D01*
X162049523Y-78395152D02*
X161592380Y-78852295D01*
X161592380Y-78852295D02*
X162087618Y-78852295D01*
X162773333Y-78318961D02*
X162773333Y-78852295D01*
X162582857Y-78014200D02*
X162392380Y-78585628D01*
X162392380Y-78585628D02*
X162887619Y-78585628D01*
D11*
%TO.C,J3*%
X139990000Y-63035000D02*
X139990000Y-65535000D01*
X139990000Y-65535000D02*
X141040000Y-65535000D01*
X145040000Y-61065000D02*
X141160000Y-61065000D01*
X145160000Y-65535000D02*
X145160000Y-66525000D01*
X146210000Y-63035000D02*
X146210000Y-65535000D01*
X146210000Y-65535000D02*
X145160000Y-65535000D01*
%TO.C,C7*%
X128990000Y-84520000D02*
X125970000Y-84520000D01*
X125970000Y-84520000D02*
X125970000Y-88740000D01*
X128990000Y-88740000D02*
X128990000Y-84520000D01*
%TO.C,J11*%
X146120000Y-74230000D02*
X146120000Y-69040000D01*
X148880000Y-69040000D02*
X146120000Y-69040000D01*
X148880000Y-74230000D02*
X146120000Y-74230000D01*
X148880000Y-74230000D02*
X148880000Y-69040000D01*
X148880000Y-75500000D02*
X148880000Y-76880000D01*
X148880000Y-76880000D02*
X147500000Y-76880000D01*
%TO.C,R8*%
X132153641Y-86580000D02*
X131846359Y-86580000D01*
X132153641Y-85820000D02*
X131846359Y-85820000D01*
%TO.C,C26*%
X144892164Y-68110000D02*
X145107836Y-68110000D01*
X144892164Y-67390000D02*
X145107836Y-67390000D01*
%TO.C,C25*%
X152142164Y-67860000D02*
X152357836Y-67860000D01*
X152142164Y-67140000D02*
X152357836Y-67140000D01*
%TO.C,C22*%
X156107836Y-67140000D02*
X155892164Y-67140000D01*
X156107836Y-67860000D02*
X155892164Y-67860000D01*
%TO.C,J1*%
X155940000Y-63035000D02*
X155940000Y-65535000D01*
X155940000Y-65535000D02*
X156990000Y-65535000D01*
X160990000Y-61065000D02*
X157110000Y-61065000D01*
X161110000Y-65535000D02*
X161110000Y-66525000D01*
X162160000Y-63035000D02*
X162160000Y-65535000D01*
X162160000Y-65535000D02*
X161110000Y-65535000D01*
%TO.C,J2*%
X148040000Y-63035000D02*
X148040000Y-65535000D01*
X148040000Y-65535000D02*
X149090000Y-65535000D01*
X153090000Y-61065000D02*
X149210000Y-61065000D01*
X153210000Y-65535000D02*
X153210000Y-66525000D01*
X154260000Y-63035000D02*
X154260000Y-65535000D01*
X154260000Y-65535000D02*
X153210000Y-65535000D01*
%TO.C,C9*%
X148890000Y-78287836D02*
X148890000Y-78072164D01*
X149610000Y-78287836D02*
X149610000Y-78072164D01*
%TO.C,C8*%
X145360000Y-92842164D02*
X145360000Y-93057836D01*
X144640000Y-92842164D02*
X144640000Y-93057836D01*
%TO.C,J6*%
X163645000Y-81630000D02*
X163645000Y-80250000D01*
X165025000Y-81630000D02*
X163645000Y-81630000D01*
X166295000Y-81630000D02*
X168945000Y-81630000D01*
X166295000Y-81630000D02*
X166295000Y-78870000D01*
X168945000Y-81630000D02*
X168945000Y-78870000D01*
X166295000Y-78870000D02*
X168945000Y-78870000D01*
%TO.C,R6*%
X150620000Y-72753641D02*
X150620000Y-72446359D01*
X151380000Y-72753641D02*
X151380000Y-72446359D01*
%TO.C,R5*%
X150620000Y-69853641D02*
X150620000Y-69546359D01*
X151380000Y-69853641D02*
X151380000Y-69546359D01*
%TO.C,R4*%
X125870000Y-72403641D02*
X125870000Y-72096359D01*
X126630000Y-72403641D02*
X126630000Y-72096359D01*
%TO.C,J4*%
X136880000Y-64845000D02*
X136880000Y-66255000D01*
X136060000Y-68925000D02*
X136060000Y-68775000D01*
X135260000Y-68925000D02*
X136060000Y-68925000D01*
X127720000Y-64845000D02*
X127720000Y-66255000D01*
%TO.C,U3*%
X145085000Y-82270000D02*
X144605000Y-82270000D01*
X144605000Y-81790000D01*
X145085000Y-82270000D01*
G36*
X145085000Y-82270000D02*
G01*
X144605000Y-82270000D01*
X144605000Y-81790000D01*
X145085000Y-82270000D01*
G37*
X144905000Y-82510000D02*
X144905000Y-88500000D01*
X139685000Y-82500000D02*
X139685000Y-88500000D01*
%TO.C,C10*%
X147642164Y-78960000D02*
X147857836Y-78960000D01*
X147642164Y-78240000D02*
X147857836Y-78240000D01*
%TO.C,C2*%
X167640000Y-86592164D02*
X167640000Y-86807836D01*
X168360000Y-86592164D02*
X168360000Y-86807836D01*
%TO.C,C11*%
X159807836Y-96940000D02*
X159592164Y-96940000D01*
X159807836Y-97660000D02*
X159592164Y-97660000D01*
%TO.C,C5*%
X143592164Y-76060000D02*
X143807836Y-76060000D01*
X143592164Y-75340000D02*
X143807836Y-75340000D01*
%TO.C,R12*%
X157920000Y-71453641D02*
X157920000Y-71146359D01*
X158680000Y-71453641D02*
X158680000Y-71146359D01*
%TO.C,C19*%
X162592164Y-95360000D02*
X162807836Y-95360000D01*
X162592164Y-94640000D02*
X162807836Y-94640000D01*
%TO.C,U2*%
X139190000Y-94100000D02*
X139190000Y-92150000D01*
X139190000Y-94100000D02*
X139190000Y-96050000D01*
X144310000Y-94100000D02*
X144310000Y-92150000D01*
X144310000Y-94100000D02*
X144310000Y-96050000D01*
X144545000Y-91640000D02*
X144215000Y-91400000D01*
X144545000Y-91160000D01*
X144545000Y-91640000D01*
G36*
X144545000Y-91640000D02*
G01*
X144215000Y-91400000D01*
X144545000Y-91160000D01*
X144545000Y-91640000D01*
G37*
%TO.C,R16*%
X143820000Y-80946359D02*
X143820000Y-81253641D01*
X144580000Y-80946359D02*
X144580000Y-81253641D01*
%TO.C,R10*%
X131453641Y-69420000D02*
X131146359Y-69420000D01*
X131453641Y-70180000D02*
X131146359Y-70180000D01*
D12*
%TO.C,SW1*%
X141750000Y-69975000D02*
X141980000Y-69975000D01*
X141750000Y-73975000D02*
X141750000Y-69975000D01*
X141750000Y-73975000D02*
X141980000Y-73975000D01*
X144420000Y-69975000D02*
X144650000Y-69975000D01*
X144650000Y-69975000D02*
X144650000Y-73975000D01*
X144650000Y-73975000D02*
X144420000Y-73975000D01*
D11*
%TO.C,C6*%
X135992164Y-85940000D02*
X136207836Y-85940000D01*
X135992164Y-86660000D02*
X136207836Y-86660000D01*
%TO.C,D1*%
X152400000Y-72460000D02*
X155085000Y-72460000D01*
X155085000Y-72460000D02*
X155085000Y-70540000D01*
X155085000Y-70540000D02*
X152400000Y-70540000D01*
%TO.C,Q1*%
X160862500Y-69340000D02*
X160212500Y-69340000D01*
X160862500Y-69340000D02*
X161512500Y-69340000D01*
X160862500Y-72460000D02*
X160212500Y-72460000D01*
X160862500Y-72460000D02*
X161512500Y-72460000D01*
X159700000Y-69390000D02*
X159460000Y-69060000D01*
X159940000Y-69060000D01*
X159700000Y-69390000D01*
G36*
X159700000Y-69390000D02*
G01*
X159460000Y-69060000D01*
X159940000Y-69060000D01*
X159700000Y-69390000D01*
G37*
%TO.C,D6*%
X136265000Y-91712500D02*
X136265000Y-93997500D01*
X136265000Y-93997500D02*
X137735000Y-93997500D01*
X137735000Y-93997500D02*
X137735000Y-91712500D01*
%TO.C,C3*%
X166840000Y-90112164D02*
X166840000Y-90327836D01*
X167560000Y-90112164D02*
X167560000Y-90327836D01*
%TO.C,Q3*%
X128000000Y-80340000D02*
X127350000Y-80340000D01*
X128000000Y-80340000D02*
X128650000Y-80340000D01*
X128000000Y-83460000D02*
X127350000Y-83460000D01*
X128000000Y-83460000D02*
X128650000Y-83460000D01*
X129402500Y-83740000D02*
X128922500Y-83740000D01*
X129162500Y-83410000D01*
X129402500Y-83740000D01*
G36*
X129402500Y-83740000D02*
G01*
X128922500Y-83740000D01*
X129162500Y-83410000D01*
X129402500Y-83740000D01*
G37*
%TO.C,R11*%
X129520000Y-88746359D02*
X129520000Y-89053641D01*
X130280000Y-88746359D02*
X130280000Y-89053641D01*
D10*
%TO.C,U1*%
X130825000Y-88525000D02*
X130825000Y-92675000D01*
X135975000Y-88525000D02*
X135975000Y-92675000D01*
D11*
X136230000Y-88340000D02*
X135900000Y-88100000D01*
X136230000Y-87860000D01*
X136230000Y-88340000D01*
G36*
X136230000Y-88340000D02*
G01*
X135900000Y-88100000D01*
X136230000Y-87860000D01*
X136230000Y-88340000D01*
G37*
%TO.C,C4*%
X166840000Y-92287836D02*
X166840000Y-92072164D01*
X167560000Y-92287836D02*
X167560000Y-92072164D01*
%TO.C,C1*%
X167640000Y-84907836D02*
X167640000Y-84692164D01*
X168360000Y-84907836D02*
X168360000Y-84692164D01*
%TO.C,C15*%
X140210000Y-71815580D02*
X140210000Y-71534420D01*
X139190000Y-71815580D02*
X139190000Y-71534420D01*
%TO.C,R14*%
X157920000Y-75153641D02*
X157920000Y-74846359D01*
X158680000Y-75153641D02*
X158680000Y-74846359D01*
%TO.C,C17*%
X128390000Y-73340580D02*
X128390000Y-73059420D01*
X129410000Y-73340580D02*
X129410000Y-73059420D01*
%TO.C,C14*%
X146560000Y-95392164D02*
X146560000Y-95607836D01*
X145840000Y-95392164D02*
X145840000Y-95607836D01*
%TO.C,C23*%
X161478080Y-68810000D02*
X161196920Y-68810000D01*
X161478080Y-67790000D02*
X161196920Y-67790000D01*
%TO.C,C18*%
X128390000Y-76540580D02*
X128390000Y-76259420D01*
X129410000Y-76540580D02*
X129410000Y-76259420D01*
%TO.C,C21*%
X141612164Y-89490000D02*
X141827836Y-89490000D01*
X141612164Y-90210000D02*
X141827836Y-90210000D01*
%TO.C,R1*%
X163646359Y-96920000D02*
X163953641Y-96920000D01*
X163646359Y-97680000D02*
X163953641Y-97680000D01*
%TO.C,J12*%
X125540000Y-98430000D02*
X125540000Y-113170000D01*
X125540000Y-98430000D02*
X169280000Y-98430000D01*
X125540000Y-113170000D02*
X127800000Y-113170000D01*
X128400000Y-113170000D02*
X169280000Y-113170000D01*
X169280000Y-98430000D02*
X169280000Y-113170000D01*
X128540000Y-113780000D02*
X127660000Y-113780000D01*
X128100000Y-113170000D01*
X128540000Y-113780000D01*
G36*
X128540000Y-113780000D02*
G01*
X127660000Y-113780000D01*
X128100000Y-113170000D01*
X128540000Y-113780000D01*
G37*
%TO.C,R15*%
X157646359Y-73780000D02*
X157953641Y-73780000D01*
X157646359Y-73020000D02*
X157953641Y-73020000D01*
%TO.C,Q2*%
X160862500Y-72940000D02*
X160212500Y-72940000D01*
X160862500Y-72940000D02*
X161512500Y-72940000D01*
X160862500Y-76060000D02*
X160212500Y-76060000D01*
X160862500Y-76060000D02*
X161512500Y-76060000D01*
X159700000Y-72990000D02*
X159460000Y-72660000D01*
X159940000Y-72660000D01*
X159700000Y-72990000D01*
G36*
X159700000Y-72990000D02*
G01*
X159460000Y-72660000D01*
X159940000Y-72660000D01*
X159700000Y-72990000D01*
G37*
%TO.C,J10*%
X163645000Y-61390000D02*
X164915000Y-61390000D01*
X163645000Y-62660000D02*
X163645000Y-61390000D01*
X165992358Y-64770000D02*
X166305000Y-64770000D01*
X165992358Y-65630000D02*
X166305000Y-65630000D01*
X165992358Y-67310000D02*
X166305000Y-67310000D01*
X165992358Y-68170000D02*
X166305000Y-68170000D01*
X166075000Y-62230000D02*
X166305000Y-62230000D01*
X166075000Y-63090000D02*
X166305000Y-63090000D01*
X166305000Y-61280000D02*
X166305000Y-69120000D01*
X166305000Y-63930000D02*
X169065000Y-63930000D01*
X166305000Y-66470000D02*
X169065000Y-66470000D01*
X166305000Y-69120000D02*
X169065000Y-69120000D01*
X169065000Y-61280000D02*
X166305000Y-61280000D01*
X169065000Y-64770000D02*
X175065000Y-64770000D01*
X169065000Y-67310000D02*
X175065000Y-67310000D01*
X169065000Y-69120000D02*
X169065000Y-61280000D01*
X175065000Y-64770000D02*
X175065000Y-65630000D01*
X175065000Y-65630000D02*
X169065000Y-65630000D01*
X175065000Y-67310000D02*
X175065000Y-68170000D01*
X175065000Y-68170000D02*
X169065000Y-68170000D01*
X169065000Y-62230000D02*
X175065000Y-62230000D01*
X175065000Y-63090000D01*
X169065000Y-63090000D01*
X169065000Y-62230000D01*
G36*
X169065000Y-62230000D02*
G01*
X175065000Y-62230000D01*
X175065000Y-63090000D01*
X169065000Y-63090000D01*
X169065000Y-62230000D01*
G37*
%TO.C,R13*%
X157646359Y-69320000D02*
X157953641Y-69320000D01*
X157646359Y-70080000D02*
X157953641Y-70080000D01*
%TO.C,U4*%
X132450000Y-70890000D02*
X136210000Y-70890000D01*
X132450000Y-77710000D02*
X136210000Y-77710000D01*
X136210000Y-70890000D02*
X136210000Y-72150000D01*
X136210000Y-77710000D02*
X136210000Y-76450000D01*
X131170000Y-70990000D02*
X130930000Y-70660000D01*
X131410000Y-70660000D01*
X131170000Y-70990000D01*
G36*
X131170000Y-70990000D02*
G01*
X130930000Y-70660000D01*
X131410000Y-70660000D01*
X131170000Y-70990000D01*
G37*
%TO.C,C13*%
X164392164Y-82140000D02*
X164607836Y-82140000D01*
X164392164Y-82860000D02*
X164607836Y-82860000D01*
%TO.C,C16*%
X133561252Y-95365000D02*
X133038748Y-95365000D01*
X133561252Y-96835000D02*
X133038748Y-96835000D01*
%TO.C,R2*%
X148146359Y-97680000D02*
X148453641Y-97680000D01*
X148146359Y-96920000D02*
X148453641Y-96920000D01*
%TO.C,D3*%
X155085000Y-68240000D02*
X152400000Y-68240000D01*
X155085000Y-70160000D02*
X155085000Y-68240000D01*
X152400000Y-70160000D02*
X155085000Y-70160000D01*
%TO.C,J9*%
X163645000Y-70290000D02*
X164915000Y-70290000D01*
X163645000Y-71560000D02*
X163645000Y-70290000D01*
X165992358Y-73670000D02*
X166305000Y-73670000D01*
X165992358Y-74530000D02*
X166305000Y-74530000D01*
X165992358Y-76210000D02*
X166305000Y-76210000D01*
X165992358Y-77070000D02*
X166305000Y-77070000D01*
X166075000Y-71130000D02*
X166305000Y-71130000D01*
X166075000Y-71990000D02*
X166305000Y-71990000D01*
X166305000Y-70180000D02*
X166305000Y-78020000D01*
X166305000Y-72830000D02*
X169065000Y-72830000D01*
X166305000Y-75370000D02*
X169065000Y-75370000D01*
X166305000Y-78020000D02*
X169065000Y-78020000D01*
X169065000Y-70180000D02*
X166305000Y-70180000D01*
X169065000Y-73670000D02*
X175065000Y-73670000D01*
X169065000Y-76210000D02*
X175065000Y-76210000D01*
X169065000Y-78020000D02*
X169065000Y-70180000D01*
X175065000Y-73670000D02*
X175065000Y-74530000D01*
X175065000Y-74530000D02*
X169065000Y-74530000D01*
X175065000Y-76210000D02*
X175065000Y-77070000D01*
X175065000Y-77070000D02*
X169065000Y-77070000D01*
X169065000Y-71130000D02*
X175065000Y-71130000D01*
X175065000Y-71990000D01*
X169065000Y-71990000D01*
X169065000Y-71130000D01*
G36*
X169065000Y-71130000D02*
G01*
X175065000Y-71130000D01*
X175065000Y-71990000D01*
X169065000Y-71990000D01*
X169065000Y-71130000D01*
G37*
%TO.C,X1*%
X164075000Y-87800000D02*
X167375000Y-87800000D01*
X167375000Y-87800000D02*
X167375000Y-83800000D01*
%TO.C,R9*%
X133453641Y-69420000D02*
X133146359Y-69420000D01*
X133453641Y-70180000D02*
X133146359Y-70180000D01*
%TO.C,U7*%
X147090000Y-80790000D02*
X147090000Y-81490000D01*
X147090000Y-95010000D02*
X147090000Y-94310000D01*
X147790000Y-80790000D02*
X147090000Y-80790000D01*
X147790000Y-95010000D02*
X147090000Y-95010000D01*
X160610000Y-80790000D02*
X161310000Y-80790000D01*
X160610000Y-95010000D02*
X161310000Y-95010000D01*
X161310000Y-80790000D02*
X161310000Y-81490000D01*
X161310000Y-95010000D02*
X161310000Y-94310000D01*
X162277500Y-94780000D02*
X161597500Y-94780000D01*
X161937500Y-94310000D01*
X162277500Y-94780000D01*
G36*
X162277500Y-94780000D02*
G01*
X161597500Y-94780000D01*
X161937500Y-94310000D01*
X162277500Y-94780000D01*
G37*
%TO.C,R3*%
X151853641Y-96920000D02*
X151546359Y-96920000D01*
X151853641Y-97680000D02*
X151546359Y-97680000D01*
%TO.C,L1*%
X131040000Y-80000000D02*
X131040000Y-79150000D01*
X131040000Y-84650000D02*
X131040000Y-83800000D01*
X131650000Y-78540000D02*
X137150000Y-78540000D01*
X137150000Y-85260000D02*
X131650000Y-85260000D01*
X137760000Y-79150000D02*
X137760000Y-80000000D01*
X137760000Y-83800000D02*
X137760000Y-84650000D01*
X131040000Y-79150000D02*
G75*
G02*
X131650000Y-78540000I610000J0D01*
G01*
X131650000Y-85260000D02*
G75*
G02*
X131040000Y-84650000I0J610000D01*
G01*
X137150000Y-78540000D02*
G75*
G02*
X137760000Y-79150000I0J-610000D01*
G01*
X137760000Y-84650000D02*
G75*
G02*
X137150000Y-85260000I-610000J0D01*
G01*
%TO.C,D2*%
X128250000Y-69240000D02*
X125565000Y-69240000D01*
X125565000Y-69240000D02*
X125565000Y-71160000D01*
X125565000Y-71160000D02*
X128250000Y-71160000D01*
%TO.C,X2*%
X164625000Y-91875000D02*
X164625000Y-90525000D01*
X166375000Y-91875000D02*
X166375000Y-90525000D01*
%TO.C,D5*%
X126515000Y-78565000D02*
X126515000Y-80035000D01*
X126515000Y-80035000D02*
X128800000Y-80035000D01*
X128800000Y-78565000D02*
X126515000Y-78565000D01*
%TO.C,C20*%
X135659420Y-69390000D02*
X135940580Y-69390000D01*
X135659420Y-70410000D02*
X135940580Y-70410000D01*
%TO.C,C12*%
X138140000Y-96792164D02*
X138140000Y-97007836D01*
X138860000Y-96792164D02*
X138860000Y-97007836D01*
%TO.C,C24*%
X161503080Y-77610000D02*
X161221920Y-77610000D01*
X161503080Y-76590000D02*
X161221920Y-76590000D01*
%TD*%
M02*
