%TF.GenerationSoftware,KiCad,Pcbnew,9.0.1*%
%TF.CreationDate,2025-07-01T00:30:54-05:00*%
%TF.ProjectId,CAN-Sensor-Hub-v1,43414e2d-5365-46e7-936f-722d4875622d,rev?*%
%TF.SameCoordinates,Original*%
%TF.FileFunction,Copper,L2,Inr*%
%TF.FilePolarity,Positive*%
%FSLAX46Y46*%
G04 Gerber Fmt 4.6, Leading zero omitted, Abs format (unit mm)*
G04 Created by KiCad (PCBNEW 9.0.1) date 2025-07-01 00:30:54*
%MOMM*%
%LPD*%
G01*
G04 APERTURE LIST*
G04 Aperture macros list*
%AMRoundRect*
0 Rectangle with rounded corners*
0 $1 Rounding radius*
0 $2 $3 $4 $5 $6 $7 $8 $9 X,Y pos of 4 corners*
0 Add a 4 corners polygon primitive as box body*
4,1,4,$2,$3,$4,$5,$6,$7,$8,$9,$2,$3,0*
0 Add four circle primitives for the rounded corners*
1,1,$1+$1,$2,$3*
1,1,$1+$1,$4,$5*
1,1,$1+$1,$6,$7*
1,1,$1+$1,$8,$9*
0 Add four rect primitives between the rounded corners*
20,1,$1+$1,$2,$3,$4,$5,0*
20,1,$1+$1,$4,$5,$6,$7,0*
20,1,$1+$1,$6,$7,$8,$9,0*
20,1,$1+$1,$8,$9,$2,$3,0*%
G04 Aperture macros list end*
%TA.AperFunction,ComponentPad*%
%ADD10C,1.700000*%
%TD*%
%TA.AperFunction,ComponentPad*%
%ADD11R,1.700000X1.700000*%
%TD*%
%TA.AperFunction,ComponentPad*%
%ADD12C,0.600000*%
%TD*%
%TA.AperFunction,ComponentPad*%
%ADD13R,1.500000X2.300000*%
%TD*%
%TA.AperFunction,ComponentPad*%
%ADD14RoundRect,0.250001X-0.499999X-0.899999X0.499999X-0.899999X0.499999X0.899999X-0.499999X0.899999X0*%
%TD*%
%TA.AperFunction,ComponentPad*%
%ADD15O,1.500000X2.300000*%
%TD*%
%TA.AperFunction,ViaPad*%
%ADD16C,0.600000*%
%TD*%
G04 APERTURE END LIST*
D10*
%TO.N,GNDREF*%
%TO.C,J11*%
X147500000Y-70420000D03*
%TO.N,USART2_TX*%
X147500000Y-72960000D03*
D11*
%TO.N,USART2_RX*%
X147500000Y-75500000D03*
%TD*%
%TO.N,GNDREF*%
%TO.C,J6*%
X165025000Y-80250000D03*
D10*
%TO.N,Net-(J6-Pin_2)*%
X167565000Y-80250000D03*
%TD*%
D12*
%TO.N,GNDREF*%
%TO.C,U1*%
X135200000Y-90000000D03*
X134000000Y-90000000D03*
X132700000Y-90000000D03*
X131600000Y-90000000D03*
X135200000Y-91200000D03*
X134000000Y-91200000D03*
X132700000Y-91200000D03*
X131600000Y-91200000D03*
%TD*%
D13*
%TO.N,VBAT_12V*%
%TO.C,J12*%
X128100000Y-102700000D03*
D14*
X128100000Y-107700000D03*
D15*
%TO.N,GNDREF*%
X131600000Y-102700000D03*
X131600000Y-107700000D03*
%TO.N,CAN_H*%
X135100000Y-102700000D03*
X135100000Y-107700000D03*
%TO.N,CAN_L*%
X138600000Y-102700000D03*
X138600000Y-107700000D03*
%TO.N,CAN_H*%
X142100000Y-102700000D03*
X142100000Y-107700000D03*
%TO.N,CAN_L*%
X145600000Y-102700000D03*
X145600000Y-107700000D03*
%TO.N,CAN_H*%
X149100000Y-102700000D03*
X149100000Y-107700000D03*
%TO.N,CAN_L*%
X152600000Y-102700000D03*
X152600000Y-107700000D03*
%TO.N,CAN_H*%
X156100000Y-102700000D03*
X156100000Y-107700000D03*
%TO.N,CAN_L*%
X159600000Y-102700000D03*
X159600000Y-107700000D03*
%TO.N,VBAT_12V*%
X163100000Y-102700000D03*
X163100000Y-107700000D03*
%TO.N,GNDREF*%
X166600000Y-102700000D03*
X166600000Y-107700000D03*
%TD*%
D11*
%TO.N,DIO_0_5V*%
%TO.C,J10*%
X164915000Y-62660000D03*
D10*
%TO.N,VDD_5V*%
X164915000Y-65200000D03*
%TO.N,GNDREF*%
X164915000Y-67740000D03*
%TD*%
D11*
%TO.N,DIO_1_5V*%
%TO.C,J9*%
X164915000Y-71560000D03*
D10*
%TO.N,VDD_5V*%
X164915000Y-74100000D03*
%TO.N,GNDREF*%
X164915000Y-76640000D03*
%TD*%
D16*
%TO.N,CAN_TX*%
X143055000Y-93255000D03*
%TO.N,NRST*%
X146500000Y-79850000D03*
%TO.N,GNDREF*%
X149300000Y-76450000D03*
X155500000Y-66500000D03*
%TO.N,VDD_3V3*%
X126250000Y-73750000D03*
X158300000Y-72450000D03*
X158100000Y-76200000D03*
%TO.N,GNDREF*%
X163350000Y-84750000D03*
X143950000Y-93400000D03*
X137350000Y-97350000D03*
X142110000Y-93420000D03*
%TO.N,VDD_3V3*%
X145200000Y-95050000D03*
%TO.N,CAN_RX*%
X145200000Y-91100000D03*
%TO.N,GNDREF*%
X166000000Y-82500000D03*
X155300000Y-92050000D03*
X139700000Y-69950000D03*
X155900000Y-69200000D03*
X155850000Y-71500000D03*
%TO.N,Net-(J6-Pin_2)*%
X156906493Y-94098268D03*
X156900000Y-92050000D03*
X158550000Y-91450000D03*
%TO.N,GNDREF*%
X145150000Y-75700000D03*
X143400000Y-68500000D03*
%TO.N,NRST*%
X159036500Y-87400000D03*
X156900000Y-86950000D03*
%TO.N,USART2_TX*%
X152800000Y-77800000D03*
%TO.N,USART2_RX*%
X153250000Y-78600000D03*
%TO.N,CAN_L*%
X141500000Y-94900000D03*
%TO.N,CAN_H*%
X142900000Y-94900000D03*
%TO.N,IO_LED3*%
X154636500Y-81800000D03*
%TO.N,IO_LED2*%
X153836497Y-81800000D03*
%TO.N,IO_LED3*%
X151000000Y-74100000D03*
%TO.N,IO_LED2*%
X151000000Y-71100000D03*
%TO.N,Net-(J5-SWDIO{slash}TMS)*%
X153700000Y-97300000D03*
%TO.N,NRST*%
X160600000Y-87400000D03*
X164300000Y-96400000D03*
%TO.N,Net-(J5-~{RESET})*%
X162400000Y-97300000D03*
%TO.N,Net-(J5-SWCLK{slash}TCK)*%
X147100000Y-96900000D03*
%TO.N,SWDIO{slash}TMS*%
X147800000Y-92500000D03*
X150400000Y-97300000D03*
%TO.N,VDD_3V3*%
X152200000Y-88700000D03*
%TO.N,DIO_0_3V3*%
X160900000Y-80500000D03*
%TO.N,DIO_1_3V3*%
X161646398Y-80846398D03*
%TO.N,GNDREF*%
X159500000Y-77100000D03*
X138200000Y-69900000D03*
%TO.N,VDD_3V3*%
X134600000Y-72200000D03*
X134600000Y-73000000D03*
X133800000Y-73000000D03*
X133000000Y-73800000D03*
X133800000Y-73800000D03*
X134600000Y-73800000D03*
X135400000Y-73800000D03*
X135400000Y-74600000D03*
X134600000Y-74600000D03*
X133800000Y-74600000D03*
X133000000Y-74600000D03*
%TO.N,GNDREF*%
X159700000Y-94200000D03*
%TO.N,QSPI_NCS*%
X156106493Y-94100347D03*
%TO.N,QSPI_CLK*%
X150250000Y-86550000D03*
%TO.N,QSPI_NCS*%
X143087398Y-81553988D03*
%TO.N,QSPI_CLK*%
X142097889Y-89040000D03*
%TO.N,QSPI_IO0*%
X147800000Y-85400000D03*
%TO.N,QSPI_IO1*%
X149100000Y-85600000D03*
%TO.N,QSPI_IO2*%
X150700000Y-81600000D03*
%TO.N,QSPI_IO3*%
X148400000Y-86700000D03*
%TO.N,QSPI_IO0*%
X140500000Y-89100000D03*
%TO.N,CAN_RX*%
X140295000Y-89905000D03*
%TO.N,QSPI_IO1*%
X142260000Y-81730000D03*
%TO.N,QSPI_IO2*%
X141444955Y-81745000D03*
%TO.N,GNDREF*%
X140200000Y-81720000D03*
%TO.N,OTG_HS_DP*%
X131550000Y-66930000D03*
%TO.N,OTG_HS_DM*%
X133050000Y-66950000D03*
%TO.N,I2C1_SDA*%
X158500000Y-67700000D03*
%TO.N,I2C1_SCL*%
X157400000Y-67700000D03*
%TO.N,I2C1_SDA*%
X158506443Y-94111014D03*
%TO.N,I2C1_SCL*%
X157706477Y-94103387D03*
%TO.N,DIO_1_3V3*%
X162600000Y-75550000D03*
%TO.N,DIO_0_3V3*%
X161800000Y-71800000D03*
%TO.N,VBUS_5V*%
X130300000Y-78900000D03*
X134500000Y-70800000D03*
X134950000Y-69050000D03*
X129900000Y-69000000D03*
%TO.N,VDD_5V*%
X154263455Y-74066545D03*
X155080000Y-74070000D03*
X155890000Y-74100000D03*
X141100000Y-93400000D03*
X126600000Y-80500000D03*
X127400000Y-80500000D03*
X126200000Y-77600000D03*
X127600000Y-77600000D03*
X126900000Y-77600000D03*
X126900000Y-76900000D03*
X127600000Y-76900000D03*
X133200000Y-77800000D03*
X134000000Y-77800000D03*
X134800000Y-77800000D03*
X134800000Y-77000000D03*
X134000000Y-77000000D03*
X134000000Y-76200000D03*
X133200000Y-77000000D03*
X133200000Y-76200000D03*
%TO.N,VDD_3V3*%
X162200000Y-95900000D03*
X160900000Y-97300000D03*
%TO.N,GNDREF*%
X164100000Y-94900000D03*
%TO.N,VDD_3V3*%
X144200000Y-89400000D03*
%TO.N,OTG_HS_DM*%
X148440000Y-82900000D03*
%TO.N,OTG_HS_DP*%
X147860000Y-83463500D03*
%TO.N,VDD_3V3*%
X138500000Y-95500000D03*
%TO.N,GNDREF*%
X146200000Y-96700000D03*
%TO.N,VDD_3V3*%
X144200000Y-79800000D03*
%TO.N,GNDREF*%
X149300000Y-82000000D03*
%TO.N,VDD_3V3*%
X148200000Y-82000000D03*
%TO.N,GNDREF*%
X160200000Y-79000000D03*
%TO.N,VDD_3V3*%
X159700000Y-81500000D03*
X160600000Y-83900000D03*
%TO.N,GNDREF*%
X127500000Y-73000000D03*
X127500000Y-73700000D03*
X127500000Y-74400000D03*
X127190000Y-65100000D03*
X127190000Y-65900000D03*
X137410000Y-65900000D03*
X137410000Y-65100000D03*
%TO.N,VDD_3V3*%
X159500000Y-64050000D03*
X143600000Y-64000000D03*
X151650000Y-63950000D03*
%TO.N,GNDREF*%
X144600000Y-64000000D03*
X152600000Y-63950000D03*
X160500000Y-64050000D03*
X130400000Y-90300000D03*
X168800000Y-85200000D03*
X164100000Y-89000000D03*
X168000000Y-88000000D03*
X168000000Y-93400000D03*
X168800000Y-86300000D03*
X168100000Y-90700000D03*
X129600000Y-90300000D03*
X164100000Y-88100000D03*
X163950000Y-83550000D03*
X131100000Y-94900000D03*
X167500000Y-83500000D03*
X131100000Y-96300000D03*
X164100000Y-93400000D03*
X168000000Y-89000000D03*
X131100000Y-97100000D03*
X128800000Y-90300000D03*
X131100000Y-95600000D03*
X168100000Y-91700000D03*
%TO.N,QSPI_IO3*%
X143120000Y-89060000D03*
%TD*%
%TA.AperFunction,Conductor*%
%TO.N,GNDREF*%
G36*
X168917539Y-61220185D02*
G01*
X168963294Y-61272989D01*
X168974500Y-61324500D01*
X168974500Y-78934108D01*
X168974500Y-79065892D01*
X168986985Y-79112488D01*
X169008608Y-79193187D01*
X169034488Y-79238011D01*
X169074500Y-79307314D01*
X169167686Y-79400500D01*
X169281814Y-79466392D01*
X169409108Y-79500500D01*
X172634108Y-79500500D01*
X172696249Y-79500500D01*
X172703736Y-79500726D01*
X172999822Y-79518636D01*
X173014686Y-79520441D01*
X173302763Y-79573233D01*
X173317300Y-79576816D01*
X173596902Y-79663944D01*
X173610893Y-79669249D01*
X173877979Y-79789454D01*
X173891225Y-79796407D01*
X174141868Y-79947926D01*
X174154179Y-79956424D01*
X174364853Y-80121476D01*
X174384729Y-80137048D01*
X174395937Y-80146978D01*
X174603021Y-80354062D01*
X174612951Y-80365270D01*
X174775283Y-80572472D01*
X174793571Y-80595814D01*
X174802075Y-80608134D01*
X174905489Y-80779201D01*
X174953589Y-80858768D01*
X174960548Y-80872027D01*
X175080748Y-81139101D01*
X175086057Y-81153102D01*
X175173182Y-81432698D01*
X175176766Y-81447236D01*
X175229558Y-81735313D01*
X175231363Y-81750178D01*
X175249047Y-82042513D01*
X175249047Y-82057487D01*
X175231363Y-82349821D01*
X175229558Y-82364686D01*
X175176766Y-82652763D01*
X175173182Y-82667301D01*
X175086057Y-82946897D01*
X175080748Y-82960898D01*
X174960548Y-83227972D01*
X174953589Y-83241231D01*
X174802077Y-83491862D01*
X174793571Y-83504185D01*
X174612951Y-83734729D01*
X174603021Y-83745937D01*
X174395937Y-83953021D01*
X174384729Y-83962951D01*
X174154185Y-84143571D01*
X174141862Y-84152077D01*
X173891231Y-84303589D01*
X173877972Y-84310548D01*
X173610898Y-84430748D01*
X173596897Y-84436057D01*
X173317301Y-84523182D01*
X173302763Y-84526766D01*
X173014686Y-84579558D01*
X172999821Y-84581363D01*
X172703736Y-84599274D01*
X172696249Y-84599500D01*
X169684108Y-84599500D01*
X169556812Y-84633608D01*
X169442686Y-84699500D01*
X169442683Y-84699502D01*
X169349502Y-84792683D01*
X169349500Y-84792686D01*
X169283608Y-84906812D01*
X169249500Y-85034108D01*
X169249500Y-107265891D01*
X169283608Y-107393187D01*
X169309910Y-107438742D01*
X169349500Y-107507314D01*
X169442686Y-107600500D01*
X169556814Y-107666392D01*
X169684108Y-107700500D01*
X169815892Y-107700500D01*
X172609108Y-107700500D01*
X172671249Y-107700500D01*
X172678736Y-107700726D01*
X172974822Y-107718636D01*
X172989686Y-107720441D01*
X173277763Y-107773233D01*
X173292300Y-107776816D01*
X173571902Y-107863944D01*
X173585893Y-107869249D01*
X173852979Y-107989454D01*
X173866225Y-107996407D01*
X174116868Y-108147926D01*
X174129179Y-108156424D01*
X174209187Y-108219106D01*
X174359729Y-108337048D01*
X174370937Y-108346978D01*
X174578021Y-108554062D01*
X174587951Y-108565270D01*
X174745808Y-108766760D01*
X174768571Y-108795814D01*
X174777075Y-108808134D01*
X174910719Y-109029207D01*
X174928589Y-109058768D01*
X174935548Y-109072027D01*
X175055748Y-109339101D01*
X175061057Y-109353102D01*
X175148182Y-109632698D01*
X175151766Y-109647236D01*
X175204558Y-109935313D01*
X175206363Y-109950178D01*
X175224047Y-110242513D01*
X175224047Y-110257487D01*
X175206363Y-110549821D01*
X175204558Y-110564686D01*
X175151766Y-110852763D01*
X175148182Y-110867301D01*
X175061057Y-111146897D01*
X175055748Y-111160898D01*
X174935548Y-111427972D01*
X174928589Y-111441231D01*
X174777077Y-111691862D01*
X174768571Y-111704185D01*
X174587951Y-111934729D01*
X174578021Y-111945937D01*
X174370937Y-112153021D01*
X174359729Y-112162951D01*
X174129185Y-112343571D01*
X174116862Y-112352077D01*
X173866231Y-112503589D01*
X173852972Y-112510548D01*
X173585898Y-112630748D01*
X173571897Y-112636057D01*
X173292301Y-112723182D01*
X173277763Y-112726766D01*
X172989686Y-112779558D01*
X172974821Y-112781363D01*
X172678736Y-112799274D01*
X172671249Y-112799500D01*
X122053751Y-112799500D01*
X122046264Y-112799274D01*
X121750178Y-112781363D01*
X121735313Y-112779558D01*
X121447236Y-112726766D01*
X121432698Y-112723182D01*
X121153102Y-112636057D01*
X121139101Y-112630748D01*
X120872027Y-112510548D01*
X120858768Y-112503589D01*
X120608137Y-112352077D01*
X120595814Y-112343571D01*
X120365270Y-112162951D01*
X120354062Y-112153021D01*
X120146978Y-111945937D01*
X120137048Y-111934729D01*
X119979192Y-111733241D01*
X119956424Y-111704179D01*
X119947926Y-111691868D01*
X119796407Y-111441225D01*
X119789454Y-111427979D01*
X119669249Y-111160893D01*
X119663942Y-111146897D01*
X119645853Y-111088848D01*
X119576816Y-110867300D01*
X119573233Y-110852763D01*
X119520441Y-110564686D01*
X119518636Y-110549821D01*
X119508119Y-110375961D01*
X119500952Y-110257472D01*
X119500952Y-110242527D01*
X119508119Y-110124038D01*
X120499500Y-110124038D01*
X120499500Y-110375961D01*
X120538910Y-110624785D01*
X120616760Y-110864383D01*
X120731132Y-111088848D01*
X120879201Y-111292649D01*
X120879205Y-111292654D01*
X121057345Y-111470794D01*
X121057350Y-111470798D01*
X121235117Y-111599952D01*
X121261155Y-111618870D01*
X121404184Y-111691747D01*
X121485616Y-111733239D01*
X121485618Y-111733239D01*
X121485621Y-111733241D01*
X121725215Y-111811090D01*
X121974038Y-111850500D01*
X121974039Y-111850500D01*
X122225961Y-111850500D01*
X122225962Y-111850500D01*
X122474785Y-111811090D01*
X122714379Y-111733241D01*
X122938845Y-111618870D01*
X123142656Y-111470793D01*
X123320793Y-111292656D01*
X123468870Y-111088845D01*
X123583241Y-110864379D01*
X123661090Y-110624785D01*
X123700500Y-110375962D01*
X123700500Y-110124038D01*
X171074500Y-110124038D01*
X171074500Y-110375961D01*
X171113910Y-110624785D01*
X171191760Y-110864383D01*
X171306132Y-111088848D01*
X171454201Y-111292649D01*
X171454205Y-111292654D01*
X171632345Y-111470794D01*
X171632350Y-111470798D01*
X171810117Y-111599952D01*
X171836155Y-111618870D01*
X171979184Y-111691747D01*
X172060616Y-111733239D01*
X172060618Y-111733239D01*
X172060621Y-111733241D01*
X172300215Y-111811090D01*
X172549038Y-111850500D01*
X172549039Y-111850500D01*
X172800961Y-111850500D01*
X172800962Y-111850500D01*
X173049785Y-111811090D01*
X173289379Y-111733241D01*
X173513845Y-111618870D01*
X173717656Y-111470793D01*
X173895793Y-111292656D01*
X174043870Y-111088845D01*
X174158241Y-110864379D01*
X174236090Y-110624785D01*
X174275500Y-110375962D01*
X174275500Y-110124038D01*
X174236090Y-109875215D01*
X174158241Y-109635621D01*
X174158239Y-109635618D01*
X174158239Y-109635616D01*
X174116747Y-109554184D01*
X174043870Y-109411155D01*
X173991520Y-109339101D01*
X173895798Y-109207350D01*
X173895794Y-109207345D01*
X173717654Y-109029205D01*
X173717649Y-109029201D01*
X173513848Y-108881132D01*
X173513847Y-108881131D01*
X173513845Y-108881130D01*
X173437690Y-108842327D01*
X173289383Y-108766760D01*
X173049785Y-108688910D01*
X172800962Y-108649500D01*
X172549038Y-108649500D01*
X172424626Y-108669205D01*
X172300214Y-108688910D01*
X172060616Y-108766760D01*
X171836151Y-108881132D01*
X171632350Y-109029201D01*
X171632345Y-109029205D01*
X171454205Y-109207345D01*
X171454201Y-109207350D01*
X171306132Y-109411151D01*
X171191760Y-109635616D01*
X171113910Y-109875214D01*
X171074500Y-110124038D01*
X123700500Y-110124038D01*
X123661090Y-109875215D01*
X123583241Y-109635621D01*
X123583239Y-109635618D01*
X123583239Y-109635616D01*
X123541747Y-109554184D01*
X123468870Y-109411155D01*
X123416520Y-109339101D01*
X123320798Y-109207350D01*
X123320794Y-109207345D01*
X123142654Y-109029205D01*
X123142649Y-109029201D01*
X122938848Y-108881132D01*
X122938847Y-108881131D01*
X122938845Y-108881130D01*
X122862690Y-108842327D01*
X122714383Y-108766760D01*
X122474785Y-108688910D01*
X122225962Y-108649500D01*
X121974038Y-108649500D01*
X121849626Y-108669205D01*
X121725214Y-108688910D01*
X121485616Y-108766760D01*
X121261151Y-108881132D01*
X121057350Y-109029201D01*
X121057345Y-109029205D01*
X120879205Y-109207345D01*
X120879201Y-109207350D01*
X120731132Y-109411151D01*
X120616760Y-109635616D01*
X120538910Y-109875214D01*
X120499500Y-110124038D01*
X119508119Y-110124038D01*
X119518636Y-109950173D01*
X119520441Y-109935313D01*
X119531455Y-109875215D01*
X119573233Y-109647232D01*
X119576817Y-109632698D01*
X119607457Y-109534371D01*
X119663945Y-109353091D01*
X119669247Y-109339111D01*
X119789458Y-109072013D01*
X119796403Y-109058781D01*
X119947931Y-108808123D01*
X119956418Y-108795827D01*
X120137055Y-108565261D01*
X120146970Y-108554070D01*
X120354070Y-108346970D01*
X120365261Y-108337055D01*
X120595827Y-108156418D01*
X120608123Y-108147931D01*
X120858781Y-107996403D01*
X120872013Y-107989458D01*
X121139111Y-107869247D01*
X121153091Y-107863945D01*
X121432702Y-107776815D01*
X121447232Y-107773233D01*
X121735317Y-107720440D01*
X121750175Y-107718636D01*
X122046264Y-107700726D01*
X122053751Y-107700500D01*
X125065890Y-107700500D01*
X125065892Y-107700500D01*
X125193186Y-107666392D01*
X125307314Y-107600500D01*
X125400500Y-107507314D01*
X125466392Y-107393186D01*
X125500500Y-107265892D01*
X125500500Y-106752136D01*
X127099500Y-106752136D01*
X127099500Y-108647863D01*
X127099501Y-108647882D01*
X127105908Y-108707481D01*
X127156202Y-108842327D01*
X127156203Y-108842328D01*
X127156204Y-108842330D01*
X127242454Y-108957546D01*
X127357670Y-109043796D01*
X127357671Y-109043796D01*
X127357672Y-109043797D01*
X127492518Y-109094091D01*
X127492517Y-109094091D01*
X127499445Y-109094835D01*
X127552128Y-109100500D01*
X127552137Y-109100500D01*
X128647863Y-109100500D01*
X128647872Y-109100500D01*
X128707482Y-109094091D01*
X128842330Y-109043796D01*
X128957546Y-108957546D01*
X129043796Y-108842330D01*
X129094091Y-108707482D01*
X129100500Y-108647872D01*
X129100500Y-107201504D01*
X130600000Y-107201504D01*
X130600000Y-107450000D01*
X131051518Y-107450000D01*
X131040889Y-107468409D01*
X131000000Y-107621009D01*
X131000000Y-107778991D01*
X131040889Y-107931591D01*
X131051518Y-107950000D01*
X130600000Y-107950000D01*
X130600000Y-108198495D01*
X130638427Y-108391681D01*
X130638430Y-108391693D01*
X130713807Y-108573671D01*
X130713814Y-108573684D01*
X130823248Y-108737462D01*
X130823251Y-108737466D01*
X130962533Y-108876748D01*
X130962537Y-108876751D01*
X131126315Y-108986185D01*
X131126328Y-108986192D01*
X131308308Y-109061569D01*
X131350000Y-109069862D01*
X131350000Y-108248482D01*
X131368409Y-108259111D01*
X131521009Y-108300000D01*
X131678991Y-108300000D01*
X131831591Y-108259111D01*
X131850000Y-108248482D01*
X131850000Y-109069862D01*
X131891690Y-109061569D01*
X131891692Y-109061569D01*
X132073671Y-108986192D01*
X132073684Y-108986185D01*
X132237462Y-108876751D01*
X132237466Y-108876748D01*
X132376748Y-108737466D01*
X132376751Y-108737462D01*
X132486185Y-108573684D01*
X132486192Y-108573671D01*
X132561569Y-108391693D01*
X132561572Y-108391681D01*
X132599989Y-108198543D01*
X134099499Y-108198543D01*
X134137947Y-108391829D01*
X134137950Y-108391839D01*
X134213364Y-108573907D01*
X134213371Y-108573920D01*
X134322860Y-108737781D01*
X134322863Y-108737785D01*
X134462214Y-108877136D01*
X134462218Y-108877139D01*
X134626079Y-108986628D01*
X134626092Y-108986635D01*
X134800239Y-109058768D01*
X134808165Y-109062051D01*
X134808169Y-109062051D01*
X134808170Y-109062052D01*
X135001456Y-109100500D01*
X135001459Y-109100500D01*
X135198543Y-109100500D01*
X135376064Y-109065188D01*
X135391835Y-109062051D01*
X135573914Y-108986632D01*
X135737782Y-108877139D01*
X135877139Y-108737782D01*
X135986632Y-108573914D01*
X135990213Y-108565270D01*
X136062049Y-108391839D01*
X136062051Y-108391835D01*
X136088452Y-108259111D01*
X136100500Y-108198543D01*
X137599499Y-108198543D01*
X137637947Y-108391829D01*
X137637950Y-108391839D01*
X137713364Y-108573907D01*
X137713371Y-108573920D01*
X137822860Y-108737781D01*
X137822863Y-108737785D01*
X137962214Y-108877136D01*
X137962218Y-108877139D01*
X138126079Y-108986628D01*
X138126092Y-108986635D01*
X138300239Y-109058768D01*
X138308165Y-109062051D01*
X138308169Y-109062051D01*
X138308170Y-109062052D01*
X138501456Y-109100500D01*
X138501459Y-109100500D01*
X138698543Y-109100500D01*
X138876064Y-109065188D01*
X138891835Y-109062051D01*
X139073914Y-108986632D01*
X139237782Y-108877139D01*
X139377139Y-108737782D01*
X139486632Y-108573914D01*
X139490213Y-108565270D01*
X139562049Y-108391839D01*
X139562051Y-108391835D01*
X139588452Y-108259111D01*
X139600500Y-108198543D01*
X141099499Y-108198543D01*
X141137947Y-108391829D01*
X141137950Y-108391839D01*
X141213364Y-108573907D01*
X141213371Y-108573920D01*
X141322860Y-108737781D01*
X141322863Y-108737785D01*
X141462214Y-108877136D01*
X141462218Y-108877139D01*
X141626079Y-108986628D01*
X141626092Y-108986635D01*
X141800239Y-109058768D01*
X141808165Y-109062051D01*
X141808169Y-109062051D01*
X141808170Y-109062052D01*
X142001456Y-109100500D01*
X142001459Y-109100500D01*
X142198543Y-109100500D01*
X142376064Y-109065188D01*
X142391835Y-109062051D01*
X142573914Y-108986632D01*
X142737782Y-108877139D01*
X142877139Y-108737782D01*
X142986632Y-108573914D01*
X142990213Y-108565270D01*
X143062049Y-108391839D01*
X143062051Y-108391835D01*
X143088452Y-108259111D01*
X143100500Y-108198543D01*
X144599499Y-108198543D01*
X144637947Y-108391829D01*
X144637950Y-108391839D01*
X144713364Y-108573907D01*
X144713371Y-108573920D01*
X144822860Y-108737781D01*
X144822863Y-108737785D01*
X144962214Y-108877136D01*
X144962218Y-108877139D01*
X145126079Y-108986628D01*
X145126092Y-108986635D01*
X145300239Y-109058768D01*
X145308165Y-109062051D01*
X145308169Y-109062051D01*
X145308170Y-109062052D01*
X145501456Y-109100500D01*
X145501459Y-109100500D01*
X145698543Y-109100500D01*
X145876064Y-109065188D01*
X145891835Y-109062051D01*
X146073914Y-108986632D01*
X146237782Y-108877139D01*
X146377139Y-108737782D01*
X146486632Y-108573914D01*
X146490213Y-108565270D01*
X146562049Y-108391839D01*
X146562051Y-108391835D01*
X146588452Y-108259111D01*
X146600500Y-108198543D01*
X148099499Y-108198543D01*
X148137947Y-108391829D01*
X148137950Y-108391839D01*
X148213364Y-108573907D01*
X148213371Y-108573920D01*
X148322860Y-108737781D01*
X148322863Y-108737785D01*
X148462214Y-108877136D01*
X148462218Y-108877139D01*
X148626079Y-108986628D01*
X148626092Y-108986635D01*
X148800239Y-109058768D01*
X148808165Y-109062051D01*
X148808169Y-109062051D01*
X148808170Y-109062052D01*
X149001456Y-109100500D01*
X149001459Y-109100500D01*
X149198543Y-109100500D01*
X149376064Y-109065188D01*
X149391835Y-109062051D01*
X149573914Y-108986632D01*
X149737782Y-108877139D01*
X149877139Y-108737782D01*
X149986632Y-108573914D01*
X149990213Y-108565270D01*
X150062049Y-108391839D01*
X150062051Y-108391835D01*
X150088452Y-108259111D01*
X150100500Y-108198543D01*
X151599499Y-108198543D01*
X151637947Y-108391829D01*
X151637950Y-108391839D01*
X151713364Y-108573907D01*
X151713371Y-108573920D01*
X151822860Y-108737781D01*
X151822863Y-108737785D01*
X151962214Y-108877136D01*
X151962218Y-108877139D01*
X152126079Y-108986628D01*
X152126092Y-108986635D01*
X152300239Y-109058768D01*
X152308165Y-109062051D01*
X152308169Y-109062051D01*
X152308170Y-109062052D01*
X152501456Y-109100500D01*
X152501459Y-109100500D01*
X152698543Y-109100500D01*
X152876064Y-109065188D01*
X152891835Y-109062051D01*
X153073914Y-108986632D01*
X153237782Y-108877139D01*
X153377139Y-108737782D01*
X153486632Y-108573914D01*
X153490213Y-108565270D01*
X153562049Y-108391839D01*
X153562051Y-108391835D01*
X153588452Y-108259111D01*
X153600500Y-108198543D01*
X155099499Y-108198543D01*
X155137947Y-108391829D01*
X155137950Y-108391839D01*
X155213364Y-108573907D01*
X155213371Y-108573920D01*
X155322860Y-108737781D01*
X155322863Y-108737785D01*
X155462214Y-108877136D01*
X155462218Y-108877139D01*
X155626079Y-108986628D01*
X155626092Y-108986635D01*
X155800239Y-109058768D01*
X155808165Y-109062051D01*
X155808169Y-109062051D01*
X155808170Y-109062052D01*
X156001456Y-109100500D01*
X156001459Y-109100500D01*
X156198543Y-109100500D01*
X156376064Y-109065188D01*
X156391835Y-109062051D01*
X156573914Y-108986632D01*
X156737782Y-108877139D01*
X156877139Y-108737782D01*
X156986632Y-108573914D01*
X156990213Y-108565270D01*
X157062049Y-108391839D01*
X157062051Y-108391835D01*
X157088452Y-108259111D01*
X157100500Y-108198543D01*
X158599499Y-108198543D01*
X158637947Y-108391829D01*
X158637950Y-108391839D01*
X158713364Y-108573907D01*
X158713371Y-108573920D01*
X158822860Y-108737781D01*
X158822863Y-108737785D01*
X158962214Y-108877136D01*
X158962218Y-108877139D01*
X159126079Y-108986628D01*
X159126092Y-108986635D01*
X159300239Y-109058768D01*
X159308165Y-109062051D01*
X159308169Y-109062051D01*
X159308170Y-109062052D01*
X159501456Y-109100500D01*
X159501459Y-109100500D01*
X159698543Y-109100500D01*
X159876064Y-109065188D01*
X159891835Y-109062051D01*
X160073914Y-108986632D01*
X160237782Y-108877139D01*
X160377139Y-108737782D01*
X160486632Y-108573914D01*
X160490213Y-108565270D01*
X160562049Y-108391839D01*
X160562051Y-108391835D01*
X160588452Y-108259111D01*
X160600500Y-108198543D01*
X162099499Y-108198543D01*
X162137947Y-108391829D01*
X162137950Y-108391839D01*
X162213364Y-108573907D01*
X162213371Y-108573920D01*
X162322860Y-108737781D01*
X162322863Y-108737785D01*
X162462214Y-108877136D01*
X162462218Y-108877139D01*
X162626079Y-108986628D01*
X162626092Y-108986635D01*
X162800239Y-109058768D01*
X162808165Y-109062051D01*
X162808169Y-109062051D01*
X162808170Y-109062052D01*
X163001456Y-109100500D01*
X163001459Y-109100500D01*
X163198543Y-109100500D01*
X163376064Y-109065188D01*
X163391835Y-109062051D01*
X163573914Y-108986632D01*
X163737782Y-108877139D01*
X163877139Y-108737782D01*
X163986632Y-108573914D01*
X163990213Y-108565270D01*
X164062049Y-108391839D01*
X164062051Y-108391835D01*
X164088452Y-108259111D01*
X164100500Y-108198543D01*
X164100500Y-107201504D01*
X165600000Y-107201504D01*
X165600000Y-107450000D01*
X166051518Y-107450000D01*
X166040889Y-107468409D01*
X166000000Y-107621009D01*
X166000000Y-107778991D01*
X166040889Y-107931591D01*
X166051518Y-107950000D01*
X165600000Y-107950000D01*
X165600000Y-108198495D01*
X165638427Y-108391681D01*
X165638430Y-108391693D01*
X165713807Y-108573671D01*
X165713814Y-108573684D01*
X165823248Y-108737462D01*
X165823251Y-108737466D01*
X165962533Y-108876748D01*
X165962537Y-108876751D01*
X166126315Y-108986185D01*
X166126328Y-108986192D01*
X166308308Y-109061569D01*
X166350000Y-109069862D01*
X166350000Y-108248482D01*
X166368409Y-108259111D01*
X166521009Y-108300000D01*
X166678991Y-108300000D01*
X166831591Y-108259111D01*
X166850000Y-108248482D01*
X166850000Y-109069862D01*
X166891690Y-109061569D01*
X166891692Y-109061569D01*
X167073671Y-108986192D01*
X167073684Y-108986185D01*
X167237462Y-108876751D01*
X167237466Y-108876748D01*
X167376748Y-108737466D01*
X167376751Y-108737462D01*
X167486185Y-108573684D01*
X167486192Y-108573671D01*
X167561569Y-108391693D01*
X167561572Y-108391681D01*
X167599999Y-108198495D01*
X167600000Y-108198492D01*
X167600000Y-107950000D01*
X167148482Y-107950000D01*
X167159111Y-107931591D01*
X167200000Y-107778991D01*
X167200000Y-107621009D01*
X167159111Y-107468409D01*
X167148482Y-107450000D01*
X167600000Y-107450000D01*
X167600000Y-107201508D01*
X167599999Y-107201504D01*
X167561572Y-107008318D01*
X167561569Y-107008306D01*
X167486192Y-106826328D01*
X167486185Y-106826315D01*
X167376751Y-106662537D01*
X167376748Y-106662533D01*
X167237466Y-106523251D01*
X167237462Y-106523248D01*
X167073684Y-106413814D01*
X167073671Y-106413807D01*
X166891691Y-106338429D01*
X166891683Y-106338427D01*
X166850000Y-106330135D01*
X166850000Y-107151517D01*
X166831591Y-107140889D01*
X166678991Y-107100000D01*
X166521009Y-107100000D01*
X166368409Y-107140889D01*
X166350000Y-107151517D01*
X166350000Y-106330136D01*
X166349999Y-106330135D01*
X166308316Y-106338427D01*
X166308308Y-106338429D01*
X166126328Y-106413807D01*
X166126315Y-106413814D01*
X165962537Y-106523248D01*
X165962533Y-106523251D01*
X165823251Y-106662533D01*
X165823248Y-106662537D01*
X165713814Y-106826315D01*
X165713807Y-106826328D01*
X165638430Y-107008306D01*
X165638427Y-107008318D01*
X165600000Y-107201504D01*
X164100500Y-107201504D01*
X164100500Y-107201456D01*
X164062052Y-107008170D01*
X164062051Y-107008169D01*
X164062051Y-107008165D01*
X164062049Y-107008160D01*
X163986635Y-106826092D01*
X163986628Y-106826079D01*
X163877139Y-106662218D01*
X163877136Y-106662214D01*
X163737785Y-106522863D01*
X163737781Y-106522860D01*
X163573920Y-106413371D01*
X163573907Y-106413364D01*
X163391839Y-106337950D01*
X163391829Y-106337947D01*
X163198543Y-106299500D01*
X163198541Y-106299500D01*
X163001459Y-106299500D01*
X163001457Y-106299500D01*
X162808170Y-106337947D01*
X162808160Y-106337950D01*
X162626092Y-106413364D01*
X162626079Y-106413371D01*
X162462218Y-106522860D01*
X162462214Y-106522863D01*
X162322863Y-106662214D01*
X162322860Y-106662218D01*
X162213371Y-106826079D01*
X162213364Y-106826092D01*
X162137950Y-107008160D01*
X162137947Y-107008170D01*
X162099500Y-107201456D01*
X162099500Y-107201459D01*
X162099500Y-108198541D01*
X162099500Y-108198543D01*
X162099499Y-108198543D01*
X160600500Y-108198543D01*
X160600500Y-107201456D01*
X160562052Y-107008170D01*
X160562051Y-107008169D01*
X160562051Y-107008165D01*
X160562049Y-107008160D01*
X160486635Y-106826092D01*
X160486628Y-106826079D01*
X160377139Y-106662218D01*
X160377136Y-106662214D01*
X160237785Y-106522863D01*
X160237781Y-106522860D01*
X160073920Y-106413371D01*
X160073907Y-106413364D01*
X159891839Y-106337950D01*
X159891829Y-106337947D01*
X159698543Y-106299500D01*
X159698541Y-106299500D01*
X159501459Y-106299500D01*
X159501457Y-106299500D01*
X159308170Y-106337947D01*
X159308160Y-106337950D01*
X159126092Y-106413364D01*
X159126079Y-106413371D01*
X158962218Y-106522860D01*
X158962214Y-106522863D01*
X158822863Y-106662214D01*
X158822860Y-106662218D01*
X158713371Y-106826079D01*
X158713364Y-106826092D01*
X158637950Y-107008160D01*
X158637947Y-107008170D01*
X158599500Y-107201456D01*
X158599500Y-107201459D01*
X158599500Y-108198541D01*
X158599500Y-108198543D01*
X158599499Y-108198543D01*
X157100500Y-108198543D01*
X157100500Y-107201456D01*
X157062052Y-107008170D01*
X157062051Y-107008169D01*
X157062051Y-107008165D01*
X157062049Y-107008160D01*
X156986635Y-106826092D01*
X156986628Y-106826079D01*
X156877139Y-106662218D01*
X156877136Y-106662214D01*
X156737785Y-106522863D01*
X156737781Y-106522860D01*
X156573920Y-106413371D01*
X156573907Y-106413364D01*
X156391839Y-106337950D01*
X156391829Y-106337947D01*
X156198543Y-106299500D01*
X156198541Y-106299500D01*
X156001459Y-106299500D01*
X156001457Y-106299500D01*
X155808170Y-106337947D01*
X155808160Y-106337950D01*
X155626092Y-106413364D01*
X155626079Y-106413371D01*
X155462218Y-106522860D01*
X155462214Y-106522863D01*
X155322863Y-106662214D01*
X155322860Y-106662218D01*
X155213371Y-106826079D01*
X155213364Y-106826092D01*
X155137950Y-107008160D01*
X155137947Y-107008170D01*
X155099500Y-107201456D01*
X155099500Y-107201459D01*
X155099500Y-108198541D01*
X155099500Y-108198543D01*
X155099499Y-108198543D01*
X153600500Y-108198543D01*
X153600500Y-107201456D01*
X153562052Y-107008170D01*
X153562051Y-107008169D01*
X153562051Y-107008165D01*
X153562049Y-107008160D01*
X153486635Y-106826092D01*
X153486628Y-106826079D01*
X153377139Y-106662218D01*
X153377136Y-106662214D01*
X153237785Y-106522863D01*
X153237781Y-106522860D01*
X153073920Y-106413371D01*
X153073907Y-106413364D01*
X152891839Y-106337950D01*
X152891829Y-106337947D01*
X152698543Y-106299500D01*
X152698541Y-106299500D01*
X152501459Y-106299500D01*
X152501457Y-106299500D01*
X152308170Y-106337947D01*
X152308160Y-106337950D01*
X152126092Y-106413364D01*
X152126079Y-106413371D01*
X151962218Y-106522860D01*
X151962214Y-106522863D01*
X151822863Y-106662214D01*
X151822860Y-106662218D01*
X151713371Y-106826079D01*
X151713364Y-106826092D01*
X151637950Y-107008160D01*
X151637947Y-107008170D01*
X151599500Y-107201456D01*
X151599500Y-107201459D01*
X151599500Y-108198541D01*
X151599500Y-108198543D01*
X151599499Y-108198543D01*
X150100500Y-108198543D01*
X150100500Y-107201456D01*
X150062052Y-107008170D01*
X150062051Y-107008169D01*
X150062051Y-107008165D01*
X150062049Y-107008160D01*
X149986635Y-106826092D01*
X149986628Y-106826079D01*
X149877139Y-106662218D01*
X149877136Y-106662214D01*
X149737785Y-106522863D01*
X149737781Y-106522860D01*
X149573920Y-106413371D01*
X149573907Y-106413364D01*
X149391839Y-106337950D01*
X149391829Y-106337947D01*
X149198543Y-106299500D01*
X149198541Y-106299500D01*
X149001459Y-106299500D01*
X149001457Y-106299500D01*
X148808170Y-106337947D01*
X148808160Y-106337950D01*
X148626092Y-106413364D01*
X148626079Y-106413371D01*
X148462218Y-106522860D01*
X148462214Y-106522863D01*
X148322863Y-106662214D01*
X148322860Y-106662218D01*
X148213371Y-106826079D01*
X148213364Y-106826092D01*
X148137950Y-107008160D01*
X148137947Y-107008170D01*
X148099500Y-107201456D01*
X148099500Y-107201459D01*
X148099500Y-108198541D01*
X148099500Y-108198543D01*
X148099499Y-108198543D01*
X146600500Y-108198543D01*
X146600500Y-107201456D01*
X146562052Y-107008170D01*
X146562051Y-107008169D01*
X146562051Y-107008165D01*
X146562049Y-107008160D01*
X146486635Y-106826092D01*
X146486628Y-106826079D01*
X146377139Y-106662218D01*
X146377136Y-106662214D01*
X146237785Y-106522863D01*
X146237781Y-106522860D01*
X146073920Y-106413371D01*
X146073907Y-106413364D01*
X145891839Y-106337950D01*
X145891829Y-106337947D01*
X145698543Y-106299500D01*
X145698541Y-106299500D01*
X145501459Y-106299500D01*
X145501457Y-106299500D01*
X145308170Y-106337947D01*
X145308160Y-106337950D01*
X145126092Y-106413364D01*
X145126079Y-106413371D01*
X144962218Y-106522860D01*
X144962214Y-106522863D01*
X144822863Y-106662214D01*
X144822860Y-106662218D01*
X144713371Y-106826079D01*
X144713364Y-106826092D01*
X144637950Y-107008160D01*
X144637947Y-107008170D01*
X144599500Y-107201456D01*
X144599500Y-107201459D01*
X144599500Y-108198541D01*
X144599500Y-108198543D01*
X144599499Y-108198543D01*
X143100500Y-108198543D01*
X143100500Y-107201456D01*
X143062052Y-107008170D01*
X143062051Y-107008169D01*
X143062051Y-107008165D01*
X143062049Y-107008160D01*
X142986635Y-106826092D01*
X142986628Y-106826079D01*
X142877139Y-106662218D01*
X142877136Y-106662214D01*
X142737785Y-106522863D01*
X142737781Y-106522860D01*
X142573920Y-106413371D01*
X142573907Y-106413364D01*
X142391839Y-106337950D01*
X142391829Y-106337947D01*
X142198543Y-106299500D01*
X142198541Y-106299500D01*
X142001459Y-106299500D01*
X142001457Y-106299500D01*
X141808170Y-106337947D01*
X141808160Y-106337950D01*
X141626092Y-106413364D01*
X141626079Y-106413371D01*
X141462218Y-106522860D01*
X141462214Y-106522863D01*
X141322863Y-106662214D01*
X141322860Y-106662218D01*
X141213371Y-106826079D01*
X141213364Y-106826092D01*
X141137950Y-107008160D01*
X141137947Y-107008170D01*
X141099500Y-107201456D01*
X141099500Y-107201459D01*
X141099500Y-108198541D01*
X141099500Y-108198543D01*
X141099499Y-108198543D01*
X139600500Y-108198543D01*
X139600500Y-107201456D01*
X139562052Y-107008170D01*
X139562051Y-107008169D01*
X139562051Y-107008165D01*
X139562049Y-107008160D01*
X139486635Y-106826092D01*
X139486628Y-106826079D01*
X139377139Y-106662218D01*
X139377136Y-106662214D01*
X139237785Y-106522863D01*
X139237781Y-106522860D01*
X139073920Y-106413371D01*
X139073907Y-106413364D01*
X138891839Y-106337950D01*
X138891829Y-106337947D01*
X138698543Y-106299500D01*
X138698541Y-106299500D01*
X138501459Y-106299500D01*
X138501457Y-106299500D01*
X138308170Y-106337947D01*
X138308160Y-106337950D01*
X138126092Y-106413364D01*
X138126079Y-106413371D01*
X137962218Y-106522860D01*
X137962214Y-106522863D01*
X137822863Y-106662214D01*
X137822860Y-106662218D01*
X137713371Y-106826079D01*
X137713364Y-106826092D01*
X137637950Y-107008160D01*
X137637947Y-107008170D01*
X137599500Y-107201456D01*
X137599500Y-107201459D01*
X137599500Y-108198541D01*
X137599500Y-108198543D01*
X137599499Y-108198543D01*
X136100500Y-108198543D01*
X136100500Y-107201456D01*
X136062052Y-107008170D01*
X136062051Y-107008169D01*
X136062051Y-107008165D01*
X136062049Y-107008160D01*
X135986635Y-106826092D01*
X135986628Y-106826079D01*
X135877139Y-106662218D01*
X135877136Y-106662214D01*
X135737785Y-106522863D01*
X135737781Y-106522860D01*
X135573920Y-106413371D01*
X135573907Y-106413364D01*
X135391839Y-106337950D01*
X135391829Y-106337947D01*
X135198543Y-106299500D01*
X135198541Y-106299500D01*
X135001459Y-106299500D01*
X135001457Y-106299500D01*
X134808170Y-106337947D01*
X134808160Y-106337950D01*
X134626092Y-106413364D01*
X134626079Y-106413371D01*
X134462218Y-106522860D01*
X134462214Y-106522863D01*
X134322863Y-106662214D01*
X134322860Y-106662218D01*
X134213371Y-106826079D01*
X134213364Y-106826092D01*
X134137950Y-107008160D01*
X134137947Y-107008170D01*
X134099500Y-107201456D01*
X134099500Y-107201459D01*
X134099500Y-108198541D01*
X134099500Y-108198543D01*
X134099499Y-108198543D01*
X132599989Y-108198543D01*
X132599999Y-108198495D01*
X132600000Y-108198492D01*
X132600000Y-107950000D01*
X132148482Y-107950000D01*
X132159111Y-107931591D01*
X132200000Y-107778991D01*
X132200000Y-107621009D01*
X132159111Y-107468409D01*
X132148482Y-107450000D01*
X132600000Y-107450000D01*
X132600000Y-107201507D01*
X132599999Y-107201505D01*
X132561572Y-107008318D01*
X132561569Y-107008306D01*
X132486192Y-106826328D01*
X132486185Y-106826315D01*
X132376751Y-106662537D01*
X132376748Y-106662533D01*
X132237466Y-106523251D01*
X132237462Y-106523248D01*
X132073684Y-106413814D01*
X132073671Y-106413807D01*
X131891691Y-106338429D01*
X131891683Y-106338427D01*
X131850000Y-106330135D01*
X131850000Y-107151517D01*
X131831591Y-107140889D01*
X131678991Y-107100000D01*
X131521009Y-107100000D01*
X131368409Y-107140889D01*
X131350000Y-107151517D01*
X131350000Y-106330136D01*
X131349999Y-106330135D01*
X131308316Y-106338427D01*
X131308308Y-106338429D01*
X131126328Y-106413807D01*
X131126315Y-106413814D01*
X130962537Y-106523248D01*
X130962533Y-106523251D01*
X130823251Y-106662533D01*
X130823248Y-106662537D01*
X130713814Y-106826315D01*
X130713807Y-106826328D01*
X130638430Y-107008306D01*
X130638427Y-107008318D01*
X130600000Y-107201504D01*
X129100500Y-107201504D01*
X129100500Y-106752128D01*
X129094091Y-106692518D01*
X129043796Y-106557670D01*
X128957546Y-106442454D01*
X128842330Y-106356204D01*
X128842328Y-106356203D01*
X128842327Y-106356202D01*
X128707481Y-106305908D01*
X128707482Y-106305908D01*
X128647882Y-106299501D01*
X128647880Y-106299500D01*
X128647872Y-106299500D01*
X127552128Y-106299500D01*
X127552120Y-106299500D01*
X127552117Y-106299501D01*
X127492518Y-106305908D01*
X127357672Y-106356202D01*
X127357670Y-106356204D01*
X127242454Y-106442454D01*
X127156204Y-106557670D01*
X127156202Y-106557672D01*
X127105908Y-106692518D01*
X127099501Y-106752117D01*
X127099500Y-106752136D01*
X125500500Y-106752136D01*
X125500500Y-101525321D01*
X127099500Y-101525321D01*
X127099500Y-103874678D01*
X127114032Y-103947735D01*
X127114033Y-103947739D01*
X127114034Y-103947740D01*
X127169399Y-104030601D01*
X127252260Y-104085966D01*
X127252264Y-104085967D01*
X127325321Y-104100499D01*
X127325324Y-104100500D01*
X127325326Y-104100500D01*
X128874676Y-104100500D01*
X128874677Y-104100499D01*
X128947740Y-104085966D01*
X129030601Y-104030601D01*
X129085966Y-103947740D01*
X129100500Y-103874674D01*
X129100500Y-102201504D01*
X130600000Y-102201504D01*
X130600000Y-102450000D01*
X131051518Y-102450000D01*
X131040889Y-102468409D01*
X131000000Y-102621009D01*
X131000000Y-102778991D01*
X131040889Y-102931591D01*
X131051518Y-102950000D01*
X130600000Y-102950000D01*
X130600000Y-103198495D01*
X130638427Y-103391681D01*
X130638430Y-103391693D01*
X130713807Y-103573671D01*
X130713814Y-103573684D01*
X130823248Y-103737462D01*
X130823251Y-103737466D01*
X130962533Y-103876748D01*
X130962537Y-103876751D01*
X131126315Y-103986185D01*
X131126328Y-103986192D01*
X131308308Y-104061569D01*
X131350000Y-104069862D01*
X131350000Y-103248482D01*
X131368409Y-103259111D01*
X131521009Y-103300000D01*
X131678991Y-103300000D01*
X131831591Y-103259111D01*
X131850000Y-103248482D01*
X131850000Y-104069862D01*
X131891690Y-104061569D01*
X131891692Y-104061569D01*
X132073671Y-103986192D01*
X132073684Y-103986185D01*
X132237462Y-103876751D01*
X132237466Y-103876748D01*
X132376748Y-103737466D01*
X132376751Y-103737462D01*
X132486185Y-103573684D01*
X132486192Y-103573671D01*
X132561569Y-103391693D01*
X132561572Y-103391681D01*
X132599989Y-103198543D01*
X134099499Y-103198543D01*
X134137947Y-103391829D01*
X134137950Y-103391839D01*
X134213364Y-103573907D01*
X134213371Y-103573920D01*
X134322860Y-103737781D01*
X134322863Y-103737785D01*
X134462214Y-103877136D01*
X134462218Y-103877139D01*
X134626079Y-103986628D01*
X134626092Y-103986635D01*
X134732237Y-104030601D01*
X134808165Y-104062051D01*
X134808169Y-104062051D01*
X134808170Y-104062052D01*
X135001456Y-104100500D01*
X135001459Y-104100500D01*
X135198543Y-104100500D01*
X135352567Y-104069862D01*
X135391835Y-104062051D01*
X135573914Y-103986632D01*
X135737782Y-103877139D01*
X135877139Y-103737782D01*
X135986632Y-103573914D01*
X136062051Y-103391835D01*
X136100500Y-103198543D01*
X137599499Y-103198543D01*
X137637947Y-103391829D01*
X137637950Y-103391839D01*
X137713364Y-103573907D01*
X137713371Y-103573920D01*
X137822860Y-103737781D01*
X137822863Y-103737785D01*
X137962214Y-103877136D01*
X137962218Y-103877139D01*
X138126079Y-103986628D01*
X138126092Y-103986635D01*
X138232237Y-104030601D01*
X138308165Y-104062051D01*
X138308169Y-104062051D01*
X138308170Y-104062052D01*
X138501456Y-104100500D01*
X138501459Y-104100500D01*
X138698543Y-104100500D01*
X138852567Y-104069862D01*
X138891835Y-104062051D01*
X139073914Y-103986632D01*
X139237782Y-103877139D01*
X139377139Y-103737782D01*
X139486632Y-103573914D01*
X139562051Y-103391835D01*
X139600500Y-103198543D01*
X141099499Y-103198543D01*
X141137947Y-103391829D01*
X141137950Y-103391839D01*
X141213364Y-103573907D01*
X141213371Y-103573920D01*
X141322860Y-103737781D01*
X141322863Y-103737785D01*
X141462214Y-103877136D01*
X141462218Y-103877139D01*
X141626079Y-103986628D01*
X141626092Y-103986635D01*
X141732237Y-104030601D01*
X141808165Y-104062051D01*
X141808169Y-104062051D01*
X141808170Y-104062052D01*
X142001456Y-104100500D01*
X142001459Y-104100500D01*
X142198543Y-104100500D01*
X142352567Y-104069862D01*
X142391835Y-104062051D01*
X142573914Y-103986632D01*
X142737782Y-103877139D01*
X142877139Y-103737782D01*
X142986632Y-103573914D01*
X143062051Y-103391835D01*
X143100500Y-103198543D01*
X144599499Y-103198543D01*
X144637947Y-103391829D01*
X144637950Y-103391839D01*
X144713364Y-103573907D01*
X144713371Y-103573920D01*
X144822860Y-103737781D01*
X144822863Y-103737785D01*
X144962214Y-103877136D01*
X144962218Y-103877139D01*
X145126079Y-103986628D01*
X145126092Y-103986635D01*
X145232237Y-104030601D01*
X145308165Y-104062051D01*
X145308169Y-104062051D01*
X145308170Y-104062052D01*
X145501456Y-104100500D01*
X145501459Y-104100500D01*
X145698543Y-104100500D01*
X145852567Y-104069862D01*
X145891835Y-104062051D01*
X146073914Y-103986632D01*
X146237782Y-103877139D01*
X146377139Y-103737782D01*
X146486632Y-103573914D01*
X146562051Y-103391835D01*
X146600500Y-103198543D01*
X148099499Y-103198543D01*
X148137947Y-103391829D01*
X148137950Y-103391839D01*
X148213364Y-103573907D01*
X148213371Y-103573920D01*
X148322860Y-103737781D01*
X148322863Y-103737785D01*
X148462214Y-103877136D01*
X148462218Y-103877139D01*
X148626079Y-103986628D01*
X148626092Y-103986635D01*
X148732237Y-104030601D01*
X148808165Y-104062051D01*
X148808169Y-104062051D01*
X148808170Y-104062052D01*
X149001456Y-104100500D01*
X149001459Y-104100500D01*
X149198543Y-104100500D01*
X149352567Y-104069862D01*
X149391835Y-104062051D01*
X149573914Y-103986632D01*
X149737782Y-103877139D01*
X149877139Y-103737782D01*
X149986632Y-103573914D01*
X150062051Y-103391835D01*
X150100500Y-103198543D01*
X151599499Y-103198543D01*
X151637947Y-103391829D01*
X151637950Y-103391839D01*
X151713364Y-103573907D01*
X151713371Y-103573920D01*
X151822860Y-103737781D01*
X151822863Y-103737785D01*
X151962214Y-103877136D01*
X151962218Y-103877139D01*
X152126079Y-103986628D01*
X152126092Y-103986635D01*
X152232237Y-104030601D01*
X152308165Y-104062051D01*
X152308169Y-104062051D01*
X152308170Y-104062052D01*
X152501456Y-104100500D01*
X152501459Y-104100500D01*
X152698543Y-104100500D01*
X152852567Y-104069862D01*
X152891835Y-104062051D01*
X153073914Y-103986632D01*
X153237782Y-103877139D01*
X153377139Y-103737782D01*
X153486632Y-103573914D01*
X153562051Y-103391835D01*
X153600500Y-103198543D01*
X155099499Y-103198543D01*
X155137947Y-103391829D01*
X155137950Y-103391839D01*
X155213364Y-103573907D01*
X155213371Y-103573920D01*
X155322860Y-103737781D01*
X155322863Y-103737785D01*
X155462214Y-103877136D01*
X155462218Y-103877139D01*
X155626079Y-103986628D01*
X155626092Y-103986635D01*
X155732237Y-104030601D01*
X155808165Y-104062051D01*
X155808169Y-104062051D01*
X155808170Y-104062052D01*
X156001456Y-104100500D01*
X156001459Y-104100500D01*
X156198543Y-104100500D01*
X156352567Y-104069862D01*
X156391835Y-104062051D01*
X156573914Y-103986632D01*
X156737782Y-103877139D01*
X156877139Y-103737782D01*
X156986632Y-103573914D01*
X157062051Y-103391835D01*
X157100500Y-103198543D01*
X158599499Y-103198543D01*
X158637947Y-103391829D01*
X158637950Y-103391839D01*
X158713364Y-103573907D01*
X158713371Y-103573920D01*
X158822860Y-103737781D01*
X158822863Y-103737785D01*
X158962214Y-103877136D01*
X158962218Y-103877139D01*
X159126079Y-103986628D01*
X159126092Y-103986635D01*
X159232237Y-104030601D01*
X159308165Y-104062051D01*
X159308169Y-104062051D01*
X159308170Y-104062052D01*
X159501456Y-104100500D01*
X159501459Y-104100500D01*
X159698543Y-104100500D01*
X159852567Y-104069862D01*
X159891835Y-104062051D01*
X160073914Y-103986632D01*
X160237782Y-103877139D01*
X160377139Y-103737782D01*
X160486632Y-103573914D01*
X160562051Y-103391835D01*
X160600500Y-103198543D01*
X162099499Y-103198543D01*
X162137947Y-103391829D01*
X162137950Y-103391839D01*
X162213364Y-103573907D01*
X162213371Y-103573920D01*
X162322860Y-103737781D01*
X162322863Y-103737785D01*
X162462214Y-103877136D01*
X162462218Y-103877139D01*
X162626079Y-103986628D01*
X162626092Y-103986635D01*
X162732237Y-104030601D01*
X162808165Y-104062051D01*
X162808169Y-104062051D01*
X162808170Y-104062052D01*
X163001456Y-104100500D01*
X163001459Y-104100500D01*
X163198543Y-104100500D01*
X163352567Y-104069862D01*
X163391835Y-104062051D01*
X163573914Y-103986632D01*
X163737782Y-103877139D01*
X163877139Y-103737782D01*
X163986632Y-103573914D01*
X164062051Y-103391835D01*
X164100500Y-103198541D01*
X164100500Y-102201504D01*
X165600000Y-102201504D01*
X165600000Y-102450000D01*
X166051518Y-102450000D01*
X166040889Y-102468409D01*
X166000000Y-102621009D01*
X166000000Y-102778991D01*
X166040889Y-102931591D01*
X166051518Y-102950000D01*
X165600000Y-102950000D01*
X165600000Y-103198495D01*
X165638427Y-103391681D01*
X165638430Y-103391693D01*
X165713807Y-103573671D01*
X165713814Y-103573684D01*
X165823248Y-103737462D01*
X165823251Y-103737466D01*
X165962533Y-103876748D01*
X165962537Y-103876751D01*
X166126315Y-103986185D01*
X166126328Y-103986192D01*
X166308308Y-104061569D01*
X166350000Y-104069862D01*
X166350000Y-103248482D01*
X166368409Y-103259111D01*
X166521009Y-103300000D01*
X166678991Y-103300000D01*
X166831591Y-103259111D01*
X166850000Y-103248482D01*
X166850000Y-104069862D01*
X166891690Y-104061569D01*
X166891692Y-104061569D01*
X167073671Y-103986192D01*
X167073684Y-103986185D01*
X167237462Y-103876751D01*
X167237466Y-103876748D01*
X167376748Y-103737466D01*
X167376751Y-103737462D01*
X167486185Y-103573684D01*
X167486192Y-103573671D01*
X167561569Y-103391693D01*
X167561572Y-103391681D01*
X167599999Y-103198495D01*
X167600000Y-103198492D01*
X167600000Y-102950000D01*
X167148482Y-102950000D01*
X167159111Y-102931591D01*
X167200000Y-102778991D01*
X167200000Y-102621009D01*
X167159111Y-102468409D01*
X167148482Y-102450000D01*
X167600000Y-102450000D01*
X167600000Y-102201508D01*
X167599999Y-102201504D01*
X167561572Y-102008318D01*
X167561569Y-102008306D01*
X167486192Y-101826328D01*
X167486185Y-101826315D01*
X167376751Y-101662537D01*
X167376748Y-101662533D01*
X167237466Y-101523251D01*
X167237462Y-101523248D01*
X167073684Y-101413814D01*
X167073671Y-101413807D01*
X166891691Y-101338429D01*
X166891683Y-101338427D01*
X166850000Y-101330135D01*
X166850000Y-102151517D01*
X166831591Y-102140889D01*
X166678991Y-102100000D01*
X166521009Y-102100000D01*
X166368409Y-102140889D01*
X166350000Y-102151517D01*
X166350000Y-101330136D01*
X166349999Y-101330135D01*
X166308316Y-101338427D01*
X166308308Y-101338429D01*
X166126328Y-101413807D01*
X166126315Y-101413814D01*
X165962537Y-101523248D01*
X165962533Y-101523251D01*
X165823251Y-101662533D01*
X165823248Y-101662537D01*
X165713814Y-101826315D01*
X165713807Y-101826328D01*
X165638430Y-102008306D01*
X165638427Y-102008318D01*
X165600000Y-102201504D01*
X164100500Y-102201504D01*
X164100500Y-102201459D01*
X164100500Y-102201456D01*
X164062052Y-102008170D01*
X164062051Y-102008169D01*
X164062051Y-102008165D01*
X164062049Y-102008160D01*
X163986635Y-101826092D01*
X163986628Y-101826079D01*
X163877139Y-101662218D01*
X163877136Y-101662214D01*
X163737785Y-101522863D01*
X163737781Y-101522860D01*
X163573920Y-101413371D01*
X163573907Y-101413364D01*
X163391839Y-101337950D01*
X163391829Y-101337947D01*
X163198543Y-101299500D01*
X163198541Y-101299500D01*
X163001459Y-101299500D01*
X163001457Y-101299500D01*
X162808170Y-101337947D01*
X162808160Y-101337950D01*
X162626092Y-101413364D01*
X162626079Y-101413371D01*
X162462218Y-101522860D01*
X162462214Y-101522863D01*
X162322863Y-101662214D01*
X162322860Y-101662218D01*
X162213371Y-101826079D01*
X162213364Y-101826092D01*
X162137950Y-102008160D01*
X162137947Y-102008170D01*
X162099500Y-102201456D01*
X162099500Y-102201459D01*
X162099500Y-103198541D01*
X162099500Y-103198543D01*
X162099499Y-103198543D01*
X160600500Y-103198543D01*
X160600500Y-103198541D01*
X160600500Y-102201459D01*
X160600500Y-102201456D01*
X160562052Y-102008170D01*
X160562051Y-102008169D01*
X160562051Y-102008165D01*
X160562049Y-102008160D01*
X160486635Y-101826092D01*
X160486628Y-101826079D01*
X160377139Y-101662218D01*
X160377136Y-101662214D01*
X160237785Y-101522863D01*
X160237781Y-101522860D01*
X160073920Y-101413371D01*
X160073907Y-101413364D01*
X159891839Y-101337950D01*
X159891829Y-101337947D01*
X159698543Y-101299500D01*
X159698541Y-101299500D01*
X159501459Y-101299500D01*
X159501457Y-101299500D01*
X159308170Y-101337947D01*
X159308160Y-101337950D01*
X159126092Y-101413364D01*
X159126079Y-101413371D01*
X158962218Y-101522860D01*
X158962214Y-101522863D01*
X158822863Y-101662214D01*
X158822860Y-101662218D01*
X158713371Y-101826079D01*
X158713364Y-101826092D01*
X158637950Y-102008160D01*
X158637947Y-102008170D01*
X158599500Y-102201456D01*
X158599500Y-102201459D01*
X158599500Y-103198541D01*
X158599500Y-103198543D01*
X158599499Y-103198543D01*
X157100500Y-103198543D01*
X157100500Y-103198541D01*
X157100500Y-102201459D01*
X157100500Y-102201456D01*
X157062052Y-102008170D01*
X157062051Y-102008169D01*
X157062051Y-102008165D01*
X157062049Y-102008160D01*
X156986635Y-101826092D01*
X156986628Y-101826079D01*
X156877139Y-101662218D01*
X156877136Y-101662214D01*
X156737785Y-101522863D01*
X156737781Y-101522860D01*
X156573920Y-101413371D01*
X156573907Y-101413364D01*
X156391839Y-101337950D01*
X156391829Y-101337947D01*
X156198543Y-101299500D01*
X156198541Y-101299500D01*
X156001459Y-101299500D01*
X156001457Y-101299500D01*
X155808170Y-101337947D01*
X155808160Y-101337950D01*
X155626092Y-101413364D01*
X155626079Y-101413371D01*
X155462218Y-101522860D01*
X155462214Y-101522863D01*
X155322863Y-101662214D01*
X155322860Y-101662218D01*
X155213371Y-101826079D01*
X155213364Y-101826092D01*
X155137950Y-102008160D01*
X155137947Y-102008170D01*
X155099500Y-102201456D01*
X155099500Y-102201459D01*
X155099500Y-103198541D01*
X155099500Y-103198543D01*
X155099499Y-103198543D01*
X153600500Y-103198543D01*
X153600500Y-103198541D01*
X153600500Y-102201459D01*
X153600500Y-102201456D01*
X153562052Y-102008170D01*
X153562051Y-102008169D01*
X153562051Y-102008165D01*
X153562049Y-102008160D01*
X153486635Y-101826092D01*
X153486628Y-101826079D01*
X153377139Y-101662218D01*
X153377136Y-101662214D01*
X153237785Y-101522863D01*
X153237781Y-101522860D01*
X153073920Y-101413371D01*
X153073907Y-101413364D01*
X152891839Y-101337950D01*
X152891829Y-101337947D01*
X152698543Y-101299500D01*
X152698541Y-101299500D01*
X152501459Y-101299500D01*
X152501457Y-101299500D01*
X152308170Y-101337947D01*
X152308160Y-101337950D01*
X152126092Y-101413364D01*
X152126079Y-101413371D01*
X151962218Y-101522860D01*
X151962214Y-101522863D01*
X151822863Y-101662214D01*
X151822860Y-101662218D01*
X151713371Y-101826079D01*
X151713364Y-101826092D01*
X151637950Y-102008160D01*
X151637947Y-102008170D01*
X151599500Y-102201456D01*
X151599500Y-102201459D01*
X151599500Y-103198541D01*
X151599500Y-103198543D01*
X151599499Y-103198543D01*
X150100500Y-103198543D01*
X150100500Y-103198541D01*
X150100500Y-102201459D01*
X150100500Y-102201456D01*
X150062052Y-102008170D01*
X150062051Y-102008169D01*
X150062051Y-102008165D01*
X150062049Y-102008160D01*
X149986635Y-101826092D01*
X149986628Y-101826079D01*
X149877139Y-101662218D01*
X149877136Y-101662214D01*
X149737785Y-101522863D01*
X149737781Y-101522860D01*
X149573920Y-101413371D01*
X149573907Y-101413364D01*
X149391839Y-101337950D01*
X149391829Y-101337947D01*
X149198543Y-101299500D01*
X149198541Y-101299500D01*
X149001459Y-101299500D01*
X149001457Y-101299500D01*
X148808170Y-101337947D01*
X148808160Y-101337950D01*
X148626092Y-101413364D01*
X148626079Y-101413371D01*
X148462218Y-101522860D01*
X148462214Y-101522863D01*
X148322863Y-101662214D01*
X148322860Y-101662218D01*
X148213371Y-101826079D01*
X148213364Y-101826092D01*
X148137950Y-102008160D01*
X148137947Y-102008170D01*
X148099500Y-102201456D01*
X148099500Y-102201459D01*
X148099500Y-103198541D01*
X148099500Y-103198543D01*
X148099499Y-103198543D01*
X146600500Y-103198543D01*
X146600500Y-103198541D01*
X146600500Y-102201459D01*
X146600500Y-102201456D01*
X146562052Y-102008170D01*
X146562051Y-102008169D01*
X146562051Y-102008165D01*
X146562049Y-102008160D01*
X146486635Y-101826092D01*
X146486628Y-101826079D01*
X146377139Y-101662218D01*
X146377136Y-101662214D01*
X146237785Y-101522863D01*
X146237781Y-101522860D01*
X146073920Y-101413371D01*
X146073907Y-101413364D01*
X145891839Y-101337950D01*
X145891829Y-101337947D01*
X145698543Y-101299500D01*
X145698541Y-101299500D01*
X145501459Y-101299500D01*
X145501457Y-101299500D01*
X145308170Y-101337947D01*
X145308160Y-101337950D01*
X145126092Y-101413364D01*
X145126079Y-101413371D01*
X144962218Y-101522860D01*
X144962214Y-101522863D01*
X144822863Y-101662214D01*
X144822860Y-101662218D01*
X144713371Y-101826079D01*
X144713364Y-101826092D01*
X144637950Y-102008160D01*
X144637947Y-102008170D01*
X144599500Y-102201456D01*
X144599500Y-102201459D01*
X144599500Y-103198541D01*
X144599500Y-103198543D01*
X144599499Y-103198543D01*
X143100500Y-103198543D01*
X143100500Y-103198541D01*
X143100500Y-102201459D01*
X143100500Y-102201456D01*
X143062052Y-102008170D01*
X143062051Y-102008169D01*
X143062051Y-102008165D01*
X143062049Y-102008160D01*
X142986635Y-101826092D01*
X142986628Y-101826079D01*
X142877139Y-101662218D01*
X142877136Y-101662214D01*
X142737785Y-101522863D01*
X142737781Y-101522860D01*
X142573920Y-101413371D01*
X142573907Y-101413364D01*
X142391839Y-101337950D01*
X142391829Y-101337947D01*
X142198543Y-101299500D01*
X142198541Y-101299500D01*
X142001459Y-101299500D01*
X142001457Y-101299500D01*
X141808170Y-101337947D01*
X141808160Y-101337950D01*
X141626092Y-101413364D01*
X141626079Y-101413371D01*
X141462218Y-101522860D01*
X141462214Y-101522863D01*
X141322863Y-101662214D01*
X141322860Y-101662218D01*
X141213371Y-101826079D01*
X141213364Y-101826092D01*
X141137950Y-102008160D01*
X141137947Y-102008170D01*
X141099500Y-102201456D01*
X141099500Y-102201459D01*
X141099500Y-103198541D01*
X141099500Y-103198543D01*
X141099499Y-103198543D01*
X139600500Y-103198543D01*
X139600500Y-103198541D01*
X139600500Y-102201459D01*
X139600500Y-102201456D01*
X139562052Y-102008170D01*
X139562051Y-102008169D01*
X139562051Y-102008165D01*
X139562049Y-102008160D01*
X139486635Y-101826092D01*
X139486628Y-101826079D01*
X139377139Y-101662218D01*
X139377136Y-101662214D01*
X139237785Y-101522863D01*
X139237781Y-101522860D01*
X139073920Y-101413371D01*
X139073907Y-101413364D01*
X138891839Y-101337950D01*
X138891829Y-101337947D01*
X138698543Y-101299500D01*
X138698541Y-101299500D01*
X138501459Y-101299500D01*
X138501457Y-101299500D01*
X138308170Y-101337947D01*
X138308160Y-101337950D01*
X138126092Y-101413364D01*
X138126079Y-101413371D01*
X137962218Y-101522860D01*
X137962214Y-101522863D01*
X137822863Y-101662214D01*
X137822860Y-101662218D01*
X137713371Y-101826079D01*
X137713364Y-101826092D01*
X137637950Y-102008160D01*
X137637947Y-102008170D01*
X137599500Y-102201456D01*
X137599500Y-102201459D01*
X137599500Y-103198541D01*
X137599500Y-103198543D01*
X137599499Y-103198543D01*
X136100500Y-103198543D01*
X136100500Y-103198541D01*
X136100500Y-102201459D01*
X136100500Y-102201456D01*
X136062052Y-102008170D01*
X136062051Y-102008169D01*
X136062051Y-102008165D01*
X136062049Y-102008160D01*
X135986635Y-101826092D01*
X135986628Y-101826079D01*
X135877139Y-101662218D01*
X135877136Y-101662214D01*
X135737785Y-101522863D01*
X135737781Y-101522860D01*
X135573920Y-101413371D01*
X135573907Y-101413364D01*
X135391839Y-101337950D01*
X135391829Y-101337947D01*
X135198543Y-101299500D01*
X135198541Y-101299500D01*
X135001459Y-101299500D01*
X135001457Y-101299500D01*
X134808170Y-101337947D01*
X134808160Y-101337950D01*
X134626092Y-101413364D01*
X134626079Y-101413371D01*
X134462218Y-101522860D01*
X134462214Y-101522863D01*
X134322863Y-101662214D01*
X134322860Y-101662218D01*
X134213371Y-101826079D01*
X134213364Y-101826092D01*
X134137950Y-102008160D01*
X134137947Y-102008170D01*
X134099500Y-102201456D01*
X134099500Y-102201459D01*
X134099500Y-103198541D01*
X134099500Y-103198543D01*
X134099499Y-103198543D01*
X132599989Y-103198543D01*
X132599999Y-103198495D01*
X132600000Y-103198492D01*
X132600000Y-102950000D01*
X132148482Y-102950000D01*
X132159111Y-102931591D01*
X132200000Y-102778991D01*
X132200000Y-102621009D01*
X132159111Y-102468409D01*
X132148482Y-102450000D01*
X132600000Y-102450000D01*
X132600000Y-102201507D01*
X132599999Y-102201505D01*
X132561572Y-102008318D01*
X132561569Y-102008306D01*
X132486192Y-101826328D01*
X132486185Y-101826315D01*
X132376751Y-101662537D01*
X132376748Y-101662533D01*
X132237466Y-101523251D01*
X132237462Y-101523248D01*
X132073684Y-101413814D01*
X132073671Y-101413807D01*
X131891691Y-101338429D01*
X131891683Y-101338427D01*
X131850000Y-101330135D01*
X131850000Y-102151517D01*
X131831591Y-102140889D01*
X131678991Y-102100000D01*
X131521009Y-102100000D01*
X131368409Y-102140889D01*
X131350000Y-102151517D01*
X131350000Y-101330136D01*
X131349999Y-101330135D01*
X131308316Y-101338427D01*
X131308308Y-101338429D01*
X131126328Y-101413807D01*
X131126315Y-101413814D01*
X130962537Y-101523248D01*
X130962533Y-101523251D01*
X130823251Y-101662533D01*
X130823248Y-101662537D01*
X130713814Y-101826315D01*
X130713807Y-101826328D01*
X130638430Y-102008306D01*
X130638427Y-102008318D01*
X130600000Y-102201504D01*
X129100500Y-102201504D01*
X129100500Y-101525326D01*
X129100500Y-101525323D01*
X129100499Y-101525321D01*
X129085967Y-101452264D01*
X129085966Y-101452260D01*
X129030601Y-101369399D01*
X128947740Y-101314034D01*
X128947739Y-101314033D01*
X128947735Y-101314032D01*
X128874677Y-101299500D01*
X128874674Y-101299500D01*
X127325326Y-101299500D01*
X127325323Y-101299500D01*
X127252264Y-101314032D01*
X127252260Y-101314033D01*
X127169399Y-101369399D01*
X127114033Y-101452260D01*
X127114032Y-101452264D01*
X127099500Y-101525321D01*
X125500500Y-101525321D01*
X125500500Y-96827525D01*
X146549500Y-96827525D01*
X146549500Y-96972475D01*
X146587016Y-97112485D01*
X146587017Y-97112488D01*
X146659488Y-97238011D01*
X146659490Y-97238013D01*
X146659491Y-97238015D01*
X146761985Y-97340509D01*
X146761986Y-97340510D01*
X146761988Y-97340511D01*
X146887511Y-97412982D01*
X146887512Y-97412982D01*
X146887515Y-97412984D01*
X147027525Y-97450500D01*
X147027528Y-97450500D01*
X147172472Y-97450500D01*
X147172475Y-97450500D01*
X147312485Y-97412984D01*
X147438015Y-97340509D01*
X147540509Y-97238015D01*
X147546565Y-97227525D01*
X149849500Y-97227525D01*
X149849500Y-97372475D01*
X149870407Y-97450500D01*
X149887017Y-97512488D01*
X149959488Y-97638011D01*
X149959490Y-97638013D01*
X149959491Y-97638015D01*
X150061985Y-97740509D01*
X150061986Y-97740510D01*
X150061988Y-97740511D01*
X150187511Y-97812982D01*
X150187512Y-97812982D01*
X150187515Y-97812984D01*
X150327525Y-97850500D01*
X150327528Y-97850500D01*
X150472472Y-97850500D01*
X150472475Y-97850500D01*
X150612485Y-97812984D01*
X150738015Y-97740509D01*
X150840509Y-97638015D01*
X150912984Y-97512485D01*
X150950500Y-97372475D01*
X150950500Y-97227525D01*
X153149500Y-97227525D01*
X153149500Y-97372475D01*
X153170407Y-97450500D01*
X153187017Y-97512488D01*
X153259488Y-97638011D01*
X153259490Y-97638013D01*
X153259491Y-97638015D01*
X153361985Y-97740509D01*
X153361986Y-97740510D01*
X153361988Y-97740511D01*
X153487511Y-97812982D01*
X153487512Y-97812982D01*
X153487515Y-97812984D01*
X153627525Y-97850500D01*
X153627528Y-97850500D01*
X153772472Y-97850500D01*
X153772475Y-97850500D01*
X153912485Y-97812984D01*
X154038015Y-97740509D01*
X154140509Y-97638015D01*
X154212984Y-97512485D01*
X154250500Y-97372475D01*
X154250500Y-97227525D01*
X160349500Y-97227525D01*
X160349500Y-97372475D01*
X160370407Y-97450500D01*
X160387017Y-97512488D01*
X160459488Y-97638011D01*
X160459490Y-97638013D01*
X160459491Y-97638015D01*
X160561985Y-97740509D01*
X160561986Y-97740510D01*
X160561988Y-97740511D01*
X160687511Y-97812982D01*
X160687512Y-97812982D01*
X160687515Y-97812984D01*
X160827525Y-97850500D01*
X160827528Y-97850500D01*
X160972472Y-97850500D01*
X160972475Y-97850500D01*
X161112485Y-97812984D01*
X161238015Y-97740509D01*
X161340509Y-97638015D01*
X161412984Y-97512485D01*
X161450500Y-97372475D01*
X161450500Y-97227525D01*
X161849500Y-97227525D01*
X161849500Y-97372475D01*
X161870407Y-97450500D01*
X161887017Y-97512488D01*
X161959488Y-97638011D01*
X161959490Y-97638013D01*
X161959491Y-97638015D01*
X162061985Y-97740509D01*
X162061986Y-97740510D01*
X162061988Y-97740511D01*
X162187511Y-97812982D01*
X162187512Y-97812982D01*
X162187515Y-97812984D01*
X162327525Y-97850500D01*
X162327528Y-97850500D01*
X162472472Y-97850500D01*
X162472475Y-97850500D01*
X162612485Y-97812984D01*
X162738015Y-97740509D01*
X162840509Y-97638015D01*
X162912984Y-97512485D01*
X162950500Y-97372475D01*
X162950500Y-97227525D01*
X162912984Y-97087515D01*
X162846565Y-96972475D01*
X162840511Y-96961988D01*
X162840506Y-96961982D01*
X162738017Y-96859493D01*
X162738011Y-96859488D01*
X162612488Y-96787017D01*
X162612489Y-96787017D01*
X162601006Y-96783940D01*
X162472475Y-96749500D01*
X162327525Y-96749500D01*
X162198993Y-96783940D01*
X162187511Y-96787017D01*
X162061988Y-96859488D01*
X162061982Y-96859493D01*
X161959493Y-96961982D01*
X161959488Y-96961988D01*
X161887017Y-97087511D01*
X161887016Y-97087515D01*
X161849500Y-97227525D01*
X161450500Y-97227525D01*
X161412984Y-97087515D01*
X161346565Y-96972475D01*
X161340511Y-96961988D01*
X161340506Y-96961982D01*
X161238017Y-96859493D01*
X161238011Y-96859488D01*
X161112488Y-96787017D01*
X161112489Y-96787017D01*
X161101006Y-96783940D01*
X160972475Y-96749500D01*
X160827525Y-96749500D01*
X160698993Y-96783940D01*
X160687511Y-96787017D01*
X160561988Y-96859488D01*
X160561982Y-96859493D01*
X160459493Y-96961982D01*
X160459488Y-96961988D01*
X160387017Y-97087511D01*
X160387016Y-97087515D01*
X160349500Y-97227525D01*
X154250500Y-97227525D01*
X154212984Y-97087515D01*
X154146565Y-96972475D01*
X154140511Y-96961988D01*
X154140506Y-96961982D01*
X154038017Y-96859493D01*
X154038011Y-96859488D01*
X153912488Y-96787017D01*
X153912489Y-96787017D01*
X153901006Y-96783940D01*
X153772475Y-96749500D01*
X153627525Y-96749500D01*
X153498993Y-96783940D01*
X153487511Y-96787017D01*
X153361988Y-96859488D01*
X153361982Y-96859493D01*
X153259493Y-96961982D01*
X153259488Y-96961988D01*
X153187017Y-97087511D01*
X153187016Y-97087515D01*
X153149500Y-97227525D01*
X150950500Y-97227525D01*
X150912984Y-97087515D01*
X150846565Y-96972475D01*
X150840511Y-96961988D01*
X150840506Y-96961982D01*
X150738017Y-96859493D01*
X150738011Y-96859488D01*
X150612488Y-96787017D01*
X150612489Y-96787017D01*
X150601006Y-96783940D01*
X150472475Y-96749500D01*
X150327525Y-96749500D01*
X150198993Y-96783940D01*
X150187511Y-96787017D01*
X150061988Y-96859488D01*
X150061982Y-96859493D01*
X149959493Y-96961982D01*
X149959488Y-96961988D01*
X149887017Y-97087511D01*
X149887016Y-97087515D01*
X149849500Y-97227525D01*
X147546565Y-97227525D01*
X147612984Y-97112485D01*
X147650500Y-96972475D01*
X147650500Y-96827525D01*
X147612984Y-96687515D01*
X147569665Y-96612485D01*
X147540511Y-96561988D01*
X147540506Y-96561982D01*
X147438017Y-96459493D01*
X147438011Y-96459488D01*
X147312488Y-96387017D01*
X147312489Y-96387017D01*
X147301006Y-96383940D01*
X147172475Y-96349500D01*
X147027525Y-96349500D01*
X146898993Y-96383940D01*
X146887511Y-96387017D01*
X146761988Y-96459488D01*
X146761982Y-96459493D01*
X146659493Y-96561982D01*
X146659488Y-96561988D01*
X146587017Y-96687511D01*
X146587016Y-96687515D01*
X146549500Y-96827525D01*
X125500500Y-96827525D01*
X125500500Y-95427525D01*
X137949500Y-95427525D01*
X137949500Y-95572475D01*
X137987016Y-95712485D01*
X137987017Y-95712488D01*
X138059488Y-95838011D01*
X138059490Y-95838013D01*
X138059491Y-95838015D01*
X138161985Y-95940509D01*
X138161986Y-95940510D01*
X138161988Y-95940511D01*
X138287511Y-96012982D01*
X138287512Y-96012982D01*
X138287515Y-96012984D01*
X138427525Y-96050500D01*
X138427528Y-96050500D01*
X138572472Y-96050500D01*
X138572475Y-96050500D01*
X138712485Y-96012984D01*
X138838015Y-95940509D01*
X138940509Y-95838015D01*
X138946565Y-95827525D01*
X161649500Y-95827525D01*
X161649500Y-95972475D01*
X161687016Y-96112485D01*
X161687017Y-96112488D01*
X161759488Y-96238011D01*
X161759490Y-96238013D01*
X161759491Y-96238015D01*
X161861985Y-96340509D01*
X161861986Y-96340510D01*
X161861988Y-96340511D01*
X161987511Y-96412982D01*
X161987512Y-96412982D01*
X161987515Y-96412984D01*
X162127525Y-96450500D01*
X162127528Y-96450500D01*
X162272472Y-96450500D01*
X162272475Y-96450500D01*
X162412485Y-96412984D01*
X162538015Y-96340509D01*
X162550999Y-96327525D01*
X163749500Y-96327525D01*
X163749500Y-96472475D01*
X163787016Y-96612485D01*
X163787017Y-96612488D01*
X163859488Y-96738011D01*
X163859490Y-96738013D01*
X163859491Y-96738015D01*
X163961985Y-96840509D01*
X163961986Y-96840510D01*
X163961988Y-96840511D01*
X164087511Y-96912982D01*
X164087512Y-96912982D01*
X164087515Y-96912984D01*
X164227525Y-96950500D01*
X164227528Y-96950500D01*
X164372472Y-96950500D01*
X164372475Y-96950500D01*
X164512485Y-96912984D01*
X164638015Y-96840509D01*
X164740509Y-96738015D01*
X164812984Y-96612485D01*
X164850500Y-96472475D01*
X164850500Y-96327525D01*
X164812984Y-96187515D01*
X164769665Y-96112485D01*
X164740511Y-96061988D01*
X164740506Y-96061982D01*
X164638017Y-95959493D01*
X164638011Y-95959488D01*
X164512488Y-95887017D01*
X164512489Y-95887017D01*
X164501006Y-95883940D01*
X164372475Y-95849500D01*
X164227525Y-95849500D01*
X164098993Y-95883940D01*
X164087511Y-95887017D01*
X163961988Y-95959488D01*
X163961982Y-95959493D01*
X163859493Y-96061982D01*
X163859488Y-96061988D01*
X163787017Y-96187511D01*
X163787016Y-96187515D01*
X163749500Y-96327525D01*
X162550999Y-96327525D01*
X162640509Y-96238015D01*
X162712984Y-96112485D01*
X162750500Y-95972475D01*
X162750500Y-95827525D01*
X162712984Y-95687515D01*
X162646565Y-95572475D01*
X162640511Y-95561988D01*
X162640506Y-95561982D01*
X162538017Y-95459493D01*
X162538011Y-95459488D01*
X162412488Y-95387017D01*
X162412489Y-95387017D01*
X162401006Y-95383940D01*
X162272475Y-95349500D01*
X162127525Y-95349500D01*
X161998993Y-95383940D01*
X161987511Y-95387017D01*
X161861988Y-95459488D01*
X161861982Y-95459493D01*
X161759493Y-95561982D01*
X161759488Y-95561988D01*
X161687017Y-95687511D01*
X161687016Y-95687515D01*
X161649500Y-95827525D01*
X138946565Y-95827525D01*
X139012984Y-95712485D01*
X139050500Y-95572475D01*
X139050500Y-95427525D01*
X139012984Y-95287515D01*
X138984406Y-95238017D01*
X138940511Y-95161988D01*
X138940506Y-95161982D01*
X138838017Y-95059493D01*
X138838011Y-95059488D01*
X138712488Y-94987017D01*
X138712489Y-94987017D01*
X138701006Y-94983940D01*
X138572475Y-94949500D01*
X138427525Y-94949500D01*
X138298993Y-94983940D01*
X138287511Y-94987017D01*
X138161988Y-95059488D01*
X138161982Y-95059493D01*
X138059493Y-95161982D01*
X138059488Y-95161988D01*
X137987017Y-95287511D01*
X137987016Y-95287515D01*
X137949500Y-95427525D01*
X125500500Y-95427525D01*
X125500500Y-94827525D01*
X140949500Y-94827525D01*
X140949500Y-94972475D01*
X140972817Y-95059493D01*
X140987017Y-95112488D01*
X141059488Y-95238011D01*
X141059490Y-95238013D01*
X141059491Y-95238015D01*
X141161985Y-95340509D01*
X141161986Y-95340510D01*
X141161988Y-95340511D01*
X141287511Y-95412982D01*
X141287512Y-95412982D01*
X141287515Y-95412984D01*
X141427525Y-95450500D01*
X141427528Y-95450500D01*
X141572472Y-95450500D01*
X141572475Y-95450500D01*
X141712485Y-95412984D01*
X141838015Y-95340509D01*
X141940509Y-95238015D01*
X142012984Y-95112485D01*
X142050500Y-94972475D01*
X142050500Y-94827525D01*
X142349500Y-94827525D01*
X142349500Y-94972475D01*
X142372817Y-95059493D01*
X142387017Y-95112488D01*
X142459488Y-95238011D01*
X142459490Y-95238013D01*
X142459491Y-95238015D01*
X142561985Y-95340509D01*
X142561986Y-95340510D01*
X142561988Y-95340511D01*
X142687511Y-95412982D01*
X142687512Y-95412982D01*
X142687515Y-95412984D01*
X142827525Y-95450500D01*
X142827528Y-95450500D01*
X142972472Y-95450500D01*
X142972475Y-95450500D01*
X143112485Y-95412984D01*
X143238015Y-95340509D01*
X143340509Y-95238015D01*
X143412984Y-95112485D01*
X143449147Y-94977525D01*
X144649500Y-94977525D01*
X144649500Y-95122475D01*
X144680460Y-95238017D01*
X144687017Y-95262488D01*
X144759488Y-95388011D01*
X144759490Y-95388013D01*
X144759491Y-95388015D01*
X144861985Y-95490509D01*
X144861986Y-95490510D01*
X144861988Y-95490511D01*
X144987511Y-95562982D01*
X144987512Y-95562982D01*
X144987515Y-95562984D01*
X145127525Y-95600500D01*
X145127528Y-95600500D01*
X145272472Y-95600500D01*
X145272475Y-95600500D01*
X145412485Y-95562984D01*
X145538015Y-95490509D01*
X145640509Y-95388015D01*
X145712984Y-95262485D01*
X145750500Y-95122475D01*
X145750500Y-94977525D01*
X145712984Y-94837515D01*
X145707217Y-94827527D01*
X145640511Y-94711988D01*
X145640506Y-94711982D01*
X145538017Y-94609493D01*
X145538011Y-94609488D01*
X145412488Y-94537017D01*
X145412489Y-94537017D01*
X145367178Y-94524876D01*
X145272475Y-94499500D01*
X145127525Y-94499500D01*
X145032822Y-94524876D01*
X144987511Y-94537017D01*
X144861988Y-94609488D01*
X144861982Y-94609493D01*
X144759493Y-94711982D01*
X144759488Y-94711988D01*
X144687017Y-94837511D01*
X144687016Y-94837515D01*
X144649500Y-94977525D01*
X143449147Y-94977525D01*
X143450500Y-94972475D01*
X143450500Y-94827525D01*
X143412984Y-94687515D01*
X143397972Y-94661514D01*
X143340511Y-94561988D01*
X143340506Y-94561982D01*
X143238017Y-94459493D01*
X143238011Y-94459488D01*
X143112488Y-94387017D01*
X143112489Y-94387017D01*
X143101006Y-94383940D01*
X142972475Y-94349500D01*
X142827525Y-94349500D01*
X142698993Y-94383940D01*
X142687511Y-94387017D01*
X142561988Y-94459488D01*
X142561982Y-94459493D01*
X142459493Y-94561982D01*
X142459488Y-94561988D01*
X142387017Y-94687511D01*
X142387016Y-94687515D01*
X142349500Y-94827525D01*
X142050500Y-94827525D01*
X142012984Y-94687515D01*
X141997972Y-94661514D01*
X141940511Y-94561988D01*
X141940506Y-94561982D01*
X141838017Y-94459493D01*
X141838011Y-94459488D01*
X141712488Y-94387017D01*
X141712489Y-94387017D01*
X141701006Y-94383940D01*
X141572475Y-94349500D01*
X141427525Y-94349500D01*
X141298993Y-94383940D01*
X141287511Y-94387017D01*
X141161988Y-94459488D01*
X141161982Y-94459493D01*
X141059493Y-94561982D01*
X141059488Y-94561988D01*
X140987017Y-94687511D01*
X140987016Y-94687515D01*
X140949500Y-94827525D01*
X125500500Y-94827525D01*
X125500500Y-94027872D01*
X155555993Y-94027872D01*
X155555993Y-94172822D01*
X155593509Y-94312832D01*
X155593510Y-94312835D01*
X155665981Y-94438358D01*
X155665983Y-94438360D01*
X155665984Y-94438362D01*
X155768478Y-94540856D01*
X155768479Y-94540857D01*
X155768481Y-94540858D01*
X155894004Y-94613329D01*
X155894005Y-94613329D01*
X155894008Y-94613331D01*
X156034018Y-94650847D01*
X156034021Y-94650847D01*
X156178965Y-94650847D01*
X156178968Y-94650847D01*
X156318978Y-94613331D01*
X156444508Y-94540856D01*
X156444510Y-94540853D01*
X156446292Y-94539825D01*
X156514192Y-94523352D01*
X156570293Y-94539825D01*
X156694004Y-94611250D01*
X156694005Y-94611250D01*
X156694008Y-94611252D01*
X156834018Y-94648768D01*
X156834021Y-94648768D01*
X156978965Y-94648768D01*
X156978968Y-94648768D01*
X157118978Y-94611252D01*
X157118980Y-94611250D01*
X157118982Y-94611250D01*
X157118983Y-94611249D01*
X157240052Y-94541349D01*
X157307950Y-94524876D01*
X157364052Y-94541349D01*
X157368459Y-94543893D01*
X157368462Y-94543896D01*
X157493992Y-94616371D01*
X157634002Y-94653887D01*
X157634005Y-94653887D01*
X157778949Y-94653887D01*
X157778952Y-94653887D01*
X157918962Y-94616371D01*
X157918964Y-94616369D01*
X157918966Y-94616369D01*
X157918967Y-94616368D01*
X157927828Y-94611252D01*
X158037856Y-94547727D01*
X158105752Y-94531254D01*
X158161855Y-94547727D01*
X158168425Y-94551520D01*
X158168428Y-94551523D01*
X158293958Y-94623998D01*
X158433968Y-94661514D01*
X158433971Y-94661514D01*
X158578915Y-94661514D01*
X158578918Y-94661514D01*
X158718928Y-94623998D01*
X158844458Y-94551523D01*
X158946952Y-94449029D01*
X159019427Y-94323499D01*
X159056943Y-94183489D01*
X159056943Y-94038539D01*
X159019427Y-93898529D01*
X159013268Y-93887862D01*
X158946954Y-93773002D01*
X158946949Y-93772996D01*
X158844460Y-93670507D01*
X158844454Y-93670502D01*
X158718931Y-93598031D01*
X158718932Y-93598031D01*
X158700197Y-93593011D01*
X158578918Y-93560514D01*
X158433968Y-93560514D01*
X158335551Y-93586884D01*
X158293953Y-93598031D01*
X158293950Y-93598032D01*
X158175063Y-93666672D01*
X158107163Y-93683145D01*
X158051064Y-93666672D01*
X157918965Y-93590404D01*
X157918966Y-93590404D01*
X157907483Y-93587327D01*
X157778952Y-93552887D01*
X157634002Y-93552887D01*
X157505470Y-93587327D01*
X157493988Y-93590404D01*
X157372917Y-93660305D01*
X157305017Y-93676778D01*
X157248916Y-93660305D01*
X157244510Y-93657761D01*
X157244508Y-93657759D01*
X157118978Y-93585284D01*
X156978968Y-93547768D01*
X156834018Y-93547768D01*
X156705486Y-93582208D01*
X156694004Y-93585285D01*
X156566692Y-93658789D01*
X156498792Y-93675262D01*
X156442692Y-93658789D01*
X156318981Y-93587364D01*
X156318982Y-93587364D01*
X156307499Y-93584287D01*
X156178968Y-93549847D01*
X156034018Y-93549847D01*
X155905486Y-93584287D01*
X155894004Y-93587364D01*
X155768481Y-93659835D01*
X155768475Y-93659840D01*
X155665986Y-93762329D01*
X155665981Y-93762335D01*
X155593510Y-93887858D01*
X155593509Y-93887862D01*
X155555993Y-94027872D01*
X125500500Y-94027872D01*
X125500500Y-93327525D01*
X140549500Y-93327525D01*
X140549500Y-93472475D01*
X140587016Y-93612485D01*
X140587017Y-93612488D01*
X140659488Y-93738011D01*
X140659490Y-93738013D01*
X140659491Y-93738015D01*
X140761985Y-93840509D01*
X140761986Y-93840510D01*
X140761988Y-93840511D01*
X140887511Y-93912982D01*
X140887512Y-93912982D01*
X140887515Y-93912984D01*
X141027525Y-93950500D01*
X141027528Y-93950500D01*
X141172472Y-93950500D01*
X141172475Y-93950500D01*
X141312485Y-93912984D01*
X141313569Y-93912358D01*
X141313570Y-93912358D01*
X141356004Y-93887858D01*
X141438015Y-93840509D01*
X141540509Y-93738015D01*
X141612984Y-93612485D01*
X141650500Y-93472475D01*
X141650500Y-93327525D01*
X141612984Y-93187515D01*
X141610103Y-93182525D01*
X142504500Y-93182525D01*
X142504500Y-93327475D01*
X142542016Y-93467485D01*
X142542017Y-93467488D01*
X142614488Y-93593011D01*
X142614490Y-93593013D01*
X142614491Y-93593015D01*
X142716985Y-93695509D01*
X142716986Y-93695510D01*
X142716988Y-93695511D01*
X142842511Y-93767982D01*
X142842512Y-93767982D01*
X142842515Y-93767984D01*
X142982525Y-93805500D01*
X142982528Y-93805500D01*
X143127472Y-93805500D01*
X143127475Y-93805500D01*
X143267485Y-93767984D01*
X143393015Y-93695509D01*
X143495509Y-93593015D01*
X143567984Y-93467485D01*
X143605500Y-93327475D01*
X143605500Y-93182525D01*
X143567984Y-93042515D01*
X143550934Y-93012984D01*
X143495511Y-92916988D01*
X143495506Y-92916982D01*
X143393017Y-92814493D01*
X143393011Y-92814488D01*
X143267488Y-92742017D01*
X143267489Y-92742017D01*
X143256006Y-92738940D01*
X143127475Y-92704500D01*
X142982525Y-92704500D01*
X142853993Y-92738940D01*
X142842511Y-92742017D01*
X142716988Y-92814488D01*
X142716982Y-92814493D01*
X142614493Y-92916982D01*
X142614488Y-92916988D01*
X142542017Y-93042511D01*
X142542016Y-93042515D01*
X142504500Y-93182525D01*
X141610103Y-93182525D01*
X141540509Y-93061985D01*
X141438015Y-92959491D01*
X141438013Y-92959490D01*
X141438011Y-92959488D01*
X141312488Y-92887017D01*
X141312489Y-92887017D01*
X141301006Y-92883940D01*
X141172475Y-92849500D01*
X141027525Y-92849500D01*
X140898993Y-92883940D01*
X140887511Y-92887017D01*
X140761988Y-92959488D01*
X140761982Y-92959493D01*
X140659493Y-93061982D01*
X140659488Y-93061988D01*
X140587017Y-93187511D01*
X140587016Y-93187515D01*
X140549500Y-93327525D01*
X125500500Y-93327525D01*
X125500500Y-92427525D01*
X147249500Y-92427525D01*
X147249500Y-92572475D01*
X147287016Y-92712485D01*
X147287017Y-92712488D01*
X147359488Y-92838011D01*
X147359490Y-92838013D01*
X147359491Y-92838015D01*
X147461985Y-92940509D01*
X147461986Y-92940510D01*
X147461988Y-92940511D01*
X147587511Y-93012982D01*
X147587512Y-93012982D01*
X147587515Y-93012984D01*
X147727525Y-93050500D01*
X147727528Y-93050500D01*
X147872472Y-93050500D01*
X147872475Y-93050500D01*
X148012485Y-93012984D01*
X148138015Y-92940509D01*
X148240509Y-92838015D01*
X148312984Y-92712485D01*
X148350500Y-92572475D01*
X148350500Y-92427525D01*
X148312984Y-92287515D01*
X148240509Y-92161985D01*
X148138015Y-92059491D01*
X148138013Y-92059490D01*
X148138011Y-92059488D01*
X148012488Y-91987017D01*
X148012489Y-91987017D01*
X148001006Y-91983940D01*
X147977065Y-91977525D01*
X156349500Y-91977525D01*
X156349500Y-92122475D01*
X156360087Y-92161985D01*
X156387017Y-92262488D01*
X156459488Y-92388011D01*
X156459490Y-92388013D01*
X156459491Y-92388015D01*
X156561985Y-92490509D01*
X156561986Y-92490510D01*
X156561988Y-92490511D01*
X156687511Y-92562982D01*
X156687512Y-92562982D01*
X156687515Y-92562984D01*
X156827525Y-92600500D01*
X156827528Y-92600500D01*
X156972472Y-92600500D01*
X156972475Y-92600500D01*
X157112485Y-92562984D01*
X157238015Y-92490509D01*
X157340509Y-92388015D01*
X157412984Y-92262485D01*
X157450500Y-92122475D01*
X157450500Y-91977525D01*
X157412984Y-91837515D01*
X157384406Y-91788017D01*
X157340511Y-91711988D01*
X157340506Y-91711982D01*
X157238017Y-91609493D01*
X157238011Y-91609488D01*
X157112488Y-91537017D01*
X157112489Y-91537017D01*
X157101006Y-91533940D01*
X156972475Y-91499500D01*
X156827525Y-91499500D01*
X156698993Y-91533940D01*
X156687511Y-91537017D01*
X156561988Y-91609488D01*
X156561982Y-91609493D01*
X156459493Y-91711982D01*
X156459488Y-91711988D01*
X156387017Y-91837511D01*
X156387016Y-91837515D01*
X156349500Y-91977525D01*
X147977065Y-91977525D01*
X147872475Y-91949500D01*
X147727525Y-91949500D01*
X147598993Y-91983940D01*
X147587511Y-91987017D01*
X147461988Y-92059488D01*
X147461982Y-92059493D01*
X147359493Y-92161982D01*
X147359488Y-92161988D01*
X147287017Y-92287511D01*
X147287016Y-92287515D01*
X147249500Y-92427525D01*
X125500500Y-92427525D01*
X125500500Y-91723786D01*
X131429765Y-91723786D01*
X131527593Y-91750000D01*
X131672407Y-91750000D01*
X131770234Y-91723786D01*
X132529765Y-91723786D01*
X132627593Y-91750000D01*
X132772407Y-91750000D01*
X132870234Y-91723786D01*
X133829765Y-91723786D01*
X133927593Y-91750000D01*
X134072407Y-91750000D01*
X134170234Y-91723786D01*
X135029765Y-91723786D01*
X135127593Y-91750000D01*
X135272407Y-91750000D01*
X135370234Y-91723786D01*
X135200001Y-91553553D01*
X135029765Y-91723786D01*
X134170234Y-91723786D01*
X134000001Y-91553553D01*
X133829765Y-91723786D01*
X132870234Y-91723786D01*
X132700001Y-91553553D01*
X132529765Y-91723786D01*
X131770234Y-91723786D01*
X131600001Y-91553553D01*
X131429765Y-91723786D01*
X125500500Y-91723786D01*
X125500500Y-91127591D01*
X131050000Y-91127591D01*
X131050000Y-91272408D01*
X131076211Y-91370234D01*
X131246446Y-91200000D01*
X131216609Y-91170163D01*
X131450000Y-91170163D01*
X131450000Y-91229837D01*
X131472836Y-91284968D01*
X131515032Y-91327164D01*
X131570163Y-91350000D01*
X131629837Y-91350000D01*
X131684968Y-91327164D01*
X131727164Y-91284968D01*
X131750000Y-91229837D01*
X131750000Y-91200000D01*
X131953553Y-91200000D01*
X131953553Y-91200001D01*
X132125361Y-91371809D01*
X132174637Y-91371809D01*
X132346446Y-91200000D01*
X132316609Y-91170163D01*
X132550000Y-91170163D01*
X132550000Y-91229837D01*
X132572836Y-91284968D01*
X132615032Y-91327164D01*
X132670163Y-91350000D01*
X132729837Y-91350000D01*
X132784968Y-91327164D01*
X132827164Y-91284968D01*
X132850000Y-91229837D01*
X132850000Y-91200000D01*
X133053553Y-91200000D01*
X133053553Y-91200001D01*
X133223786Y-91370234D01*
X133230224Y-91346208D01*
X133266589Y-91286548D01*
X133329436Y-91256019D01*
X133398812Y-91264314D01*
X133452690Y-91308799D01*
X133469774Y-91346208D01*
X133476211Y-91370234D01*
X133646446Y-91200000D01*
X133616609Y-91170163D01*
X133850000Y-91170163D01*
X133850000Y-91229837D01*
X133872836Y-91284968D01*
X133915032Y-91327164D01*
X133970163Y-91350000D01*
X134029837Y-91350000D01*
X134084968Y-91327164D01*
X134127164Y-91284968D01*
X134150000Y-91229837D01*
X134150000Y-91200000D01*
X134353553Y-91200000D01*
X134353553Y-91200001D01*
X134523785Y-91370233D01*
X134567905Y-91358412D01*
X134632093Y-91358412D01*
X134676212Y-91370233D01*
X134846446Y-91200000D01*
X134816609Y-91170163D01*
X135050000Y-91170163D01*
X135050000Y-91229837D01*
X135072836Y-91284968D01*
X135115032Y-91327164D01*
X135170163Y-91350000D01*
X135229837Y-91350000D01*
X135284968Y-91327164D01*
X135327164Y-91284968D01*
X135350000Y-91229837D01*
X135350000Y-91200000D01*
X135553553Y-91200000D01*
X135553553Y-91200001D01*
X135723786Y-91370234D01*
X135750000Y-91272407D01*
X135750000Y-91127592D01*
X135749999Y-91127588D01*
X135729610Y-91051499D01*
X135729608Y-91051492D01*
X135723786Y-91029765D01*
X135553553Y-91200000D01*
X135350000Y-91200000D01*
X135350000Y-91170163D01*
X135327164Y-91115032D01*
X135284968Y-91072836D01*
X135229837Y-91050000D01*
X135170163Y-91050000D01*
X135115032Y-91072836D01*
X135072836Y-91115032D01*
X135050000Y-91170163D01*
X134816609Y-91170163D01*
X134676211Y-91029764D01*
X134632093Y-91041586D01*
X134567908Y-91041586D01*
X134523787Y-91029764D01*
X134353553Y-91200000D01*
X134150000Y-91200000D01*
X134150000Y-91170163D01*
X134127164Y-91115032D01*
X134084968Y-91072836D01*
X134029837Y-91050000D01*
X133970163Y-91050000D01*
X133915032Y-91072836D01*
X133872836Y-91115032D01*
X133850000Y-91170163D01*
X133616609Y-91170163D01*
X133476212Y-91029765D01*
X133476211Y-91029765D01*
X133469774Y-91053791D01*
X133433409Y-91113451D01*
X133370562Y-91143980D01*
X133301186Y-91135685D01*
X133247308Y-91091200D01*
X133230224Y-91053791D01*
X133223786Y-91029765D01*
X133053553Y-91200000D01*
X132850000Y-91200000D01*
X132850000Y-91170163D01*
X132827164Y-91115032D01*
X132784968Y-91072836D01*
X132729837Y-91050000D01*
X132670163Y-91050000D01*
X132615032Y-91072836D01*
X132572836Y-91115032D01*
X132550000Y-91170163D01*
X132316609Y-91170163D01*
X132174636Y-91028189D01*
X132125363Y-91028189D01*
X131953553Y-91200000D01*
X131750000Y-91200000D01*
X131750000Y-91170163D01*
X131727164Y-91115032D01*
X131684968Y-91072836D01*
X131629837Y-91050000D01*
X131570163Y-91050000D01*
X131515032Y-91072836D01*
X131472836Y-91115032D01*
X131450000Y-91170163D01*
X131216609Y-91170163D01*
X131076212Y-91029765D01*
X131050000Y-91127591D01*
X125500500Y-91127591D01*
X125500500Y-91027525D01*
X144649500Y-91027525D01*
X144649500Y-91172475D01*
X144687016Y-91312485D01*
X144687017Y-91312488D01*
X144759488Y-91438011D01*
X144759490Y-91438013D01*
X144759491Y-91438015D01*
X144861985Y-91540509D01*
X144861986Y-91540510D01*
X144861988Y-91540511D01*
X144987511Y-91612982D01*
X144987512Y-91612982D01*
X144987515Y-91612984D01*
X145127525Y-91650500D01*
X145127528Y-91650500D01*
X145272472Y-91650500D01*
X145272475Y-91650500D01*
X145412485Y-91612984D01*
X145538015Y-91540509D01*
X145640509Y-91438015D01*
X145675433Y-91377525D01*
X157999500Y-91377525D01*
X157999500Y-91522475D01*
X158033805Y-91650500D01*
X158037017Y-91662488D01*
X158109488Y-91788011D01*
X158109490Y-91788013D01*
X158109491Y-91788015D01*
X158211985Y-91890509D01*
X158211986Y-91890510D01*
X158211988Y-91890511D01*
X158337511Y-91962982D01*
X158337512Y-91962982D01*
X158337515Y-91962984D01*
X158477525Y-92000500D01*
X158477528Y-92000500D01*
X158622472Y-92000500D01*
X158622475Y-92000500D01*
X158762485Y-91962984D01*
X158888015Y-91890509D01*
X158990509Y-91788015D01*
X159062984Y-91662485D01*
X159100500Y-91522475D01*
X159100500Y-91377525D01*
X159062984Y-91237515D01*
X159041325Y-91200001D01*
X158990511Y-91111988D01*
X158990506Y-91111982D01*
X158888017Y-91009493D01*
X158888011Y-91009488D01*
X158762488Y-90937017D01*
X158762489Y-90937017D01*
X158751006Y-90933940D01*
X158622475Y-90899500D01*
X158477525Y-90899500D01*
X158348993Y-90933940D01*
X158337511Y-90937017D01*
X158211988Y-91009488D01*
X158211982Y-91009493D01*
X158109493Y-91111982D01*
X158109488Y-91111988D01*
X158037017Y-91237511D01*
X158037016Y-91237515D01*
X157999500Y-91377525D01*
X145675433Y-91377525D01*
X145712984Y-91312485D01*
X145750500Y-91172475D01*
X145750500Y-91027525D01*
X145712984Y-90887515D01*
X145640509Y-90761985D01*
X145538015Y-90659491D01*
X145538013Y-90659490D01*
X145538011Y-90659488D01*
X145412488Y-90587017D01*
X145412489Y-90587017D01*
X145401006Y-90583940D01*
X145272475Y-90549500D01*
X145127525Y-90549500D01*
X144998993Y-90583940D01*
X144987511Y-90587017D01*
X144861988Y-90659488D01*
X144861982Y-90659493D01*
X144759493Y-90761982D01*
X144759488Y-90761988D01*
X144687017Y-90887511D01*
X144687016Y-90887515D01*
X144649500Y-91027525D01*
X125500500Y-91027525D01*
X125500500Y-90523787D01*
X131429764Y-90523787D01*
X131441586Y-90567908D01*
X131441586Y-90632093D01*
X131429764Y-90676211D01*
X131600000Y-90846446D01*
X131770233Y-90676212D01*
X131758412Y-90632093D01*
X131758412Y-90616057D01*
X131754222Y-90602950D01*
X131758412Y-90567905D01*
X131770232Y-90523787D01*
X132529764Y-90523787D01*
X132541586Y-90567908D01*
X132541586Y-90632093D01*
X132529764Y-90676211D01*
X132700000Y-90846446D01*
X132870233Y-90676212D01*
X132858412Y-90632093D01*
X132858412Y-90616057D01*
X132854222Y-90602950D01*
X132858412Y-90567905D01*
X132870232Y-90523787D01*
X133829764Y-90523787D01*
X133841586Y-90567908D01*
X133841586Y-90632093D01*
X133829764Y-90676211D01*
X134000000Y-90846446D01*
X134170233Y-90676212D01*
X134158412Y-90632093D01*
X134158412Y-90616057D01*
X134154222Y-90602950D01*
X134158412Y-90567905D01*
X134170232Y-90523787D01*
X135029764Y-90523787D01*
X135041586Y-90567908D01*
X135041586Y-90632093D01*
X135029764Y-90676211D01*
X135200000Y-90846446D01*
X135370233Y-90676212D01*
X135358412Y-90632093D01*
X135358412Y-90567905D01*
X135370233Y-90523785D01*
X135200001Y-90353553D01*
X135029764Y-90523787D01*
X134170232Y-90523787D01*
X134170233Y-90523785D01*
X134000001Y-90353553D01*
X133829764Y-90523787D01*
X132870232Y-90523787D01*
X132870233Y-90523785D01*
X132700001Y-90353553D01*
X132529764Y-90523787D01*
X131770232Y-90523787D01*
X131770233Y-90523785D01*
X131600001Y-90353553D01*
X131429764Y-90523787D01*
X125500500Y-90523787D01*
X125500500Y-89927591D01*
X131050000Y-89927591D01*
X131050000Y-90072408D01*
X131076211Y-90170234D01*
X131246446Y-90000000D01*
X131216609Y-89970163D01*
X131450000Y-89970163D01*
X131450000Y-90029837D01*
X131472836Y-90084968D01*
X131515032Y-90127164D01*
X131570163Y-90150000D01*
X131629837Y-90150000D01*
X131684968Y-90127164D01*
X131727164Y-90084968D01*
X131750000Y-90029837D01*
X131750000Y-90000000D01*
X131953553Y-90000000D01*
X131953553Y-90000001D01*
X132125361Y-90171809D01*
X132174637Y-90171809D01*
X132346446Y-90000000D01*
X132316609Y-89970163D01*
X132550000Y-89970163D01*
X132550000Y-90029837D01*
X132572836Y-90084968D01*
X132615032Y-90127164D01*
X132670163Y-90150000D01*
X132729837Y-90150000D01*
X132784968Y-90127164D01*
X132827164Y-90084968D01*
X132850000Y-90029837D01*
X132850000Y-90000000D01*
X133053553Y-90000000D01*
X133053553Y-90000001D01*
X133223786Y-90170234D01*
X133230224Y-90146208D01*
X133266589Y-90086548D01*
X133329436Y-90056019D01*
X133398812Y-90064314D01*
X133452690Y-90108799D01*
X133469774Y-90146208D01*
X133476211Y-90170234D01*
X133646446Y-90000000D01*
X133616609Y-89970163D01*
X133850000Y-89970163D01*
X133850000Y-90029837D01*
X133872836Y-90084968D01*
X133915032Y-90127164D01*
X133970163Y-90150000D01*
X134029837Y-90150000D01*
X134084968Y-90127164D01*
X134127164Y-90084968D01*
X134150000Y-90029837D01*
X134150000Y-90000000D01*
X134353553Y-90000000D01*
X134353553Y-90000001D01*
X134523785Y-90170233D01*
X134567905Y-90158412D01*
X134632093Y-90158412D01*
X134676212Y-90170233D01*
X134846446Y-90000000D01*
X134816609Y-89970163D01*
X135050000Y-89970163D01*
X135050000Y-90029837D01*
X135072836Y-90084968D01*
X135115032Y-90127164D01*
X135170163Y-90150000D01*
X135229837Y-90150000D01*
X135284968Y-90127164D01*
X135327164Y-90084968D01*
X135350000Y-90029837D01*
X135350000Y-90000000D01*
X135553553Y-90000000D01*
X135553553Y-90000001D01*
X135723786Y-90170234D01*
X135750000Y-90072407D01*
X135750000Y-89927593D01*
X135730948Y-89856493D01*
X135730948Y-89856492D01*
X135724526Y-89832525D01*
X139744500Y-89832525D01*
X139744500Y-89977475D01*
X139779689Y-90108799D01*
X139782017Y-90117488D01*
X139854488Y-90243011D01*
X139854490Y-90243013D01*
X139854491Y-90243015D01*
X139956985Y-90345509D01*
X139956986Y-90345510D01*
X139956988Y-90345511D01*
X140082511Y-90417982D01*
X140082512Y-90417982D01*
X140082515Y-90417984D01*
X140222525Y-90455500D01*
X140222528Y-90455500D01*
X140367472Y-90455500D01*
X140367475Y-90455500D01*
X140507485Y-90417984D01*
X140633015Y-90345509D01*
X140735509Y-90243015D01*
X140807984Y-90117485D01*
X140845500Y-89977475D01*
X140845500Y-89832525D01*
X140807984Y-89692515D01*
X140807982Y-89692511D01*
X140807982Y-89692510D01*
X140804872Y-89685001D01*
X140807504Y-89683910D01*
X140794287Y-89629411D01*
X140817144Y-89563385D01*
X140832984Y-89546972D01*
X140832268Y-89546256D01*
X140883087Y-89495437D01*
X140940509Y-89438015D01*
X141012984Y-89312485D01*
X141050500Y-89172475D01*
X141050500Y-89027525D01*
X141034423Y-88967525D01*
X141547389Y-88967525D01*
X141547389Y-89112475D01*
X141574320Y-89212982D01*
X141584906Y-89252488D01*
X141657377Y-89378011D01*
X141657379Y-89378013D01*
X141657380Y-89378015D01*
X141759874Y-89480509D01*
X141759875Y-89480510D01*
X141759877Y-89480511D01*
X141885400Y-89552982D01*
X141885401Y-89552982D01*
X141885404Y-89552984D01*
X142025414Y-89590500D01*
X142025417Y-89590500D01*
X142170361Y-89590500D01*
X142170364Y-89590500D01*
X142310374Y-89552984D01*
X142435904Y-89480509D01*
X142511266Y-89405146D01*
X142572585Y-89371664D01*
X142642277Y-89376648D01*
X142686625Y-89405149D01*
X142781985Y-89500509D01*
X142781986Y-89500510D01*
X142781988Y-89500511D01*
X142907511Y-89572982D01*
X142907512Y-89572982D01*
X142907515Y-89572984D01*
X143047525Y-89610500D01*
X143047528Y-89610500D01*
X143192472Y-89610500D01*
X143192475Y-89610500D01*
X143332485Y-89572984D01*
X143458015Y-89500509D01*
X143463088Y-89495435D01*
X143524407Y-89461949D01*
X143594099Y-89466930D01*
X143650035Y-89508799D01*
X143670545Y-89551019D01*
X143687015Y-89612483D01*
X143687017Y-89612488D01*
X143759488Y-89738011D01*
X143759490Y-89738013D01*
X143759491Y-89738015D01*
X143861985Y-89840509D01*
X143861986Y-89840510D01*
X143861988Y-89840511D01*
X143987511Y-89912982D01*
X143987512Y-89912982D01*
X143987515Y-89912984D01*
X144127525Y-89950500D01*
X144127528Y-89950500D01*
X144272472Y-89950500D01*
X144272475Y-89950500D01*
X144412485Y-89912984D01*
X144538015Y-89840509D01*
X144640509Y-89738015D01*
X144712984Y-89612485D01*
X144750500Y-89472475D01*
X144750500Y-89327525D01*
X144712984Y-89187515D01*
X144685843Y-89140506D01*
X144640511Y-89061988D01*
X144640506Y-89061982D01*
X144538017Y-88959493D01*
X144538011Y-88959488D01*
X144412488Y-88887017D01*
X144412489Y-88887017D01*
X144401006Y-88883940D01*
X144272475Y-88849500D01*
X144127525Y-88849500D01*
X143998993Y-88883940D01*
X143987511Y-88887017D01*
X143861988Y-88959488D01*
X143861979Y-88959495D01*
X143856905Y-88964570D01*
X143795580Y-88998052D01*
X143725889Y-88993065D01*
X143669957Y-88951191D01*
X143649453Y-88908979D01*
X143632984Y-88847515D01*
X143583601Y-88761982D01*
X143560511Y-88721988D01*
X143560506Y-88721982D01*
X143466049Y-88627525D01*
X151649500Y-88627525D01*
X151649500Y-88772475D01*
X151686077Y-88908979D01*
X151687017Y-88912488D01*
X151759488Y-89038011D01*
X151759490Y-89038013D01*
X151759491Y-89038015D01*
X151861985Y-89140509D01*
X151861986Y-89140510D01*
X151861988Y-89140511D01*
X151987511Y-89212982D01*
X151987512Y-89212982D01*
X151987515Y-89212984D01*
X152127525Y-89250500D01*
X152127528Y-89250500D01*
X152272472Y-89250500D01*
X152272475Y-89250500D01*
X152412485Y-89212984D01*
X152538015Y-89140509D01*
X152640509Y-89038015D01*
X152712984Y-88912485D01*
X152750500Y-88772475D01*
X152750500Y-88627525D01*
X152712984Y-88487515D01*
X152640509Y-88361985D01*
X152538015Y-88259491D01*
X152538013Y-88259490D01*
X152538011Y-88259488D01*
X152412488Y-88187017D01*
X152412489Y-88187017D01*
X152401006Y-88183940D01*
X152272475Y-88149500D01*
X152127525Y-88149500D01*
X151998993Y-88183940D01*
X151987511Y-88187017D01*
X151861988Y-88259488D01*
X151861982Y-88259493D01*
X151759493Y-88361982D01*
X151759488Y-88361988D01*
X151687017Y-88487511D01*
X151687016Y-88487515D01*
X151649500Y-88627525D01*
X143466049Y-88627525D01*
X143458017Y-88619493D01*
X143458011Y-88619488D01*
X143332488Y-88547017D01*
X143332489Y-88547017D01*
X143321006Y-88543940D01*
X143192475Y-88509500D01*
X143047525Y-88509500D01*
X142918993Y-88543940D01*
X142907511Y-88547017D01*
X142781988Y-88619488D01*
X142706625Y-88694851D01*
X142645301Y-88728335D01*
X142575610Y-88723350D01*
X142531263Y-88694850D01*
X142435906Y-88599493D01*
X142435900Y-88599488D01*
X142310377Y-88527017D01*
X142310378Y-88527017D01*
X142298895Y-88523940D01*
X142170364Y-88489500D01*
X142025414Y-88489500D01*
X141896882Y-88523940D01*
X141885400Y-88527017D01*
X141759877Y-88599488D01*
X141759871Y-88599493D01*
X141657382Y-88701982D01*
X141657377Y-88701988D01*
X141584906Y-88827511D01*
X141584905Y-88827515D01*
X141547389Y-88967525D01*
X141034423Y-88967525D01*
X141012984Y-88887515D01*
X141012696Y-88887017D01*
X140940511Y-88761988D01*
X140940506Y-88761982D01*
X140838017Y-88659493D01*
X140838011Y-88659488D01*
X140712488Y-88587017D01*
X140712489Y-88587017D01*
X140701006Y-88583940D01*
X140572475Y-88549500D01*
X140427525Y-88549500D01*
X140298993Y-88583940D01*
X140287511Y-88587017D01*
X140161988Y-88659488D01*
X140161982Y-88659493D01*
X140059493Y-88761982D01*
X140059488Y-88761988D01*
X139987017Y-88887511D01*
X139987016Y-88887515D01*
X139949500Y-89027525D01*
X139949500Y-89172475D01*
X139970407Y-89250500D01*
X139987016Y-89312486D01*
X139990127Y-89319995D01*
X139987491Y-89321086D01*
X140000714Y-89375563D01*
X139977870Y-89441593D01*
X139962016Y-89458028D01*
X139962732Y-89458744D01*
X139854488Y-89566988D01*
X139782017Y-89692511D01*
X139782016Y-89692515D01*
X139744500Y-89832525D01*
X135724526Y-89832525D01*
X135723786Y-89829765D01*
X135553553Y-90000000D01*
X135350000Y-90000000D01*
X135350000Y-89970163D01*
X135327164Y-89915032D01*
X135284968Y-89872836D01*
X135229837Y-89850000D01*
X135170163Y-89850000D01*
X135115032Y-89872836D01*
X135072836Y-89915032D01*
X135050000Y-89970163D01*
X134816609Y-89970163D01*
X134676211Y-89829764D01*
X134632093Y-89841586D01*
X134567908Y-89841586D01*
X134523787Y-89829764D01*
X134353553Y-90000000D01*
X134150000Y-90000000D01*
X134150000Y-89970163D01*
X134127164Y-89915032D01*
X134084968Y-89872836D01*
X134029837Y-89850000D01*
X133970163Y-89850000D01*
X133915032Y-89872836D01*
X133872836Y-89915032D01*
X133850000Y-89970163D01*
X133616609Y-89970163D01*
X133476212Y-89829765D01*
X133476211Y-89829765D01*
X133469774Y-89853791D01*
X133433409Y-89913451D01*
X133370562Y-89943980D01*
X133301186Y-89935685D01*
X133247308Y-89891200D01*
X133230224Y-89853791D01*
X133223786Y-89829765D01*
X133053553Y-90000000D01*
X132850000Y-90000000D01*
X132850000Y-89970163D01*
X132827164Y-89915032D01*
X132784968Y-89872836D01*
X132729837Y-89850000D01*
X132670163Y-89850000D01*
X132615032Y-89872836D01*
X132572836Y-89915032D01*
X132550000Y-89970163D01*
X132316609Y-89970163D01*
X132174636Y-89828189D01*
X132125363Y-89828189D01*
X131953553Y-90000000D01*
X131750000Y-90000000D01*
X131750000Y-89970163D01*
X131727164Y-89915032D01*
X131684968Y-89872836D01*
X131629837Y-89850000D01*
X131570163Y-89850000D01*
X131515032Y-89872836D01*
X131472836Y-89915032D01*
X131450000Y-89970163D01*
X131216609Y-89970163D01*
X131076212Y-89829765D01*
X131050000Y-89927591D01*
X125500500Y-89927591D01*
X125500500Y-89476212D01*
X131429765Y-89476212D01*
X131600000Y-89646446D01*
X131770233Y-89476212D01*
X132529765Y-89476212D01*
X132700000Y-89646446D01*
X132870233Y-89476212D01*
X133829765Y-89476212D01*
X134000000Y-89646446D01*
X134170233Y-89476212D01*
X135029765Y-89476212D01*
X135200000Y-89646446D01*
X135370234Y-89476211D01*
X135272408Y-89450000D01*
X135127591Y-89450000D01*
X135029765Y-89476212D01*
X134170233Y-89476212D01*
X134170234Y-89476211D01*
X134072408Y-89450000D01*
X133927591Y-89450000D01*
X133829765Y-89476212D01*
X132870233Y-89476212D01*
X132870234Y-89476211D01*
X132772408Y-89450000D01*
X132627591Y-89450000D01*
X132529765Y-89476212D01*
X131770233Y-89476212D01*
X131770234Y-89476211D01*
X131672408Y-89450000D01*
X131527591Y-89450000D01*
X131429765Y-89476212D01*
X125500500Y-89476212D01*
X125500500Y-85327525D01*
X147249500Y-85327525D01*
X147249500Y-85472475D01*
X147283805Y-85600500D01*
X147287017Y-85612488D01*
X147359488Y-85738011D01*
X147359490Y-85738013D01*
X147359491Y-85738015D01*
X147461985Y-85840509D01*
X147461986Y-85840510D01*
X147461988Y-85840511D01*
X147587511Y-85912982D01*
X147587512Y-85912982D01*
X147587515Y-85912984D01*
X147727525Y-85950500D01*
X147727528Y-85950500D01*
X147872472Y-85950500D01*
X147872475Y-85950500D01*
X148012485Y-85912984D01*
X148138015Y-85840509D01*
X148240509Y-85738015D01*
X148278349Y-85672475D01*
X148317048Y-85605447D01*
X148319466Y-85606843D01*
X148354768Y-85563027D01*
X148421059Y-85540955D01*
X148488761Y-85558226D01*
X148536377Y-85609357D01*
X148549500Y-85664875D01*
X148549500Y-85672475D01*
X148587016Y-85812485D01*
X148587017Y-85812488D01*
X148659488Y-85938011D01*
X148659493Y-85938017D01*
X148689607Y-85968131D01*
X148723092Y-86029454D01*
X148718108Y-86099146D01*
X148676236Y-86155079D01*
X148610772Y-86179496D01*
X148569833Y-86175587D01*
X148518490Y-86161829D01*
X148472475Y-86149500D01*
X148327525Y-86149500D01*
X148215580Y-86179496D01*
X148187511Y-86187017D01*
X148061988Y-86259488D01*
X148061982Y-86259493D01*
X147959493Y-86361982D01*
X147959488Y-86361988D01*
X147887017Y-86487511D01*
X147887016Y-86487515D01*
X147849500Y-86627525D01*
X147849500Y-86772475D01*
X147880460Y-86888017D01*
X147887017Y-86912488D01*
X147959488Y-87038011D01*
X147959490Y-87038013D01*
X147959491Y-87038015D01*
X148061985Y-87140509D01*
X148061986Y-87140510D01*
X148061988Y-87140511D01*
X148187511Y-87212982D01*
X148187512Y-87212982D01*
X148187515Y-87212984D01*
X148327525Y-87250500D01*
X148327528Y-87250500D01*
X148472472Y-87250500D01*
X148472475Y-87250500D01*
X148612485Y-87212984D01*
X148738015Y-87140509D01*
X148840509Y-87038015D01*
X148912984Y-86912485D01*
X148950500Y-86772475D01*
X148950500Y-86627525D01*
X148912984Y-86487515D01*
X148907217Y-86477527D01*
X148907216Y-86477525D01*
X149699500Y-86477525D01*
X149699500Y-86622475D01*
X149737016Y-86762485D01*
X149737017Y-86762488D01*
X149809488Y-86888011D01*
X149809490Y-86888013D01*
X149809491Y-86888015D01*
X149911985Y-86990509D01*
X149911986Y-86990510D01*
X149911988Y-86990511D01*
X150037511Y-87062982D01*
X150037512Y-87062982D01*
X150037515Y-87062984D01*
X150177525Y-87100500D01*
X150177528Y-87100500D01*
X150322472Y-87100500D01*
X150322475Y-87100500D01*
X150462485Y-87062984D01*
X150588015Y-86990509D01*
X150690509Y-86888015D01*
X150696565Y-86877525D01*
X156349500Y-86877525D01*
X156349500Y-87022475D01*
X156381128Y-87140511D01*
X156387017Y-87162488D01*
X156459488Y-87288011D01*
X156459490Y-87288013D01*
X156459491Y-87288015D01*
X156561985Y-87390509D01*
X156561986Y-87390510D01*
X156561988Y-87390511D01*
X156687511Y-87462982D01*
X156687512Y-87462982D01*
X156687515Y-87462984D01*
X156827525Y-87500500D01*
X156827528Y-87500500D01*
X156972472Y-87500500D01*
X156972475Y-87500500D01*
X157112485Y-87462984D01*
X157238015Y-87390509D01*
X157300999Y-87327525D01*
X158486000Y-87327525D01*
X158486000Y-87472475D01*
X158523516Y-87612485D01*
X158523517Y-87612488D01*
X158595988Y-87738011D01*
X158595990Y-87738013D01*
X158595991Y-87738015D01*
X158698485Y-87840509D01*
X158698486Y-87840510D01*
X158698488Y-87840511D01*
X158824011Y-87912982D01*
X158824012Y-87912982D01*
X158824015Y-87912984D01*
X158964025Y-87950500D01*
X158964028Y-87950500D01*
X159108972Y-87950500D01*
X159108975Y-87950500D01*
X159248985Y-87912984D01*
X159374515Y-87840509D01*
X159477009Y-87738015D01*
X159549484Y-87612485D01*
X159587000Y-87472475D01*
X159587000Y-87327525D01*
X160049500Y-87327525D01*
X160049500Y-87472475D01*
X160087016Y-87612485D01*
X160087017Y-87612488D01*
X160159488Y-87738011D01*
X160159490Y-87738013D01*
X160159491Y-87738015D01*
X160261985Y-87840509D01*
X160261986Y-87840510D01*
X160261988Y-87840511D01*
X160387511Y-87912982D01*
X160387512Y-87912982D01*
X160387515Y-87912984D01*
X160527525Y-87950500D01*
X160527528Y-87950500D01*
X160672472Y-87950500D01*
X160672475Y-87950500D01*
X160812485Y-87912984D01*
X160938015Y-87840509D01*
X161040509Y-87738015D01*
X161112984Y-87612485D01*
X161150500Y-87472475D01*
X161150500Y-87327525D01*
X161112984Y-87187515D01*
X161085843Y-87140506D01*
X161040511Y-87061988D01*
X161040506Y-87061982D01*
X160938017Y-86959493D01*
X160938011Y-86959488D01*
X160812488Y-86887017D01*
X160812489Y-86887017D01*
X160801006Y-86883940D01*
X160672475Y-86849500D01*
X160527525Y-86849500D01*
X160398993Y-86883940D01*
X160387511Y-86887017D01*
X160261988Y-86959488D01*
X160261982Y-86959493D01*
X160159493Y-87061982D01*
X160159488Y-87061988D01*
X160087017Y-87187511D01*
X160087016Y-87187515D01*
X160049500Y-87327525D01*
X159587000Y-87327525D01*
X159549484Y-87187515D01*
X159522343Y-87140506D01*
X159477011Y-87061988D01*
X159477006Y-87061982D01*
X159374517Y-86959493D01*
X159374511Y-86959488D01*
X159248988Y-86887017D01*
X159248989Y-86887017D01*
X159237506Y-86883940D01*
X159108975Y-86849500D01*
X158964025Y-86849500D01*
X158835493Y-86883940D01*
X158824011Y-86887017D01*
X158698488Y-86959488D01*
X158698482Y-86959493D01*
X158595993Y-87061982D01*
X158595988Y-87061988D01*
X158523517Y-87187511D01*
X158523516Y-87187515D01*
X158486000Y-87327525D01*
X157300999Y-87327525D01*
X157340509Y-87288015D01*
X157412984Y-87162485D01*
X157450500Y-87022475D01*
X157450500Y-86877525D01*
X157412984Y-86737515D01*
X157346565Y-86622475D01*
X157340511Y-86611988D01*
X157340506Y-86611982D01*
X157238017Y-86509493D01*
X157238011Y-86509488D01*
X157112488Y-86437017D01*
X157112489Y-86437017D01*
X157101006Y-86433940D01*
X156972475Y-86399500D01*
X156827525Y-86399500D01*
X156698993Y-86433940D01*
X156687511Y-86437017D01*
X156561988Y-86509488D01*
X156561982Y-86509493D01*
X156459493Y-86611982D01*
X156459488Y-86611988D01*
X156387017Y-86737511D01*
X156387016Y-86737515D01*
X156349500Y-86877525D01*
X150696565Y-86877525D01*
X150762984Y-86762485D01*
X150800500Y-86622475D01*
X150800500Y-86477525D01*
X150762984Y-86337515D01*
X150690509Y-86211985D01*
X150588015Y-86109491D01*
X150588013Y-86109490D01*
X150588011Y-86109488D01*
X150462488Y-86037017D01*
X150462489Y-86037017D01*
X150451006Y-86033940D01*
X150322475Y-85999500D01*
X150177525Y-85999500D01*
X150048993Y-86033940D01*
X150037511Y-86037017D01*
X149911988Y-86109488D01*
X149911982Y-86109493D01*
X149809493Y-86211982D01*
X149809488Y-86211988D01*
X149737017Y-86337511D01*
X149737016Y-86337515D01*
X149699500Y-86477525D01*
X148907216Y-86477525D01*
X148840511Y-86361988D01*
X148840506Y-86361982D01*
X148810392Y-86331868D01*
X148776907Y-86270545D01*
X148781891Y-86200853D01*
X148823763Y-86144920D01*
X148889227Y-86120503D01*
X148930162Y-86124411D01*
X149027525Y-86150500D01*
X149027528Y-86150500D01*
X149172472Y-86150500D01*
X149172475Y-86150500D01*
X149312485Y-86112984D01*
X149438015Y-86040509D01*
X149540509Y-85938015D01*
X149612984Y-85812485D01*
X149650500Y-85672475D01*
X149650500Y-85527525D01*
X149612984Y-85387515D01*
X149540509Y-85261985D01*
X149438015Y-85159491D01*
X149438013Y-85159490D01*
X149438011Y-85159488D01*
X149312488Y-85087017D01*
X149312489Y-85087017D01*
X149301006Y-85083940D01*
X149172475Y-85049500D01*
X149027525Y-85049500D01*
X148898993Y-85083940D01*
X148887511Y-85087017D01*
X148761988Y-85159488D01*
X148761982Y-85159493D01*
X148659493Y-85261982D01*
X148659488Y-85261988D01*
X148582952Y-85394553D01*
X148580535Y-85393157D01*
X148545218Y-85436982D01*
X148478924Y-85459045D01*
X148411225Y-85441765D01*
X148363615Y-85390626D01*
X148350500Y-85335124D01*
X148350500Y-85327527D01*
X148350500Y-85327525D01*
X148312984Y-85187515D01*
X148296805Y-85159493D01*
X148240511Y-85061988D01*
X148240506Y-85061982D01*
X148138017Y-84959493D01*
X148138011Y-84959488D01*
X148012488Y-84887017D01*
X148012489Y-84887017D01*
X148001006Y-84883940D01*
X147872475Y-84849500D01*
X147727525Y-84849500D01*
X147598993Y-84883940D01*
X147587511Y-84887017D01*
X147461988Y-84959488D01*
X147461982Y-84959493D01*
X147359493Y-85061982D01*
X147359488Y-85061988D01*
X147287017Y-85187511D01*
X147287016Y-85187515D01*
X147249500Y-85327525D01*
X125500500Y-85327525D01*
X125500500Y-83391025D01*
X147309500Y-83391025D01*
X147309500Y-83535975D01*
X147326790Y-83600500D01*
X147347017Y-83675988D01*
X147419488Y-83801511D01*
X147419490Y-83801513D01*
X147419491Y-83801515D01*
X147521985Y-83904009D01*
X147521986Y-83904010D01*
X147521988Y-83904011D01*
X147647511Y-83976482D01*
X147647512Y-83976482D01*
X147647515Y-83976484D01*
X147787525Y-84014000D01*
X147787528Y-84014000D01*
X147932472Y-84014000D01*
X147932475Y-84014000D01*
X148072485Y-83976484D01*
X148198015Y-83904009D01*
X148274499Y-83827525D01*
X160049500Y-83827525D01*
X160049500Y-83972475D01*
X160060627Y-84014000D01*
X160087017Y-84112488D01*
X160159488Y-84238011D01*
X160159490Y-84238013D01*
X160159491Y-84238015D01*
X160261985Y-84340509D01*
X160261986Y-84340510D01*
X160261988Y-84340511D01*
X160387511Y-84412982D01*
X160387512Y-84412982D01*
X160387515Y-84412984D01*
X160527525Y-84450500D01*
X160527528Y-84450500D01*
X160672472Y-84450500D01*
X160672475Y-84450500D01*
X160812485Y-84412984D01*
X160938015Y-84340509D01*
X161040509Y-84238015D01*
X161112984Y-84112485D01*
X161150500Y-83972475D01*
X161150500Y-83827525D01*
X161112984Y-83687515D01*
X161040509Y-83561985D01*
X160938015Y-83459491D01*
X160938013Y-83459490D01*
X160938011Y-83459488D01*
X160812488Y-83387017D01*
X160812489Y-83387017D01*
X160801006Y-83383940D01*
X160672475Y-83349500D01*
X160527525Y-83349500D01*
X160398993Y-83383940D01*
X160387511Y-83387017D01*
X160261988Y-83459488D01*
X160261982Y-83459493D01*
X160159493Y-83561982D01*
X160159488Y-83561988D01*
X160087017Y-83687511D01*
X160087016Y-83687515D01*
X160049500Y-83827525D01*
X148274499Y-83827525D01*
X148300509Y-83801515D01*
X148372984Y-83675985D01*
X148409068Y-83541318D01*
X148445431Y-83481661D01*
X148504696Y-83452871D01*
X148504624Y-83452603D01*
X148506019Y-83452229D01*
X148508278Y-83451132D01*
X148512442Y-83450507D01*
X148512468Y-83450500D01*
X148512475Y-83450500D01*
X148652485Y-83412984D01*
X148778015Y-83340509D01*
X148880509Y-83238015D01*
X148952984Y-83112485D01*
X148990500Y-82972475D01*
X148990500Y-82827525D01*
X148952984Y-82687515D01*
X148941313Y-82667301D01*
X148880511Y-82561988D01*
X148880506Y-82561982D01*
X148778017Y-82459493D01*
X148778015Y-82459491D01*
X148729672Y-82431580D01*
X148681456Y-82381013D01*
X148668234Y-82312406D01*
X148684284Y-82262194D01*
X148712984Y-82212485D01*
X148750500Y-82072475D01*
X148750500Y-81927525D01*
X148712984Y-81787515D01*
X148700835Y-81766473D01*
X148640511Y-81661988D01*
X148640506Y-81661982D01*
X148538017Y-81559493D01*
X148538011Y-81559488D01*
X148482650Y-81527525D01*
X150149500Y-81527525D01*
X150149500Y-81672475D01*
X150187016Y-81812485D01*
X150187017Y-81812488D01*
X150259488Y-81938011D01*
X150259490Y-81938013D01*
X150259491Y-81938015D01*
X150361985Y-82040509D01*
X150361986Y-82040510D01*
X150361988Y-82040511D01*
X150487511Y-82112982D01*
X150487512Y-82112982D01*
X150487515Y-82112984D01*
X150627525Y-82150500D01*
X150627528Y-82150500D01*
X150772472Y-82150500D01*
X150772475Y-82150500D01*
X150912485Y-82112984D01*
X151038015Y-82040509D01*
X151140509Y-81938015D01*
X151212984Y-81812485D01*
X151235749Y-81727525D01*
X153285997Y-81727525D01*
X153285997Y-81872475D01*
X153318693Y-81994497D01*
X153323514Y-82012488D01*
X153395985Y-82138011D01*
X153395987Y-82138013D01*
X153395988Y-82138015D01*
X153498482Y-82240509D01*
X153498483Y-82240510D01*
X153498485Y-82240511D01*
X153624008Y-82312982D01*
X153624009Y-82312982D01*
X153624012Y-82312984D01*
X153764022Y-82350500D01*
X153764025Y-82350500D01*
X153908969Y-82350500D01*
X153908972Y-82350500D01*
X154048982Y-82312984D01*
X154048984Y-82312982D01*
X154048986Y-82312982D01*
X154048987Y-82312981D01*
X154079265Y-82295500D01*
X154174498Y-82240516D01*
X154242397Y-82224043D01*
X154298495Y-82240514D01*
X154424015Y-82312984D01*
X154564025Y-82350500D01*
X154564028Y-82350500D01*
X154708972Y-82350500D01*
X154708975Y-82350500D01*
X154848985Y-82312984D01*
X154974515Y-82240509D01*
X155077009Y-82138015D01*
X155149484Y-82012485D01*
X155187000Y-81872475D01*
X155187000Y-81727525D01*
X155149484Y-81587515D01*
X155077009Y-81461985D01*
X155042549Y-81427525D01*
X159149500Y-81427525D01*
X159149500Y-81572475D01*
X159180269Y-81687304D01*
X159187017Y-81712488D01*
X159259488Y-81838011D01*
X159259490Y-81838013D01*
X159259491Y-81838015D01*
X159361985Y-81940509D01*
X159361986Y-81940510D01*
X159361988Y-81940511D01*
X159487511Y-82012982D01*
X159487512Y-82012982D01*
X159487515Y-82012984D01*
X159627525Y-82050500D01*
X159627528Y-82050500D01*
X159772472Y-82050500D01*
X159772475Y-82050500D01*
X159912485Y-82012984D01*
X160038015Y-81940509D01*
X160104486Y-81874038D01*
X171099500Y-81874038D01*
X171099500Y-82125962D01*
X171115035Y-82224043D01*
X171138910Y-82374785D01*
X171216760Y-82614383D01*
X171293825Y-82765629D01*
X171325363Y-82827527D01*
X171331132Y-82838848D01*
X171479201Y-83042649D01*
X171479205Y-83042654D01*
X171657345Y-83220794D01*
X171657350Y-83220798D01*
X171822115Y-83340506D01*
X171861155Y-83368870D01*
X171947734Y-83412984D01*
X172085616Y-83483239D01*
X172085618Y-83483239D01*
X172085621Y-83483241D01*
X172325215Y-83561090D01*
X172574038Y-83600500D01*
X172574039Y-83600500D01*
X172825961Y-83600500D01*
X172825962Y-83600500D01*
X173074785Y-83561090D01*
X173314379Y-83483241D01*
X173538845Y-83368870D01*
X173742656Y-83220793D01*
X173920793Y-83042656D01*
X174068870Y-82838845D01*
X174183241Y-82614379D01*
X174261090Y-82374785D01*
X174300500Y-82125962D01*
X174300500Y-81874038D01*
X174261090Y-81625215D01*
X174183241Y-81385621D01*
X174183239Y-81385618D01*
X174183239Y-81385616D01*
X174134260Y-81289491D01*
X174068870Y-81161155D01*
X174034233Y-81113481D01*
X173920798Y-80957350D01*
X173920794Y-80957345D01*
X173742654Y-80779205D01*
X173742649Y-80779201D01*
X173538848Y-80631132D01*
X173538847Y-80631131D01*
X173538845Y-80631130D01*
X173468747Y-80595413D01*
X173314383Y-80516760D01*
X173074785Y-80438910D01*
X173002916Y-80427527D01*
X172825962Y-80399500D01*
X172574038Y-80399500D01*
X172449626Y-80419205D01*
X172325214Y-80438910D01*
X172085616Y-80516760D01*
X171861151Y-80631132D01*
X171657350Y-80779201D01*
X171657345Y-80779205D01*
X171479205Y-80957345D01*
X171479201Y-80957350D01*
X171331132Y-81161151D01*
X171216760Y-81385616D01*
X171138910Y-81625214D01*
X171122705Y-81727527D01*
X171099500Y-81874038D01*
X160104486Y-81874038D01*
X160140509Y-81838015D01*
X160212984Y-81712485D01*
X160250500Y-81572475D01*
X160250500Y-81427525D01*
X160212984Y-81287515D01*
X160212696Y-81287017D01*
X160140511Y-81161988D01*
X160140506Y-81161982D01*
X160038017Y-81059493D01*
X160038011Y-81059488D01*
X159912488Y-80987017D01*
X159912489Y-80987017D01*
X159901006Y-80983940D01*
X159772475Y-80949500D01*
X159627525Y-80949500D01*
X159498993Y-80983940D01*
X159487511Y-80987017D01*
X159361988Y-81059488D01*
X159361982Y-81059493D01*
X159259493Y-81161982D01*
X159259488Y-81161988D01*
X159187017Y-81287511D01*
X159186485Y-81289496D01*
X159149500Y-81427525D01*
X155042549Y-81427525D01*
X154974515Y-81359491D01*
X154974513Y-81359490D01*
X154974511Y-81359488D01*
X154848988Y-81287017D01*
X154848989Y-81287017D01*
X154823693Y-81280239D01*
X154708975Y-81249500D01*
X154564025Y-81249500D01*
X154449307Y-81280239D01*
X154424011Y-81287017D01*
X154298498Y-81359482D01*
X154230597Y-81375955D01*
X154174498Y-81359482D01*
X154048985Y-81287017D01*
X154048986Y-81287017D01*
X154023690Y-81280239D01*
X153908972Y-81249500D01*
X153764022Y-81249500D01*
X153649304Y-81280239D01*
X153624008Y-81287017D01*
X153498485Y-81359488D01*
X153498479Y-81359493D01*
X153395990Y-81461982D01*
X153395985Y-81461988D01*
X153323514Y-81587511D01*
X153323513Y-81587515D01*
X153285997Y-81727525D01*
X151235749Y-81727525D01*
X151250500Y-81672475D01*
X151250500Y-81527525D01*
X151212984Y-81387515D01*
X151211890Y-81385621D01*
X151140511Y-81261988D01*
X151140506Y-81261982D01*
X151038017Y-81159493D01*
X151038011Y-81159488D01*
X150912488Y-81087017D01*
X150912489Y-81087017D01*
X150901006Y-81083940D01*
X150772475Y-81049500D01*
X150627525Y-81049500D01*
X150498993Y-81083940D01*
X150487511Y-81087017D01*
X150361988Y-81159488D01*
X150361982Y-81159493D01*
X150259493Y-81261982D01*
X150259488Y-81261988D01*
X150187017Y-81387511D01*
X150187016Y-81387515D01*
X150149500Y-81527525D01*
X148482650Y-81527525D01*
X148412488Y-81487017D01*
X148412489Y-81487017D01*
X148391515Y-81481397D01*
X148272475Y-81449500D01*
X148127525Y-81449500D01*
X148008485Y-81481397D01*
X147987511Y-81487017D01*
X147861988Y-81559488D01*
X147861982Y-81559493D01*
X147759493Y-81661982D01*
X147759488Y-81661988D01*
X147687017Y-81787511D01*
X147687016Y-81787515D01*
X147649500Y-81927525D01*
X147649500Y-82072475D01*
X147679789Y-82185512D01*
X147687017Y-82212488D01*
X147759488Y-82338011D01*
X147759490Y-82338013D01*
X147759491Y-82338015D01*
X147861985Y-82440509D01*
X147910327Y-82468419D01*
X147958542Y-82518986D01*
X147971766Y-82587593D01*
X147964992Y-82617821D01*
X147961241Y-82628234D01*
X147927016Y-82687515D01*
X147889586Y-82827202D01*
X147887823Y-82832099D01*
X147870150Y-82856272D01*
X147854567Y-82881838D01*
X147849749Y-82884178D01*
X147846588Y-82888503D01*
X147818649Y-82899285D01*
X147795303Y-82910626D01*
X147795376Y-82910897D01*
X147793971Y-82911273D01*
X147791720Y-82912367D01*
X147787562Y-82912990D01*
X147647511Y-82950517D01*
X147521988Y-83022988D01*
X147521982Y-83022993D01*
X147419493Y-83125482D01*
X147419488Y-83125488D01*
X147347017Y-83251011D01*
X147347016Y-83251015D01*
X147309500Y-83391025D01*
X125500500Y-83391025D01*
X125500500Y-81672525D01*
X140894455Y-81672525D01*
X140894455Y-81817475D01*
X140927423Y-81940511D01*
X140931972Y-81957488D01*
X141004443Y-82083011D01*
X141004445Y-82083013D01*
X141004446Y-82083015D01*
X141106940Y-82185509D01*
X141106941Y-82185510D01*
X141106943Y-82185511D01*
X141232466Y-82257982D01*
X141232467Y-82257982D01*
X141232470Y-82257984D01*
X141372480Y-82295500D01*
X141372483Y-82295500D01*
X141517427Y-82295500D01*
X141517430Y-82295500D01*
X141657440Y-82257984D01*
X141782970Y-82185509D01*
X141782976Y-82185502D01*
X141788074Y-82181591D01*
X141853242Y-82156394D01*
X141921688Y-82170428D01*
X141925521Y-82172550D01*
X142047515Y-82242984D01*
X142187525Y-82280500D01*
X142187528Y-82280500D01*
X142332472Y-82280500D01*
X142332475Y-82280500D01*
X142472485Y-82242984D01*
X142598015Y-82170509D01*
X142697729Y-82070794D01*
X142759048Y-82037312D01*
X142828740Y-82042296D01*
X142847404Y-82051089D01*
X142874913Y-82066972D01*
X143014923Y-82104488D01*
X143014926Y-82104488D01*
X143159870Y-82104488D01*
X143159873Y-82104488D01*
X143299883Y-82066972D01*
X143425413Y-81994497D01*
X143527907Y-81892003D01*
X143600382Y-81766473D01*
X143637898Y-81626463D01*
X143637898Y-81481513D01*
X143600382Y-81341503D01*
X143596264Y-81334371D01*
X143527909Y-81215976D01*
X143527904Y-81215970D01*
X143425415Y-81113481D01*
X143425409Y-81113476D01*
X143299886Y-81041005D01*
X143299887Y-81041005D01*
X143288404Y-81037928D01*
X143159873Y-81003488D01*
X143014923Y-81003488D01*
X142886391Y-81037928D01*
X142874909Y-81041005D01*
X142749386Y-81113476D01*
X142649671Y-81213191D01*
X142588348Y-81246675D01*
X142518656Y-81241691D01*
X142499989Y-81232895D01*
X142472490Y-81217018D01*
X142472489Y-81217017D01*
X142458210Y-81213191D01*
X142332475Y-81179500D01*
X142187525Y-81179500D01*
X142047515Y-81217016D01*
X142047513Y-81217016D01*
X142047513Y-81217017D01*
X142021534Y-81232016D01*
X141921985Y-81289491D01*
X141921984Y-81289491D01*
X141921977Y-81289496D01*
X141916866Y-81293418D01*
X141851695Y-81318607D01*
X141783251Y-81304563D01*
X141779414Y-81302438D01*
X141657440Y-81232016D01*
X141517430Y-81194500D01*
X141372480Y-81194500D01*
X141243948Y-81228940D01*
X141232466Y-81232017D01*
X141106943Y-81304488D01*
X141106937Y-81304493D01*
X141004448Y-81406982D01*
X141004443Y-81406988D01*
X140931972Y-81532511D01*
X140931971Y-81532515D01*
X140894455Y-81672525D01*
X125500500Y-81672525D01*
X125500500Y-80427525D01*
X126049500Y-80427525D01*
X126049500Y-80572475D01*
X126076288Y-80672447D01*
X126087017Y-80712488D01*
X126159488Y-80838011D01*
X126159490Y-80838013D01*
X126159491Y-80838015D01*
X126261985Y-80940509D01*
X126261986Y-80940510D01*
X126261988Y-80940511D01*
X126387511Y-81012982D01*
X126387512Y-81012982D01*
X126387515Y-81012984D01*
X126527525Y-81050500D01*
X126527528Y-81050500D01*
X126672472Y-81050500D01*
X126672475Y-81050500D01*
X126812485Y-81012984D01*
X126938002Y-80940516D01*
X127005899Y-80924044D01*
X127061996Y-80940515D01*
X127187515Y-81012984D01*
X127327525Y-81050500D01*
X127327528Y-81050500D01*
X127472472Y-81050500D01*
X127472475Y-81050500D01*
X127612485Y-81012984D01*
X127738015Y-80940509D01*
X127840509Y-80838015D01*
X127912984Y-80712485D01*
X127950500Y-80572475D01*
X127950500Y-80427525D01*
X160349500Y-80427525D01*
X160349500Y-80572475D01*
X160376288Y-80672447D01*
X160387017Y-80712488D01*
X160459488Y-80838011D01*
X160459490Y-80838013D01*
X160459491Y-80838015D01*
X160561985Y-80940509D01*
X160561986Y-80940510D01*
X160561988Y-80940511D01*
X160687511Y-81012982D01*
X160687512Y-81012982D01*
X160687515Y-81012984D01*
X160827525Y-81050500D01*
X160827528Y-81050500D01*
X160972473Y-81050500D01*
X160972475Y-81050500D01*
X161015754Y-81038903D01*
X161085601Y-81040564D01*
X161143464Y-81079726D01*
X161155233Y-81096674D01*
X161205889Y-81184413D01*
X161308383Y-81286907D01*
X161308384Y-81286908D01*
X161308386Y-81286909D01*
X161433909Y-81359380D01*
X161433910Y-81359380D01*
X161433913Y-81359382D01*
X161573923Y-81396898D01*
X161573926Y-81396898D01*
X161718870Y-81396898D01*
X161718873Y-81396898D01*
X161858883Y-81359382D01*
X161984413Y-81286907D01*
X162086907Y-81184413D01*
X162159382Y-81058883D01*
X162196898Y-80918873D01*
X162196898Y-80773923D01*
X162159382Y-80633913D01*
X162157776Y-80631132D01*
X162088210Y-80510640D01*
X162086907Y-80508383D01*
X161984413Y-80405889D01*
X161984411Y-80405888D01*
X161984409Y-80405886D01*
X161858886Y-80333415D01*
X161858887Y-80333415D01*
X161847404Y-80330338D01*
X161718873Y-80295898D01*
X161573923Y-80295898D01*
X161536178Y-80306012D01*
X161530643Y-80307495D01*
X161502802Y-80306832D01*
X161475082Y-80309479D01*
X161468357Y-80306012D01*
X161460793Y-80305832D01*
X161437730Y-80290222D01*
X161412979Y-80277462D01*
X161406267Y-80268926D01*
X161402931Y-80266669D01*
X161391162Y-80249719D01*
X161374302Y-80220516D01*
X161374017Y-80220023D01*
X161340509Y-80161985D01*
X161238015Y-80059491D01*
X161238013Y-80059490D01*
X161238011Y-80059488D01*
X161112488Y-79987017D01*
X161112489Y-79987017D01*
X161101006Y-79983940D01*
X160972475Y-79949500D01*
X160827525Y-79949500D01*
X160698993Y-79983940D01*
X160687511Y-79987017D01*
X160561988Y-80059488D01*
X160561982Y-80059493D01*
X160459493Y-80161982D01*
X160459488Y-80161988D01*
X160387017Y-80287511D01*
X160386214Y-80290508D01*
X160349500Y-80427525D01*
X127950500Y-80427525D01*
X127912984Y-80287515D01*
X127891162Y-80249719D01*
X127840511Y-80161988D01*
X127840506Y-80161982D01*
X127738017Y-80059493D01*
X127738011Y-80059488D01*
X127612488Y-79987017D01*
X127612489Y-79987017D01*
X127601006Y-79983940D01*
X127472475Y-79949500D01*
X127327525Y-79949500D01*
X127198993Y-79983940D01*
X127187511Y-79987017D01*
X127062000Y-80059482D01*
X126994100Y-80075955D01*
X126938000Y-80059482D01*
X126812488Y-79987017D01*
X126812489Y-79987017D01*
X126801006Y-79983940D01*
X126672475Y-79949500D01*
X126527525Y-79949500D01*
X126398993Y-79983940D01*
X126387511Y-79987017D01*
X126261988Y-80059488D01*
X126261982Y-80059493D01*
X126159493Y-80161982D01*
X126159488Y-80161988D01*
X126087017Y-80287511D01*
X126086214Y-80290508D01*
X126049500Y-80427525D01*
X125500500Y-80427525D01*
X125500500Y-79727525D01*
X143649500Y-79727525D01*
X143649500Y-79872475D01*
X143680192Y-79987016D01*
X143687017Y-80012488D01*
X143759488Y-80138011D01*
X143759490Y-80138013D01*
X143759491Y-80138015D01*
X143861985Y-80240509D01*
X143861986Y-80240510D01*
X143861988Y-80240511D01*
X143987511Y-80312982D01*
X143987512Y-80312982D01*
X143987515Y-80312984D01*
X144127525Y-80350500D01*
X144127528Y-80350500D01*
X144272472Y-80350500D01*
X144272475Y-80350500D01*
X144412485Y-80312984D01*
X144538015Y-80240509D01*
X144640509Y-80138015D01*
X144712984Y-80012485D01*
X144750500Y-79872475D01*
X144750500Y-79777525D01*
X145949500Y-79777525D01*
X145949500Y-79922475D01*
X145986213Y-80059488D01*
X145987017Y-80062488D01*
X146059488Y-80188011D01*
X146059490Y-80188013D01*
X146059491Y-80188015D01*
X146161985Y-80290509D01*
X146161986Y-80290510D01*
X146161988Y-80290511D01*
X146287511Y-80362982D01*
X146287512Y-80362982D01*
X146287515Y-80362984D01*
X146427525Y-80400500D01*
X146427528Y-80400500D01*
X146572472Y-80400500D01*
X146572475Y-80400500D01*
X146712485Y-80362984D01*
X146838015Y-80290509D01*
X146940509Y-80188015D01*
X147012984Y-80062485D01*
X147050500Y-79922475D01*
X147050500Y-79777525D01*
X147012984Y-79637515D01*
X146984116Y-79587515D01*
X146940511Y-79511988D01*
X146940506Y-79511982D01*
X146838017Y-79409493D01*
X146838011Y-79409488D01*
X146778919Y-79375371D01*
X163925000Y-79375371D01*
X163925000Y-80000000D01*
X164591988Y-80000000D01*
X164559075Y-80057007D01*
X164525000Y-80184174D01*
X164525000Y-80315826D01*
X164559075Y-80442993D01*
X164591988Y-80500000D01*
X163925000Y-80500000D01*
X163925000Y-81124628D01*
X163939503Y-81197540D01*
X163939505Y-81197544D01*
X163994760Y-81280239D01*
X164077455Y-81335494D01*
X164077459Y-81335496D01*
X164150371Y-81349999D01*
X164150374Y-81350000D01*
X164775000Y-81350000D01*
X164775000Y-80683012D01*
X164832007Y-80715925D01*
X164959174Y-80750000D01*
X165090826Y-80750000D01*
X165217993Y-80715925D01*
X165275000Y-80683012D01*
X165275000Y-81350000D01*
X165899626Y-81350000D01*
X165899628Y-81349999D01*
X165972540Y-81335496D01*
X165972544Y-81335494D01*
X166055239Y-81280239D01*
X166110494Y-81197544D01*
X166110496Y-81197540D01*
X166124999Y-81124628D01*
X166125000Y-81124626D01*
X166125000Y-80500000D01*
X165458012Y-80500000D01*
X165490925Y-80442993D01*
X165525000Y-80315826D01*
X165525000Y-80184174D01*
X165519431Y-80163389D01*
X166464500Y-80163389D01*
X166464500Y-80336610D01*
X166480702Y-80438910D01*
X166491598Y-80507701D01*
X166545127Y-80672445D01*
X166623768Y-80826788D01*
X166725586Y-80966928D01*
X166848072Y-81089414D01*
X166988212Y-81191232D01*
X167142555Y-81269873D01*
X167307299Y-81323402D01*
X167478389Y-81350500D01*
X167478390Y-81350500D01*
X167651610Y-81350500D01*
X167651611Y-81350500D01*
X167822701Y-81323402D01*
X167987445Y-81269873D01*
X168141788Y-81191232D01*
X168281928Y-81089414D01*
X168404414Y-80966928D01*
X168506232Y-80826788D01*
X168584873Y-80672445D01*
X168638402Y-80507701D01*
X168665500Y-80336611D01*
X168665500Y-80163389D01*
X168638402Y-79992299D01*
X168584873Y-79827555D01*
X168506232Y-79673212D01*
X168404414Y-79533072D01*
X168281928Y-79410586D01*
X168141788Y-79308768D01*
X167987445Y-79230127D01*
X167822701Y-79176598D01*
X167822699Y-79176597D01*
X167822698Y-79176597D01*
X167691271Y-79155781D01*
X167651611Y-79149500D01*
X167478389Y-79149500D01*
X167438728Y-79155781D01*
X167307302Y-79176597D01*
X167142552Y-79230128D01*
X166988211Y-79308768D01*
X166918402Y-79359488D01*
X166848072Y-79410586D01*
X166848070Y-79410588D01*
X166848069Y-79410588D01*
X166725588Y-79533069D01*
X166725588Y-79533070D01*
X166725586Y-79533072D01*
X166696407Y-79573233D01*
X166623768Y-79673211D01*
X166545128Y-79827552D01*
X166545127Y-79827554D01*
X166545127Y-79827555D01*
X166518362Y-79909927D01*
X166491597Y-79992302D01*
X166464500Y-80163389D01*
X165519431Y-80163389D01*
X165490925Y-80057007D01*
X165458012Y-80000000D01*
X166125000Y-80000000D01*
X166125000Y-79375373D01*
X166124999Y-79375371D01*
X166110496Y-79302459D01*
X166110494Y-79302455D01*
X166055239Y-79219760D01*
X165972544Y-79164505D01*
X165972540Y-79164503D01*
X165899627Y-79150000D01*
X165275000Y-79150000D01*
X165275000Y-79816988D01*
X165217993Y-79784075D01*
X165090826Y-79750000D01*
X164959174Y-79750000D01*
X164832007Y-79784075D01*
X164775000Y-79816988D01*
X164775000Y-79150000D01*
X164150373Y-79150000D01*
X164077459Y-79164503D01*
X164077455Y-79164505D01*
X163994760Y-79219760D01*
X163939505Y-79302455D01*
X163939503Y-79302459D01*
X163925000Y-79375371D01*
X146778919Y-79375371D01*
X146712488Y-79337017D01*
X146712489Y-79337017D01*
X146701006Y-79333940D01*
X146572475Y-79299500D01*
X146427525Y-79299500D01*
X146298993Y-79333940D01*
X146287511Y-79337017D01*
X146161988Y-79409488D01*
X146161982Y-79409493D01*
X146059493Y-79511982D01*
X146059488Y-79511988D01*
X145987017Y-79637511D01*
X145987016Y-79637515D01*
X145949500Y-79777525D01*
X144750500Y-79777525D01*
X144750500Y-79727525D01*
X144712984Y-79587515D01*
X144706807Y-79576817D01*
X144640511Y-79461988D01*
X144640506Y-79461982D01*
X144538017Y-79359493D01*
X144538011Y-79359488D01*
X144412488Y-79287017D01*
X144412489Y-79287017D01*
X144401006Y-79283940D01*
X144272475Y-79249500D01*
X144127525Y-79249500D01*
X143998993Y-79283940D01*
X143987511Y-79287017D01*
X143861988Y-79359488D01*
X143861982Y-79359493D01*
X143759493Y-79461982D01*
X143759488Y-79461988D01*
X143687017Y-79587511D01*
X143687016Y-79587515D01*
X143649500Y-79727525D01*
X125500500Y-79727525D01*
X125500500Y-78827525D01*
X129749500Y-78827525D01*
X129749500Y-78972475D01*
X129787016Y-79112485D01*
X129787017Y-79112488D01*
X129859488Y-79238011D01*
X129859490Y-79238013D01*
X129859491Y-79238015D01*
X129961985Y-79340509D01*
X129961986Y-79340510D01*
X129961988Y-79340511D01*
X130087511Y-79412982D01*
X130087512Y-79412982D01*
X130087515Y-79412984D01*
X130227525Y-79450500D01*
X130227528Y-79450500D01*
X130372472Y-79450500D01*
X130372475Y-79450500D01*
X130512485Y-79412984D01*
X130638015Y-79340509D01*
X130740509Y-79238015D01*
X130812984Y-79112485D01*
X130850500Y-78972475D01*
X130850500Y-78827525D01*
X130812984Y-78687515D01*
X130767321Y-78608425D01*
X130740511Y-78561988D01*
X130740506Y-78561982D01*
X130638017Y-78459493D01*
X130638011Y-78459488D01*
X130512488Y-78387017D01*
X130512489Y-78387017D01*
X130501006Y-78383940D01*
X130372475Y-78349500D01*
X130227525Y-78349500D01*
X130098993Y-78383940D01*
X130087511Y-78387017D01*
X129961988Y-78459488D01*
X129961982Y-78459493D01*
X129859493Y-78561982D01*
X129859488Y-78561988D01*
X129787017Y-78687511D01*
X129787016Y-78687515D01*
X129749500Y-78827525D01*
X125500500Y-78827525D01*
X125500500Y-77952204D01*
X125520185Y-77885165D01*
X125572989Y-77839410D01*
X125642147Y-77829466D01*
X125705703Y-77858491D01*
X125731887Y-77890204D01*
X125759488Y-77938011D01*
X125759490Y-77938013D01*
X125759491Y-77938015D01*
X125861985Y-78040509D01*
X125861986Y-78040510D01*
X125861988Y-78040511D01*
X125987511Y-78112982D01*
X125987512Y-78112982D01*
X125987515Y-78112984D01*
X126127525Y-78150500D01*
X126127528Y-78150500D01*
X126272472Y-78150500D01*
X126272475Y-78150500D01*
X126412485Y-78112984D01*
X126488001Y-78069384D01*
X126555899Y-78052912D01*
X126611998Y-78069384D01*
X126687515Y-78112984D01*
X126827525Y-78150500D01*
X126827528Y-78150500D01*
X126972472Y-78150500D01*
X126972475Y-78150500D01*
X127112485Y-78112984D01*
X127188001Y-78069384D01*
X127255899Y-78052912D01*
X127311998Y-78069384D01*
X127387515Y-78112984D01*
X127527525Y-78150500D01*
X127527528Y-78150500D01*
X127672472Y-78150500D01*
X127672475Y-78150500D01*
X127812485Y-78112984D01*
X127938015Y-78040509D01*
X128040509Y-77938015D01*
X128112984Y-77812485D01*
X128150500Y-77672475D01*
X128150500Y-77527525D01*
X128112984Y-77387515D01*
X128069384Y-77311998D01*
X128052912Y-77244101D01*
X128069384Y-77188001D01*
X128112984Y-77112485D01*
X128150500Y-76972475D01*
X128150500Y-76827525D01*
X128112984Y-76687515D01*
X128098244Y-76661985D01*
X128040511Y-76561988D01*
X128040506Y-76561982D01*
X127938017Y-76459493D01*
X127938011Y-76459488D01*
X127812488Y-76387017D01*
X127812489Y-76387017D01*
X127766439Y-76374678D01*
X127672475Y-76349500D01*
X127527525Y-76349500D01*
X127433561Y-76374678D01*
X127387511Y-76387017D01*
X127312000Y-76430614D01*
X127244100Y-76447087D01*
X127188000Y-76430614D01*
X127112488Y-76387017D01*
X127112489Y-76387017D01*
X127066439Y-76374678D01*
X126972475Y-76349500D01*
X126827525Y-76349500D01*
X126733561Y-76374678D01*
X126687511Y-76387017D01*
X126561988Y-76459488D01*
X126561982Y-76459493D01*
X126459493Y-76561982D01*
X126459488Y-76561988D01*
X126387017Y-76687511D01*
X126387016Y-76687515D01*
X126349500Y-76827525D01*
X126349500Y-76827527D01*
X126349500Y-76925500D01*
X126329815Y-76992539D01*
X126277011Y-77038294D01*
X126225500Y-77049500D01*
X126127525Y-77049500D01*
X126022309Y-77077693D01*
X125987511Y-77087017D01*
X125861988Y-77159488D01*
X125861982Y-77159493D01*
X125759493Y-77261982D01*
X125759486Y-77261991D01*
X125731886Y-77309796D01*
X125681319Y-77358011D01*
X125612712Y-77371233D01*
X125547847Y-77345265D01*
X125507319Y-77288350D01*
X125500500Y-77247795D01*
X125500500Y-76127525D01*
X132649500Y-76127525D01*
X132649500Y-76272475D01*
X132676885Y-76374676D01*
X132687017Y-76412488D01*
X132759482Y-76538000D01*
X132775955Y-76605900D01*
X132759482Y-76662000D01*
X132687017Y-76787511D01*
X132687016Y-76787515D01*
X132649500Y-76927525D01*
X132649500Y-77072475D01*
X132672817Y-77159493D01*
X132687017Y-77212488D01*
X132759482Y-77338000D01*
X132775955Y-77405900D01*
X132759482Y-77462000D01*
X132687017Y-77587511D01*
X132687016Y-77587515D01*
X132649500Y-77727525D01*
X132649500Y-77872475D01*
X132670864Y-77952204D01*
X132687017Y-78012488D01*
X132759488Y-78138011D01*
X132759490Y-78138013D01*
X132759491Y-78138015D01*
X132861985Y-78240509D01*
X132861986Y-78240510D01*
X132861988Y-78240511D01*
X132987511Y-78312982D01*
X132987512Y-78312982D01*
X132987515Y-78312984D01*
X133127525Y-78350500D01*
X133127528Y-78350500D01*
X133272472Y-78350500D01*
X133272475Y-78350500D01*
X133412485Y-78312984D01*
X133538002Y-78240516D01*
X133605899Y-78224044D01*
X133661996Y-78240515D01*
X133787515Y-78312984D01*
X133927525Y-78350500D01*
X133927528Y-78350500D01*
X134072472Y-78350500D01*
X134072475Y-78350500D01*
X134212485Y-78312984D01*
X134338002Y-78240516D01*
X134405899Y-78224044D01*
X134461996Y-78240515D01*
X134587515Y-78312984D01*
X134727525Y-78350500D01*
X134727528Y-78350500D01*
X134872472Y-78350500D01*
X134872475Y-78350500D01*
X135012485Y-78312984D01*
X135138015Y-78240509D01*
X135240509Y-78138015D01*
X135312984Y-78012485D01*
X135350500Y-77872475D01*
X135350500Y-77727525D01*
X152249500Y-77727525D01*
X152249500Y-77872475D01*
X152270864Y-77952204D01*
X152287017Y-78012488D01*
X152359488Y-78138011D01*
X152359490Y-78138013D01*
X152359491Y-78138015D01*
X152461985Y-78240509D01*
X152461986Y-78240510D01*
X152461988Y-78240511D01*
X152587511Y-78312982D01*
X152587513Y-78312983D01*
X152587515Y-78312984D01*
X152625859Y-78323258D01*
X152685518Y-78359621D01*
X152716048Y-78422467D01*
X152713540Y-78475124D01*
X152699500Y-78527523D01*
X152699500Y-78527525D01*
X152699500Y-78672475D01*
X152711225Y-78716232D01*
X152737017Y-78812488D01*
X152809488Y-78938011D01*
X152809490Y-78938013D01*
X152809491Y-78938015D01*
X152911985Y-79040509D01*
X152911986Y-79040510D01*
X152911988Y-79040511D01*
X153037511Y-79112982D01*
X153037512Y-79112982D01*
X153037515Y-79112984D01*
X153177525Y-79150500D01*
X153177528Y-79150500D01*
X153322472Y-79150500D01*
X153322475Y-79150500D01*
X153462485Y-79112984D01*
X153588015Y-79040509D01*
X153690509Y-78938015D01*
X153762984Y-78812485D01*
X153800500Y-78672475D01*
X153800500Y-78527525D01*
X153762984Y-78387515D01*
X153762696Y-78387017D01*
X153690511Y-78261988D01*
X153690506Y-78261982D01*
X153588017Y-78159493D01*
X153588011Y-78159488D01*
X153462488Y-78087017D01*
X153462489Y-78087017D01*
X153458568Y-78085966D01*
X153424138Y-78076740D01*
X153364480Y-78040377D01*
X153333951Y-77977530D01*
X153336458Y-77924876D01*
X153350500Y-77872475D01*
X153350500Y-77727525D01*
X153312984Y-77587515D01*
X153240509Y-77461985D01*
X153138015Y-77359491D01*
X153138013Y-77359490D01*
X153138011Y-77359488D01*
X153012488Y-77287017D01*
X153012489Y-77287017D01*
X153001006Y-77283940D01*
X152872475Y-77249500D01*
X152727525Y-77249500D01*
X152598993Y-77283940D01*
X152587511Y-77287017D01*
X152461988Y-77359488D01*
X152461982Y-77359493D01*
X152359493Y-77461982D01*
X152359488Y-77461988D01*
X152287017Y-77587511D01*
X152287016Y-77587515D01*
X152249500Y-77727525D01*
X135350500Y-77727525D01*
X135312984Y-77587515D01*
X135240516Y-77461997D01*
X135224044Y-77394101D01*
X135240515Y-77338003D01*
X135312984Y-77212485D01*
X135350500Y-77072475D01*
X135350500Y-76927525D01*
X135312984Y-76787515D01*
X135291613Y-76750500D01*
X135240511Y-76661988D01*
X135240506Y-76661982D01*
X135138017Y-76559493D01*
X135138011Y-76559488D01*
X135012488Y-76487017D01*
X135012489Y-76487017D01*
X135001006Y-76483940D01*
X134872475Y-76449500D01*
X134727525Y-76449500D01*
X134727523Y-76449500D01*
X134693158Y-76458708D01*
X134623308Y-76457044D01*
X134565446Y-76417881D01*
X134537943Y-76353652D01*
X134541292Y-76306838D01*
X134546756Y-76286446D01*
X134550500Y-76272475D01*
X134550500Y-76127525D01*
X134512984Y-75987515D01*
X134455537Y-75888015D01*
X134440511Y-75861988D01*
X134440506Y-75861982D01*
X134338017Y-75759493D01*
X134338011Y-75759488D01*
X134212488Y-75687017D01*
X134212489Y-75687017D01*
X134201006Y-75683940D01*
X134072475Y-75649500D01*
X133927525Y-75649500D01*
X133798993Y-75683940D01*
X133787511Y-75687017D01*
X133662000Y-75759482D01*
X133594100Y-75775955D01*
X133538000Y-75759482D01*
X133412488Y-75687017D01*
X133412489Y-75687017D01*
X133401006Y-75683940D01*
X133272475Y-75649500D01*
X133127525Y-75649500D01*
X132998993Y-75683940D01*
X132987511Y-75687017D01*
X132861988Y-75759488D01*
X132861982Y-75759493D01*
X132759493Y-75861982D01*
X132759488Y-75861988D01*
X132687017Y-75987511D01*
X132686214Y-75990509D01*
X132649500Y-76127525D01*
X125500500Y-76127525D01*
X125500500Y-74014875D01*
X125520185Y-73947836D01*
X125572989Y-73902081D01*
X125642147Y-73892137D01*
X125705703Y-73921162D01*
X125731166Y-73956478D01*
X125732952Y-73955447D01*
X125809488Y-74088011D01*
X125809490Y-74088013D01*
X125809491Y-74088015D01*
X125911985Y-74190509D01*
X125911986Y-74190510D01*
X125911988Y-74190511D01*
X126037511Y-74262982D01*
X126037512Y-74262982D01*
X126037515Y-74262984D01*
X126177525Y-74300500D01*
X126177528Y-74300500D01*
X126322472Y-74300500D01*
X126322475Y-74300500D01*
X126462485Y-74262984D01*
X126588015Y-74190509D01*
X126690509Y-74088015D01*
X126762984Y-73962485D01*
X126800500Y-73822475D01*
X126800500Y-73727525D01*
X132449500Y-73727525D01*
X132449500Y-73872475D01*
X132478277Y-73979871D01*
X132487017Y-74012488D01*
X132559482Y-74138000D01*
X132575955Y-74205900D01*
X132559482Y-74262000D01*
X132487017Y-74387511D01*
X132487016Y-74387515D01*
X132449500Y-74527525D01*
X132449500Y-74672475D01*
X132450656Y-74676788D01*
X132487017Y-74812488D01*
X132559488Y-74938011D01*
X132559490Y-74938013D01*
X132559491Y-74938015D01*
X132661985Y-75040509D01*
X132661986Y-75040510D01*
X132661988Y-75040511D01*
X132787511Y-75112982D01*
X132787512Y-75112982D01*
X132787515Y-75112984D01*
X132927525Y-75150500D01*
X132927528Y-75150500D01*
X133072472Y-75150500D01*
X133072475Y-75150500D01*
X133212485Y-75112984D01*
X133338002Y-75040516D01*
X133405899Y-75024044D01*
X133461996Y-75040515D01*
X133587515Y-75112984D01*
X133727525Y-75150500D01*
X133727528Y-75150500D01*
X133872472Y-75150500D01*
X133872475Y-75150500D01*
X134012485Y-75112984D01*
X134138002Y-75040516D01*
X134205899Y-75024044D01*
X134261996Y-75040515D01*
X134387515Y-75112984D01*
X134527525Y-75150500D01*
X134527528Y-75150500D01*
X134672472Y-75150500D01*
X134672475Y-75150500D01*
X134812485Y-75112984D01*
X134938002Y-75040516D01*
X135005899Y-75024044D01*
X135061996Y-75040515D01*
X135187515Y-75112984D01*
X135327525Y-75150500D01*
X135327528Y-75150500D01*
X135472472Y-75150500D01*
X135472475Y-75150500D01*
X135612485Y-75112984D01*
X135738015Y-75040509D01*
X135840509Y-74938015D01*
X135912984Y-74812485D01*
X135950500Y-74672475D01*
X135950500Y-74625321D01*
X146399500Y-74625321D01*
X146399500Y-76374678D01*
X146414032Y-76447735D01*
X146414033Y-76447739D01*
X146421887Y-76459493D01*
X146469399Y-76530601D01*
X146516374Y-76561988D01*
X146552260Y-76585966D01*
X146552264Y-76585967D01*
X146625321Y-76600499D01*
X146625324Y-76600500D01*
X146625326Y-76600500D01*
X148374676Y-76600500D01*
X148374677Y-76600499D01*
X148447740Y-76585966D01*
X148530601Y-76530601D01*
X148585966Y-76447740D01*
X148600500Y-76374674D01*
X148600500Y-76127525D01*
X157549500Y-76127525D01*
X157549500Y-76272475D01*
X157576885Y-76374676D01*
X157587017Y-76412488D01*
X157659488Y-76538011D01*
X157659490Y-76538013D01*
X157659491Y-76538015D01*
X157761985Y-76640509D01*
X157761986Y-76640510D01*
X157761988Y-76640511D01*
X157887511Y-76712982D01*
X157887512Y-76712982D01*
X157887515Y-76712984D01*
X158027525Y-76750500D01*
X158027528Y-76750500D01*
X158172472Y-76750500D01*
X158172475Y-76750500D01*
X158312485Y-76712984D01*
X158438015Y-76640509D01*
X158525096Y-76553428D01*
X163815000Y-76553428D01*
X163815000Y-76726571D01*
X163842085Y-76897584D01*
X163895592Y-77062259D01*
X163974196Y-77216525D01*
X163978709Y-77222736D01*
X163978709Y-77222737D01*
X164432037Y-76769409D01*
X164449075Y-76832993D01*
X164514901Y-76947007D01*
X164607993Y-77040099D01*
X164722007Y-77105925D01*
X164785589Y-77122962D01*
X164332261Y-77576289D01*
X164332262Y-77576290D01*
X164338471Y-77580801D01*
X164492742Y-77659408D01*
X164657415Y-77712914D01*
X164828429Y-77740000D01*
X165001571Y-77740000D01*
X165172584Y-77712914D01*
X165337257Y-77659408D01*
X165491525Y-77580803D01*
X165497736Y-77576289D01*
X165497737Y-77576289D01*
X165044410Y-77122962D01*
X165107993Y-77105925D01*
X165222007Y-77040099D01*
X165315099Y-76947007D01*
X165380925Y-76832993D01*
X165397962Y-76769409D01*
X165851289Y-77222736D01*
X165855803Y-77216525D01*
X165934408Y-77062257D01*
X165987914Y-76897584D01*
X166015000Y-76726571D01*
X166015000Y-76553428D01*
X165987914Y-76382415D01*
X165934408Y-76217742D01*
X165855801Y-76063471D01*
X165851290Y-76057262D01*
X165851289Y-76057261D01*
X165397962Y-76510589D01*
X165380925Y-76447007D01*
X165315099Y-76332993D01*
X165222007Y-76239901D01*
X165107993Y-76174075D01*
X165044409Y-76157037D01*
X165497737Y-75703709D01*
X165491525Y-75699196D01*
X165337259Y-75620592D01*
X165172584Y-75567085D01*
X165001571Y-75540000D01*
X164828429Y-75540000D01*
X164657415Y-75567085D01*
X164492740Y-75620592D01*
X164338480Y-75699193D01*
X164338463Y-75699203D01*
X164332261Y-75703708D01*
X164332261Y-75703709D01*
X164785590Y-76157037D01*
X164722007Y-76174075D01*
X164607993Y-76239901D01*
X164514901Y-76332993D01*
X164449075Y-76447007D01*
X164432037Y-76510590D01*
X163978709Y-76057261D01*
X163978708Y-76057261D01*
X163974203Y-76063463D01*
X163974193Y-76063480D01*
X163895592Y-76217740D01*
X163842085Y-76382415D01*
X163815000Y-76553428D01*
X158525096Y-76553428D01*
X158540509Y-76538015D01*
X158612984Y-76412485D01*
X158650500Y-76272475D01*
X158650500Y-76127525D01*
X158612984Y-75987515D01*
X158555537Y-75888015D01*
X158540511Y-75861988D01*
X158540506Y-75861982D01*
X158438017Y-75759493D01*
X158438011Y-75759488D01*
X158312488Y-75687017D01*
X158312489Y-75687017D01*
X158301006Y-75683940D01*
X158172475Y-75649500D01*
X158027525Y-75649500D01*
X157898993Y-75683940D01*
X157887511Y-75687017D01*
X157761988Y-75759488D01*
X157761982Y-75759493D01*
X157659493Y-75861982D01*
X157659488Y-75861988D01*
X157587017Y-75987511D01*
X157586214Y-75990509D01*
X157549500Y-76127525D01*
X148600500Y-76127525D01*
X148600500Y-75477525D01*
X162049500Y-75477525D01*
X162049500Y-75622475D01*
X162086213Y-75759488D01*
X162087017Y-75762488D01*
X162159488Y-75888011D01*
X162159490Y-75888013D01*
X162159491Y-75888015D01*
X162261985Y-75990509D01*
X162261986Y-75990510D01*
X162261988Y-75990511D01*
X162387511Y-76062982D01*
X162387512Y-76062982D01*
X162387515Y-76062984D01*
X162527525Y-76100500D01*
X162527528Y-76100500D01*
X162672472Y-76100500D01*
X162672475Y-76100500D01*
X162812485Y-76062984D01*
X162938015Y-75990509D01*
X163040509Y-75888015D01*
X163112984Y-75762485D01*
X163116914Y-75747817D01*
X163124671Y-75718871D01*
X163133206Y-75687016D01*
X163150500Y-75622475D01*
X163150500Y-75477525D01*
X163112984Y-75337515D01*
X163040509Y-75211985D01*
X162938015Y-75109491D01*
X162938013Y-75109490D01*
X162938011Y-75109488D01*
X162812488Y-75037017D01*
X162812489Y-75037017D01*
X162764073Y-75024044D01*
X162672475Y-74999500D01*
X162527525Y-74999500D01*
X162435927Y-75024044D01*
X162387511Y-75037017D01*
X162261988Y-75109488D01*
X162261982Y-75109493D01*
X162159493Y-75211982D01*
X162159488Y-75211988D01*
X162087017Y-75337511D01*
X162087016Y-75337515D01*
X162049500Y-75477525D01*
X148600500Y-75477525D01*
X148600500Y-74625326D01*
X148600500Y-74625323D01*
X148600499Y-74625321D01*
X148585967Y-74552264D01*
X148585966Y-74552260D01*
X148566046Y-74522447D01*
X148530601Y-74469399D01*
X148447740Y-74414034D01*
X148447739Y-74414033D01*
X148447735Y-74414032D01*
X148374677Y-74399500D01*
X148374674Y-74399500D01*
X146625326Y-74399500D01*
X146625323Y-74399500D01*
X146552264Y-74414032D01*
X146552260Y-74414033D01*
X146469399Y-74469399D01*
X146414033Y-74552260D01*
X146414032Y-74552264D01*
X146399500Y-74625321D01*
X135950500Y-74625321D01*
X135950500Y-74527525D01*
X135912984Y-74387515D01*
X135840516Y-74261997D01*
X135824044Y-74194101D01*
X135840515Y-74138003D01*
X135912984Y-74012485D01*
X135950500Y-73872475D01*
X135950500Y-73727525D01*
X135912984Y-73587515D01*
X135912696Y-73587017D01*
X135840511Y-73461988D01*
X135840506Y-73461982D01*
X135738017Y-73359493D01*
X135738011Y-73359488D01*
X135612488Y-73287017D01*
X135612489Y-73287017D01*
X135601006Y-73283940D01*
X135472475Y-73249500D01*
X135327525Y-73249500D01*
X135327523Y-73249500D01*
X135293158Y-73258708D01*
X135223308Y-73257044D01*
X135165446Y-73217881D01*
X135137943Y-73153652D01*
X135141292Y-73106838D01*
X135148449Y-73080128D01*
X135150500Y-73072475D01*
X135150500Y-72927525D01*
X135135994Y-72873389D01*
X146399500Y-72873389D01*
X146399500Y-73046611D01*
X146403597Y-73072476D01*
X146420102Y-73176691D01*
X146426598Y-73217701D01*
X146480127Y-73382445D01*
X146558768Y-73536788D01*
X146660586Y-73676928D01*
X146783072Y-73799414D01*
X146923212Y-73901232D01*
X147077555Y-73979873D01*
X147242299Y-74033402D01*
X147413389Y-74060500D01*
X147413390Y-74060500D01*
X147586610Y-74060500D01*
X147586611Y-74060500D01*
X147757701Y-74033402D01*
X147775788Y-74027525D01*
X150449500Y-74027525D01*
X150449500Y-74172475D01*
X150483805Y-74300500D01*
X150487017Y-74312488D01*
X150559488Y-74438011D01*
X150559490Y-74438013D01*
X150559491Y-74438015D01*
X150661985Y-74540509D01*
X150661986Y-74540510D01*
X150661988Y-74540511D01*
X150787511Y-74612982D01*
X150787512Y-74612982D01*
X150787515Y-74612984D01*
X150927525Y-74650500D01*
X150927528Y-74650500D01*
X151072472Y-74650500D01*
X151072475Y-74650500D01*
X151212485Y-74612984D01*
X151338015Y-74540509D01*
X151440509Y-74438015D01*
X151512984Y-74312485D01*
X151550500Y-74172475D01*
X151550500Y-74027525D01*
X151541536Y-73994070D01*
X153712955Y-73994070D01*
X153712955Y-74139020D01*
X153750471Y-74279030D01*
X153750472Y-74279033D01*
X153822943Y-74404556D01*
X153822945Y-74404558D01*
X153822946Y-74404560D01*
X153925440Y-74507054D01*
X153925441Y-74507055D01*
X153925443Y-74507056D01*
X154050966Y-74579527D01*
X154050967Y-74579527D01*
X154050970Y-74579529D01*
X154190980Y-74617045D01*
X154190983Y-74617045D01*
X154335927Y-74617045D01*
X154335930Y-74617045D01*
X154475940Y-74579529D01*
X154601470Y-74507054D01*
X154601473Y-74507050D01*
X154607329Y-74503670D01*
X154675229Y-74487197D01*
X154734262Y-74507628D01*
X154734946Y-74506445D01*
X154741086Y-74509990D01*
X154741256Y-74510049D01*
X154741497Y-74510227D01*
X154741984Y-74510508D01*
X154741985Y-74510509D01*
X154771461Y-74527527D01*
X154867511Y-74582982D01*
X154867512Y-74582982D01*
X154867515Y-74582984D01*
X155007525Y-74620500D01*
X155007528Y-74620500D01*
X155152472Y-74620500D01*
X155152475Y-74620500D01*
X155292485Y-74582984D01*
X155401531Y-74520025D01*
X155469427Y-74503554D01*
X155535454Y-74526406D01*
X155551209Y-74539733D01*
X155551985Y-74540509D01*
X155551986Y-74540510D01*
X155551988Y-74540511D01*
X155677511Y-74612982D01*
X155677512Y-74612982D01*
X155677515Y-74612984D01*
X155817525Y-74650500D01*
X155817528Y-74650500D01*
X155962472Y-74650500D01*
X155962475Y-74650500D01*
X156102485Y-74612984D01*
X156228015Y-74540509D01*
X156330509Y-74438015D01*
X156402984Y-74312485D01*
X156440500Y-74172475D01*
X156440500Y-74027525D01*
X156436712Y-74013389D01*
X163814500Y-74013389D01*
X163814500Y-74186611D01*
X163841598Y-74357701D01*
X163894341Y-74520027D01*
X163895128Y-74522447D01*
X163947547Y-74625326D01*
X163973768Y-74676788D01*
X164075586Y-74816928D01*
X164198072Y-74939414D01*
X164338212Y-75041232D01*
X164492555Y-75119873D01*
X164657299Y-75173402D01*
X164828389Y-75200500D01*
X164828390Y-75200500D01*
X165001610Y-75200500D01*
X165001611Y-75200500D01*
X165172701Y-75173402D01*
X165337445Y-75119873D01*
X165491788Y-75041232D01*
X165631928Y-74939414D01*
X165754414Y-74816928D01*
X165856232Y-74676788D01*
X165934873Y-74522445D01*
X165988402Y-74357701D01*
X166015500Y-74186611D01*
X166015500Y-74013389D01*
X165988402Y-73842299D01*
X165934873Y-73677555D01*
X165856232Y-73523212D01*
X165754414Y-73383072D01*
X165631928Y-73260586D01*
X165491788Y-73158768D01*
X165337445Y-73080127D01*
X165172701Y-73026598D01*
X165172699Y-73026597D01*
X165172698Y-73026597D01*
X165041271Y-73005781D01*
X165001611Y-72999500D01*
X164828389Y-72999500D01*
X164788728Y-73005781D01*
X164657302Y-73026597D01*
X164492552Y-73080128D01*
X164338211Y-73158768D01*
X164282149Y-73199500D01*
X164198072Y-73260586D01*
X164198070Y-73260588D01*
X164198069Y-73260588D01*
X164075588Y-73383069D01*
X164075588Y-73383070D01*
X164075586Y-73383072D01*
X164047684Y-73421476D01*
X163973768Y-73523211D01*
X163895128Y-73677552D01*
X163841597Y-73842302D01*
X163814643Y-74012485D01*
X163814500Y-74013389D01*
X156436712Y-74013389D01*
X156402984Y-73887515D01*
X156383666Y-73854056D01*
X156330511Y-73761988D01*
X156330506Y-73761982D01*
X156228017Y-73659493D01*
X156228011Y-73659488D01*
X156102488Y-73587017D01*
X156102489Y-73587017D01*
X156091006Y-73583940D01*
X155962475Y-73549500D01*
X155817525Y-73549500D01*
X155688993Y-73583940D01*
X155677511Y-73587017D01*
X155568471Y-73649972D01*
X155500571Y-73666445D01*
X155434544Y-73643592D01*
X155418790Y-73630266D01*
X155418017Y-73629493D01*
X155418011Y-73629488D01*
X155292488Y-73557017D01*
X155292489Y-73557017D01*
X155264435Y-73549500D01*
X155152475Y-73519500D01*
X155007525Y-73519500D01*
X154895565Y-73549500D01*
X154867511Y-73557017D01*
X154736124Y-73632874D01*
X154668224Y-73649347D01*
X154609192Y-73628915D01*
X154608509Y-73630100D01*
X154602362Y-73626551D01*
X154602197Y-73626494D01*
X154601960Y-73626319D01*
X154475943Y-73553562D01*
X154475944Y-73553562D01*
X154427666Y-73540626D01*
X154335930Y-73516045D01*
X154190980Y-73516045D01*
X154099244Y-73540626D01*
X154050966Y-73553562D01*
X153925443Y-73626033D01*
X153925437Y-73626038D01*
X153822948Y-73728527D01*
X153822943Y-73728533D01*
X153750472Y-73854056D01*
X153750471Y-73854060D01*
X153712955Y-73994070D01*
X151541536Y-73994070D01*
X151512984Y-73887515D01*
X151493666Y-73854056D01*
X151440511Y-73761988D01*
X151440506Y-73761982D01*
X151338017Y-73659493D01*
X151338011Y-73659488D01*
X151212488Y-73587017D01*
X151212489Y-73587017D01*
X151201006Y-73583940D01*
X151072475Y-73549500D01*
X150927525Y-73549500D01*
X150798993Y-73583940D01*
X150787511Y-73587017D01*
X150661988Y-73659488D01*
X150661982Y-73659493D01*
X150559493Y-73761982D01*
X150559488Y-73761988D01*
X150487017Y-73887511D01*
X150483341Y-73901231D01*
X150449500Y-74027525D01*
X147775788Y-74027525D01*
X147922445Y-73979873D01*
X148076788Y-73901232D01*
X148216928Y-73799414D01*
X148339414Y-73676928D01*
X148441232Y-73536788D01*
X148519873Y-73382445D01*
X148573402Y-73217701D01*
X148600500Y-73046611D01*
X148600500Y-72873389D01*
X148573402Y-72702299D01*
X148519873Y-72537555D01*
X148441232Y-72383212D01*
X148437100Y-72377525D01*
X157749500Y-72377525D01*
X157749500Y-72522475D01*
X157787016Y-72662485D01*
X157787017Y-72662488D01*
X157859488Y-72788011D01*
X157859490Y-72788013D01*
X157859491Y-72788015D01*
X157961985Y-72890509D01*
X157961986Y-72890510D01*
X157961988Y-72890511D01*
X158087511Y-72962982D01*
X158087512Y-72962982D01*
X158087515Y-72962984D01*
X158227525Y-73000500D01*
X158227528Y-73000500D01*
X158372472Y-73000500D01*
X158372475Y-73000500D01*
X158512485Y-72962984D01*
X158638015Y-72890509D01*
X158740509Y-72788015D01*
X158812984Y-72662485D01*
X158850500Y-72522475D01*
X158850500Y-72377525D01*
X158812984Y-72237515D01*
X158755537Y-72138015D01*
X158740511Y-72111988D01*
X158740506Y-72111982D01*
X158638017Y-72009493D01*
X158638011Y-72009488D01*
X158512488Y-71937017D01*
X158512489Y-71937017D01*
X158501006Y-71933940D01*
X158372475Y-71899500D01*
X158227525Y-71899500D01*
X158098993Y-71933940D01*
X158087511Y-71937017D01*
X157961988Y-72009488D01*
X157961982Y-72009493D01*
X157859493Y-72111982D01*
X157859488Y-72111988D01*
X157787017Y-72237511D01*
X157785527Y-72243072D01*
X157749500Y-72377525D01*
X148437100Y-72377525D01*
X148339414Y-72243072D01*
X148216928Y-72120586D01*
X148076788Y-72018768D01*
X147922445Y-71940127D01*
X147757701Y-71886598D01*
X147757699Y-71886597D01*
X147757698Y-71886597D01*
X147626271Y-71865781D01*
X147586611Y-71859500D01*
X147413389Y-71859500D01*
X147373728Y-71865781D01*
X147242302Y-71886597D01*
X147077552Y-71940128D01*
X146923211Y-72018768D01*
X146843256Y-72076859D01*
X146783072Y-72120586D01*
X146783070Y-72120588D01*
X146783069Y-72120588D01*
X146660588Y-72243069D01*
X146660588Y-72243070D01*
X146660586Y-72243072D01*
X146639223Y-72272476D01*
X146558768Y-72383211D01*
X146480128Y-72537552D01*
X146480127Y-72537554D01*
X146480127Y-72537555D01*
X146462891Y-72590601D01*
X146426597Y-72702302D01*
X146399500Y-72873389D01*
X135135994Y-72873389D01*
X135112984Y-72787515D01*
X135040516Y-72661997D01*
X135024044Y-72594101D01*
X135040515Y-72538003D01*
X135112984Y-72412485D01*
X135150500Y-72272475D01*
X135150500Y-72127525D01*
X135112984Y-71987515D01*
X135085624Y-71940127D01*
X135040511Y-71861988D01*
X135040506Y-71861982D01*
X134938017Y-71759493D01*
X134938011Y-71759488D01*
X134882650Y-71727525D01*
X161249500Y-71727525D01*
X161249500Y-71872475D01*
X161286213Y-72009488D01*
X161287017Y-72012488D01*
X161359488Y-72138011D01*
X161359490Y-72138013D01*
X161359491Y-72138015D01*
X161461985Y-72240509D01*
X161461986Y-72240510D01*
X161461988Y-72240511D01*
X161587511Y-72312982D01*
X161587512Y-72312982D01*
X161587515Y-72312984D01*
X161727525Y-72350500D01*
X161727528Y-72350500D01*
X161872472Y-72350500D01*
X161872475Y-72350500D01*
X162012485Y-72312984D01*
X162138015Y-72240509D01*
X162240509Y-72138015D01*
X162312984Y-72012485D01*
X162350500Y-71872475D01*
X162350500Y-71727525D01*
X162312984Y-71587515D01*
X162285843Y-71540506D01*
X162240511Y-71461988D01*
X162240506Y-71461982D01*
X162138017Y-71359493D01*
X162138011Y-71359488D01*
X162012488Y-71287017D01*
X162012489Y-71287017D01*
X162001006Y-71283940D01*
X161872475Y-71249500D01*
X161727525Y-71249500D01*
X161598993Y-71283940D01*
X161587511Y-71287017D01*
X161461988Y-71359488D01*
X161461982Y-71359493D01*
X161359493Y-71461982D01*
X161359488Y-71461988D01*
X161287017Y-71587511D01*
X161287016Y-71587515D01*
X161249500Y-71727525D01*
X134882650Y-71727525D01*
X134812488Y-71687017D01*
X134812489Y-71687017D01*
X134801006Y-71683940D01*
X134672475Y-71649500D01*
X134527525Y-71649500D01*
X134398993Y-71683940D01*
X134387511Y-71687017D01*
X134261988Y-71759488D01*
X134261982Y-71759493D01*
X134159493Y-71861982D01*
X134159488Y-71861988D01*
X134087017Y-71987511D01*
X134087016Y-71987515D01*
X134049500Y-72127525D01*
X134049500Y-72127527D01*
X134049500Y-72272476D01*
X134058708Y-72306841D01*
X134057045Y-72376691D01*
X134017882Y-72434553D01*
X133953653Y-72462056D01*
X133906841Y-72458708D01*
X133872476Y-72449500D01*
X133872475Y-72449500D01*
X133727525Y-72449500D01*
X133598993Y-72483940D01*
X133587511Y-72487017D01*
X133461988Y-72559488D01*
X133461982Y-72559493D01*
X133359493Y-72661982D01*
X133359488Y-72661988D01*
X133287017Y-72787511D01*
X133287016Y-72787515D01*
X133249500Y-72927525D01*
X133249500Y-72927527D01*
X133249500Y-73072476D01*
X133258708Y-73106841D01*
X133257045Y-73176691D01*
X133217882Y-73234553D01*
X133153653Y-73262056D01*
X133106841Y-73258708D01*
X133072476Y-73249500D01*
X133072475Y-73249500D01*
X132927525Y-73249500D01*
X132798993Y-73283940D01*
X132787511Y-73287017D01*
X132661988Y-73359488D01*
X132661982Y-73359493D01*
X132559493Y-73461982D01*
X132559488Y-73461988D01*
X132487017Y-73587511D01*
X132487016Y-73587515D01*
X132449500Y-73727525D01*
X126800500Y-73727525D01*
X126800500Y-73677525D01*
X126762984Y-73537515D01*
X126762564Y-73536788D01*
X126690511Y-73411988D01*
X126690506Y-73411982D01*
X126588017Y-73309493D01*
X126588011Y-73309488D01*
X126462488Y-73237017D01*
X126462489Y-73237017D01*
X126451006Y-73233940D01*
X126322475Y-73199500D01*
X126177525Y-73199500D01*
X126048993Y-73233940D01*
X126037511Y-73237017D01*
X125911988Y-73309488D01*
X125911982Y-73309493D01*
X125809493Y-73411982D01*
X125809488Y-73411988D01*
X125732952Y-73544553D01*
X125730535Y-73543157D01*
X125695218Y-73586982D01*
X125628924Y-73609045D01*
X125561225Y-73591765D01*
X125513615Y-73540626D01*
X125500500Y-73485124D01*
X125500500Y-70727525D01*
X133949500Y-70727525D01*
X133949500Y-70872475D01*
X133984404Y-71002736D01*
X133987017Y-71012488D01*
X134059488Y-71138011D01*
X134059490Y-71138013D01*
X134059491Y-71138015D01*
X134161985Y-71240509D01*
X134161986Y-71240510D01*
X134161988Y-71240511D01*
X134287511Y-71312982D01*
X134287512Y-71312982D01*
X134287515Y-71312984D01*
X134427525Y-71350500D01*
X134427528Y-71350500D01*
X134572472Y-71350500D01*
X134572475Y-71350500D01*
X134712485Y-71312984D01*
X134838015Y-71240509D01*
X134940509Y-71138015D01*
X135012984Y-71012485D01*
X135050500Y-70872475D01*
X135050500Y-70727525D01*
X135012984Y-70587515D01*
X135012696Y-70587017D01*
X134940511Y-70461988D01*
X134940506Y-70461982D01*
X134838017Y-70359493D01*
X134838011Y-70359488D01*
X134792874Y-70333428D01*
X146400000Y-70333428D01*
X146400000Y-70506571D01*
X146427085Y-70677584D01*
X146480592Y-70842259D01*
X146559196Y-70996525D01*
X146563709Y-71002736D01*
X146563709Y-71002737D01*
X147017037Y-70549409D01*
X147034075Y-70612993D01*
X147099901Y-70727007D01*
X147192993Y-70820099D01*
X147307007Y-70885925D01*
X147370589Y-70902962D01*
X146917261Y-71356289D01*
X146917262Y-71356290D01*
X146923471Y-71360801D01*
X147077742Y-71439408D01*
X147242415Y-71492914D01*
X147413429Y-71520000D01*
X147586571Y-71520000D01*
X147757584Y-71492914D01*
X147922257Y-71439408D01*
X148076525Y-71360803D01*
X148082736Y-71356289D01*
X148082737Y-71356289D01*
X147753973Y-71027525D01*
X150449500Y-71027525D01*
X150449500Y-71172475D01*
X150470139Y-71249500D01*
X150487017Y-71312488D01*
X150559488Y-71438011D01*
X150559490Y-71438013D01*
X150559491Y-71438015D01*
X150661985Y-71540509D01*
X150661986Y-71540510D01*
X150661988Y-71540511D01*
X150787511Y-71612982D01*
X150787512Y-71612982D01*
X150787515Y-71612984D01*
X150927525Y-71650500D01*
X150927528Y-71650500D01*
X151072472Y-71650500D01*
X151072475Y-71650500D01*
X151212485Y-71612984D01*
X151214170Y-71612011D01*
X151214171Y-71612011D01*
X151256605Y-71587511D01*
X151338015Y-71540509D01*
X151440509Y-71438015D01*
X151512984Y-71312485D01*
X151550500Y-71172475D01*
X151550500Y-71027525D01*
X151512984Y-70887515D01*
X151486855Y-70842259D01*
X151440511Y-70761988D01*
X151440506Y-70761982D01*
X151363845Y-70685321D01*
X163814500Y-70685321D01*
X163814500Y-72434678D01*
X163829032Y-72507735D01*
X163829033Y-72507739D01*
X163829034Y-72507740D01*
X163884399Y-72590601D01*
X163967260Y-72645966D01*
X163967264Y-72645967D01*
X164040321Y-72660499D01*
X164040324Y-72660500D01*
X164040326Y-72660500D01*
X165789676Y-72660500D01*
X165789677Y-72660499D01*
X165862740Y-72645966D01*
X165945601Y-72590601D01*
X166000966Y-72507740D01*
X166015500Y-72434674D01*
X166015500Y-70685326D01*
X166015500Y-70685323D01*
X166015499Y-70685321D01*
X166000967Y-70612264D01*
X166000966Y-70612260D01*
X165984432Y-70587515D01*
X165945601Y-70529399D01*
X165862740Y-70474034D01*
X165862739Y-70474033D01*
X165862735Y-70474032D01*
X165789677Y-70459500D01*
X165789674Y-70459500D01*
X164040326Y-70459500D01*
X164040323Y-70459500D01*
X163967264Y-70474032D01*
X163967260Y-70474033D01*
X163884399Y-70529399D01*
X163829033Y-70612260D01*
X163829032Y-70612264D01*
X163814500Y-70685321D01*
X151363845Y-70685321D01*
X151338017Y-70659493D01*
X151338011Y-70659488D01*
X151212488Y-70587017D01*
X151212489Y-70587017D01*
X151201006Y-70583940D01*
X151072475Y-70549500D01*
X150927525Y-70549500D01*
X150798993Y-70583940D01*
X150787511Y-70587017D01*
X150661988Y-70659488D01*
X150661982Y-70659493D01*
X150559493Y-70761982D01*
X150559488Y-70761988D01*
X150487017Y-70887511D01*
X150487016Y-70887515D01*
X150449500Y-71027525D01*
X147753973Y-71027525D01*
X147629410Y-70902962D01*
X147692993Y-70885925D01*
X147807007Y-70820099D01*
X147900099Y-70727007D01*
X147965925Y-70612993D01*
X147982962Y-70549410D01*
X148436289Y-71002737D01*
X148436289Y-71002736D01*
X148440803Y-70996525D01*
X148440806Y-70996521D01*
X148457833Y-70963104D01*
X148457833Y-70963103D01*
X148457834Y-70963102D01*
X148519407Y-70842259D01*
X148572914Y-70677584D01*
X148600000Y-70506571D01*
X148600000Y-70333428D01*
X148572914Y-70162415D01*
X148519408Y-69997742D01*
X148440801Y-69843471D01*
X148436290Y-69837262D01*
X148436289Y-69837261D01*
X147982962Y-70290589D01*
X147965925Y-70227007D01*
X147900099Y-70112993D01*
X147807007Y-70019901D01*
X147692993Y-69954075D01*
X147629409Y-69937037D01*
X148082737Y-69483709D01*
X148076525Y-69479196D01*
X147922259Y-69400592D01*
X147757584Y-69347085D01*
X147586571Y-69320000D01*
X147413429Y-69320000D01*
X147242415Y-69347085D01*
X147077740Y-69400592D01*
X146923480Y-69479193D01*
X146923463Y-69479203D01*
X146917261Y-69483708D01*
X146917261Y-69483709D01*
X147370590Y-69937037D01*
X147307007Y-69954075D01*
X147192993Y-70019901D01*
X147099901Y-70112993D01*
X147034075Y-70227007D01*
X147017037Y-70290590D01*
X146563709Y-69837261D01*
X146563708Y-69837261D01*
X146559203Y-69843463D01*
X146559193Y-69843480D01*
X146480592Y-69997740D01*
X146427085Y-70162415D01*
X146400000Y-70333428D01*
X134792874Y-70333428D01*
X134712488Y-70287017D01*
X134712489Y-70287017D01*
X134701006Y-70283940D01*
X134572475Y-70249500D01*
X134427525Y-70249500D01*
X134298993Y-70283940D01*
X134287511Y-70287017D01*
X134161988Y-70359488D01*
X134161982Y-70359493D01*
X134059493Y-70461982D01*
X134059488Y-70461988D01*
X133987017Y-70587511D01*
X133987016Y-70587515D01*
X133949500Y-70727525D01*
X125500500Y-70727525D01*
X125500500Y-68927525D01*
X129349500Y-68927525D01*
X129349500Y-69072475D01*
X129362897Y-69122472D01*
X129387017Y-69212488D01*
X129459488Y-69338011D01*
X129459490Y-69338013D01*
X129459491Y-69338015D01*
X129561985Y-69440509D01*
X129561986Y-69440510D01*
X129561988Y-69440511D01*
X129687511Y-69512982D01*
X129687512Y-69512982D01*
X129687515Y-69512984D01*
X129827525Y-69550500D01*
X129827528Y-69550500D01*
X129972472Y-69550500D01*
X129972475Y-69550500D01*
X130112485Y-69512984D01*
X130238015Y-69440509D01*
X130340509Y-69338015D01*
X130412984Y-69212485D01*
X130450500Y-69072475D01*
X130450500Y-68977525D01*
X134399500Y-68977525D01*
X134399500Y-69122475D01*
X134437016Y-69262485D01*
X134437017Y-69262488D01*
X134509488Y-69388011D01*
X134509490Y-69388013D01*
X134509491Y-69388015D01*
X134611985Y-69490509D01*
X134611986Y-69490510D01*
X134611988Y-69490511D01*
X134737511Y-69562982D01*
X134737512Y-69562982D01*
X134737515Y-69562984D01*
X134877525Y-69600500D01*
X134877528Y-69600500D01*
X135022472Y-69600500D01*
X135022475Y-69600500D01*
X135162485Y-69562984D01*
X135288015Y-69490509D01*
X135390509Y-69388015D01*
X135462984Y-69262485D01*
X135500500Y-69122475D01*
X135500500Y-68977525D01*
X135462984Y-68837515D01*
X135434116Y-68787515D01*
X135390511Y-68711988D01*
X135390506Y-68711982D01*
X135288017Y-68609493D01*
X135288011Y-68609488D01*
X135162488Y-68537017D01*
X135162489Y-68537017D01*
X135151006Y-68533940D01*
X135022475Y-68499500D01*
X134877525Y-68499500D01*
X134748993Y-68533940D01*
X134737511Y-68537017D01*
X134611988Y-68609488D01*
X134611982Y-68609493D01*
X134509493Y-68711982D01*
X134509488Y-68711988D01*
X134437017Y-68837511D01*
X134437016Y-68837515D01*
X134399500Y-68977525D01*
X130450500Y-68977525D01*
X130450500Y-68927525D01*
X130412984Y-68787515D01*
X130396756Y-68759408D01*
X130340511Y-68661988D01*
X130340506Y-68661982D01*
X130238017Y-68559493D01*
X130238011Y-68559488D01*
X130112488Y-68487017D01*
X130112489Y-68487017D01*
X130101006Y-68483940D01*
X129972475Y-68449500D01*
X129827525Y-68449500D01*
X129698993Y-68483940D01*
X129687511Y-68487017D01*
X129561988Y-68559488D01*
X129561982Y-68559493D01*
X129459493Y-68661982D01*
X129459488Y-68661988D01*
X129387017Y-68787511D01*
X129387016Y-68787515D01*
X129349500Y-68927525D01*
X125500500Y-68927525D01*
X125500500Y-67627525D01*
X156849500Y-67627525D01*
X156849500Y-67772475D01*
X156887016Y-67912485D01*
X156887017Y-67912488D01*
X156959488Y-68038011D01*
X156959490Y-68038013D01*
X156959491Y-68038015D01*
X157061985Y-68140509D01*
X157061986Y-68140510D01*
X157061988Y-68140511D01*
X157187511Y-68212982D01*
X157187512Y-68212982D01*
X157187515Y-68212984D01*
X157327525Y-68250500D01*
X157327528Y-68250500D01*
X157472472Y-68250500D01*
X157472475Y-68250500D01*
X157612485Y-68212984D01*
X157738015Y-68140509D01*
X157840509Y-68038015D01*
X157842612Y-68034371D01*
X157845190Y-68031913D01*
X157845457Y-68031566D01*
X157845511Y-68031607D01*
X157893177Y-67986156D01*
X157961783Y-67972931D01*
X158026649Y-67998897D01*
X158057386Y-68034370D01*
X158059491Y-68038015D01*
X158161985Y-68140509D01*
X158161986Y-68140510D01*
X158161988Y-68140511D01*
X158287511Y-68212982D01*
X158287512Y-68212982D01*
X158287515Y-68212984D01*
X158427525Y-68250500D01*
X158427528Y-68250500D01*
X158572472Y-68250500D01*
X158572475Y-68250500D01*
X158712485Y-68212984D01*
X158838015Y-68140509D01*
X158940509Y-68038015D01*
X159012984Y-67912485D01*
X159050500Y-67772475D01*
X159050500Y-67653428D01*
X163815000Y-67653428D01*
X163815000Y-67826571D01*
X163842085Y-67997584D01*
X163895592Y-68162259D01*
X163974196Y-68316525D01*
X163978709Y-68322736D01*
X163978709Y-68322737D01*
X164432037Y-67869409D01*
X164449075Y-67932993D01*
X164514901Y-68047007D01*
X164607993Y-68140099D01*
X164722007Y-68205925D01*
X164785589Y-68222962D01*
X164332261Y-68676289D01*
X164332262Y-68676290D01*
X164338471Y-68680801D01*
X164492742Y-68759408D01*
X164657415Y-68812914D01*
X164828429Y-68840000D01*
X165001571Y-68840000D01*
X165172584Y-68812914D01*
X165337257Y-68759408D01*
X165491525Y-68680803D01*
X165497736Y-68676289D01*
X165497737Y-68676289D01*
X165044410Y-68222962D01*
X165107993Y-68205925D01*
X165222007Y-68140099D01*
X165315099Y-68047007D01*
X165380925Y-67932993D01*
X165397962Y-67869409D01*
X165851289Y-68322736D01*
X165855803Y-68316525D01*
X165934408Y-68162257D01*
X165987914Y-67997584D01*
X166015000Y-67826571D01*
X166015000Y-67653428D01*
X165987914Y-67482415D01*
X165934408Y-67317742D01*
X165855801Y-67163471D01*
X165851290Y-67157262D01*
X165851289Y-67157261D01*
X165397962Y-67610589D01*
X165380925Y-67547007D01*
X165315099Y-67432993D01*
X165222007Y-67339901D01*
X165107993Y-67274075D01*
X165044409Y-67257037D01*
X165497737Y-66803709D01*
X165491525Y-66799196D01*
X165337259Y-66720592D01*
X165172584Y-66667085D01*
X165001571Y-66640000D01*
X164828429Y-66640000D01*
X164657415Y-66667085D01*
X164492740Y-66720592D01*
X164338480Y-66799193D01*
X164338463Y-66799203D01*
X164332261Y-66803708D01*
X164332261Y-66803709D01*
X164785590Y-67257037D01*
X164722007Y-67274075D01*
X164607993Y-67339901D01*
X164514901Y-67432993D01*
X164449075Y-67547007D01*
X164432037Y-67610590D01*
X163978709Y-67157261D01*
X163978708Y-67157261D01*
X163974203Y-67163463D01*
X163974193Y-67163480D01*
X163895592Y-67317740D01*
X163842085Y-67482415D01*
X163815000Y-67653428D01*
X159050500Y-67653428D01*
X159050500Y-67627525D01*
X159012984Y-67487515D01*
X159006055Y-67475514D01*
X158940511Y-67361988D01*
X158940506Y-67361982D01*
X158838017Y-67259493D01*
X158838011Y-67259488D01*
X158712488Y-67187017D01*
X158712489Y-67187017D01*
X158701006Y-67183940D01*
X158572475Y-67149500D01*
X158427525Y-67149500D01*
X158298993Y-67183940D01*
X158287511Y-67187017D01*
X158161988Y-67259488D01*
X158161982Y-67259493D01*
X158059493Y-67361982D01*
X158059486Y-67361991D01*
X158057386Y-67365630D01*
X158054809Y-67368086D01*
X158054543Y-67368434D01*
X158054488Y-67368392D01*
X158006819Y-67413845D01*
X157938212Y-67427067D01*
X157873347Y-67401099D01*
X157842614Y-67365630D01*
X157840513Y-67361991D01*
X157840510Y-67361988D01*
X157840509Y-67361985D01*
X157738015Y-67259491D01*
X157738013Y-67259490D01*
X157738011Y-67259488D01*
X157612488Y-67187017D01*
X157612489Y-67187017D01*
X157601006Y-67183940D01*
X157472475Y-67149500D01*
X157327525Y-67149500D01*
X157198993Y-67183940D01*
X157187511Y-67187017D01*
X157061988Y-67259488D01*
X157061982Y-67259493D01*
X156959493Y-67361982D01*
X156959488Y-67361988D01*
X156887017Y-67487511D01*
X156887016Y-67487515D01*
X156849500Y-67627525D01*
X125500500Y-67627525D01*
X125500500Y-66939234D01*
X128834500Y-66939234D01*
X128834500Y-67090765D01*
X128873719Y-67237136D01*
X128891549Y-67268017D01*
X128949485Y-67368365D01*
X129056635Y-67475515D01*
X129170281Y-67541129D01*
X129187861Y-67551279D01*
X129187865Y-67551281D01*
X129334234Y-67590500D01*
X129334236Y-67590500D01*
X129485764Y-67590500D01*
X129485766Y-67590500D01*
X129632135Y-67551281D01*
X129763365Y-67475515D01*
X129870515Y-67368365D01*
X129946281Y-67237135D01*
X129985500Y-67090766D01*
X129985500Y-66939234D01*
X129963606Y-66857525D01*
X130999500Y-66857525D01*
X130999500Y-67002475D01*
X131023158Y-67090765D01*
X131037017Y-67142488D01*
X131109488Y-67268011D01*
X131109490Y-67268013D01*
X131109491Y-67268015D01*
X131211985Y-67370509D01*
X131211986Y-67370510D01*
X131211988Y-67370511D01*
X131337511Y-67442982D01*
X131337512Y-67442982D01*
X131337515Y-67442984D01*
X131477525Y-67480500D01*
X131477528Y-67480500D01*
X131622472Y-67480500D01*
X131622475Y-67480500D01*
X131762485Y-67442984D01*
X131888015Y-67370509D01*
X131990509Y-67268015D01*
X132062984Y-67142485D01*
X132100500Y-67002475D01*
X132100500Y-66877525D01*
X132499500Y-66877525D01*
X132499500Y-67022475D01*
X132537016Y-67162485D01*
X132537017Y-67162488D01*
X132609488Y-67288011D01*
X132609490Y-67288013D01*
X132609491Y-67288015D01*
X132711985Y-67390509D01*
X132711986Y-67390510D01*
X132711988Y-67390511D01*
X132837511Y-67462982D01*
X132837512Y-67462982D01*
X132837515Y-67462984D01*
X132977525Y-67500500D01*
X132977528Y-67500500D01*
X133122472Y-67500500D01*
X133122475Y-67500500D01*
X133262485Y-67462984D01*
X133388015Y-67390509D01*
X133490509Y-67288015D01*
X133562984Y-67162485D01*
X133600500Y-67022475D01*
X133600500Y-66939234D01*
X134614500Y-66939234D01*
X134614500Y-67090765D01*
X134653719Y-67237136D01*
X134671549Y-67268017D01*
X134729485Y-67368365D01*
X134836635Y-67475515D01*
X134950281Y-67541129D01*
X134967861Y-67551279D01*
X134967865Y-67551281D01*
X135114234Y-67590500D01*
X135114236Y-67590500D01*
X135265764Y-67590500D01*
X135265766Y-67590500D01*
X135412135Y-67551281D01*
X135543365Y-67475515D01*
X135650515Y-67368365D01*
X135726281Y-67237135D01*
X135765500Y-67090766D01*
X135765500Y-66939234D01*
X135726281Y-66792865D01*
X135650515Y-66661635D01*
X135543365Y-66554485D01*
X135465437Y-66509493D01*
X135412136Y-66478719D01*
X135338950Y-66459109D01*
X135265766Y-66439500D01*
X135114234Y-66439500D01*
X134967863Y-66478719D01*
X134836635Y-66554485D01*
X134836632Y-66554487D01*
X134729487Y-66661632D01*
X134729485Y-66661635D01*
X134653719Y-66792863D01*
X134614500Y-66939234D01*
X133600500Y-66939234D01*
X133600500Y-66877525D01*
X133562984Y-66737515D01*
X133553213Y-66720592D01*
X133490511Y-66611988D01*
X133490506Y-66611982D01*
X133388017Y-66509493D01*
X133388011Y-66509488D01*
X133262488Y-66437017D01*
X133262489Y-66437017D01*
X133251006Y-66433940D01*
X133122475Y-66399500D01*
X132977525Y-66399500D01*
X132848993Y-66433940D01*
X132837511Y-66437017D01*
X132711988Y-66509488D01*
X132711982Y-66509493D01*
X132609493Y-66611982D01*
X132609488Y-66611988D01*
X132537017Y-66737511D01*
X132537016Y-66737515D01*
X132499500Y-66877525D01*
X132100500Y-66877525D01*
X132100500Y-66857525D01*
X132062984Y-66717515D01*
X132002054Y-66611982D01*
X131990511Y-66591988D01*
X131990506Y-66591982D01*
X131888017Y-66489493D01*
X131888011Y-66489488D01*
X131762488Y-66417017D01*
X131762489Y-66417017D01*
X131751006Y-66413940D01*
X131622475Y-66379500D01*
X131477525Y-66379500D01*
X131348993Y-66413940D01*
X131337511Y-66417017D01*
X131211988Y-66489488D01*
X131211982Y-66489493D01*
X131109493Y-66591982D01*
X131109488Y-66591988D01*
X131037017Y-66717511D01*
X131032583Y-66734055D01*
X130999500Y-66857525D01*
X129963606Y-66857525D01*
X129946281Y-66792865D01*
X129870515Y-66661635D01*
X129763365Y-66554485D01*
X129685437Y-66509493D01*
X129632136Y-66478719D01*
X129558950Y-66459109D01*
X129485766Y-66439500D01*
X129334234Y-66439500D01*
X129187863Y-66478719D01*
X129056635Y-66554485D01*
X129056632Y-66554487D01*
X128949487Y-66661632D01*
X128949485Y-66661635D01*
X128873719Y-66792863D01*
X128834500Y-66939234D01*
X125500500Y-66939234D01*
X125500500Y-66734110D01*
X125500500Y-66734108D01*
X125466392Y-66606814D01*
X125400500Y-66492686D01*
X125307314Y-66399500D01*
X125250250Y-66366554D01*
X125193187Y-66333608D01*
X125129539Y-66316554D01*
X125065892Y-66299500D01*
X125065891Y-66299500D01*
X122153751Y-66299500D01*
X122146264Y-66299274D01*
X121850178Y-66281363D01*
X121835313Y-66279558D01*
X121547236Y-66226766D01*
X121532698Y-66223182D01*
X121253102Y-66136057D01*
X121239101Y-66130748D01*
X120972027Y-66010548D01*
X120958768Y-66003589D01*
X120815415Y-65916929D01*
X120708134Y-65852075D01*
X120695814Y-65843571D01*
X120465270Y-65662951D01*
X120454062Y-65653021D01*
X120246978Y-65445937D01*
X120237048Y-65434729D01*
X120079192Y-65233241D01*
X120056424Y-65204179D01*
X120047926Y-65191868D01*
X119896407Y-64941225D01*
X119889454Y-64927979D01*
X119769249Y-64660893D01*
X119763942Y-64646897D01*
X119756561Y-64623211D01*
X119676816Y-64367300D01*
X119673233Y-64352763D01*
X119620441Y-64064686D01*
X119618636Y-64049821D01*
X119614263Y-63977525D01*
X119600952Y-63757472D01*
X119600952Y-63742527D01*
X119608119Y-63624038D01*
X120549500Y-63624038D01*
X120549500Y-63875962D01*
X120572705Y-64022472D01*
X120588910Y-64124785D01*
X120666760Y-64364383D01*
X120781132Y-64588848D01*
X120929201Y-64792649D01*
X120929205Y-64792654D01*
X121107345Y-64970794D01*
X121107350Y-64970798D01*
X121285117Y-65099952D01*
X121311155Y-65118870D01*
X121454184Y-65191747D01*
X121535616Y-65233239D01*
X121535618Y-65233239D01*
X121535621Y-65233241D01*
X121775215Y-65311090D01*
X122024038Y-65350500D01*
X122024039Y-65350500D01*
X122275961Y-65350500D01*
X122275962Y-65350500D01*
X122524785Y-65311090D01*
X122764379Y-65233241D01*
X122988845Y-65118870D01*
X122996389Y-65113389D01*
X163814500Y-65113389D01*
X163814500Y-65286610D01*
X163839734Y-65445937D01*
X163841598Y-65457701D01*
X163895127Y-65622445D01*
X163973768Y-65776788D01*
X164075586Y-65916928D01*
X164198072Y-66039414D01*
X164338212Y-66141232D01*
X164492555Y-66219873D01*
X164657299Y-66273402D01*
X164828389Y-66300500D01*
X164828390Y-66300500D01*
X165001610Y-66300500D01*
X165001611Y-66300500D01*
X165172701Y-66273402D01*
X165337445Y-66219873D01*
X165491788Y-66141232D01*
X165631928Y-66039414D01*
X165754414Y-65916928D01*
X165856232Y-65776788D01*
X165934873Y-65622445D01*
X165988402Y-65457701D01*
X166015500Y-65286611D01*
X166015500Y-65113389D01*
X165988402Y-64942299D01*
X165934873Y-64777555D01*
X165856232Y-64623212D01*
X165754414Y-64483072D01*
X165631928Y-64360586D01*
X165491788Y-64258768D01*
X165337445Y-64180127D01*
X165172701Y-64126598D01*
X165172699Y-64126597D01*
X165172698Y-64126597D01*
X165041271Y-64105781D01*
X165001611Y-64099500D01*
X164828389Y-64099500D01*
X164788728Y-64105781D01*
X164657302Y-64126597D01*
X164492552Y-64180128D01*
X164338211Y-64258768D01*
X164297957Y-64288015D01*
X164198072Y-64360586D01*
X164198070Y-64360588D01*
X164198069Y-64360588D01*
X164075588Y-64483069D01*
X164075588Y-64483070D01*
X164075586Y-64483072D01*
X164062924Y-64500500D01*
X163973768Y-64623211D01*
X163895128Y-64777552D01*
X163841597Y-64942302D01*
X163814500Y-65113389D01*
X122996389Y-65113389D01*
X123067165Y-65061966D01*
X123141172Y-65008199D01*
X123192649Y-64970798D01*
X123192647Y-64970798D01*
X123192656Y-64970793D01*
X123370793Y-64792656D01*
X123518870Y-64588845D01*
X123633241Y-64364379D01*
X123711090Y-64124785D01*
X123742333Y-63927525D01*
X143049500Y-63927525D01*
X143049500Y-64072475D01*
X143078346Y-64180127D01*
X143087017Y-64212488D01*
X143159488Y-64338011D01*
X143159490Y-64338013D01*
X143159491Y-64338015D01*
X143261985Y-64440509D01*
X143261986Y-64440510D01*
X143261988Y-64440511D01*
X143387511Y-64512982D01*
X143387512Y-64512982D01*
X143387515Y-64512984D01*
X143527525Y-64550500D01*
X143527528Y-64550500D01*
X143672472Y-64550500D01*
X143672475Y-64550500D01*
X143812485Y-64512984D01*
X143938015Y-64440509D01*
X144040509Y-64338015D01*
X144112984Y-64212485D01*
X144150500Y-64072475D01*
X144150500Y-63927525D01*
X144137102Y-63877525D01*
X151099500Y-63877525D01*
X151099500Y-64022475D01*
X151127400Y-64126597D01*
X151137017Y-64162488D01*
X151209488Y-64288011D01*
X151209490Y-64288013D01*
X151209491Y-64288015D01*
X151311985Y-64390509D01*
X151311986Y-64390510D01*
X151311988Y-64390511D01*
X151437511Y-64462982D01*
X151437512Y-64462982D01*
X151437515Y-64462984D01*
X151577525Y-64500500D01*
X151577528Y-64500500D01*
X151722472Y-64500500D01*
X151722475Y-64500500D01*
X151862485Y-64462984D01*
X151988015Y-64390509D01*
X152090509Y-64288015D01*
X152162984Y-64162485D01*
X152200500Y-64022475D01*
X152200500Y-63977525D01*
X158949500Y-63977525D01*
X158949500Y-64122475D01*
X158986020Y-64258768D01*
X158987017Y-64262488D01*
X159059488Y-64388011D01*
X159059490Y-64388013D01*
X159059491Y-64388015D01*
X159161985Y-64490509D01*
X159161986Y-64490510D01*
X159161988Y-64490511D01*
X159287511Y-64562982D01*
X159287512Y-64562982D01*
X159287515Y-64562984D01*
X159427525Y-64600500D01*
X159427528Y-64600500D01*
X159572472Y-64600500D01*
X159572475Y-64600500D01*
X159712485Y-64562984D01*
X159838015Y-64490509D01*
X159940509Y-64388015D01*
X160012984Y-64262485D01*
X160050500Y-64122475D01*
X160050500Y-63977525D01*
X160012984Y-63837515D01*
X159984116Y-63787515D01*
X159940511Y-63711988D01*
X159940506Y-63711982D01*
X159838017Y-63609493D01*
X159838011Y-63609488D01*
X159712488Y-63537017D01*
X159712489Y-63537017D01*
X159701006Y-63533940D01*
X159572475Y-63499500D01*
X159427525Y-63499500D01*
X159298993Y-63533940D01*
X159287511Y-63537017D01*
X159161988Y-63609488D01*
X159161982Y-63609493D01*
X159059493Y-63711982D01*
X159059488Y-63711988D01*
X158987017Y-63837511D01*
X158987016Y-63837515D01*
X158949500Y-63977525D01*
X152200500Y-63977525D01*
X152200500Y-63877525D01*
X152162984Y-63737515D01*
X152148244Y-63711985D01*
X152090511Y-63611988D01*
X152090506Y-63611982D01*
X151988017Y-63509493D01*
X151988011Y-63509488D01*
X151862488Y-63437017D01*
X151862489Y-63437017D01*
X151851006Y-63433940D01*
X151722475Y-63399500D01*
X151577525Y-63399500D01*
X151448993Y-63433940D01*
X151437511Y-63437017D01*
X151311988Y-63509488D01*
X151311982Y-63509493D01*
X151209493Y-63611982D01*
X151209488Y-63611988D01*
X151137017Y-63737511D01*
X151137016Y-63737515D01*
X151099500Y-63877525D01*
X144137102Y-63877525D01*
X144112984Y-63787515D01*
X144097386Y-63760499D01*
X144040511Y-63661988D01*
X144040506Y-63661982D01*
X143938017Y-63559493D01*
X143938011Y-63559488D01*
X143812488Y-63487017D01*
X143812489Y-63487017D01*
X143801006Y-63483940D01*
X143672475Y-63449500D01*
X143527525Y-63449500D01*
X143398993Y-63483940D01*
X143387511Y-63487017D01*
X143261988Y-63559488D01*
X143261982Y-63559493D01*
X143159493Y-63661982D01*
X143159488Y-63661988D01*
X143087017Y-63787511D01*
X143087016Y-63787515D01*
X143049500Y-63927525D01*
X123742333Y-63927525D01*
X123750500Y-63875962D01*
X123750500Y-63624038D01*
X123711090Y-63375215D01*
X123633241Y-63135621D01*
X123633239Y-63135618D01*
X123633239Y-63135616D01*
X123591747Y-63054184D01*
X123518870Y-62911155D01*
X123466520Y-62839101D01*
X123370798Y-62707350D01*
X123370794Y-62707345D01*
X123192654Y-62529205D01*
X123192649Y-62529201D01*
X122988848Y-62381132D01*
X122988847Y-62381131D01*
X122988845Y-62381130D01*
X122918747Y-62345413D01*
X122764383Y-62266760D01*
X122524785Y-62188910D01*
X122275962Y-62149500D01*
X122024038Y-62149500D01*
X121899626Y-62169205D01*
X121775214Y-62188910D01*
X121535616Y-62266760D01*
X121311151Y-62381132D01*
X121107350Y-62529201D01*
X121107345Y-62529205D01*
X120929205Y-62707345D01*
X120929201Y-62707350D01*
X120781132Y-62911151D01*
X120666760Y-63135616D01*
X120588910Y-63375214D01*
X120577144Y-63449500D01*
X120549500Y-63624038D01*
X119608119Y-63624038D01*
X119618636Y-63450173D01*
X119620441Y-63435313D01*
X119631455Y-63375215D01*
X119673233Y-63147232D01*
X119676817Y-63132698D01*
X119707457Y-63034371D01*
X119763945Y-62853091D01*
X119769247Y-62839111D01*
X119889458Y-62572013D01*
X119896403Y-62558781D01*
X120047931Y-62308123D01*
X120056418Y-62295827D01*
X120237055Y-62065261D01*
X120246970Y-62054070D01*
X120454070Y-61846970D01*
X120465261Y-61837055D01*
X120531295Y-61785321D01*
X163814500Y-61785321D01*
X163814500Y-63534678D01*
X163829032Y-63607735D01*
X163829033Y-63607739D01*
X163829034Y-63607740D01*
X163884399Y-63690601D01*
X163954606Y-63737511D01*
X163967260Y-63745966D01*
X163967264Y-63745967D01*
X164040321Y-63760499D01*
X164040324Y-63760500D01*
X164040326Y-63760500D01*
X165789676Y-63760500D01*
X165789677Y-63760499D01*
X165862740Y-63745966D01*
X165945601Y-63690601D01*
X166000966Y-63607740D01*
X166015500Y-63534674D01*
X166015500Y-61785326D01*
X166015500Y-61785323D01*
X166015499Y-61785321D01*
X166000967Y-61712264D01*
X166000966Y-61712260D01*
X165980495Y-61681623D01*
X165945601Y-61629399D01*
X165862740Y-61574034D01*
X165862739Y-61574033D01*
X165862735Y-61574032D01*
X165789677Y-61559500D01*
X165789674Y-61559500D01*
X164040326Y-61559500D01*
X164040323Y-61559500D01*
X163967264Y-61574032D01*
X163967260Y-61574033D01*
X163884399Y-61629399D01*
X163829033Y-61712260D01*
X163829032Y-61712264D01*
X163814500Y-61785321D01*
X120531295Y-61785321D01*
X120695827Y-61656418D01*
X120708123Y-61647931D01*
X120958781Y-61496403D01*
X120972013Y-61489458D01*
X121239111Y-61369247D01*
X121253091Y-61363945D01*
X121532702Y-61276815D01*
X121547232Y-61273233D01*
X121835317Y-61220440D01*
X121850175Y-61218636D01*
X122146264Y-61200726D01*
X122153751Y-61200500D01*
X122215892Y-61200500D01*
X125334108Y-61200500D01*
X168850500Y-61200500D01*
X168917539Y-61220185D01*
G37*
%TD.AperFunction*%
%TD*%
M02*
